M48
;DRILL file {KiCad no-vcs-found-46edf65~60~ubuntu17.04.1} date Thu Jan 25 11:12:25 2018
;FORMAT={-:-/ absolute / metric / decimal}
FMAT,2
METRIC,TZ
T1C0.800
T2C1.000
T3C1.001
T4C1.016
T5C1.100
T6C3.200
%
G90
G05
M71
T1
X138.43Y-75.13
X140.93Y-75.13
T2
X172.77Y-133.49
X178.144Y-128.116
T3
X159.95Y-72.41
X159.95Y-82.57
T4
X137.79Y-97.93
X137.79Y-100.47
X137.79Y-103.01
X137.79Y-105.55
X137.79Y-108.09
X137.79Y-110.63
X137.79Y-113.17
X137.79Y-115.71
X137.79Y-118.25
X137.79Y-120.79
X137.79Y-123.33
X137.79Y-125.87
X137.79Y-128.41
X137.79Y-130.95
X137.79Y-133.49
X165.73Y-97.93
X165.73Y-100.47
X165.73Y-103.01
X165.73Y-105.55
X165.73Y-108.09
X165.73Y-110.63
X165.73Y-113.17
X165.73Y-115.71
X165.73Y-118.25
X165.73Y-120.79
X165.73Y-123.33
X165.73Y-125.87
X165.73Y-128.41
X165.73Y-130.95
X165.73Y-133.49
T5
X128.696Y-117.482
X132.99Y-126.69
X173.35Y-66.49
X173.35Y-78.99
X178.35Y-66.49
X178.35Y-78.99
X125.55Y-66.49
X125.55Y-78.99
X130.55Y-66.49
X130.55Y-78.99
X128.756Y-90.502
X133.05Y-99.71
X111.976Y-99.293
X115.511Y-102.829
X120.814Y-90.454
X124.35Y-93.99
X151.25Y-74.34
X151.25Y-77.34
X152.75Y-75.84
X152.75Y-78.84
X145.7Y-60.34
X145.7Y-65.34
X158.2Y-60.34
X158.2Y-65.34
X128.656Y-125.542
X132.95Y-134.75
X128.716Y-109.372
X133.01Y-118.58
X128.376Y-99.132
X132.67Y-108.34
X179.576Y-93.987
X183.111Y-90.451
X188.414Y-102.826
X191.95Y-99.29
T6
X120.03Y-117.5
X137.95Y-63.15
X165.97Y-63.16
X183.89Y-117.5
T0
M30
