%TF.GenerationSoftware,KiCad,Pcbnew,no-vcs-found-46edf65~60~ubuntu17.04.1*%
%TF.CreationDate,2018-01-25T11:12:12+01:00*%
%TF.ProjectId,telecomando,74656C65636F6D616E646F2E6B696361,1*%
%TF.SameCoordinates,Original*%
%TF.FileFunction,Copper,L1,Top,Signal*%
%TF.FilePolarity,Positive*%
%FSLAX46Y46*%
G04 Gerber Fmt 4.6, Leading zero omitted, Abs format (unit mm)*
G04 Created by KiCad (PCBNEW no-vcs-found-46edf65~60~ubuntu17.04.1) date Thu Jan 25 11:12:12 2018*
%MOMM*%
%LPD*%
G01*
G04 APERTURE LIST*
%TA.AperFunction,NonConductor*%
%ADD10C,0.300000*%
%TD*%
%TA.AperFunction,NonConductor*%
%ADD11C,0.400000*%
%TD*%
%TA.AperFunction,EtchedComponent*%
%ADD12C,0.010000*%
%TD*%
%TA.AperFunction,ComponentPad*%
%ADD13C,1.998980*%
%TD*%
%TA.AperFunction,ComponentPad*%
%ADD14O,2.032000X1.727200*%
%TD*%
%TA.AperFunction,ComponentPad*%
%ADD15C,3.048000*%
%TD*%
%TA.AperFunction,ComponentPad*%
%ADD16R,1.600000X1.600000*%
%TD*%
%TA.AperFunction,ComponentPad*%
%ADD17C,1.600000*%
%TD*%
%TA.AperFunction,ComponentPad*%
%ADD18C,2.000000*%
%TD*%
%TA.AperFunction,Conductor*%
%ADD19C,0.100000*%
%TD*%
%TA.AperFunction,ComponentPad*%
%ADD20C,1.500000*%
%TD*%
%TA.AperFunction,ViaPad*%
%ADD21C,5.000000*%
%TD*%
%TA.AperFunction,Conductor*%
%ADD22C,0.250000*%
%TD*%
%TA.AperFunction,Conductor*%
%ADD23C,0.600000*%
%TD*%
%TA.AperFunction,NonConductor*%
%ADD24C,0.254000*%
%TD*%
G04 APERTURE END LIST*
D10*
X176315714Y-124497142D02*
X176387142Y-124568571D01*
X176458571Y-124782857D01*
X176458571Y-124925714D01*
X176387142Y-125140000D01*
X176244285Y-125282857D01*
X176101428Y-125354285D01*
X175815714Y-125425714D01*
X175601428Y-125425714D01*
X175315714Y-125354285D01*
X175172857Y-125282857D01*
X175030000Y-125140000D01*
X174958571Y-124925714D01*
X174958571Y-124782857D01*
X175030000Y-124568571D01*
X175101428Y-124497142D01*
X176458571Y-123854285D02*
X174958571Y-123854285D01*
X175672857Y-123854285D02*
X175672857Y-122997142D01*
X176458571Y-122997142D02*
X174958571Y-122997142D01*
X176458571Y-122282857D02*
X174958571Y-122282857D01*
X176458571Y-121568571D02*
X174958571Y-121568571D01*
X174958571Y-120997142D01*
X175030000Y-120854285D01*
X175101428Y-120782857D01*
X175244285Y-120711428D01*
X175458571Y-120711428D01*
X175601428Y-120782857D01*
X175672857Y-120854285D01*
X175744285Y-120997142D01*
X175744285Y-121568571D01*
X176458571Y-118925714D02*
X174958571Y-118925714D01*
X176458571Y-118211428D02*
X174958571Y-118211428D01*
X174958571Y-117854285D01*
X175030000Y-117640000D01*
X175172857Y-117497142D01*
X175315714Y-117425714D01*
X175601428Y-117354285D01*
X175815714Y-117354285D01*
X176101428Y-117425714D01*
X176244285Y-117497142D01*
X176387142Y-117640000D01*
X176458571Y-117854285D01*
X176458571Y-118211428D01*
X158153571Y-100169196D02*
X157439285Y-100579910D01*
X158153571Y-101026339D02*
X156653571Y-100838839D01*
X156653571Y-100267410D01*
X156725000Y-100133482D01*
X156796428Y-100070982D01*
X156939285Y-100017410D01*
X157153571Y-100044196D01*
X157296428Y-100133482D01*
X157367857Y-100213839D01*
X157439285Y-100365625D01*
X157439285Y-100937053D01*
X157367857Y-99428125D02*
X157367857Y-98928125D01*
X158153571Y-98812053D02*
X158153571Y-99526339D01*
X156653571Y-99338839D01*
X156653571Y-98624553D01*
X156653571Y-98195982D02*
X158153571Y-97883482D01*
X156653571Y-97195982D01*
X158010714Y-96865625D02*
X158082142Y-96803125D01*
X158153571Y-96883482D01*
X158082142Y-96945982D01*
X158010714Y-96865625D01*
X158153571Y-96883482D01*
X158153571Y-94240625D02*
X158153571Y-95097767D01*
X158153571Y-94669196D02*
X156653571Y-94481696D01*
X156867857Y-94651339D01*
X157010714Y-94812053D01*
X157082142Y-94963839D01*
X159203571Y-102374553D02*
X159203571Y-102088839D01*
X159275000Y-101954910D01*
X159417857Y-101829910D01*
X159703571Y-101794196D01*
X160203571Y-101856696D01*
X160489285Y-101963839D01*
X160632142Y-102124553D01*
X160703571Y-102276339D01*
X160703571Y-102562053D01*
X160632142Y-102695982D01*
X160489285Y-102820982D01*
X160203571Y-102856696D01*
X159703571Y-102794196D01*
X159417857Y-102687053D01*
X159275000Y-102526339D01*
X159203571Y-102374553D01*
X160560714Y-100401339D02*
X160632142Y-100481696D01*
X160703571Y-100704910D01*
X160703571Y-100847767D01*
X160632142Y-101053125D01*
X160489285Y-101178125D01*
X160346428Y-101231696D01*
X160060714Y-101267410D01*
X159846428Y-101240625D01*
X159560714Y-101133482D01*
X159417857Y-101044196D01*
X159275000Y-100883482D01*
X159203571Y-100660267D01*
X159203571Y-100517410D01*
X159275000Y-100312053D01*
X159346428Y-100249553D01*
X159203571Y-99803125D02*
X159203571Y-98945982D01*
X160703571Y-99562053D02*
X159203571Y-99374553D01*
X159346428Y-97392410D02*
X159275000Y-97312053D01*
X159203571Y-97160267D01*
X159203571Y-96803125D01*
X159275000Y-96669196D01*
X159346428Y-96606696D01*
X159489285Y-96553125D01*
X159632142Y-96570982D01*
X159846428Y-96669196D01*
X160703571Y-97633482D01*
X160703571Y-96704910D01*
X159203571Y-95588839D02*
X159203571Y-95445982D01*
X159275000Y-95312053D01*
X159346428Y-95249553D01*
X159489285Y-95195982D01*
X159775000Y-95160267D01*
X160132142Y-95204910D01*
X160417857Y-95312053D01*
X160560714Y-95401339D01*
X160632142Y-95481696D01*
X160703571Y-95633482D01*
X160703571Y-95776339D01*
X160632142Y-95910267D01*
X160560714Y-95972767D01*
X160417857Y-96026339D01*
X160132142Y-96062053D01*
X159775000Y-96017410D01*
X159489285Y-95910267D01*
X159346428Y-95820982D01*
X159275000Y-95740625D01*
X159203571Y-95588839D01*
X160703571Y-93847767D02*
X160703571Y-94704910D01*
X160703571Y-94276339D02*
X159203571Y-94088839D01*
X159417857Y-94258482D01*
X159560714Y-94419196D01*
X159632142Y-94570982D01*
X159203571Y-93160267D02*
X159203571Y-92160267D01*
X160703571Y-92990625D01*
X154273571Y-134090625D02*
X152773571Y-133903125D01*
X152773571Y-133545982D01*
X152845000Y-133340625D01*
X152987857Y-133215625D01*
X153130714Y-133162053D01*
X153416428Y-133126339D01*
X153630714Y-133153125D01*
X153916428Y-133260267D01*
X154059285Y-133349553D01*
X154202142Y-133510267D01*
X154273571Y-133733482D01*
X154273571Y-134090625D01*
X153487857Y-132492410D02*
X153487857Y-131992410D01*
X154273571Y-131876339D02*
X154273571Y-132590625D01*
X152773571Y-132403125D01*
X152773571Y-131688839D01*
X154202142Y-131295982D02*
X154273571Y-131090625D01*
X154273571Y-130733482D01*
X154202142Y-130581696D01*
X154130714Y-130501339D01*
X153987857Y-130412053D01*
X153845000Y-130394196D01*
X153702142Y-130447767D01*
X153630714Y-130510267D01*
X153559285Y-130644196D01*
X153487857Y-130920982D01*
X153416428Y-131054910D01*
X153345000Y-131117410D01*
X153202142Y-131170982D01*
X153059285Y-131153125D01*
X152916428Y-131063839D01*
X152845000Y-130983482D01*
X152773571Y-130831696D01*
X152773571Y-130474553D01*
X152845000Y-130269196D01*
X154273571Y-129804910D02*
X152773571Y-129617410D01*
X152845000Y-128126339D02*
X152773571Y-128260267D01*
X152773571Y-128474553D01*
X152845000Y-128697767D01*
X152987857Y-128858482D01*
X153130714Y-128947767D01*
X153416428Y-129054910D01*
X153630714Y-129081696D01*
X153916428Y-129045982D01*
X154059285Y-128992410D01*
X154202142Y-128867410D01*
X154273571Y-128662053D01*
X154273571Y-128519196D01*
X154202142Y-128295982D01*
X154130714Y-128215625D01*
X153630714Y-128153125D01*
X153630714Y-128438839D01*
X154273571Y-127590625D02*
X152773571Y-127403125D01*
X154273571Y-126733482D01*
X152773571Y-126545982D01*
X153487857Y-125920982D02*
X153487857Y-125420982D01*
X154273571Y-125304910D02*
X154273571Y-126019196D01*
X152773571Y-125831696D01*
X152773571Y-125117410D01*
X154273571Y-124662053D02*
X152773571Y-124474553D01*
X152773571Y-124117410D01*
X152845000Y-123912053D01*
X152987857Y-123787053D01*
X153130714Y-123733482D01*
X153416428Y-123697767D01*
X153630714Y-123724553D01*
X153916428Y-123831696D01*
X154059285Y-123920982D01*
X154202142Y-124081696D01*
X154273571Y-124304910D01*
X154273571Y-124662053D01*
X154273571Y-120804910D02*
X154273571Y-120876339D01*
X154202142Y-121010267D01*
X153987857Y-121197767D01*
X153559285Y-121501339D01*
X153345000Y-121617410D01*
X153130714Y-121662053D01*
X152987857Y-121644196D01*
X152845000Y-121554910D01*
X152773571Y-121403125D01*
X152773571Y-121331696D01*
X152845000Y-121197767D01*
X152987857Y-121144196D01*
X153059285Y-121153125D01*
X153202142Y-121242410D01*
X153273571Y-121322767D01*
X153559285Y-121787053D01*
X153630714Y-121867410D01*
X153773571Y-121956696D01*
X153987857Y-121983482D01*
X154130714Y-121929910D01*
X154202142Y-121867410D01*
X154273571Y-121733482D01*
X154273571Y-121519196D01*
X154202142Y-121367410D01*
X154130714Y-121287053D01*
X153845000Y-121037053D01*
X153630714Y-120938839D01*
X153487857Y-120920982D01*
X153487857Y-118920982D02*
X153487857Y-118420982D01*
X154273571Y-118304910D02*
X154273571Y-119019196D01*
X152773571Y-118831696D01*
X152773571Y-118117410D01*
X154273571Y-117662053D02*
X152773571Y-117474553D01*
X154273571Y-116804910D01*
X152773571Y-116617410D01*
X152845000Y-115126339D02*
X152773571Y-115260267D01*
X152773571Y-115474553D01*
X152845000Y-115697767D01*
X152987857Y-115858482D01*
X153130714Y-115947767D01*
X153416428Y-116054910D01*
X153630714Y-116081696D01*
X153916428Y-116045982D01*
X154059285Y-115992410D01*
X154202142Y-115867410D01*
X154273571Y-115662053D01*
X154273571Y-115519196D01*
X154202142Y-115295982D01*
X154130714Y-115215625D01*
X153630714Y-115153125D01*
X153630714Y-115438839D01*
X154273571Y-114590625D02*
X152773571Y-114403125D01*
X154273571Y-113876339D02*
X152773571Y-113688839D01*
X154273571Y-113019196D01*
X152773571Y-112831696D01*
X153487857Y-112206696D02*
X153487857Y-111706696D01*
X154273571Y-111590625D02*
X154273571Y-112304910D01*
X152773571Y-112117410D01*
X152773571Y-111403125D01*
X153487857Y-110849553D02*
X153487857Y-110349553D01*
X154273571Y-110233482D02*
X154273571Y-110947767D01*
X152773571Y-110760267D01*
X152773571Y-110045982D01*
X154273571Y-108733482D02*
X153559285Y-109144196D01*
X154273571Y-109590625D02*
X152773571Y-109403125D01*
X152773571Y-108831696D01*
X152845000Y-108697767D01*
X152916428Y-108635267D01*
X153059285Y-108581696D01*
X153273571Y-108608482D01*
X153416428Y-108697767D01*
X153487857Y-108778125D01*
X153559285Y-108929910D01*
X153559285Y-109501339D01*
X153487857Y-107992410D02*
X153487857Y-107492410D01*
X154273571Y-107376339D02*
X154273571Y-108090625D01*
X152773571Y-107903125D01*
X152773571Y-107188839D01*
X154273571Y-106733482D02*
X152773571Y-106545982D01*
X152773571Y-106188839D01*
X152845000Y-105983482D01*
X152987857Y-105858482D01*
X153130714Y-105804910D01*
X153416428Y-105769196D01*
X153630714Y-105795982D01*
X153916428Y-105903125D01*
X154059285Y-105992410D01*
X154202142Y-106153125D01*
X154273571Y-106376339D01*
X154273571Y-106733482D01*
X156037857Y-130206696D02*
X156109285Y-130001339D01*
X156180714Y-129938839D01*
X156323571Y-129885267D01*
X156537857Y-129912053D01*
X156680714Y-130001339D01*
X156752142Y-130081696D01*
X156823571Y-130233482D01*
X156823571Y-130804910D01*
X155323571Y-130617410D01*
X155323571Y-130117410D01*
X155395000Y-129983482D01*
X155466428Y-129920982D01*
X155609285Y-129867410D01*
X155752142Y-129885267D01*
X155895000Y-129974553D01*
X155966428Y-130054910D01*
X156037857Y-130206696D01*
X156037857Y-130706696D01*
X156109285Y-128929910D02*
X156823571Y-129019196D01*
X155323571Y-129331696D02*
X156109285Y-128929910D01*
X155323571Y-128331696D01*
X156823571Y-126876339D02*
X155323571Y-126688839D01*
X156395000Y-126322767D01*
X155323571Y-125688839D01*
X156823571Y-125876339D01*
X156823571Y-125162053D02*
X155323571Y-124974553D01*
X156680714Y-123572767D02*
X156752142Y-123653125D01*
X156823571Y-123876339D01*
X156823571Y-124019196D01*
X156752142Y-124224553D01*
X156609285Y-124349553D01*
X156466428Y-124403125D01*
X156180714Y-124438839D01*
X155966428Y-124412053D01*
X155680714Y-124304910D01*
X155537857Y-124215625D01*
X155395000Y-124054910D01*
X155323571Y-123831696D01*
X155323571Y-123688839D01*
X155395000Y-123483482D01*
X155466428Y-123420982D01*
X156823571Y-122947767D02*
X155323571Y-122760267D01*
X156037857Y-122849553D02*
X156037857Y-121992410D01*
X156823571Y-122090625D02*
X155323571Y-121903125D01*
X156037857Y-121278125D02*
X156037857Y-120778125D01*
X156823571Y-120662053D02*
X156823571Y-121376339D01*
X155323571Y-121188839D01*
X155323571Y-120474553D01*
X156823571Y-119304910D02*
X156823571Y-120019196D01*
X155323571Y-119831696D01*
X156037857Y-118706696D02*
X156037857Y-118206696D01*
X156823571Y-118090625D02*
X156823571Y-118804910D01*
X155323571Y-118617410D01*
X155323571Y-117903125D01*
X156823571Y-116304910D02*
X155323571Y-116117410D01*
X155323571Y-115545982D01*
X155395000Y-115412053D01*
X155466428Y-115349553D01*
X155609285Y-115295982D01*
X155823571Y-115322767D01*
X155966428Y-115412053D01*
X156037857Y-115492410D01*
X156109285Y-115644196D01*
X156109285Y-116215625D01*
X156823571Y-114804910D02*
X155323571Y-114617410D01*
X156823571Y-113233482D02*
X156109285Y-113644196D01*
X156823571Y-114090625D02*
X155323571Y-113903125D01*
X155323571Y-113331696D01*
X155395000Y-113197767D01*
X155466428Y-113135267D01*
X155609285Y-113081696D01*
X155823571Y-113108482D01*
X155966428Y-113197767D01*
X156037857Y-113278125D01*
X156109285Y-113429910D01*
X156109285Y-114001339D01*
X155323571Y-112117410D02*
X155323571Y-111831696D01*
X155395000Y-111697767D01*
X155537857Y-111572767D01*
X155823571Y-111537053D01*
X156323571Y-111599553D01*
X156609285Y-111706696D01*
X156752142Y-111867410D01*
X156823571Y-112019196D01*
X156823571Y-112304910D01*
X156752142Y-112438839D01*
X156609285Y-112563839D01*
X156323571Y-112599553D01*
X155823571Y-112537053D01*
X155537857Y-112429910D01*
X155395000Y-112269196D01*
X155323571Y-112117410D01*
X156823571Y-110304910D02*
X156823571Y-111019196D01*
X155323571Y-110831696D01*
X156395000Y-109822767D02*
X156395000Y-109108482D01*
X156823571Y-110019196D02*
X155323571Y-109331696D01*
X156823571Y-109019196D01*
X157873571Y-132653125D02*
X157873571Y-132367410D01*
X157945000Y-132233482D01*
X158087857Y-132108482D01*
X158373571Y-132072767D01*
X158873571Y-132135267D01*
X159159285Y-132242410D01*
X159302142Y-132403125D01*
X159373571Y-132554910D01*
X159373571Y-132840625D01*
X159302142Y-132974553D01*
X159159285Y-133099553D01*
X158873571Y-133135267D01*
X158373571Y-133072767D01*
X158087857Y-132965625D01*
X157945000Y-132804910D01*
X157873571Y-132653125D01*
X159373571Y-131554910D02*
X157873571Y-131367410D01*
X157873571Y-130795982D01*
X157945000Y-130662053D01*
X158016428Y-130599553D01*
X158159285Y-130545982D01*
X158373571Y-130572767D01*
X158516428Y-130662053D01*
X158587857Y-130742410D01*
X158659285Y-130894196D01*
X158659285Y-131465625D01*
X158587857Y-129956696D02*
X158587857Y-129456696D01*
X159373571Y-129340625D02*
X159373571Y-130054910D01*
X157873571Y-129867410D01*
X157873571Y-129153125D01*
X159373571Y-128697767D02*
X157873571Y-128510267D01*
X159373571Y-127840625D01*
X157873571Y-127653125D01*
X159302142Y-126045982D02*
X159373571Y-125840625D01*
X159373571Y-125483482D01*
X159302142Y-125331696D01*
X159230714Y-125251339D01*
X159087857Y-125162053D01*
X158945000Y-125144196D01*
X158802142Y-125197767D01*
X158730714Y-125260267D01*
X158659285Y-125394196D01*
X158587857Y-125670982D01*
X158516428Y-125804910D01*
X158445000Y-125867410D01*
X158302142Y-125920982D01*
X158159285Y-125903125D01*
X158016428Y-125813839D01*
X157945000Y-125733482D01*
X157873571Y-125581696D01*
X157873571Y-125224553D01*
X157945000Y-125019196D01*
X157873571Y-124081696D02*
X157873571Y-123795982D01*
X157945000Y-123662053D01*
X158087857Y-123537053D01*
X158373571Y-123501339D01*
X158873571Y-123563839D01*
X159159285Y-123670982D01*
X159302142Y-123831696D01*
X159373571Y-123983482D01*
X159373571Y-124269196D01*
X159302142Y-124403125D01*
X159159285Y-124528125D01*
X158873571Y-124563839D01*
X158373571Y-124501339D01*
X158087857Y-124394196D01*
X157945000Y-124233482D01*
X157873571Y-124081696D01*
X157873571Y-122795982D02*
X159087857Y-122947767D01*
X159230714Y-122894196D01*
X159302142Y-122831696D01*
X159373571Y-122697767D01*
X159373571Y-122412053D01*
X159302142Y-122260267D01*
X159230714Y-122179910D01*
X159087857Y-122090625D01*
X157873571Y-121938839D01*
X159373571Y-120554910D02*
X158659285Y-120965625D01*
X159373571Y-121412053D02*
X157873571Y-121224553D01*
X157873571Y-120653125D01*
X157945000Y-120519196D01*
X158016428Y-120456696D01*
X158159285Y-120403125D01*
X158373571Y-120429910D01*
X158516428Y-120519196D01*
X158587857Y-120599553D01*
X158659285Y-120751339D01*
X158659285Y-121322767D01*
X159230714Y-119037053D02*
X159302142Y-119117410D01*
X159373571Y-119340625D01*
X159373571Y-119483482D01*
X159302142Y-119688839D01*
X159159285Y-119813839D01*
X159016428Y-119867410D01*
X158730714Y-119903125D01*
X158516428Y-119876339D01*
X158230714Y-119769196D01*
X158087857Y-119679910D01*
X157945000Y-119519196D01*
X157873571Y-119295982D01*
X157873571Y-119153125D01*
X157945000Y-118947767D01*
X158016428Y-118885267D01*
X158587857Y-118313839D02*
X158587857Y-117813839D01*
X159373571Y-117697767D02*
X159373571Y-118412053D01*
X157873571Y-118224553D01*
X157873571Y-117510267D01*
X159373571Y-115912053D02*
X157873571Y-115724553D01*
X157873571Y-115153125D01*
X157945000Y-115019196D01*
X158016428Y-114956696D01*
X158159285Y-114903125D01*
X158373571Y-114929910D01*
X158516428Y-115019196D01*
X158587857Y-115099553D01*
X158659285Y-115251339D01*
X158659285Y-115822767D01*
X159373571Y-113554910D02*
X158659285Y-113965625D01*
X159373571Y-114412053D02*
X157873571Y-114224553D01*
X157873571Y-113653125D01*
X157945000Y-113519196D01*
X158016428Y-113456696D01*
X158159285Y-113403125D01*
X158373571Y-113429910D01*
X158516428Y-113519196D01*
X158587857Y-113599553D01*
X158659285Y-113751339D01*
X158659285Y-114322767D01*
X157873571Y-112438839D02*
X157873571Y-112153125D01*
X157945000Y-112019196D01*
X158087857Y-111894196D01*
X158373571Y-111858482D01*
X158873571Y-111920982D01*
X159159285Y-112028125D01*
X159302142Y-112188839D01*
X159373571Y-112340625D01*
X159373571Y-112626339D01*
X159302142Y-112760267D01*
X159159285Y-112885267D01*
X158873571Y-112920982D01*
X158373571Y-112858482D01*
X158087857Y-112751339D01*
X157945000Y-112590625D01*
X157873571Y-112438839D01*
X157873571Y-110724553D02*
X158945000Y-110858482D01*
X159159285Y-110956696D01*
X159302142Y-111117410D01*
X159373571Y-111340625D01*
X159373571Y-111483482D01*
X158587857Y-110099553D02*
X158587857Y-109599553D01*
X159373571Y-109483482D02*
X159373571Y-110197767D01*
X157873571Y-110010267D01*
X157873571Y-109295982D01*
X159230714Y-107965625D02*
X159302142Y-108045982D01*
X159373571Y-108269196D01*
X159373571Y-108412053D01*
X159302142Y-108617410D01*
X159159285Y-108742410D01*
X159016428Y-108795982D01*
X158730714Y-108831696D01*
X158516428Y-108804910D01*
X158230714Y-108697767D01*
X158087857Y-108608482D01*
X157945000Y-108447767D01*
X157873571Y-108224553D01*
X157873571Y-108081696D01*
X157945000Y-107876339D01*
X158016428Y-107813839D01*
X157873571Y-107367410D02*
X157873571Y-106510267D01*
X159373571Y-107126339D02*
X157873571Y-106938839D01*
X161495000Y-125644196D02*
X161495000Y-124929910D01*
X161923571Y-125840625D02*
X160423571Y-125153125D01*
X161923571Y-124840625D01*
X161923571Y-124340625D02*
X160423571Y-124153125D01*
X161852142Y-123688839D02*
X161923571Y-123483482D01*
X161923571Y-123126339D01*
X161852142Y-122974553D01*
X161780714Y-122894196D01*
X161637857Y-122804910D01*
X161495000Y-122787053D01*
X161352142Y-122840625D01*
X161280714Y-122903125D01*
X161209285Y-123037053D01*
X161137857Y-123313839D01*
X161066428Y-123447767D01*
X160995000Y-123510267D01*
X160852142Y-123563839D01*
X160709285Y-123545982D01*
X160566428Y-123456696D01*
X160495000Y-123376339D01*
X160423571Y-123224553D01*
X160423571Y-122867410D01*
X160495000Y-122662053D01*
X161137857Y-121599553D02*
X161137857Y-122099553D01*
X161923571Y-122197767D02*
X160423571Y-122010267D01*
X160423571Y-121295982D01*
X161923571Y-119769196D02*
X160423571Y-119581696D01*
X160423571Y-119010267D01*
X160495000Y-118876339D01*
X160566428Y-118813839D01*
X160709285Y-118760267D01*
X160923571Y-118787053D01*
X161066428Y-118876339D01*
X161137857Y-118956696D01*
X161209285Y-119108482D01*
X161209285Y-119679910D01*
X161495000Y-118287053D02*
X161495000Y-117572767D01*
X161923571Y-118483482D02*
X160423571Y-117795982D01*
X161923571Y-117483482D01*
X160423571Y-117010267D02*
X161923571Y-116697767D01*
X160423571Y-116010267D01*
X161923571Y-115697767D02*
X160423571Y-115510267D01*
X161495000Y-115001339D02*
X161495000Y-114287053D01*
X161923571Y-115197767D02*
X160423571Y-114510267D01*
X161923571Y-114197767D01*
D11*
X146667142Y-125833809D02*
X146762380Y-125548095D01*
X146857619Y-125452857D01*
X147048095Y-125357619D01*
X147333809Y-125357619D01*
X147524285Y-125452857D01*
X147619523Y-125548095D01*
X147714761Y-125738571D01*
X147714761Y-126500476D01*
X145714761Y-126500476D01*
X145714761Y-125833809D01*
X145810000Y-125643333D01*
X145905238Y-125548095D01*
X146095714Y-125452857D01*
X146286190Y-125452857D01*
X146476666Y-125548095D01*
X146571904Y-125643333D01*
X146667142Y-125833809D01*
X146667142Y-126500476D01*
X145714761Y-124119523D02*
X145714761Y-123738571D01*
X145810000Y-123548095D01*
X146000476Y-123357619D01*
X146381428Y-123262380D01*
X147048095Y-123262380D01*
X147429047Y-123357619D01*
X147619523Y-123548095D01*
X147714761Y-123738571D01*
X147714761Y-124119523D01*
X147619523Y-124310000D01*
X147429047Y-124500476D01*
X147048095Y-124595714D01*
X146381428Y-124595714D01*
X146000476Y-124500476D01*
X145810000Y-124310000D01*
X145714761Y-124119523D01*
X145714761Y-122690952D02*
X145714761Y-121548095D01*
X147714761Y-122119523D02*
X145714761Y-122119523D01*
X145714761Y-121167142D02*
X145714761Y-120024285D01*
X147714761Y-120595714D02*
X145714761Y-120595714D01*
X147143333Y-119452857D02*
X147143333Y-118500476D01*
X147714761Y-119643333D02*
X145714761Y-118976666D01*
X147714761Y-118310000D01*
X147714761Y-116119523D02*
X145714761Y-116119523D01*
X145714761Y-115643333D01*
X145810000Y-115357619D01*
X146000476Y-115167142D01*
X146190952Y-115071904D01*
X146571904Y-114976666D01*
X146857619Y-114976666D01*
X147238571Y-115071904D01*
X147429047Y-115167142D01*
X147619523Y-115357619D01*
X147714761Y-115643333D01*
X147714761Y-116119523D01*
X147714761Y-114119523D02*
X145714761Y-114119523D01*
X150924285Y-125786190D02*
X151019523Y-125881428D01*
X151114761Y-126167142D01*
X151114761Y-126357619D01*
X151019523Y-126643333D01*
X150829047Y-126833809D01*
X150638571Y-126929047D01*
X150257619Y-127024285D01*
X149971904Y-127024285D01*
X149590952Y-126929047D01*
X149400476Y-126833809D01*
X149210000Y-126643333D01*
X149114761Y-126357619D01*
X149114761Y-126167142D01*
X149210000Y-125881428D01*
X149305238Y-125786190D01*
X149114761Y-124548095D02*
X149114761Y-124167142D01*
X149210000Y-123976666D01*
X149400476Y-123786190D01*
X149781428Y-123690952D01*
X150448095Y-123690952D01*
X150829047Y-123786190D01*
X151019523Y-123976666D01*
X151114761Y-124167142D01*
X151114761Y-124548095D01*
X151019523Y-124738571D01*
X150829047Y-124929047D01*
X150448095Y-125024285D01*
X149781428Y-125024285D01*
X149400476Y-124929047D01*
X149210000Y-124738571D01*
X149114761Y-124548095D01*
X149114761Y-122833809D02*
X150733809Y-122833809D01*
X150924285Y-122738571D01*
X151019523Y-122643333D01*
X151114761Y-122452857D01*
X151114761Y-122071904D01*
X151019523Y-121881428D01*
X150924285Y-121786190D01*
X150733809Y-121690952D01*
X149114761Y-121690952D01*
X151114761Y-119786190D02*
X151114761Y-120738571D01*
X149114761Y-120738571D01*
X149114761Y-118738571D02*
X149114761Y-118357619D01*
X149210000Y-118167142D01*
X149400476Y-117976666D01*
X149781428Y-117881428D01*
X150448095Y-117881428D01*
X150829047Y-117976666D01*
X151019523Y-118167142D01*
X151114761Y-118357619D01*
X151114761Y-118738571D01*
X151019523Y-118929047D01*
X150829047Y-119119523D01*
X150448095Y-119214761D01*
X149781428Y-119214761D01*
X149400476Y-119119523D01*
X149210000Y-118929047D01*
X149114761Y-118738571D01*
X151114761Y-117024285D02*
X149114761Y-117024285D01*
X150543333Y-116357619D01*
X149114761Y-115690952D01*
X151114761Y-115690952D01*
X150067142Y-114071904D02*
X150162380Y-113786190D01*
X150257619Y-113690952D01*
X150448095Y-113595714D01*
X150733809Y-113595714D01*
X150924285Y-113690952D01*
X151019523Y-113786190D01*
X151114761Y-113976666D01*
X151114761Y-114738571D01*
X149114761Y-114738571D01*
X149114761Y-114071904D01*
X149210000Y-113881428D01*
X149305238Y-113786190D01*
X149495714Y-113690952D01*
X149686190Y-113690952D01*
X149876666Y-113786190D01*
X149971904Y-113881428D01*
X150067142Y-114071904D01*
X150067142Y-114738571D01*
D12*
%TO.C,G\002A\002A\002A*%
G36*
X180811065Y-104319410D02*
X180843006Y-104332167D01*
X180864865Y-104355739D01*
X180888961Y-104391161D01*
X180892896Y-104398015D01*
X180919727Y-104446319D01*
X181497858Y-104593660D01*
X181969658Y-104717266D01*
X182416437Y-104841208D01*
X182837825Y-104965359D01*
X183233453Y-105089599D01*
X183602950Y-105213802D01*
X183945945Y-105337845D01*
X184262069Y-105461605D01*
X184550951Y-105584958D01*
X184760165Y-105682281D01*
X185005723Y-105806478D01*
X185224461Y-105928318D01*
X185417301Y-106048526D01*
X185585163Y-106167823D01*
X185728971Y-106286932D01*
X185849644Y-106406576D01*
X185948105Y-106527478D01*
X186025275Y-106650361D01*
X186045800Y-106690587D01*
X186085766Y-106780480D01*
X186111430Y-106857843D01*
X186125292Y-106932438D01*
X186129848Y-107014026D01*
X186129879Y-107019195D01*
X186116734Y-107149458D01*
X186076989Y-107282268D01*
X186011660Y-107416120D01*
X185921761Y-107549509D01*
X185808309Y-107680927D01*
X185672320Y-107808869D01*
X185514810Y-107931829D01*
X185513750Y-107932586D01*
X185419204Y-107996143D01*
X185303779Y-108067359D01*
X185172504Y-108143512D01*
X185030410Y-108221880D01*
X184882527Y-108299743D01*
X184733886Y-108374377D01*
X184589517Y-108443061D01*
X184478329Y-108492826D01*
X184222995Y-108598811D01*
X183941521Y-108707179D01*
X183635527Y-108817380D01*
X183306630Y-108928862D01*
X182956448Y-109041074D01*
X182586600Y-109153465D01*
X182260907Y-109247895D01*
X182148944Y-109279738D01*
X182060951Y-109305077D01*
X181994040Y-109325014D01*
X181945325Y-109340649D01*
X181911918Y-109353081D01*
X181890933Y-109363411D01*
X181879483Y-109372740D01*
X181874680Y-109382167D01*
X181873638Y-109392793D01*
X181873627Y-109395493D01*
X181876144Y-109417752D01*
X181883297Y-109463991D01*
X181894488Y-109530771D01*
X181909119Y-109614655D01*
X181926592Y-109712207D01*
X181946310Y-109819987D01*
X181963506Y-109912370D01*
X181995363Y-110082279D01*
X182022355Y-110226934D01*
X182044732Y-110348520D01*
X182062741Y-110449221D01*
X182076633Y-110531223D01*
X182086656Y-110596711D01*
X182093059Y-110647870D01*
X182096090Y-110686885D01*
X182095999Y-110715941D01*
X182093035Y-110737224D01*
X182087446Y-110752918D01*
X182079481Y-110765208D01*
X182069389Y-110776281D01*
X182062668Y-110782997D01*
X182017016Y-110811012D01*
X181962687Y-110819118D01*
X181909666Y-110807362D01*
X181873406Y-110782128D01*
X181865131Y-110771127D01*
X181856780Y-110754479D01*
X181847805Y-110729826D01*
X181837660Y-110694814D01*
X181825795Y-110647087D01*
X181811664Y-110584289D01*
X181794720Y-110504064D01*
X181774414Y-110404057D01*
X181750200Y-110281911D01*
X181721529Y-110135271D01*
X181713656Y-110094793D01*
X181586905Y-109442583D01*
X181552326Y-109447069D01*
X181528827Y-109451607D01*
X181482760Y-109461748D01*
X181418664Y-109476446D01*
X181341081Y-109494655D01*
X181254551Y-109515328D01*
X181224671Y-109522546D01*
X181120544Y-109547337D01*
X181037853Y-109565790D01*
X180971078Y-109578817D01*
X180914700Y-109587330D01*
X180863201Y-109592242D01*
X180811061Y-109594465D01*
X180787395Y-109594818D01*
X180721990Y-109594980D01*
X180678473Y-109593331D01*
X180650828Y-109588757D01*
X180633039Y-109580143D01*
X180619091Y-109566375D01*
X180616434Y-109563152D01*
X180594166Y-109516759D01*
X180592349Y-109465031D01*
X180610897Y-109419031D01*
X180617613Y-109410876D01*
X180630761Y-109399121D01*
X180649364Y-109387597D01*
X180676102Y-109375481D01*
X180713653Y-109361952D01*
X180764695Y-109346185D01*
X180831909Y-109327360D01*
X180917971Y-109304653D01*
X181025563Y-109277242D01*
X181157362Y-109244306D01*
X181172335Y-109240588D01*
X181287953Y-109211422D01*
X181378226Y-109187540D01*
X181445098Y-109168346D01*
X181490510Y-109153248D01*
X181516405Y-109141651D01*
X181524725Y-109132962D01*
X181524726Y-109132876D01*
X181522131Y-109117151D01*
X181514532Y-109075480D01*
X181502207Y-109009325D01*
X181485436Y-108920147D01*
X181464496Y-108809408D01*
X181439667Y-108678570D01*
X181411226Y-108529094D01*
X181379454Y-108362441D01*
X181344627Y-108180074D01*
X181307025Y-107983454D01*
X181266926Y-107774043D01*
X181224609Y-107553302D01*
X181180353Y-107322693D01*
X181134436Y-107083678D01*
X181099180Y-106900319D01*
X180687547Y-104760330D01*
X180986753Y-104760330D01*
X180987425Y-104773857D01*
X180993276Y-104813767D01*
X181004118Y-104879049D01*
X181019764Y-104968695D01*
X181040028Y-105081694D01*
X181064723Y-105217038D01*
X181093661Y-105373716D01*
X181126655Y-105550721D01*
X181163518Y-105747041D01*
X181204064Y-105961668D01*
X181248104Y-106193592D01*
X181295453Y-106441805D01*
X181345923Y-106705295D01*
X181380479Y-106885138D01*
X181435606Y-107171712D01*
X181485704Y-107432129D01*
X181531017Y-107667637D01*
X181571791Y-107879489D01*
X181608273Y-108068933D01*
X181640709Y-108237220D01*
X181669345Y-108385601D01*
X181694427Y-108515327D01*
X181716201Y-108627647D01*
X181734914Y-108723812D01*
X181750810Y-108805073D01*
X181764137Y-108872680D01*
X181775141Y-108927883D01*
X181784067Y-108971934D01*
X181791161Y-109006081D01*
X181796671Y-109031576D01*
X181800841Y-109049670D01*
X181803918Y-109061612D01*
X181806148Y-109068653D01*
X181807778Y-109072044D01*
X181809053Y-109073034D01*
X181810219Y-109072875D01*
X181811016Y-109072747D01*
X181825655Y-109069036D01*
X181863554Y-109058573D01*
X181921161Y-109042362D01*
X181994924Y-109021409D01*
X182081291Y-108996718D01*
X182176710Y-108969295D01*
X182177097Y-108969184D01*
X182610889Y-108840131D01*
X183016837Y-108710963D01*
X183395007Y-108581651D01*
X183745464Y-108452169D01*
X184068277Y-108322488D01*
X184363512Y-108192582D01*
X184631236Y-108062423D01*
X184871515Y-107931983D01*
X185084416Y-107801236D01*
X185187426Y-107730918D01*
X185324019Y-107624279D01*
X185443045Y-107511609D01*
X185541983Y-107395825D01*
X185618315Y-107279841D01*
X185665644Y-107177580D01*
X185690177Y-107090186D01*
X185695570Y-107008673D01*
X185681983Y-106922160D01*
X185670008Y-106879630D01*
X185619334Y-106761013D01*
X185540844Y-106641537D01*
X185434620Y-106521248D01*
X185300743Y-106400189D01*
X185139296Y-106278404D01*
X184950359Y-106155937D01*
X184734015Y-106032833D01*
X184490344Y-105909135D01*
X184219430Y-105784888D01*
X183921353Y-105660136D01*
X183596195Y-105534923D01*
X183244038Y-105409294D01*
X182864963Y-105283291D01*
X182515605Y-105174091D01*
X182402432Y-105140131D01*
X182278500Y-105103764D01*
X182146658Y-105065763D01*
X182009756Y-105026898D01*
X181870646Y-104987940D01*
X181732178Y-104949662D01*
X181597201Y-104912834D01*
X181468568Y-104878228D01*
X181349127Y-104846616D01*
X181241729Y-104818768D01*
X181149226Y-104795457D01*
X181074467Y-104777454D01*
X181020303Y-104765530D01*
X180989584Y-104760456D01*
X180986753Y-104760330D01*
X180687547Y-104760330D01*
X180673634Y-104688004D01*
X180630186Y-104647417D01*
X180602184Y-104617001D01*
X180591978Y-104589066D01*
X180593771Y-104554487D01*
X180605297Y-104498021D01*
X180623621Y-104439053D01*
X180645511Y-104385845D01*
X180667738Y-104346659D01*
X180680426Y-104332915D01*
X180715887Y-104319296D01*
X180763834Y-104314774D01*
X180811065Y-104319410D01*
X180811065Y-104319410D01*
G37*
X180811065Y-104319410D02*
X180843006Y-104332167D01*
X180864865Y-104355739D01*
X180888961Y-104391161D01*
X180892896Y-104398015D01*
X180919727Y-104446319D01*
X181497858Y-104593660D01*
X181969658Y-104717266D01*
X182416437Y-104841208D01*
X182837825Y-104965359D01*
X183233453Y-105089599D01*
X183602950Y-105213802D01*
X183945945Y-105337845D01*
X184262069Y-105461605D01*
X184550951Y-105584958D01*
X184760165Y-105682281D01*
X185005723Y-105806478D01*
X185224461Y-105928318D01*
X185417301Y-106048526D01*
X185585163Y-106167823D01*
X185728971Y-106286932D01*
X185849644Y-106406576D01*
X185948105Y-106527478D01*
X186025275Y-106650361D01*
X186045800Y-106690587D01*
X186085766Y-106780480D01*
X186111430Y-106857843D01*
X186125292Y-106932438D01*
X186129848Y-107014026D01*
X186129879Y-107019195D01*
X186116734Y-107149458D01*
X186076989Y-107282268D01*
X186011660Y-107416120D01*
X185921761Y-107549509D01*
X185808309Y-107680927D01*
X185672320Y-107808869D01*
X185514810Y-107931829D01*
X185513750Y-107932586D01*
X185419204Y-107996143D01*
X185303779Y-108067359D01*
X185172504Y-108143512D01*
X185030410Y-108221880D01*
X184882527Y-108299743D01*
X184733886Y-108374377D01*
X184589517Y-108443061D01*
X184478329Y-108492826D01*
X184222995Y-108598811D01*
X183941521Y-108707179D01*
X183635527Y-108817380D01*
X183306630Y-108928862D01*
X182956448Y-109041074D01*
X182586600Y-109153465D01*
X182260907Y-109247895D01*
X182148944Y-109279738D01*
X182060951Y-109305077D01*
X181994040Y-109325014D01*
X181945325Y-109340649D01*
X181911918Y-109353081D01*
X181890933Y-109363411D01*
X181879483Y-109372740D01*
X181874680Y-109382167D01*
X181873638Y-109392793D01*
X181873627Y-109395493D01*
X181876144Y-109417752D01*
X181883297Y-109463991D01*
X181894488Y-109530771D01*
X181909119Y-109614655D01*
X181926592Y-109712207D01*
X181946310Y-109819987D01*
X181963506Y-109912370D01*
X181995363Y-110082279D01*
X182022355Y-110226934D01*
X182044732Y-110348520D01*
X182062741Y-110449221D01*
X182076633Y-110531223D01*
X182086656Y-110596711D01*
X182093059Y-110647870D01*
X182096090Y-110686885D01*
X182095999Y-110715941D01*
X182093035Y-110737224D01*
X182087446Y-110752918D01*
X182079481Y-110765208D01*
X182069389Y-110776281D01*
X182062668Y-110782997D01*
X182017016Y-110811012D01*
X181962687Y-110819118D01*
X181909666Y-110807362D01*
X181873406Y-110782128D01*
X181865131Y-110771127D01*
X181856780Y-110754479D01*
X181847805Y-110729826D01*
X181837660Y-110694814D01*
X181825795Y-110647087D01*
X181811664Y-110584289D01*
X181794720Y-110504064D01*
X181774414Y-110404057D01*
X181750200Y-110281911D01*
X181721529Y-110135271D01*
X181713656Y-110094793D01*
X181586905Y-109442583D01*
X181552326Y-109447069D01*
X181528827Y-109451607D01*
X181482760Y-109461748D01*
X181418664Y-109476446D01*
X181341081Y-109494655D01*
X181254551Y-109515328D01*
X181224671Y-109522546D01*
X181120544Y-109547337D01*
X181037853Y-109565790D01*
X180971078Y-109578817D01*
X180914700Y-109587330D01*
X180863201Y-109592242D01*
X180811061Y-109594465D01*
X180787395Y-109594818D01*
X180721990Y-109594980D01*
X180678473Y-109593331D01*
X180650828Y-109588757D01*
X180633039Y-109580143D01*
X180619091Y-109566375D01*
X180616434Y-109563152D01*
X180594166Y-109516759D01*
X180592349Y-109465031D01*
X180610897Y-109419031D01*
X180617613Y-109410876D01*
X180630761Y-109399121D01*
X180649364Y-109387597D01*
X180676102Y-109375481D01*
X180713653Y-109361952D01*
X180764695Y-109346185D01*
X180831909Y-109327360D01*
X180917971Y-109304653D01*
X181025563Y-109277242D01*
X181157362Y-109244306D01*
X181172335Y-109240588D01*
X181287953Y-109211422D01*
X181378226Y-109187540D01*
X181445098Y-109168346D01*
X181490510Y-109153248D01*
X181516405Y-109141651D01*
X181524725Y-109132962D01*
X181524726Y-109132876D01*
X181522131Y-109117151D01*
X181514532Y-109075480D01*
X181502207Y-109009325D01*
X181485436Y-108920147D01*
X181464496Y-108809408D01*
X181439667Y-108678570D01*
X181411226Y-108529094D01*
X181379454Y-108362441D01*
X181344627Y-108180074D01*
X181307025Y-107983454D01*
X181266926Y-107774043D01*
X181224609Y-107553302D01*
X181180353Y-107322693D01*
X181134436Y-107083678D01*
X181099180Y-106900319D01*
X180687547Y-104760330D01*
X180986753Y-104760330D01*
X180987425Y-104773857D01*
X180993276Y-104813767D01*
X181004118Y-104879049D01*
X181019764Y-104968695D01*
X181040028Y-105081694D01*
X181064723Y-105217038D01*
X181093661Y-105373716D01*
X181126655Y-105550721D01*
X181163518Y-105747041D01*
X181204064Y-105961668D01*
X181248104Y-106193592D01*
X181295453Y-106441805D01*
X181345923Y-106705295D01*
X181380479Y-106885138D01*
X181435606Y-107171712D01*
X181485704Y-107432129D01*
X181531017Y-107667637D01*
X181571791Y-107879489D01*
X181608273Y-108068933D01*
X181640709Y-108237220D01*
X181669345Y-108385601D01*
X181694427Y-108515327D01*
X181716201Y-108627647D01*
X181734914Y-108723812D01*
X181750810Y-108805073D01*
X181764137Y-108872680D01*
X181775141Y-108927883D01*
X181784067Y-108971934D01*
X181791161Y-109006081D01*
X181796671Y-109031576D01*
X181800841Y-109049670D01*
X181803918Y-109061612D01*
X181806148Y-109068653D01*
X181807778Y-109072044D01*
X181809053Y-109073034D01*
X181810219Y-109072875D01*
X181811016Y-109072747D01*
X181825655Y-109069036D01*
X181863554Y-109058573D01*
X181921161Y-109042362D01*
X181994924Y-109021409D01*
X182081291Y-108996718D01*
X182176710Y-108969295D01*
X182177097Y-108969184D01*
X182610889Y-108840131D01*
X183016837Y-108710963D01*
X183395007Y-108581651D01*
X183745464Y-108452169D01*
X184068277Y-108322488D01*
X184363512Y-108192582D01*
X184631236Y-108062423D01*
X184871515Y-107931983D01*
X185084416Y-107801236D01*
X185187426Y-107730918D01*
X185324019Y-107624279D01*
X185443045Y-107511609D01*
X185541983Y-107395825D01*
X185618315Y-107279841D01*
X185665644Y-107177580D01*
X185690177Y-107090186D01*
X185695570Y-107008673D01*
X185681983Y-106922160D01*
X185670008Y-106879630D01*
X185619334Y-106761013D01*
X185540844Y-106641537D01*
X185434620Y-106521248D01*
X185300743Y-106400189D01*
X185139296Y-106278404D01*
X184950359Y-106155937D01*
X184734015Y-106032833D01*
X184490344Y-105909135D01*
X184219430Y-105784888D01*
X183921353Y-105660136D01*
X183596195Y-105534923D01*
X183244038Y-105409294D01*
X182864963Y-105283291D01*
X182515605Y-105174091D01*
X182402432Y-105140131D01*
X182278500Y-105103764D01*
X182146658Y-105065763D01*
X182009756Y-105026898D01*
X181870646Y-104987940D01*
X181732178Y-104949662D01*
X181597201Y-104912834D01*
X181468568Y-104878228D01*
X181349127Y-104846616D01*
X181241729Y-104818768D01*
X181149226Y-104795457D01*
X181074467Y-104777454D01*
X181020303Y-104765530D01*
X180989584Y-104760456D01*
X180986753Y-104760330D01*
X180687547Y-104760330D01*
X180673634Y-104688004D01*
X180630186Y-104647417D01*
X180602184Y-104617001D01*
X180591978Y-104589066D01*
X180593771Y-104554487D01*
X180605297Y-104498021D01*
X180623621Y-104439053D01*
X180645511Y-104385845D01*
X180667738Y-104346659D01*
X180680426Y-104332915D01*
X180715887Y-104319296D01*
X180763834Y-104314774D01*
X180811065Y-104319410D01*
G36*
X179515043Y-104352943D02*
X179563905Y-104386013D01*
X179594379Y-104439639D01*
X179597572Y-104450556D01*
X179599895Y-104472501D01*
X179602476Y-104520096D01*
X179605258Y-104591083D01*
X179608186Y-104683203D01*
X179611202Y-104794196D01*
X179614249Y-104921803D01*
X179617271Y-105063765D01*
X179620211Y-105217823D01*
X179623011Y-105381716D01*
X179625616Y-105553187D01*
X179626047Y-105583737D01*
X179631688Y-105978072D01*
X179637269Y-106345751D01*
X179642835Y-106688027D01*
X179648426Y-107006157D01*
X179654085Y-107301394D01*
X179659855Y-107574994D01*
X179665778Y-107828211D01*
X179671896Y-108062302D01*
X179678252Y-108278519D01*
X179684888Y-108478119D01*
X179691846Y-108662356D01*
X179699169Y-108832485D01*
X179706898Y-108989762D01*
X179715077Y-109135440D01*
X179723748Y-109270776D01*
X179732953Y-109397023D01*
X179742734Y-109515437D01*
X179753135Y-109627273D01*
X179764196Y-109733785D01*
X179766949Y-109758651D01*
X179790310Y-109949291D01*
X179815243Y-110115590D01*
X179842577Y-110261108D01*
X179873144Y-110389408D01*
X179907775Y-110504050D01*
X179947301Y-110608595D01*
X179984237Y-110689879D01*
X180018002Y-110753372D01*
X180055670Y-110812713D01*
X180098227Y-110868057D01*
X180146654Y-110919558D01*
X180201936Y-110967372D01*
X180265055Y-111011652D01*
X180336995Y-111052554D01*
X180418739Y-111090232D01*
X180511270Y-111124840D01*
X180615571Y-111156534D01*
X180732626Y-111185468D01*
X180863417Y-111211797D01*
X181008929Y-111235676D01*
X181170143Y-111257258D01*
X181348044Y-111276699D01*
X181543615Y-111294154D01*
X181757838Y-111309777D01*
X181991698Y-111323723D01*
X182246176Y-111336146D01*
X182522258Y-111347201D01*
X182820924Y-111357043D01*
X183143160Y-111365826D01*
X183489948Y-111373705D01*
X183862271Y-111380836D01*
X184261112Y-111387371D01*
X184434561Y-111389944D01*
X184611456Y-111392587D01*
X184785649Y-111395358D01*
X184954298Y-111398202D01*
X185114562Y-111401064D01*
X185263598Y-111403888D01*
X185398567Y-111406619D01*
X185516624Y-111409201D01*
X185614930Y-111411581D01*
X185690643Y-111413701D01*
X185735956Y-111415293D01*
X185831741Y-111419605D01*
X185903316Y-111424604D01*
X185954362Y-111432031D01*
X185988560Y-111443623D01*
X186009593Y-111461119D01*
X186021142Y-111486260D01*
X186026888Y-111520783D01*
X186029614Y-111554001D01*
X186031949Y-111600767D01*
X186028149Y-111629849D01*
X186014802Y-111651342D01*
X185988667Y-111675199D01*
X185941813Y-111714739D01*
X184909066Y-111705744D01*
X184503354Y-111701692D01*
X184123883Y-111696810D01*
X183768993Y-111691052D01*
X183437025Y-111684372D01*
X183126318Y-111676724D01*
X182835213Y-111668063D01*
X182562050Y-111658341D01*
X182305168Y-111647514D01*
X182062909Y-111635535D01*
X181833612Y-111622358D01*
X181782912Y-111619178D01*
X181508765Y-111599569D01*
X181260769Y-111577095D01*
X181037268Y-111551256D01*
X180836601Y-111521552D01*
X180657110Y-111487482D01*
X180497135Y-111448546D01*
X180355017Y-111404244D01*
X180229098Y-111354075D01*
X180117718Y-111297539D01*
X180019219Y-111234137D01*
X179931940Y-111163367D01*
X179854224Y-111084729D01*
X179802537Y-111022017D01*
X179754859Y-110954986D01*
X179710596Y-110882194D01*
X179669598Y-110802468D01*
X179631717Y-110714637D01*
X179596804Y-110617528D01*
X179564710Y-110509969D01*
X179535286Y-110390787D01*
X179508382Y-110258810D01*
X179483851Y-110112866D01*
X179461543Y-109951782D01*
X179441309Y-109774386D01*
X179423001Y-109579507D01*
X179406468Y-109365970D01*
X179391563Y-109132605D01*
X179378137Y-108878239D01*
X179366040Y-108601699D01*
X179355124Y-108301814D01*
X179345240Y-107977410D01*
X179336238Y-107627316D01*
X179328852Y-107293352D01*
X179312693Y-106511813D01*
X179259949Y-106811868D01*
X179211790Y-107074002D01*
X179164037Y-107309558D01*
X179116307Y-107519859D01*
X179068214Y-107706228D01*
X179019373Y-107869987D01*
X178969400Y-108012460D01*
X178917909Y-108134968D01*
X178864515Y-108238837D01*
X178827247Y-108299014D01*
X178752784Y-108393493D01*
X178674933Y-108460357D01*
X178593994Y-108499655D01*
X178510268Y-108511440D01*
X178424053Y-108495764D01*
X178335649Y-108452676D01*
X178245355Y-108382230D01*
X178153470Y-108284476D01*
X178066360Y-108168382D01*
X178037440Y-108123410D01*
X177998178Y-108058395D01*
X177951251Y-107977982D01*
X177899337Y-107886820D01*
X177845112Y-107789553D01*
X177791398Y-107691099D01*
X177697709Y-107520108D01*
X177614202Y-107373765D01*
X177540136Y-107251032D01*
X177474769Y-107150872D01*
X177417359Y-107072247D01*
X177367165Y-107014119D01*
X177323446Y-106975451D01*
X177285460Y-106955205D01*
X177262912Y-106951429D01*
X177222343Y-106965111D01*
X177179572Y-107005312D01*
X177135045Y-107070764D01*
X177089206Y-107160200D01*
X177042502Y-107272354D01*
X176995376Y-107405957D01*
X176948275Y-107559742D01*
X176901645Y-107732442D01*
X176855929Y-107922789D01*
X176811574Y-108129516D01*
X176769025Y-108351356D01*
X176766912Y-108363047D01*
X176725699Y-108602530D01*
X176684687Y-108862573D01*
X176643754Y-109144140D01*
X176602777Y-109448196D01*
X176561633Y-109775703D01*
X176520200Y-110127626D01*
X176478355Y-110504928D01*
X176435975Y-110908574D01*
X176409471Y-111171549D01*
X176395150Y-111313337D01*
X176382700Y-111429868D01*
X176371633Y-111523698D01*
X176361461Y-111597382D01*
X176351696Y-111653475D01*
X176341849Y-111694534D01*
X176331434Y-111723112D01*
X176319962Y-111741767D01*
X176306945Y-111753053D01*
X176297562Y-111757595D01*
X176263363Y-111764461D01*
X176221283Y-111765472D01*
X176184955Y-111760847D01*
X176171774Y-111755583D01*
X176135873Y-111716153D01*
X176115558Y-111657288D01*
X176109841Y-111585219D01*
X176111405Y-111537188D01*
X176115881Y-111464061D01*
X176123014Y-111368473D01*
X176132549Y-111253062D01*
X176144230Y-111120462D01*
X176157804Y-110973310D01*
X176173014Y-110814241D01*
X176189606Y-110645891D01*
X176207325Y-110470897D01*
X176225916Y-110291894D01*
X176245123Y-110111517D01*
X176264692Y-109932404D01*
X176284368Y-109757189D01*
X176298916Y-109630989D01*
X176347525Y-109231616D01*
X176397053Y-108858708D01*
X176447470Y-108512410D01*
X176498748Y-108192870D01*
X176550858Y-107900235D01*
X176603771Y-107634652D01*
X176657458Y-107396267D01*
X176711890Y-107185227D01*
X176767039Y-107001679D01*
X176822874Y-106845770D01*
X176868616Y-106739781D01*
X176935318Y-106619498D01*
X177008378Y-106525061D01*
X177086736Y-106456738D01*
X177169334Y-106414797D01*
X177255111Y-106399505D01*
X177343006Y-106411132D01*
X177431962Y-106449944D01*
X177520917Y-106516210D01*
X177568058Y-106562940D01*
X177609703Y-106610571D01*
X177651889Y-106664691D01*
X177696401Y-106728131D01*
X177745019Y-106803720D01*
X177799528Y-106894289D01*
X177861709Y-107002668D01*
X177933346Y-107131688D01*
X177978958Y-107215299D01*
X178056423Y-107357125D01*
X178122843Y-107476579D01*
X178179785Y-107576187D01*
X178228818Y-107658476D01*
X178271509Y-107725973D01*
X178309428Y-107781205D01*
X178344143Y-107826698D01*
X178377221Y-107864980D01*
X178391638Y-107880165D01*
X178441640Y-107925784D01*
X178485152Y-107951210D01*
X178524526Y-107955322D01*
X178562112Y-107937000D01*
X178600261Y-107895124D01*
X178641326Y-107828573D01*
X178685902Y-107739945D01*
X178740458Y-107611102D01*
X178794053Y-107457300D01*
X178846742Y-107278253D01*
X178898580Y-107073675D01*
X178949622Y-106843282D01*
X178999923Y-106586786D01*
X179049538Y-106303903D01*
X179098521Y-105994348D01*
X179146929Y-105657834D01*
X179194815Y-105294076D01*
X179242234Y-104902788D01*
X179257769Y-104767757D01*
X179269248Y-104672530D01*
X179280996Y-104585457D01*
X179292323Y-104510934D01*
X179302540Y-104453358D01*
X179310957Y-104417123D01*
X179314050Y-104408803D01*
X179342803Y-104370026D01*
X179383235Y-104348775D01*
X179442093Y-104341705D01*
X179449453Y-104341649D01*
X179515043Y-104352943D01*
X179515043Y-104352943D01*
G37*
X179515043Y-104352943D02*
X179563905Y-104386013D01*
X179594379Y-104439639D01*
X179597572Y-104450556D01*
X179599895Y-104472501D01*
X179602476Y-104520096D01*
X179605258Y-104591083D01*
X179608186Y-104683203D01*
X179611202Y-104794196D01*
X179614249Y-104921803D01*
X179617271Y-105063765D01*
X179620211Y-105217823D01*
X179623011Y-105381716D01*
X179625616Y-105553187D01*
X179626047Y-105583737D01*
X179631688Y-105978072D01*
X179637269Y-106345751D01*
X179642835Y-106688027D01*
X179648426Y-107006157D01*
X179654085Y-107301394D01*
X179659855Y-107574994D01*
X179665778Y-107828211D01*
X179671896Y-108062302D01*
X179678252Y-108278519D01*
X179684888Y-108478119D01*
X179691846Y-108662356D01*
X179699169Y-108832485D01*
X179706898Y-108989762D01*
X179715077Y-109135440D01*
X179723748Y-109270776D01*
X179732953Y-109397023D01*
X179742734Y-109515437D01*
X179753135Y-109627273D01*
X179764196Y-109733785D01*
X179766949Y-109758651D01*
X179790310Y-109949291D01*
X179815243Y-110115590D01*
X179842577Y-110261108D01*
X179873144Y-110389408D01*
X179907775Y-110504050D01*
X179947301Y-110608595D01*
X179984237Y-110689879D01*
X180018002Y-110753372D01*
X180055670Y-110812713D01*
X180098227Y-110868057D01*
X180146654Y-110919558D01*
X180201936Y-110967372D01*
X180265055Y-111011652D01*
X180336995Y-111052554D01*
X180418739Y-111090232D01*
X180511270Y-111124840D01*
X180615571Y-111156534D01*
X180732626Y-111185468D01*
X180863417Y-111211797D01*
X181008929Y-111235676D01*
X181170143Y-111257258D01*
X181348044Y-111276699D01*
X181543615Y-111294154D01*
X181757838Y-111309777D01*
X181991698Y-111323723D01*
X182246176Y-111336146D01*
X182522258Y-111347201D01*
X182820924Y-111357043D01*
X183143160Y-111365826D01*
X183489948Y-111373705D01*
X183862271Y-111380836D01*
X184261112Y-111387371D01*
X184434561Y-111389944D01*
X184611456Y-111392587D01*
X184785649Y-111395358D01*
X184954298Y-111398202D01*
X185114562Y-111401064D01*
X185263598Y-111403888D01*
X185398567Y-111406619D01*
X185516624Y-111409201D01*
X185614930Y-111411581D01*
X185690643Y-111413701D01*
X185735956Y-111415293D01*
X185831741Y-111419605D01*
X185903316Y-111424604D01*
X185954362Y-111432031D01*
X185988560Y-111443623D01*
X186009593Y-111461119D01*
X186021142Y-111486260D01*
X186026888Y-111520783D01*
X186029614Y-111554001D01*
X186031949Y-111600767D01*
X186028149Y-111629849D01*
X186014802Y-111651342D01*
X185988667Y-111675199D01*
X185941813Y-111714739D01*
X184909066Y-111705744D01*
X184503354Y-111701692D01*
X184123883Y-111696810D01*
X183768993Y-111691052D01*
X183437025Y-111684372D01*
X183126318Y-111676724D01*
X182835213Y-111668063D01*
X182562050Y-111658341D01*
X182305168Y-111647514D01*
X182062909Y-111635535D01*
X181833612Y-111622358D01*
X181782912Y-111619178D01*
X181508765Y-111599569D01*
X181260769Y-111577095D01*
X181037268Y-111551256D01*
X180836601Y-111521552D01*
X180657110Y-111487482D01*
X180497135Y-111448546D01*
X180355017Y-111404244D01*
X180229098Y-111354075D01*
X180117718Y-111297539D01*
X180019219Y-111234137D01*
X179931940Y-111163367D01*
X179854224Y-111084729D01*
X179802537Y-111022017D01*
X179754859Y-110954986D01*
X179710596Y-110882194D01*
X179669598Y-110802468D01*
X179631717Y-110714637D01*
X179596804Y-110617528D01*
X179564710Y-110509969D01*
X179535286Y-110390787D01*
X179508382Y-110258810D01*
X179483851Y-110112866D01*
X179461543Y-109951782D01*
X179441309Y-109774386D01*
X179423001Y-109579507D01*
X179406468Y-109365970D01*
X179391563Y-109132605D01*
X179378137Y-108878239D01*
X179366040Y-108601699D01*
X179355124Y-108301814D01*
X179345240Y-107977410D01*
X179336238Y-107627316D01*
X179328852Y-107293352D01*
X179312693Y-106511813D01*
X179259949Y-106811868D01*
X179211790Y-107074002D01*
X179164037Y-107309558D01*
X179116307Y-107519859D01*
X179068214Y-107706228D01*
X179019373Y-107869987D01*
X178969400Y-108012460D01*
X178917909Y-108134968D01*
X178864515Y-108238837D01*
X178827247Y-108299014D01*
X178752784Y-108393493D01*
X178674933Y-108460357D01*
X178593994Y-108499655D01*
X178510268Y-108511440D01*
X178424053Y-108495764D01*
X178335649Y-108452676D01*
X178245355Y-108382230D01*
X178153470Y-108284476D01*
X178066360Y-108168382D01*
X178037440Y-108123410D01*
X177998178Y-108058395D01*
X177951251Y-107977982D01*
X177899337Y-107886820D01*
X177845112Y-107789553D01*
X177791398Y-107691099D01*
X177697709Y-107520108D01*
X177614202Y-107373765D01*
X177540136Y-107251032D01*
X177474769Y-107150872D01*
X177417359Y-107072247D01*
X177367165Y-107014119D01*
X177323446Y-106975451D01*
X177285460Y-106955205D01*
X177262912Y-106951429D01*
X177222343Y-106965111D01*
X177179572Y-107005312D01*
X177135045Y-107070764D01*
X177089206Y-107160200D01*
X177042502Y-107272354D01*
X176995376Y-107405957D01*
X176948275Y-107559742D01*
X176901645Y-107732442D01*
X176855929Y-107922789D01*
X176811574Y-108129516D01*
X176769025Y-108351356D01*
X176766912Y-108363047D01*
X176725699Y-108602530D01*
X176684687Y-108862573D01*
X176643754Y-109144140D01*
X176602777Y-109448196D01*
X176561633Y-109775703D01*
X176520200Y-110127626D01*
X176478355Y-110504928D01*
X176435975Y-110908574D01*
X176409471Y-111171549D01*
X176395150Y-111313337D01*
X176382700Y-111429868D01*
X176371633Y-111523698D01*
X176361461Y-111597382D01*
X176351696Y-111653475D01*
X176341849Y-111694534D01*
X176331434Y-111723112D01*
X176319962Y-111741767D01*
X176306945Y-111753053D01*
X176297562Y-111757595D01*
X176263363Y-111764461D01*
X176221283Y-111765472D01*
X176184955Y-111760847D01*
X176171774Y-111755583D01*
X176135873Y-111716153D01*
X176115558Y-111657288D01*
X176109841Y-111585219D01*
X176111405Y-111537188D01*
X176115881Y-111464061D01*
X176123014Y-111368473D01*
X176132549Y-111253062D01*
X176144230Y-111120462D01*
X176157804Y-110973310D01*
X176173014Y-110814241D01*
X176189606Y-110645891D01*
X176207325Y-110470897D01*
X176225916Y-110291894D01*
X176245123Y-110111517D01*
X176264692Y-109932404D01*
X176284368Y-109757189D01*
X176298916Y-109630989D01*
X176347525Y-109231616D01*
X176397053Y-108858708D01*
X176447470Y-108512410D01*
X176498748Y-108192870D01*
X176550858Y-107900235D01*
X176603771Y-107634652D01*
X176657458Y-107396267D01*
X176711890Y-107185227D01*
X176767039Y-107001679D01*
X176822874Y-106845770D01*
X176868616Y-106739781D01*
X176935318Y-106619498D01*
X177008378Y-106525061D01*
X177086736Y-106456738D01*
X177169334Y-106414797D01*
X177255111Y-106399505D01*
X177343006Y-106411132D01*
X177431962Y-106449944D01*
X177520917Y-106516210D01*
X177568058Y-106562940D01*
X177609703Y-106610571D01*
X177651889Y-106664691D01*
X177696401Y-106728131D01*
X177745019Y-106803720D01*
X177799528Y-106894289D01*
X177861709Y-107002668D01*
X177933346Y-107131688D01*
X177978958Y-107215299D01*
X178056423Y-107357125D01*
X178122843Y-107476579D01*
X178179785Y-107576187D01*
X178228818Y-107658476D01*
X178271509Y-107725973D01*
X178309428Y-107781205D01*
X178344143Y-107826698D01*
X178377221Y-107864980D01*
X178391638Y-107880165D01*
X178441640Y-107925784D01*
X178485152Y-107951210D01*
X178524526Y-107955322D01*
X178562112Y-107937000D01*
X178600261Y-107895124D01*
X178641326Y-107828573D01*
X178685902Y-107739945D01*
X178740458Y-107611102D01*
X178794053Y-107457300D01*
X178846742Y-107278253D01*
X178898580Y-107073675D01*
X178949622Y-106843282D01*
X178999923Y-106586786D01*
X179049538Y-106303903D01*
X179098521Y-105994348D01*
X179146929Y-105657834D01*
X179194815Y-105294076D01*
X179242234Y-104902788D01*
X179257769Y-104767757D01*
X179269248Y-104672530D01*
X179280996Y-104585457D01*
X179292323Y-104510934D01*
X179302540Y-104453358D01*
X179310957Y-104417123D01*
X179314050Y-104408803D01*
X179342803Y-104370026D01*
X179383235Y-104348775D01*
X179442093Y-104341705D01*
X179449453Y-104341649D01*
X179515043Y-104352943D01*
%TD*%
D13*
%TO.P,R1,1*%
%TO.N,Net-(J1-Pad1)*%
X132670000Y-108340000D03*
%TO.P,R1,2*%
%TO.N,GND*%
X128376198Y-99131913D03*
%TD*%
D14*
%TO.P,U1,1*%
%TO.N,Net-(U1-Pad1)*%
X165730000Y-97930000D03*
%TO.P,U1,2*%
%TO.N,Net-(U1-Pad2)*%
X165730000Y-100470000D03*
%TO.P,U1,3*%
%TO.N,Net-(U1-Pad3)*%
X165730000Y-103010000D03*
%TO.P,U1,4*%
%TO.N,Net-(U1-Pad4)*%
X165730000Y-105550000D03*
%TO.P,U1,5*%
%TO.N,Net-(U1-Pad5)*%
X165730000Y-108090000D03*
%TO.P,U1,6*%
%TO.N,Net-(U1-Pad6)*%
X165730000Y-110630000D03*
%TO.P,U1,7*%
%TO.N,Net-(U1-Pad7)*%
X165730000Y-113170000D03*
%TO.P,U1,8*%
%TO.N,Net-(U1-Pad8)*%
X165730000Y-115710000D03*
%TO.P,U1,9*%
%TO.N,Net-(U1-Pad9)*%
X165730000Y-118250000D03*
%TO.P,U1,10*%
%TO.N,Net-(U1-Pad10)*%
X165730000Y-120790000D03*
%TO.P,U1,11*%
%TO.N,Net-(U1-Pad11)*%
X165730000Y-123330000D03*
%TO.P,U1,12*%
%TO.N,Net-(U1-Pad12)*%
X165730000Y-125870000D03*
%TO.P,U1,13*%
%TO.N,Net-(U1-Pad13)*%
X165730000Y-128410000D03*
%TO.P,U1,14*%
%TO.N,Net-(BZ1-Pad2)*%
X165730000Y-130950000D03*
%TO.P,U1,15*%
%TO.N,Net-(U1-Pad15)*%
X165730000Y-133490000D03*
%TO.P,U1,30*%
%TO.N,Net-(J2-Pad1)*%
X137790000Y-97930000D03*
%TO.P,U1,18*%
%TO.N,Net-(U1-Pad18)*%
X137790000Y-128410000D03*
%TO.P,U1,17*%
%TO.N,Net-(U1-Pad17)*%
X137790000Y-130950000D03*
%TO.P,U1,19*%
%TO.N,Net-(U1-Pad19)*%
X137790000Y-125870000D03*
%TO.P,U1,25*%
%TO.N,Net-(U1-Pad25)*%
X137790000Y-110630000D03*
%TO.P,U1,26*%
%TO.N,Net-(U1-Pad26)*%
X137790000Y-108090000D03*
%TO.P,U1,24*%
%TO.N,GND*%
X137790000Y-113170000D03*
%TO.P,U1,16*%
%TO.N,+3V3*%
X137790000Y-133490000D03*
%TO.P,U1,22*%
%TO.N,Net-(J4-Pad1)*%
X137790000Y-118250000D03*
%TO.P,U1,23*%
%TO.N,Net-(J3-Pad1)*%
X137790000Y-115710000D03*
%TO.P,U1,21*%
%TO.N,Net-(J5-Pad1)*%
X137790000Y-120790000D03*
%TO.P,U1,20*%
%TO.N,Net-(BZ1-Pad1)*%
X137790000Y-123330000D03*
%TO.P,U1,28*%
%TO.N,Net-(R6-Pad2)*%
X137790000Y-103010000D03*
%TO.P,U1,27*%
%TO.N,N/C*%
X137790000Y-105550000D03*
%TO.P,U1,29*%
%TO.N,Net-(J1-Pad1)*%
X137790000Y-100470000D03*
%TD*%
D13*
%TO.P,R6,1*%
%TO.N,Net-(R6-Pad1)*%
X159950000Y-72410000D03*
%TO.P,R6,2*%
%TO.N,Net-(R6-Pad2)*%
X159950000Y-82570000D03*
%TD*%
D15*
%TO.P,J2,2*%
%TO.N,+3V3*%
X125550000Y-78990000D03*
%TO.P,J2,1*%
%TO.N,Net-(J2-Pad1)*%
X130550000Y-78990000D03*
%TO.P,J2,2*%
%TO.N,+3V3*%
X125550000Y-66490000D03*
%TO.P,J2,1*%
%TO.N,Net-(J2-Pad1)*%
X130550000Y-66490000D03*
%TD*%
%TO.P,J5,1*%
%TO.N,Net-(J5-Pad1)*%
X188414466Y-102825534D03*
%TO.P,J5,2*%
%TO.N,+3V3*%
X191950000Y-99290000D03*
%TO.P,J5,1*%
%TO.N,Net-(J5-Pad1)*%
X179575631Y-93986699D03*
%TO.P,J5,2*%
%TO.N,+3V3*%
X183111165Y-90451165D03*
%TD*%
%TO.P,J1,1*%
%TO.N,Net-(J1-Pad1)*%
X124350000Y-93990000D03*
%TO.P,J1,2*%
%TO.N,+3V3*%
X120814466Y-90454466D03*
%TO.P,J1,1*%
%TO.N,Net-(J1-Pad1)*%
X115511165Y-102828835D03*
%TO.P,J1,2*%
%TO.N,+3V3*%
X111975631Y-99293301D03*
%TD*%
D16*
%TO.P,C1,1*%
%TO.N,+3V3*%
X138430000Y-75130000D03*
D17*
%TO.P,C1,2*%
%TO.N,GND*%
X140930000Y-75130000D03*
%TD*%
D18*
%TO.P,BZ1,1*%
%TO.N,Net-(BZ1-Pad1)*%
X172770000Y-133490000D03*
D19*
%TD*%
%TO.N,Net-(BZ1-Pad1)*%
%TO.C,BZ1*%
G36*
X172770000Y-134904214D02*
X171355786Y-133490000D01*
X172770000Y-132075786D01*
X174184214Y-133490000D01*
X172770000Y-134904214D01*
X172770000Y-134904214D01*
G37*
D18*
%TO.P,BZ1,2*%
%TO.N,Net-(BZ1-Pad2)*%
X178144012Y-128115988D03*
%TD*%
D15*
%TO.P,J4,2*%
%TO.N,+3V3*%
X178350000Y-66490000D03*
%TO.P,J4,1*%
%TO.N,Net-(J4-Pad1)*%
X173350000Y-66490000D03*
%TO.P,J4,2*%
%TO.N,+3V3*%
X178350000Y-78990000D03*
%TO.P,J4,1*%
%TO.N,Net-(J4-Pad1)*%
X173350000Y-78990000D03*
%TD*%
D13*
%TO.P,R2,2*%
%TO.N,GND*%
X128756198Y-90501913D03*
%TO.P,R2,1*%
%TO.N,Net-(J2-Pad1)*%
X133050000Y-99710000D03*
%TD*%
D15*
%TO.P,J3,1*%
%TO.N,Net-(J3-Pad1)*%
X158200000Y-65340000D03*
%TO.P,J3,2*%
%TO.N,+3V3*%
X158200000Y-60340000D03*
%TO.P,J3,1*%
%TO.N,Net-(J3-Pad1)*%
X145700000Y-65340000D03*
%TO.P,J3,2*%
%TO.N,+3V3*%
X145700000Y-60340000D03*
%TD*%
D13*
%TO.P,R5,2*%
%TO.N,GND*%
X128656198Y-125541913D03*
%TO.P,R5,1*%
%TO.N,Net-(J5-Pad1)*%
X132950000Y-134750000D03*
%TD*%
%TO.P,R4,2*%
%TO.N,GND*%
X128696198Y-117481913D03*
%TO.P,R4,1*%
%TO.N,Net-(J4-Pad1)*%
X132990000Y-126690000D03*
%TD*%
%TO.P,R3,1*%
%TO.N,Net-(J3-Pad1)*%
X133010000Y-118580000D03*
%TO.P,R3,2*%
%TO.N,GND*%
X128716198Y-109371913D03*
%TD*%
D20*
%TO.P,U2,1*%
%TO.N,Net-(R6-Pad1)*%
X151250000Y-74340000D03*
%TO.P,U2,2*%
%TO.N,+3V3*%
X152750000Y-75840000D03*
%TO.P,U2,3*%
%TO.N,GND*%
X151250000Y-77340000D03*
%TO.P,U2,4*%
%TO.N,N/C*%
X152750000Y-78840000D03*
%TD*%
D21*
%TO.N,*%
X183890000Y-117500000D03*
X137950000Y-63150000D03*
X165970000Y-63160000D03*
X120030000Y-117500000D03*
%TD*%
D22*
%TO.N,*%
X173280000Y-102890000D02*
X168280000Y-102890000D01*
X173280000Y-128890000D02*
X173280000Y-102890000D01*
X168280000Y-128890000D02*
X173280000Y-128890000D01*
X168280000Y-102890000D02*
X168280000Y-128890000D01*
D23*
%TO.N,GND*%
X128716198Y-109371913D02*
X116011913Y-109371913D01*
X127650000Y-85700000D02*
X131455620Y-85700000D01*
X116011913Y-109371913D02*
X112910000Y-106270000D01*
X112910000Y-106270000D02*
X112910000Y-101840000D01*
X112910000Y-101840000D02*
X124490000Y-90260000D01*
X124490000Y-90260000D02*
X124490000Y-88860000D01*
X124490000Y-88860000D02*
X127650000Y-85700000D01*
X131455620Y-85700000D02*
X138914966Y-78240654D01*
X128716198Y-109371913D02*
X128716198Y-113220000D01*
X128716198Y-113220000D02*
X128716198Y-117461913D01*
X137790000Y-113170000D02*
X128766198Y-113170000D01*
X128766198Y-113170000D02*
X128716198Y-113220000D01*
X128756198Y-90501913D02*
X128756198Y-98751913D01*
X128756198Y-98751913D02*
X128376198Y-99131913D01*
X128716198Y-109371913D02*
X128716198Y-99471913D01*
X128716198Y-99471913D02*
X128376198Y-99131913D01*
X140930000Y-78240654D02*
X142909284Y-78240654D01*
X150189340Y-77340000D02*
X149480000Y-78049340D01*
X142909284Y-78240654D02*
X149288686Y-78240654D01*
X149288686Y-78240654D02*
X149480000Y-78049340D01*
X151250000Y-77340000D02*
X150189340Y-77340000D01*
X140930000Y-78240654D02*
X139900000Y-78240654D01*
X139900000Y-78240654D02*
X138914966Y-78240654D01*
X140930000Y-75130000D02*
X140930000Y-76261370D01*
X140930000Y-76261370D02*
X138950716Y-78240654D01*
X138950716Y-78240654D02*
X138914966Y-78240654D01*
X128696198Y-117481913D02*
X128696198Y-125501913D01*
X128696198Y-125501913D02*
X128656198Y-125541913D01*
X128716198Y-117461913D02*
X128696198Y-117481913D01*
X128756198Y-109331913D02*
X128716198Y-109371913D01*
%TO.N,+3V3*%
X149881322Y-75840000D02*
X152750000Y-75840000D01*
X145470000Y-72240000D02*
X149070000Y-75840000D01*
X149070000Y-75840000D02*
X149881322Y-75840000D01*
X139580000Y-72240000D02*
X145470000Y-72240000D01*
X138430000Y-73390000D02*
X139580000Y-72240000D01*
X138430000Y-75130000D02*
X138430000Y-73390000D01*
X138430000Y-76530000D02*
X138430000Y-75130000D01*
X131209290Y-83750710D02*
X138430000Y-76530000D01*
X125550000Y-83750000D02*
X125550710Y-83750710D01*
X125550710Y-83750710D02*
X131209290Y-83750710D01*
X111290000Y-107290000D02*
X115850000Y-111850000D01*
X111975631Y-100624369D02*
X111290000Y-101310000D01*
X111290000Y-101310000D02*
X111290000Y-107290000D01*
X111975631Y-99293301D02*
X111975631Y-100624369D01*
X136200000Y-137150000D02*
X137790000Y-135560000D01*
X125770000Y-114910000D02*
X125770000Y-133070000D01*
X115850000Y-111850000D02*
X122710000Y-111850000D01*
X122710000Y-111850000D02*
X125770000Y-114910000D01*
X125770000Y-133070000D02*
X129850000Y-137150000D01*
X129850000Y-137150000D02*
X136200000Y-137150000D01*
X137790000Y-135560000D02*
X137790000Y-133490000D01*
X125550000Y-85718932D02*
X125550000Y-83750000D01*
X125550000Y-83750000D02*
X125550000Y-83260000D01*
X178350000Y-78990000D02*
X178350000Y-85690000D01*
X178350000Y-85690000D02*
X183111165Y-90451165D01*
X129290000Y-62089600D02*
X125550000Y-65829600D01*
X129290000Y-62089600D02*
X132516401Y-62089600D01*
X125550000Y-65829600D02*
X125550000Y-66490000D01*
X145700000Y-60340000D02*
X144176001Y-58816001D01*
X132516401Y-62089600D02*
X135790000Y-58816001D01*
X144176001Y-58816001D02*
X135790000Y-58816001D01*
X123448932Y-87820000D02*
X125550000Y-85718932D01*
X120814466Y-90454466D02*
X123448932Y-87820000D01*
X158200000Y-60340000D02*
X159723999Y-58816001D01*
X159723999Y-58816001D02*
X168096001Y-58816001D01*
X176814000Y-62830000D02*
X178350000Y-64366000D01*
X178350000Y-64366000D02*
X178350000Y-66490000D01*
X168096001Y-58816001D02*
X172110000Y-62830000D01*
X172110000Y-62830000D02*
X176814000Y-62830000D01*
X125550000Y-83260000D02*
X125550000Y-82090000D01*
X125550000Y-82090000D02*
X125550000Y-78990000D01*
%TO.N,Net-(J1-Pad1)*%
X124350000Y-93990000D02*
X125873999Y-92466001D01*
X125873999Y-89566001D02*
X127690000Y-87750000D01*
X130740000Y-103440000D02*
X132070000Y-104770000D01*
X125873999Y-92466001D02*
X125873999Y-89566001D01*
X127690000Y-87750000D02*
X130340000Y-87750000D01*
X130340000Y-87750000D02*
X131550000Y-88960000D01*
X131550000Y-88960000D02*
X131550000Y-96350000D01*
X131550000Y-96350000D02*
X130740000Y-97160000D01*
X130740000Y-97160000D02*
X130740000Y-103440000D01*
X132070000Y-104770000D02*
X134700000Y-104770000D01*
X134700000Y-101944000D02*
X134700000Y-104770000D01*
X134700000Y-104770000D02*
X134700000Y-106310000D01*
X134700000Y-106310000D02*
X132670000Y-108340000D01*
X137790000Y-100470000D02*
X136174000Y-100470000D01*
X136174000Y-100470000D02*
X134700000Y-101944000D01*
%TO.N,Net-(J2-Pad1)*%
X143980000Y-94120000D02*
X140170000Y-97930000D01*
X140170000Y-97930000D02*
X137790000Y-97930000D01*
X143980000Y-88090000D02*
X143980000Y-94120000D01*
X151120000Y-80950000D02*
X143980000Y-88090000D01*
X156700000Y-80950000D02*
X151120000Y-80950000D01*
X162840000Y-74810000D02*
X156700000Y-80950000D01*
X162840000Y-71050000D02*
X162840000Y-74810000D01*
X161930000Y-70140000D02*
X162840000Y-71050000D01*
X157510000Y-70140000D02*
X161930000Y-70140000D01*
X156740000Y-70910000D02*
X157510000Y-70140000D01*
X141690000Y-70910000D02*
X156740000Y-70910000D01*
X137270000Y-66490000D02*
X141690000Y-70910000D01*
X130550000Y-66490000D02*
X137270000Y-66490000D01*
X137790000Y-97930000D02*
X134830000Y-97930000D01*
X134830000Y-97930000D02*
X133050000Y-99710000D01*
X130550000Y-66490000D02*
X130550000Y-69370000D01*
X130550000Y-69370000D02*
X130550000Y-69950000D01*
X130550000Y-69950000D02*
X130550000Y-72165000D01*
%TO.N,Net-(J3-Pad1)*%
X156970000Y-68206001D02*
X154390000Y-65626001D01*
X156970000Y-68206001D02*
X166626007Y-68206001D01*
X166626007Y-68206001D02*
X170032797Y-71612791D01*
X140596840Y-115140000D02*
X140026840Y-115710000D01*
X148425000Y-100450000D02*
X148425000Y-90006414D01*
X140596840Y-115140000D02*
X140596840Y-108278160D01*
X140596840Y-108278160D02*
X148425000Y-100450000D01*
X140026840Y-115710000D02*
X137790000Y-115710000D01*
X137790000Y-115710000D02*
X135880000Y-115710000D01*
X135880000Y-115710000D02*
X133010000Y-118580000D01*
X154390000Y-65626001D02*
X154390000Y-65340000D01*
X148425000Y-90006414D02*
X151149270Y-87282144D01*
X151149270Y-87282144D02*
X162658252Y-87282144D01*
X162658252Y-87282144D02*
X170032797Y-79907599D01*
X170032797Y-79907599D02*
X170032797Y-71612791D01*
X154390000Y-65340000D02*
X158200000Y-65340000D01*
X152640000Y-65340000D02*
X154390000Y-65340000D01*
X147824000Y-65340000D02*
X152640000Y-65340000D01*
%TO.N,Net-(J4-Pad1)*%
X137790000Y-118250000D02*
X140240000Y-118250000D01*
X140240000Y-118250000D02*
X141850000Y-116640000D01*
X163920000Y-88420000D02*
X173350000Y-78990000D01*
X141850000Y-116640000D02*
X141850000Y-109220000D01*
X141850000Y-109220000D02*
X149970000Y-101100000D01*
X149970000Y-101100000D02*
X149970000Y-90010000D01*
X149970000Y-90010000D02*
X151560000Y-88420000D01*
X151560000Y-88420000D02*
X163920000Y-88420000D01*
X137790000Y-118250000D02*
X136174000Y-118250000D01*
X136174000Y-118250000D02*
X132990000Y-121434000D01*
X132990000Y-121434000D02*
X132990000Y-126690000D01*
X173350000Y-70290000D02*
X173350000Y-70030000D01*
X173350000Y-70030000D02*
X173350000Y-66490000D01*
X173350000Y-75440000D02*
X173350000Y-70290000D01*
%TO.N,Net-(J5-Pad1)*%
X137790000Y-120790000D02*
X141130000Y-120790000D01*
X141130000Y-120790000D02*
X143420000Y-118500000D01*
X175098932Y-89510000D02*
X179575631Y-93986699D01*
X143420000Y-118500000D02*
X143420000Y-110560000D01*
X143420000Y-110560000D02*
X151440000Y-102540000D01*
X151440000Y-90140000D02*
X152070000Y-89510000D01*
X151440000Y-102540000D02*
X151440000Y-90140000D01*
X152070000Y-89510000D02*
X175098932Y-89510000D01*
X135170000Y-121640000D02*
X136020000Y-120790000D01*
X136020000Y-120790000D02*
X137790000Y-120790000D01*
X135170000Y-127880000D02*
X135170000Y-121640000D01*
X133949489Y-129100511D02*
X135170000Y-127880000D01*
X132950000Y-134750000D02*
X133949489Y-133750511D01*
X133949489Y-133750511D02*
X133949489Y-129100511D01*
X179575631Y-93986699D02*
X188414466Y-102825534D01*
%TO.N,+3V3*%
X183111165Y-90451165D02*
X184259505Y-91599505D01*
X184259505Y-91599505D02*
X191950000Y-99290000D01*
X178350000Y-66490000D02*
X178350000Y-68614000D01*
X178350000Y-68614000D02*
X178350000Y-78990000D01*
X145700000Y-60340000D02*
X158200000Y-60340000D01*
X125550000Y-78990000D02*
X125550000Y-66490000D01*
X111975631Y-99293301D02*
X120814466Y-90454466D01*
%TO.N,Net-(J1-Pad1)*%
X115511165Y-102828835D02*
X124350000Y-93990000D01*
%TO.N,Net-(J2-Pad1)*%
X130550000Y-72165000D02*
X130550000Y-78990000D01*
%TO.N,Net-(J3-Pad1)*%
X145700000Y-65340000D02*
X147824000Y-65340000D01*
%TO.N,Net-(J4-Pad1)*%
X173350000Y-76770000D02*
X173350000Y-75440000D01*
X173350000Y-76770000D02*
X173350000Y-78990000D01*
X173350000Y-76260000D02*
X173350000Y-76770000D01*
%TO.N,Net-(BZ1-Pad1)*%
X172770000Y-133490000D02*
X169930000Y-136330000D01*
X169930000Y-136330000D02*
X141890000Y-136330000D01*
X141890000Y-136330000D02*
X140720000Y-135160000D01*
X140720000Y-135160000D02*
X140720000Y-124150000D01*
X140720000Y-124150000D02*
X139900000Y-123330000D01*
X139900000Y-123330000D02*
X137790000Y-123330000D01*
%TO.N,Net-(BZ1-Pad2)*%
X178144012Y-128115988D02*
X176729799Y-128115988D01*
X176729799Y-128115988D02*
X173895787Y-130950000D01*
X173895787Y-130950000D02*
X167346000Y-130950000D01*
X165730000Y-130950000D02*
X167346000Y-130950000D01*
%TO.N,Net-(R6-Pad1)*%
X153180000Y-72410000D02*
X159950000Y-72410000D01*
X151250000Y-74340000D02*
X153180000Y-72410000D01*
%TO.N,Net-(R6-Pad2)*%
X145470000Y-88650000D02*
X151550000Y-82570000D01*
X151550000Y-82570000D02*
X159950000Y-82570000D01*
X145470000Y-96946000D02*
X145470000Y-88650000D01*
X137790000Y-103010000D02*
X139406000Y-103010000D01*
X139406000Y-103010000D02*
X145470000Y-96946000D01*
%TD*%
D24*
G36*
X110488254Y-100859280D02*
X110426173Y-100952191D01*
X110355000Y-101310000D01*
X110355000Y-107290000D01*
X110426173Y-107647809D01*
X110628855Y-107951145D01*
X115188855Y-112511145D01*
X115492191Y-112713827D01*
X115850000Y-112785000D01*
X122322710Y-112785000D01*
X124835000Y-115297289D01*
X124835000Y-133070000D01*
X124906173Y-133427809D01*
X125108855Y-133731145D01*
X129188855Y-137811145D01*
X129441565Y-137980000D01*
X123956011Y-137980000D01*
X114873297Y-118120854D01*
X116894457Y-118120854D01*
X117370727Y-119273515D01*
X118251847Y-120156174D01*
X119403674Y-120634454D01*
X120650854Y-120635543D01*
X121803515Y-120159273D01*
X122686174Y-119278153D01*
X123164454Y-118126326D01*
X123165543Y-116879146D01*
X122689273Y-115726485D01*
X121808153Y-114843826D01*
X120656326Y-114365546D01*
X119409146Y-114364457D01*
X118256485Y-114840727D01*
X117373826Y-115721847D01*
X116895546Y-116873674D01*
X116894457Y-118120854D01*
X114873297Y-118120854D01*
X110160000Y-107815341D01*
X110160000Y-100530453D01*
X110488254Y-100859280D01*
X110488254Y-100859280D01*
G37*
X110488254Y-100859280D02*
X110426173Y-100952191D01*
X110355000Y-101310000D01*
X110355000Y-107290000D01*
X110426173Y-107647809D01*
X110628855Y-107951145D01*
X115188855Y-112511145D01*
X115492191Y-112713827D01*
X115850000Y-112785000D01*
X122322710Y-112785000D01*
X124835000Y-115297289D01*
X124835000Y-133070000D01*
X124906173Y-133427809D01*
X125108855Y-133731145D01*
X129188855Y-137811145D01*
X129441565Y-137980000D01*
X123956011Y-137980000D01*
X114873297Y-118120854D01*
X116894457Y-118120854D01*
X117370727Y-119273515D01*
X118251847Y-120156174D01*
X119403674Y-120634454D01*
X120650854Y-120635543D01*
X121803515Y-120159273D01*
X122686174Y-119278153D01*
X123164454Y-118126326D01*
X123165543Y-116879146D01*
X122689273Y-115726485D01*
X121808153Y-114843826D01*
X120656326Y-114365546D01*
X119409146Y-114364457D01*
X118256485Y-114840727D01*
X117373826Y-115721847D01*
X116895546Y-116873674D01*
X116894457Y-118120854D01*
X114873297Y-118120854D01*
X110160000Y-107815341D01*
X110160000Y-100530453D01*
X110488254Y-100859280D01*
G36*
X143541376Y-59908664D02*
X143540626Y-60767567D01*
X143868622Y-61561377D01*
X144475428Y-62169244D01*
X145268664Y-62498624D01*
X146127567Y-62499374D01*
X146921377Y-62171378D01*
X147529244Y-61564572D01*
X147649485Y-61275000D01*
X156250293Y-61275000D01*
X156368622Y-61561377D01*
X156975428Y-62169244D01*
X157768664Y-62498624D01*
X158627567Y-62499374D01*
X159421377Y-62171378D01*
X160029244Y-61564572D01*
X160358624Y-60771336D01*
X160359374Y-59912433D01*
X160292672Y-59751001D01*
X167708711Y-59751001D01*
X171448855Y-63491145D01*
X171752191Y-63693827D01*
X172110000Y-63765000D01*
X176426710Y-63765000D01*
X177264280Y-64602570D01*
X177128623Y-64658622D01*
X176520756Y-65265428D01*
X176191376Y-66058664D01*
X176190626Y-66917567D01*
X176518622Y-67711377D01*
X177125428Y-68319244D01*
X177415000Y-68439485D01*
X177415000Y-77040293D01*
X177128623Y-77158622D01*
X176520756Y-77765428D01*
X176191376Y-78558664D01*
X176190626Y-79417567D01*
X176518622Y-80211377D01*
X177125428Y-80819244D01*
X177415000Y-80939485D01*
X177415000Y-85690000D01*
X177486173Y-86047809D01*
X177688855Y-86351145D01*
X181071369Y-89733659D01*
X180952541Y-90019829D01*
X180951791Y-90878732D01*
X181279787Y-91672542D01*
X181886593Y-92280409D01*
X182679829Y-92609789D01*
X183538732Y-92610539D01*
X183828514Y-92490804D01*
X189910204Y-98572494D01*
X189791376Y-98858664D01*
X189790626Y-99717567D01*
X190118622Y-100511377D01*
X190725428Y-101119244D01*
X191518664Y-101448624D01*
X192377567Y-101449374D01*
X193171377Y-101121378D01*
X193760000Y-100533782D01*
X193760000Y-107815243D01*
X179954125Y-137980000D01*
X136608435Y-137980000D01*
X136861145Y-137811145D01*
X138451145Y-136221145D01*
X138617490Y-135972191D01*
X138653827Y-135917809D01*
X138702194Y-135674655D01*
X138725001Y-135560000D01*
X138725000Y-135559995D01*
X138725000Y-134756415D01*
X139034415Y-134549670D01*
X139359271Y-134063489D01*
X139473345Y-133490000D01*
X139359271Y-132916511D01*
X139034415Y-132430330D01*
X138719634Y-132220000D01*
X139034415Y-132009670D01*
X139359271Y-131523489D01*
X139473345Y-130950000D01*
X139359271Y-130376511D01*
X139034415Y-129890330D01*
X138719634Y-129680000D01*
X139034415Y-129469670D01*
X139359271Y-128983489D01*
X139473345Y-128410000D01*
X139359271Y-127836511D01*
X139034415Y-127350330D01*
X138719634Y-127140000D01*
X139034415Y-126929670D01*
X139359271Y-126443489D01*
X139473345Y-125870000D01*
X139359271Y-125296511D01*
X139034415Y-124810330D01*
X138719634Y-124600000D01*
X139034415Y-124389670D01*
X139117717Y-124265000D01*
X139512710Y-124265000D01*
X139785000Y-124537290D01*
X139785000Y-135160000D01*
X139856173Y-135517809D01*
X140058855Y-135821145D01*
X141228855Y-136991145D01*
X141532191Y-137193827D01*
X141890000Y-137265000D01*
X169930000Y-137265000D01*
X170287809Y-137193827D01*
X170591145Y-136991145D01*
X172266229Y-135316061D01*
X172312191Y-135362023D01*
X172522235Y-135502371D01*
X172770000Y-135551654D01*
X173017765Y-135502371D01*
X173227809Y-135362023D01*
X174642023Y-133947809D01*
X174782371Y-133737765D01*
X174831654Y-133490000D01*
X174782371Y-133242235D01*
X174642023Y-133032191D01*
X173494832Y-131885000D01*
X173895787Y-131885000D01*
X174253596Y-131813827D01*
X174556932Y-131611145D01*
X176941970Y-129226107D01*
X177216649Y-129501266D01*
X177817364Y-129750704D01*
X178467807Y-129751272D01*
X179068955Y-129502882D01*
X179529290Y-129043351D01*
X179778728Y-128442636D01*
X179779296Y-127792193D01*
X179530906Y-127191045D01*
X179071375Y-126730710D01*
X178470660Y-126481272D01*
X177820217Y-126480704D01*
X177810000Y-126484926D01*
X177810000Y-118120854D01*
X180754457Y-118120854D01*
X181230727Y-119273515D01*
X182111847Y-120156174D01*
X183263674Y-120634454D01*
X184510854Y-120635543D01*
X185663515Y-120159273D01*
X186546174Y-119278153D01*
X187024454Y-118126326D01*
X187025543Y-116879146D01*
X186549273Y-115726485D01*
X185668153Y-114843826D01*
X184516326Y-114365546D01*
X183269146Y-114364457D01*
X182116485Y-114840727D01*
X181233826Y-115721847D01*
X180755546Y-116873674D01*
X180754457Y-118120854D01*
X177810000Y-118120854D01*
X177810000Y-116283571D01*
X174040000Y-116283571D01*
X174040000Y-111564390D01*
X175470180Y-111564390D01*
X175476064Y-111599991D01*
X175471845Y-111635829D01*
X175477562Y-111707898D01*
X175499595Y-111785834D01*
X175510572Y-111866076D01*
X175530887Y-111924941D01*
X175533118Y-111928761D01*
X175533777Y-111933133D01*
X175595999Y-112036411D01*
X175656838Y-112140565D01*
X175660361Y-112143240D01*
X175662643Y-112147028D01*
X175698544Y-112186458D01*
X175714090Y-112197933D01*
X175725029Y-112213861D01*
X175814042Y-112271711D01*
X175826021Y-112280553D01*
X175867324Y-112316464D01*
X175880769Y-112320964D01*
X175899455Y-112334757D01*
X175918209Y-112339409D01*
X175934411Y-112349939D01*
X175947591Y-112355203D01*
X176027275Y-112370000D01*
X176104128Y-112395723D01*
X176140455Y-112400347D01*
X176176967Y-112397797D01*
X176193109Y-112400795D01*
X176201102Y-112399099D01*
X176236655Y-112405287D01*
X176278735Y-112404276D01*
X176321566Y-112394681D01*
X176334739Y-112396514D01*
X176352069Y-112392006D01*
X176389340Y-112391940D01*
X176423538Y-112385074D01*
X176471894Y-112364943D01*
X176509236Y-112360242D01*
X176538668Y-112343470D01*
X176576412Y-112333653D01*
X176585796Y-112329110D01*
X176619924Y-112303318D01*
X176654074Y-112289101D01*
X176672500Y-112270609D01*
X176695334Y-112260126D01*
X176706993Y-112247552D01*
X176726198Y-112236609D01*
X176739215Y-112225324D01*
X176762058Y-112195900D01*
X176785017Y-112178549D01*
X176794916Y-112161691D01*
X176803112Y-112155686D01*
X176823865Y-112121518D01*
X176865128Y-112077020D01*
X176876600Y-112058365D01*
X176883697Y-112039220D01*
X176892350Y-112028074D01*
X176901991Y-111992890D01*
X176932746Y-111942255D01*
X176943161Y-111913677D01*
X176948782Y-111877258D01*
X176964201Y-111843790D01*
X176974048Y-111802731D01*
X176974846Y-111782307D01*
X176982213Y-111763239D01*
X176991978Y-111707146D01*
X176991704Y-111695710D01*
X176995448Y-111684903D01*
X177005620Y-111611219D01*
X177005239Y-111604791D01*
X177007227Y-111598665D01*
X177018294Y-111504835D01*
X177018012Y-111501270D01*
X177019078Y-111497858D01*
X177031528Y-111381327D01*
X177031359Y-111379452D01*
X177031910Y-111377652D01*
X177046231Y-111235864D01*
X177046224Y-111235794D01*
X177046245Y-111235726D01*
X177072624Y-110973995D01*
X177114653Y-110573694D01*
X177156073Y-110200221D01*
X177196945Y-109853066D01*
X177237434Y-109530771D01*
X177277579Y-109232894D01*
X177317467Y-108958508D01*
X177357193Y-108706623D01*
X177397178Y-108474273D01*
X177398213Y-108468550D01*
X177422532Y-108341756D01*
X177445417Y-108380972D01*
X177448661Y-108384636D01*
X177450325Y-108389239D01*
X177489587Y-108454253D01*
X177495773Y-108461033D01*
X177499137Y-108469575D01*
X177528057Y-108514547D01*
X177544318Y-108531390D01*
X177554444Y-108552493D01*
X177641553Y-108668587D01*
X177668193Y-108692463D01*
X177687139Y-108722809D01*
X177779024Y-108820563D01*
X177819329Y-108849336D01*
X177851677Y-108886826D01*
X177941971Y-108957273D01*
X178001867Y-108987411D01*
X178055247Y-109027980D01*
X178143651Y-109071068D01*
X178228227Y-109093311D01*
X178309562Y-109125440D01*
X178395778Y-109141116D01*
X178497702Y-109139435D01*
X178599473Y-109145193D01*
X178683199Y-109133408D01*
X178749492Y-109110242D01*
X178752453Y-109166339D01*
X178753340Y-109169827D01*
X178752864Y-109173399D01*
X178767769Y-109406764D01*
X178768900Y-109411013D01*
X178768378Y-109415374D01*
X178784911Y-109628911D01*
X178786355Y-109634055D01*
X178785807Y-109639369D01*
X178804115Y-109834247D01*
X178805968Y-109840456D01*
X178805432Y-109846915D01*
X178825666Y-110024311D01*
X178828052Y-110031763D01*
X178827593Y-110039576D01*
X178849901Y-110200659D01*
X178852985Y-110209549D01*
X178852705Y-110218952D01*
X178877236Y-110364896D01*
X178881226Y-110375404D01*
X178881279Y-110386647D01*
X178908183Y-110518624D01*
X178913334Y-110530895D01*
X178913942Y-110544186D01*
X178943366Y-110663368D01*
X178949973Y-110677462D01*
X178951429Y-110692963D01*
X178983523Y-110800522D01*
X178991891Y-110816351D01*
X178994545Y-110834055D01*
X179029458Y-110931163D01*
X179039832Y-110948412D01*
X179044045Y-110968096D01*
X179081926Y-111055928D01*
X179094398Y-111074021D01*
X179100442Y-111095148D01*
X179141440Y-111174875D01*
X179155828Y-111192986D01*
X179163758Y-111214712D01*
X179208021Y-111287504D01*
X179223785Y-111304675D01*
X179233330Y-111325941D01*
X179281008Y-111392972D01*
X179297763Y-111408775D01*
X179308663Y-111429066D01*
X179360350Y-111491778D01*
X179382947Y-111510243D01*
X179399015Y-111534601D01*
X179476731Y-111613239D01*
X179506155Y-111633151D01*
X179528856Y-111660482D01*
X179616135Y-111731252D01*
X179647404Y-111747729D01*
X179672820Y-111772289D01*
X179771319Y-111835691D01*
X179802058Y-111847811D01*
X179828039Y-111868228D01*
X179939419Y-111924764D01*
X179967634Y-111932675D01*
X179992217Y-111948623D01*
X180118135Y-111998792D01*
X180142652Y-112003324D01*
X180164551Y-112015246D01*
X180306669Y-112059548D01*
X180327129Y-112061721D01*
X180345785Y-112070393D01*
X180505760Y-112109329D01*
X180522358Y-112110033D01*
X180537760Y-112116255D01*
X180717251Y-112150325D01*
X180730454Y-112150209D01*
X180742885Y-112154653D01*
X180943553Y-112184357D01*
X180953903Y-112183845D01*
X180963767Y-112187021D01*
X181187268Y-112212860D01*
X181195288Y-112212207D01*
X181203007Y-112214483D01*
X181451003Y-112236957D01*
X181457146Y-112236304D01*
X181463104Y-112237938D01*
X181737251Y-112257547D01*
X181740086Y-112257191D01*
X181742849Y-112257923D01*
X181793549Y-112261103D01*
X181795241Y-112260875D01*
X181796894Y-112261304D01*
X182026190Y-112274481D01*
X182028773Y-112274120D01*
X182031301Y-112274754D01*
X182273561Y-112286733D01*
X182275910Y-112286385D01*
X182278217Y-112286946D01*
X182535099Y-112297773D01*
X182537208Y-112297445D01*
X182539287Y-112297936D01*
X182812450Y-112307658D01*
X182814327Y-112307354D01*
X182816180Y-112307780D01*
X183107285Y-112316441D01*
X183108936Y-112316163D01*
X183110569Y-112316530D01*
X183421276Y-112324178D01*
X183422719Y-112323928D01*
X183424149Y-112324242D01*
X183756117Y-112330922D01*
X183757367Y-112330699D01*
X183758611Y-112330968D01*
X184113501Y-112336726D01*
X184114579Y-112336530D01*
X184115650Y-112336757D01*
X184495121Y-112341639D01*
X184496044Y-112341468D01*
X184496962Y-112341660D01*
X184902674Y-112345712D01*
X184903083Y-112345635D01*
X184903492Y-112345720D01*
X185936239Y-112354715D01*
X186035544Y-112335860D01*
X186135979Y-112324575D01*
X186157461Y-112312711D01*
X186181571Y-112308133D01*
X186266090Y-112252717D01*
X186354573Y-112203850D01*
X186401426Y-112164310D01*
X186409317Y-112154421D01*
X186420146Y-112147878D01*
X186446281Y-112124022D01*
X186498419Y-112053198D01*
X186558498Y-111988973D01*
X186571845Y-111967480D01*
X186575629Y-111957407D01*
X186582716Y-111949310D01*
X186589368Y-111929652D01*
X186594323Y-111922921D01*
X186601530Y-111893708D01*
X186618944Y-111842244D01*
X186634710Y-111815893D01*
X186638536Y-111789957D01*
X186659664Y-111733717D01*
X186659305Y-111722965D01*
X186662755Y-111712770D01*
X186666554Y-111683688D01*
X186662719Y-111626028D01*
X186671153Y-111568852D01*
X186668818Y-111522086D01*
X186666281Y-111511994D01*
X186667470Y-111501656D01*
X186664744Y-111468438D01*
X186657358Y-111442581D01*
X186658203Y-111415707D01*
X186652457Y-111381184D01*
X186622433Y-111301726D01*
X186602715Y-111219103D01*
X186591166Y-111193962D01*
X186580954Y-111179866D01*
X186576011Y-111163174D01*
X186564890Y-111149438D01*
X186564191Y-111147589D01*
X186558398Y-111141420D01*
X186508033Y-111079214D01*
X186444660Y-110991740D01*
X186429830Y-110982625D01*
X186418876Y-110969095D01*
X186397843Y-110951599D01*
X186299839Y-110898377D01*
X186281860Y-110882172D01*
X186254883Y-110872604D01*
X186194016Y-110837498D01*
X186159819Y-110825906D01*
X186101729Y-110818284D01*
X186046509Y-110798699D01*
X185995463Y-110791272D01*
X185971274Y-110792528D01*
X185947906Y-110786159D01*
X185876332Y-110781160D01*
X185868341Y-110782177D01*
X185860523Y-110780253D01*
X185764738Y-110775941D01*
X185761559Y-110776426D01*
X185758428Y-110775688D01*
X185713115Y-110774096D01*
X185710822Y-110774469D01*
X185708557Y-110773952D01*
X185632843Y-110771832D01*
X185631627Y-110772039D01*
X185630420Y-110771768D01*
X185532114Y-110769388D01*
X185531361Y-110769519D01*
X185530618Y-110769354D01*
X185412561Y-110766772D01*
X185412036Y-110766865D01*
X185411515Y-110766750D01*
X185276545Y-110764019D01*
X185276132Y-110764092D01*
X185275723Y-110764003D01*
X185126687Y-110761179D01*
X185126338Y-110761242D01*
X185125990Y-110761166D01*
X184965725Y-110758304D01*
X184965406Y-110758362D01*
X184965089Y-110758293D01*
X184796440Y-110755449D01*
X184796133Y-110755505D01*
X184795829Y-110755439D01*
X184621636Y-110752668D01*
X184621327Y-110752724D01*
X184621017Y-110752658D01*
X184444122Y-110750015D01*
X184444088Y-110750021D01*
X184444054Y-110750014D01*
X184270769Y-110747443D01*
X183873804Y-110740939D01*
X183503281Y-110733843D01*
X183159035Y-110726021D01*
X182840284Y-110717333D01*
X182736009Y-110713897D01*
X182736087Y-110688890D01*
X182731071Y-110663252D01*
X182734167Y-110637314D01*
X182731136Y-110598299D01*
X182727009Y-110583608D01*
X182728104Y-110568388D01*
X182721701Y-110517229D01*
X182718893Y-110508780D01*
X182719289Y-110499886D01*
X182709266Y-110434398D01*
X182707494Y-110429516D01*
X182707642Y-110424323D01*
X182693750Y-110342321D01*
X182692688Y-110339535D01*
X182692746Y-110336554D01*
X182674737Y-110235852D01*
X182674137Y-110234321D01*
X182674161Y-110232678D01*
X182651784Y-110111092D01*
X182651486Y-110110343D01*
X182651496Y-110109539D01*
X182624504Y-109964884D01*
X182624399Y-109964621D01*
X182624402Y-109964338D01*
X182596754Y-109816878D01*
X182764819Y-109768150D01*
X182768527Y-109766227D01*
X182772684Y-109765815D01*
X183142532Y-109653424D01*
X183146864Y-109651106D01*
X183151747Y-109650548D01*
X183501929Y-109538336D01*
X183506687Y-109535697D01*
X183512081Y-109534989D01*
X183840978Y-109423507D01*
X183846303Y-109420436D01*
X183852383Y-109419521D01*
X184158377Y-109309320D01*
X184164465Y-109305654D01*
X184171469Y-109304443D01*
X184452942Y-109196075D01*
X184460075Y-109191565D01*
X184468351Y-109189912D01*
X184723686Y-109083927D01*
X184731094Y-109078969D01*
X184739784Y-109076985D01*
X184850972Y-109027220D01*
X184857139Y-109022844D01*
X184864468Y-109020990D01*
X185008838Y-108952306D01*
X185014392Y-108948167D01*
X185021067Y-108946327D01*
X185169708Y-108871693D01*
X185174666Y-108867832D01*
X185180694Y-108866044D01*
X185328577Y-108788180D01*
X185333477Y-108784210D01*
X185339493Y-108782298D01*
X185481587Y-108703930D01*
X185486978Y-108699386D01*
X185493646Y-108697107D01*
X185624921Y-108620954D01*
X185631552Y-108615114D01*
X185639835Y-108612030D01*
X185755260Y-108540814D01*
X185764549Y-108532175D01*
X185776257Y-108527287D01*
X185870803Y-108463730D01*
X185877299Y-108457197D01*
X185885696Y-108453409D01*
X185886756Y-108452651D01*
X185896249Y-108442549D01*
X185908634Y-108436312D01*
X186066144Y-108313352D01*
X186085602Y-108290787D01*
X186110867Y-108274998D01*
X186246856Y-108147057D01*
X186266323Y-108119761D01*
X186292758Y-108099148D01*
X186406211Y-107967730D01*
X186425179Y-107934277D01*
X186452480Y-107907193D01*
X186542378Y-107773804D01*
X186559685Y-107732488D01*
X186586812Y-107696834D01*
X186652141Y-107562982D01*
X186665531Y-107512180D01*
X186690122Y-107465756D01*
X186729867Y-107332945D01*
X186735627Y-107272130D01*
X186753500Y-107213715D01*
X186766645Y-107083451D01*
X186763352Y-107049171D01*
X186769867Y-107015357D01*
X186769836Y-107010188D01*
X186766587Y-106994351D01*
X186768852Y-106978343D01*
X186764296Y-106896755D01*
X186753999Y-106856785D01*
X186754520Y-106815508D01*
X186740658Y-106740914D01*
X186724322Y-106700024D01*
X186718878Y-106656332D01*
X186693214Y-106578968D01*
X186677553Y-106551403D01*
X186670573Y-106520478D01*
X186630607Y-106430585D01*
X186620599Y-106416408D01*
X186615879Y-106399709D01*
X186595354Y-106359483D01*
X186577521Y-106336889D01*
X186567263Y-106309995D01*
X186490093Y-106187112D01*
X186462896Y-106158331D01*
X186444360Y-106123335D01*
X186345898Y-106002433D01*
X186319444Y-105980555D01*
X186300250Y-105952094D01*
X186179577Y-105832450D01*
X186155460Y-105816484D01*
X186137209Y-105794040D01*
X185993401Y-105674931D01*
X185972340Y-105663552D01*
X185955910Y-105646146D01*
X185788049Y-105526850D01*
X185770156Y-105518827D01*
X185755858Y-105505406D01*
X185563018Y-105385198D01*
X185548068Y-105379553D01*
X185535895Y-105369204D01*
X185317157Y-105247364D01*
X185304798Y-105243380D01*
X185294575Y-105235370D01*
X185049017Y-105111173D01*
X185038726Y-105108304D01*
X185030105Y-105101995D01*
X184820891Y-105004672D01*
X184810830Y-105002220D01*
X184802279Y-104996371D01*
X184513396Y-104873018D01*
X184503714Y-104870983D01*
X184495381Y-104865647D01*
X184179258Y-104741888D01*
X184170884Y-104740392D01*
X184163603Y-104735994D01*
X183820608Y-104611951D01*
X183813292Y-104610840D01*
X183806868Y-104607157D01*
X183437371Y-104482955D01*
X183430913Y-104482124D01*
X183425201Y-104478999D01*
X183029573Y-104354759D01*
X183023822Y-104354136D01*
X183018697Y-104351449D01*
X182597310Y-104227298D01*
X182592148Y-104226831D01*
X182587520Y-104224498D01*
X182140741Y-104100556D01*
X182136069Y-104100208D01*
X182131856Y-104098160D01*
X181660056Y-103974554D01*
X181657880Y-103974424D01*
X181655914Y-103973484D01*
X181294979Y-103881497D01*
X181289762Y-103873900D01*
X181231870Y-103836273D01*
X181216000Y-103820665D01*
X181195338Y-103812307D01*
X181110029Y-103750532D01*
X181094109Y-103746737D01*
X181080385Y-103737817D01*
X181048444Y-103725061D01*
X180963642Y-103709311D01*
X180952150Y-103703107D01*
X180936333Y-103701483D01*
X180873584Y-103682471D01*
X180826353Y-103677835D01*
X180805345Y-103679911D01*
X180802927Y-103679462D01*
X180796856Y-103680750D01*
X180765037Y-103683895D01*
X180740994Y-103681426D01*
X180732533Y-103679513D01*
X180728731Y-103680167D01*
X180703741Y-103677601D01*
X180655794Y-103682124D01*
X180592960Y-103700901D01*
X180577849Y-103702394D01*
X180567586Y-103707884D01*
X180486431Y-103721843D01*
X180450971Y-103735462D01*
X180432888Y-103746876D01*
X180412100Y-103751881D01*
X180327879Y-103813156D01*
X180313902Y-103821978D01*
X180274266Y-103841902D01*
X180264597Y-103853099D01*
X180239802Y-103868749D01*
X180227464Y-103886213D01*
X180210173Y-103898793D01*
X180197485Y-103912537D01*
X180159109Y-103975253D01*
X180111056Y-104030899D01*
X180102899Y-104045280D01*
X180098148Y-104033615D01*
X180025029Y-103959622D01*
X179956975Y-103880943D01*
X179937745Y-103871296D01*
X179922624Y-103855994D01*
X179873762Y-103822924D01*
X179864240Y-103818913D01*
X179856745Y-103811796D01*
X179749496Y-103770584D01*
X179643627Y-103725993D01*
X179633293Y-103725932D01*
X179623647Y-103722225D01*
X179558057Y-103710931D01*
X179500819Y-103712410D01*
X179444583Y-103701668D01*
X179437224Y-103701724D01*
X179401817Y-103709047D01*
X179365765Y-103706273D01*
X179306907Y-103713343D01*
X179196666Y-103749374D01*
X179085476Y-103782260D01*
X179045044Y-103803511D01*
X179030878Y-103814972D01*
X179013722Y-103821113D01*
X178934276Y-103893133D01*
X178850913Y-103960582D01*
X178842212Y-103976592D01*
X178828712Y-103988830D01*
X178799959Y-104027607D01*
X178792974Y-104042380D01*
X178790425Y-104044771D01*
X178761122Y-104109587D01*
X178714162Y-104185792D01*
X178711069Y-104194112D01*
X178705827Y-104226685D01*
X178693215Y-104253357D01*
X178692861Y-104260576D01*
X178687555Y-104272313D01*
X178679138Y-104308548D01*
X178678593Y-104325623D01*
X178672385Y-104341536D01*
X178662168Y-104399111D01*
X178662335Y-104407176D01*
X178659590Y-104414763D01*
X178648263Y-104489286D01*
X178648511Y-104494729D01*
X178646743Y-104499883D01*
X178634995Y-104586956D01*
X178635282Y-104591557D01*
X178633848Y-104595937D01*
X178622369Y-104691164D01*
X178622504Y-104692926D01*
X178621963Y-104694609D01*
X178606661Y-104827612D01*
X178559860Y-105213802D01*
X178512896Y-105570560D01*
X178465685Y-105898751D01*
X178418240Y-106198586D01*
X178370649Y-106469932D01*
X178350762Y-106571337D01*
X178350178Y-106570667D01*
X178347875Y-106564266D01*
X178293366Y-106473697D01*
X178286845Y-106466528D01*
X178283292Y-106457508D01*
X178234674Y-106381920D01*
X178225587Y-106372510D01*
X178220306Y-106360539D01*
X178175794Y-106297099D01*
X178163988Y-106285819D01*
X178156655Y-106271230D01*
X178114469Y-106217111D01*
X178100632Y-106205161D01*
X178091513Y-106189312D01*
X178049868Y-106141681D01*
X178031548Y-106127580D01*
X178018620Y-106108414D01*
X177971480Y-106061685D01*
X177933647Y-106036645D01*
X177903252Y-106002966D01*
X177814297Y-105936700D01*
X177748089Y-105905214D01*
X177687898Y-105863346D01*
X177598942Y-105824534D01*
X177511586Y-105805452D01*
X177426936Y-105776659D01*
X177339041Y-105765032D01*
X177241006Y-105771397D01*
X177142785Y-105769439D01*
X177057008Y-105784731D01*
X176969764Y-105818848D01*
X176879574Y-105844149D01*
X176796976Y-105886090D01*
X176734771Y-105934988D01*
X176666132Y-105974356D01*
X176587773Y-106042680D01*
X176549471Y-106092302D01*
X176502179Y-106133446D01*
X176429119Y-106227883D01*
X176407277Y-106271735D01*
X176375617Y-106309120D01*
X176308915Y-106429403D01*
X176299160Y-106459859D01*
X176281004Y-106486184D01*
X176235262Y-106592172D01*
X176230945Y-106612320D01*
X176220347Y-106629990D01*
X176164512Y-106785899D01*
X176162029Y-106802602D01*
X176154108Y-106817517D01*
X176098959Y-107001065D01*
X176097736Y-107013831D01*
X176092171Y-107025387D01*
X176037739Y-107236427D01*
X176037176Y-107246465D01*
X176033096Y-107255653D01*
X175979409Y-107494039D01*
X175979205Y-107502126D01*
X175976107Y-107509600D01*
X175923194Y-107775183D01*
X175923192Y-107781838D01*
X175920770Y-107788035D01*
X175868660Y-108080669D01*
X175868772Y-108086241D01*
X175866833Y-108091464D01*
X175815555Y-108411004D01*
X175815731Y-108415739D01*
X175814147Y-108420205D01*
X175763730Y-108766503D01*
X175763941Y-108770580D01*
X175762624Y-108774446D01*
X175713096Y-109147354D01*
X175713325Y-109150907D01*
X175712213Y-109154290D01*
X175663604Y-109553663D01*
X175663760Y-109555729D01*
X175663127Y-109557697D01*
X175648579Y-109683897D01*
X175648657Y-109684854D01*
X175648366Y-109685769D01*
X175628690Y-109860983D01*
X175628773Y-109861959D01*
X175628478Y-109862894D01*
X175608909Y-110042007D01*
X175608987Y-110042898D01*
X175608721Y-110043751D01*
X175589514Y-110224128D01*
X175589590Y-110224971D01*
X175589340Y-110225780D01*
X175570749Y-110404783D01*
X175570827Y-110405620D01*
X175570581Y-110406423D01*
X175552862Y-110581418D01*
X175552945Y-110582285D01*
X175552692Y-110583119D01*
X175536100Y-110751469D01*
X175536193Y-110752413D01*
X175535920Y-110753322D01*
X175520710Y-110912392D01*
X175520820Y-110913478D01*
X175520510Y-110914523D01*
X175506936Y-111061675D01*
X175507076Y-111063010D01*
X175506699Y-111064300D01*
X175495018Y-111196901D01*
X175495210Y-111198662D01*
X175494722Y-111200366D01*
X175485187Y-111315777D01*
X175485482Y-111318352D01*
X175484789Y-111320847D01*
X175477656Y-111416435D01*
X175478185Y-111420754D01*
X175477077Y-111424961D01*
X175472601Y-111498088D01*
X175473854Y-111507302D01*
X175471744Y-111516360D01*
X175470180Y-111564390D01*
X174040000Y-111564390D01*
X174040000Y-102890000D01*
X173982148Y-102599161D01*
X173817401Y-102352599D01*
X173570839Y-102187852D01*
X173280000Y-102130000D01*
X168280000Y-102130000D01*
X167989161Y-102187852D01*
X167742599Y-102352599D01*
X167577852Y-102599161D01*
X167520000Y-102890000D01*
X167520000Y-128890000D01*
X167577852Y-129180839D01*
X167742599Y-129427401D01*
X167989161Y-129592148D01*
X168280000Y-129650000D01*
X173280000Y-129650000D01*
X173570839Y-129592148D01*
X173817401Y-129427401D01*
X173982148Y-129180839D01*
X174040000Y-128890000D01*
X174040000Y-126496428D01*
X177782162Y-126496428D01*
X177219069Y-126729094D01*
X176766384Y-127180988D01*
X176729799Y-127180988D01*
X176371990Y-127252161D01*
X176068654Y-127454843D01*
X173508497Y-130015000D01*
X167057717Y-130015000D01*
X166974415Y-129890330D01*
X166659634Y-129680000D01*
X166974415Y-129469670D01*
X167299271Y-128983489D01*
X167413345Y-128410000D01*
X167299271Y-127836511D01*
X166974415Y-127350330D01*
X166659634Y-127140000D01*
X166974415Y-126929670D01*
X167299271Y-126443489D01*
X167413345Y-125870000D01*
X167299271Y-125296511D01*
X166974415Y-124810330D01*
X166659634Y-124600000D01*
X166974415Y-124389670D01*
X167299271Y-123903489D01*
X167413345Y-123330000D01*
X167299271Y-122756511D01*
X166974415Y-122270330D01*
X166659634Y-122060000D01*
X166974415Y-121849670D01*
X167299271Y-121363489D01*
X167413345Y-120790000D01*
X167299271Y-120216511D01*
X166974415Y-119730330D01*
X166659634Y-119520000D01*
X166974415Y-119309670D01*
X167299271Y-118823489D01*
X167413345Y-118250000D01*
X167299271Y-117676511D01*
X166974415Y-117190330D01*
X166659634Y-116980000D01*
X166974415Y-116769670D01*
X167299271Y-116283489D01*
X167413345Y-115710000D01*
X167299271Y-115136511D01*
X166974415Y-114650330D01*
X166659634Y-114440000D01*
X166974415Y-114229670D01*
X167299271Y-113743489D01*
X167413345Y-113170000D01*
X167299271Y-112596511D01*
X166974415Y-112110330D01*
X166659634Y-111900000D01*
X166974415Y-111689670D01*
X167299271Y-111203489D01*
X167413345Y-110630000D01*
X167299271Y-110056511D01*
X166974415Y-109570330D01*
X166659634Y-109360000D01*
X166974415Y-109149670D01*
X167299271Y-108663489D01*
X167413345Y-108090000D01*
X167299271Y-107516511D01*
X166974415Y-107030330D01*
X166659634Y-106820000D01*
X166974415Y-106609670D01*
X167299271Y-106123489D01*
X167413345Y-105550000D01*
X167299271Y-104976511D01*
X166974415Y-104490330D01*
X166659634Y-104280000D01*
X166974415Y-104069670D01*
X167299271Y-103583489D01*
X167413345Y-103010000D01*
X167299271Y-102436511D01*
X166974415Y-101950330D01*
X166659634Y-101740000D01*
X166974415Y-101529670D01*
X167299271Y-101043489D01*
X167413345Y-100470000D01*
X167299271Y-99896511D01*
X166974415Y-99410330D01*
X166659634Y-99200000D01*
X166974415Y-98989670D01*
X167299271Y-98503489D01*
X167413345Y-97930000D01*
X167299271Y-97356511D01*
X166974415Y-96870330D01*
X166488234Y-96545474D01*
X165914745Y-96431400D01*
X165545255Y-96431400D01*
X164971766Y-96545474D01*
X164485585Y-96870330D01*
X164160729Y-97356511D01*
X164046655Y-97930000D01*
X164160729Y-98503489D01*
X164485585Y-98989670D01*
X164800366Y-99200000D01*
X164485585Y-99410330D01*
X164160729Y-99896511D01*
X164046655Y-100470000D01*
X164160729Y-101043489D01*
X164485585Y-101529670D01*
X164800366Y-101740000D01*
X164485585Y-101950330D01*
X164160729Y-102436511D01*
X164046655Y-103010000D01*
X164160729Y-103583489D01*
X164485585Y-104069670D01*
X164800366Y-104280000D01*
X164485585Y-104490330D01*
X164160729Y-104976511D01*
X164046655Y-105550000D01*
X164160729Y-106123489D01*
X164485585Y-106609670D01*
X164800366Y-106820000D01*
X164485585Y-107030330D01*
X164160729Y-107516511D01*
X164046655Y-108090000D01*
X164160729Y-108663489D01*
X164485585Y-109149670D01*
X164800366Y-109360000D01*
X164485585Y-109570330D01*
X164160729Y-110056511D01*
X164046655Y-110630000D01*
X164160729Y-111203489D01*
X164485585Y-111689670D01*
X164800366Y-111900000D01*
X164485585Y-112110330D01*
X164160729Y-112596511D01*
X164046655Y-113170000D01*
X164160729Y-113743489D01*
X164485585Y-114229670D01*
X164800366Y-114440000D01*
X164485585Y-114650330D01*
X164160729Y-115136511D01*
X164046655Y-115710000D01*
X164160729Y-116283489D01*
X164485585Y-116769670D01*
X164800366Y-116980000D01*
X164485585Y-117190330D01*
X164160729Y-117676511D01*
X164046655Y-118250000D01*
X164160729Y-118823489D01*
X164485585Y-119309670D01*
X164800366Y-119520000D01*
X164485585Y-119730330D01*
X164160729Y-120216511D01*
X164046655Y-120790000D01*
X164160729Y-121363489D01*
X164485585Y-121849670D01*
X164800366Y-122060000D01*
X164485585Y-122270330D01*
X164160729Y-122756511D01*
X164046655Y-123330000D01*
X164160729Y-123903489D01*
X164485585Y-124389670D01*
X164800366Y-124600000D01*
X164485585Y-124810330D01*
X164160729Y-125296511D01*
X164046655Y-125870000D01*
X164160729Y-126443489D01*
X164485585Y-126929670D01*
X164800366Y-127140000D01*
X164485585Y-127350330D01*
X164160729Y-127836511D01*
X164046655Y-128410000D01*
X164160729Y-128983489D01*
X164485585Y-129469670D01*
X164800366Y-129680000D01*
X164485585Y-129890330D01*
X164160729Y-130376511D01*
X164046655Y-130950000D01*
X164160729Y-131523489D01*
X164485585Y-132009670D01*
X164800366Y-132220000D01*
X164485585Y-132430330D01*
X164160729Y-132916511D01*
X164046655Y-133490000D01*
X164160729Y-134063489D01*
X164485585Y-134549670D01*
X164971766Y-134874526D01*
X165545255Y-134988600D01*
X165914745Y-134988600D01*
X166488234Y-134874526D01*
X166974415Y-134549670D01*
X167299271Y-134063489D01*
X167413345Y-133490000D01*
X167299271Y-132916511D01*
X166974415Y-132430330D01*
X166659634Y-132220000D01*
X166974415Y-132009670D01*
X167057717Y-131885000D01*
X172045168Y-131885000D01*
X170897977Y-133032191D01*
X170757629Y-133242235D01*
X170708346Y-133490000D01*
X170757629Y-133737765D01*
X170897977Y-133947809D01*
X170943939Y-133993771D01*
X169542710Y-135395000D01*
X142277290Y-135395000D01*
X141655000Y-134772710D01*
X141655000Y-124150000D01*
X141583827Y-123792191D01*
X141381145Y-123488855D01*
X140561145Y-122668855D01*
X140257809Y-122466173D01*
X139900000Y-122395000D01*
X139117717Y-122395000D01*
X139034415Y-122270330D01*
X138719634Y-122060000D01*
X139034415Y-121849670D01*
X139117717Y-121725000D01*
X141130000Y-121725000D01*
X141487809Y-121653827D01*
X141791145Y-121451145D01*
X144081145Y-119161145D01*
X144283827Y-118857809D01*
X144355000Y-118500000D01*
X144355000Y-112379762D01*
X144635000Y-112379762D01*
X144635000Y-128240238D01*
X151805000Y-128240238D01*
X151805000Y-135123571D01*
X163275000Y-135123571D01*
X163275000Y-104696428D01*
X151805000Y-104696428D01*
X151805000Y-112379762D01*
X144635000Y-112379762D01*
X144355000Y-112379762D01*
X144355000Y-110947290D01*
X152101145Y-103201145D01*
X152303827Y-102897809D01*
X152375000Y-102540000D01*
X152375000Y-91239285D01*
X155685000Y-91239285D01*
X155685000Y-103880714D01*
X162055000Y-103880714D01*
X162055000Y-91239285D01*
X155685000Y-91239285D01*
X152375000Y-91239285D01*
X152375000Y-90527290D01*
X152457290Y-90445000D01*
X174711642Y-90445000D01*
X177535835Y-93269193D01*
X177417007Y-93555363D01*
X177416257Y-94414266D01*
X177744253Y-95208076D01*
X178351059Y-95815943D01*
X179144295Y-96145323D01*
X180003198Y-96146073D01*
X180292980Y-96026338D01*
X186374670Y-102108028D01*
X186255842Y-102394198D01*
X186255092Y-103253101D01*
X186583088Y-104046911D01*
X187189894Y-104654778D01*
X187983130Y-104984158D01*
X188842033Y-104984908D01*
X189635843Y-104656912D01*
X190243710Y-104050106D01*
X190573090Y-103256870D01*
X190573840Y-102397967D01*
X190245844Y-101604157D01*
X189639038Y-100996290D01*
X188845802Y-100666910D01*
X187986899Y-100666160D01*
X187697117Y-100785895D01*
X181615427Y-94704205D01*
X181734255Y-94418035D01*
X181735005Y-93559132D01*
X181407009Y-92765322D01*
X180800203Y-92157455D01*
X180006967Y-91828075D01*
X179148064Y-91827325D01*
X178858282Y-91947060D01*
X175760077Y-88848855D01*
X175456741Y-88646173D01*
X175098932Y-88575000D01*
X165087290Y-88575000D01*
X172632494Y-81029796D01*
X172918664Y-81148624D01*
X173777567Y-81149374D01*
X174571377Y-80821378D01*
X175179244Y-80214572D01*
X175508624Y-79421336D01*
X175509374Y-78562433D01*
X175181378Y-77768623D01*
X174574572Y-77160756D01*
X174285000Y-77040515D01*
X174285000Y-68439707D01*
X174571377Y-68321378D01*
X175179244Y-67714572D01*
X175508624Y-66921336D01*
X175509374Y-66062433D01*
X175181378Y-65268623D01*
X174574572Y-64660756D01*
X173781336Y-64331376D01*
X172922433Y-64330626D01*
X172128623Y-64658622D01*
X171520756Y-65265428D01*
X171191376Y-66058664D01*
X171190626Y-66917567D01*
X171518622Y-67711377D01*
X172125428Y-68319244D01*
X172415000Y-68439485D01*
X172415000Y-77040293D01*
X172128623Y-77158622D01*
X171520756Y-77765428D01*
X171191376Y-78558664D01*
X171190626Y-79417567D01*
X171310361Y-79707349D01*
X170932460Y-80085250D01*
X170967798Y-79907599D01*
X170967797Y-79907594D01*
X170967797Y-71612791D01*
X170896624Y-71254982D01*
X170693942Y-70951646D01*
X167287152Y-67544856D01*
X166983816Y-67342174D01*
X166626007Y-67271001D01*
X159180271Y-67271001D01*
X159421377Y-67171378D01*
X160029244Y-66564572D01*
X160358624Y-65771336D01*
X160359374Y-64912433D01*
X160031378Y-64118623D01*
X159694199Y-63780854D01*
X162834457Y-63780854D01*
X163310727Y-64933515D01*
X164191847Y-65816174D01*
X165343674Y-66294454D01*
X166590854Y-66295543D01*
X167743515Y-65819273D01*
X168626174Y-64938153D01*
X169104454Y-63786326D01*
X169105543Y-62539146D01*
X168629273Y-61386485D01*
X167748153Y-60503826D01*
X166596326Y-60025546D01*
X165349146Y-60024457D01*
X164196485Y-60500727D01*
X163313826Y-61381847D01*
X162835546Y-62533674D01*
X162834457Y-63780854D01*
X159694199Y-63780854D01*
X159424572Y-63510756D01*
X158631336Y-63181376D01*
X157772433Y-63180626D01*
X156978623Y-63508622D01*
X156370756Y-64115428D01*
X156250515Y-64405000D01*
X147649707Y-64405000D01*
X147531378Y-64118623D01*
X146924572Y-63510756D01*
X146131336Y-63181376D01*
X145272433Y-63180626D01*
X144478623Y-63508622D01*
X143870756Y-64115428D01*
X143541376Y-64908664D01*
X143540626Y-65767567D01*
X143868622Y-66561377D01*
X144475428Y-67169244D01*
X145268664Y-67498624D01*
X146127567Y-67499374D01*
X146921377Y-67171378D01*
X147529244Y-66564572D01*
X147649485Y-66275000D01*
X153720739Y-66275000D01*
X153728855Y-66287146D01*
X156308855Y-68867146D01*
X156612191Y-69069828D01*
X156970000Y-69141001D01*
X166238717Y-69141001D01*
X169097797Y-72000081D01*
X169097797Y-79520309D01*
X162270962Y-86347144D01*
X151149275Y-86347144D01*
X151149270Y-86347143D01*
X150850826Y-86406508D01*
X150791461Y-86418317D01*
X150488125Y-86620999D01*
X147763855Y-89345269D01*
X147561173Y-89648605D01*
X147490000Y-90006414D01*
X147490000Y-100062710D01*
X139935695Y-107617015D01*
X139733013Y-107920351D01*
X139661840Y-108278160D01*
X139661840Y-114752710D01*
X139639550Y-114775000D01*
X139117717Y-114775000D01*
X139034415Y-114650330D01*
X138719634Y-114440000D01*
X139034415Y-114229670D01*
X139359271Y-113743489D01*
X139473345Y-113170000D01*
X139359271Y-112596511D01*
X139034415Y-112110330D01*
X138719634Y-111900000D01*
X139034415Y-111689670D01*
X139359271Y-111203489D01*
X139473345Y-110630000D01*
X139359271Y-110056511D01*
X139034415Y-109570330D01*
X138719634Y-109360000D01*
X139034415Y-109149670D01*
X139359271Y-108663489D01*
X139473345Y-108090000D01*
X139359271Y-107516511D01*
X139034415Y-107030330D01*
X138724931Y-106823539D01*
X138756349Y-106795468D01*
X139034415Y-106609670D01*
X139138277Y-106454229D01*
X139140732Y-106452036D01*
X139143287Y-106446731D01*
X139359271Y-106123489D01*
X139473345Y-105550000D01*
X139359271Y-104976511D01*
X139143287Y-104653269D01*
X139140732Y-104647964D01*
X139138277Y-104645771D01*
X139034415Y-104490330D01*
X138756349Y-104304532D01*
X138724931Y-104276461D01*
X139034415Y-104069670D01*
X139117717Y-103945000D01*
X139406000Y-103945000D01*
X139763809Y-103873827D01*
X140067145Y-103671145D01*
X146131145Y-97607145D01*
X146333827Y-97303809D01*
X146405000Y-96946000D01*
X146405000Y-89037290D01*
X151937290Y-83505000D01*
X158573865Y-83505000D01*
X159022927Y-83954846D01*
X159623453Y-84204206D01*
X160273694Y-84204774D01*
X160874655Y-83956462D01*
X161334846Y-83497073D01*
X161584206Y-82896547D01*
X161584774Y-82246306D01*
X161336462Y-81645345D01*
X160877073Y-81185154D01*
X160276547Y-80935794D01*
X159626306Y-80935226D01*
X159025345Y-81183538D01*
X158573095Y-81635000D01*
X157325443Y-81635000D01*
X157361145Y-81611145D01*
X163501145Y-75471145D01*
X163703827Y-75167809D01*
X163775000Y-74810000D01*
X163775000Y-71050000D01*
X163703827Y-70692191D01*
X163501145Y-70388855D01*
X162591145Y-69478855D01*
X162287809Y-69276173D01*
X161930000Y-69205000D01*
X157510000Y-69205000D01*
X157152191Y-69276173D01*
X156848855Y-69478855D01*
X156352710Y-69975000D01*
X142077290Y-69975000D01*
X138387673Y-66285383D01*
X138570854Y-66285543D01*
X139723515Y-65809273D01*
X140606174Y-64928153D01*
X141084454Y-63776326D01*
X141085543Y-62529146D01*
X140609273Y-61376485D01*
X139728153Y-60493826D01*
X138576326Y-60015546D01*
X137329146Y-60014457D01*
X136176485Y-60490727D01*
X135293826Y-61371847D01*
X134815546Y-62523674D01*
X134814457Y-63770854D01*
X135290727Y-64923515D01*
X135921111Y-65555000D01*
X132499707Y-65555000D01*
X132381378Y-65268623D01*
X131774572Y-64660756D01*
X130981336Y-64331376D01*
X130122433Y-64330626D01*
X129328623Y-64658622D01*
X128720756Y-65265428D01*
X128391376Y-66058664D01*
X128390626Y-66917567D01*
X128718622Y-67711377D01*
X129325428Y-68319244D01*
X129615000Y-68439485D01*
X129615000Y-77040293D01*
X129328623Y-77158622D01*
X128720756Y-77765428D01*
X128391376Y-78558664D01*
X128390626Y-79417567D01*
X128718622Y-80211377D01*
X129325428Y-80819244D01*
X130118664Y-81148624D01*
X130977567Y-81149374D01*
X131771377Y-80821378D01*
X132379244Y-80214572D01*
X132708624Y-79421336D01*
X132709374Y-78562433D01*
X132381378Y-77768623D01*
X131774572Y-77160756D01*
X131485000Y-77040515D01*
X131485000Y-68439707D01*
X131771377Y-68321378D01*
X132379244Y-67714572D01*
X132499485Y-67425000D01*
X136882710Y-67425000D01*
X140762710Y-71305000D01*
X139580005Y-71305000D01*
X139580000Y-71304999D01*
X139281556Y-71364364D01*
X139222191Y-71376173D01*
X139031101Y-71503855D01*
X138918855Y-71578855D01*
X137768855Y-72728855D01*
X137566173Y-73032191D01*
X137495000Y-73390000D01*
X137495000Y-73709413D01*
X137382235Y-73731843D01*
X137172191Y-73872191D01*
X137031843Y-74082235D01*
X136982560Y-74330000D01*
X136982560Y-75930000D01*
X137031843Y-76177765D01*
X137172191Y-76387809D01*
X137218775Y-76418935D01*
X130822000Y-82815710D01*
X126485000Y-82815710D01*
X126485000Y-80939707D01*
X126771377Y-80821378D01*
X127379244Y-80214572D01*
X127708624Y-79421336D01*
X127709374Y-78562433D01*
X127381378Y-77768623D01*
X126774572Y-77160756D01*
X126485000Y-77040515D01*
X126485000Y-68439707D01*
X126771377Y-68321378D01*
X127379244Y-67714572D01*
X127708624Y-66921336D01*
X127709374Y-66062433D01*
X127396549Y-65305341D01*
X129677290Y-63024600D01*
X132516401Y-63024600D01*
X132874210Y-62953427D01*
X133177546Y-62750745D01*
X136177290Y-59751001D01*
X143606843Y-59751001D01*
X143541376Y-59908664D01*
X143541376Y-59908664D01*
G37*
X143541376Y-59908664D02*
X143540626Y-60767567D01*
X143868622Y-61561377D01*
X144475428Y-62169244D01*
X145268664Y-62498624D01*
X146127567Y-62499374D01*
X146921377Y-62171378D01*
X147529244Y-61564572D01*
X147649485Y-61275000D01*
X156250293Y-61275000D01*
X156368622Y-61561377D01*
X156975428Y-62169244D01*
X157768664Y-62498624D01*
X158627567Y-62499374D01*
X159421377Y-62171378D01*
X160029244Y-61564572D01*
X160358624Y-60771336D01*
X160359374Y-59912433D01*
X160292672Y-59751001D01*
X167708711Y-59751001D01*
X171448855Y-63491145D01*
X171752191Y-63693827D01*
X172110000Y-63765000D01*
X176426710Y-63765000D01*
X177264280Y-64602570D01*
X177128623Y-64658622D01*
X176520756Y-65265428D01*
X176191376Y-66058664D01*
X176190626Y-66917567D01*
X176518622Y-67711377D01*
X177125428Y-68319244D01*
X177415000Y-68439485D01*
X177415000Y-77040293D01*
X177128623Y-77158622D01*
X176520756Y-77765428D01*
X176191376Y-78558664D01*
X176190626Y-79417567D01*
X176518622Y-80211377D01*
X177125428Y-80819244D01*
X177415000Y-80939485D01*
X177415000Y-85690000D01*
X177486173Y-86047809D01*
X177688855Y-86351145D01*
X181071369Y-89733659D01*
X180952541Y-90019829D01*
X180951791Y-90878732D01*
X181279787Y-91672542D01*
X181886593Y-92280409D01*
X182679829Y-92609789D01*
X183538732Y-92610539D01*
X183828514Y-92490804D01*
X189910204Y-98572494D01*
X189791376Y-98858664D01*
X189790626Y-99717567D01*
X190118622Y-100511377D01*
X190725428Y-101119244D01*
X191518664Y-101448624D01*
X192377567Y-101449374D01*
X193171377Y-101121378D01*
X193760000Y-100533782D01*
X193760000Y-107815243D01*
X179954125Y-137980000D01*
X136608435Y-137980000D01*
X136861145Y-137811145D01*
X138451145Y-136221145D01*
X138617490Y-135972191D01*
X138653827Y-135917809D01*
X138702194Y-135674655D01*
X138725001Y-135560000D01*
X138725000Y-135559995D01*
X138725000Y-134756415D01*
X139034415Y-134549670D01*
X139359271Y-134063489D01*
X139473345Y-133490000D01*
X139359271Y-132916511D01*
X139034415Y-132430330D01*
X138719634Y-132220000D01*
X139034415Y-132009670D01*
X139359271Y-131523489D01*
X139473345Y-130950000D01*
X139359271Y-130376511D01*
X139034415Y-129890330D01*
X138719634Y-129680000D01*
X139034415Y-129469670D01*
X139359271Y-128983489D01*
X139473345Y-128410000D01*
X139359271Y-127836511D01*
X139034415Y-127350330D01*
X138719634Y-127140000D01*
X139034415Y-126929670D01*
X139359271Y-126443489D01*
X139473345Y-125870000D01*
X139359271Y-125296511D01*
X139034415Y-124810330D01*
X138719634Y-124600000D01*
X139034415Y-124389670D01*
X139117717Y-124265000D01*
X139512710Y-124265000D01*
X139785000Y-124537290D01*
X139785000Y-135160000D01*
X139856173Y-135517809D01*
X140058855Y-135821145D01*
X141228855Y-136991145D01*
X141532191Y-137193827D01*
X141890000Y-137265000D01*
X169930000Y-137265000D01*
X170287809Y-137193827D01*
X170591145Y-136991145D01*
X172266229Y-135316061D01*
X172312191Y-135362023D01*
X172522235Y-135502371D01*
X172770000Y-135551654D01*
X173017765Y-135502371D01*
X173227809Y-135362023D01*
X174642023Y-133947809D01*
X174782371Y-133737765D01*
X174831654Y-133490000D01*
X174782371Y-133242235D01*
X174642023Y-133032191D01*
X173494832Y-131885000D01*
X173895787Y-131885000D01*
X174253596Y-131813827D01*
X174556932Y-131611145D01*
X176941970Y-129226107D01*
X177216649Y-129501266D01*
X177817364Y-129750704D01*
X178467807Y-129751272D01*
X179068955Y-129502882D01*
X179529290Y-129043351D01*
X179778728Y-128442636D01*
X179779296Y-127792193D01*
X179530906Y-127191045D01*
X179071375Y-126730710D01*
X178470660Y-126481272D01*
X177820217Y-126480704D01*
X177810000Y-126484926D01*
X177810000Y-118120854D01*
X180754457Y-118120854D01*
X181230727Y-119273515D01*
X182111847Y-120156174D01*
X183263674Y-120634454D01*
X184510854Y-120635543D01*
X185663515Y-120159273D01*
X186546174Y-119278153D01*
X187024454Y-118126326D01*
X187025543Y-116879146D01*
X186549273Y-115726485D01*
X185668153Y-114843826D01*
X184516326Y-114365546D01*
X183269146Y-114364457D01*
X182116485Y-114840727D01*
X181233826Y-115721847D01*
X180755546Y-116873674D01*
X180754457Y-118120854D01*
X177810000Y-118120854D01*
X177810000Y-116283571D01*
X174040000Y-116283571D01*
X174040000Y-111564390D01*
X175470180Y-111564390D01*
X175476064Y-111599991D01*
X175471845Y-111635829D01*
X175477562Y-111707898D01*
X175499595Y-111785834D01*
X175510572Y-111866076D01*
X175530887Y-111924941D01*
X175533118Y-111928761D01*
X175533777Y-111933133D01*
X175595999Y-112036411D01*
X175656838Y-112140565D01*
X175660361Y-112143240D01*
X175662643Y-112147028D01*
X175698544Y-112186458D01*
X175714090Y-112197933D01*
X175725029Y-112213861D01*
X175814042Y-112271711D01*
X175826021Y-112280553D01*
X175867324Y-112316464D01*
X175880769Y-112320964D01*
X175899455Y-112334757D01*
X175918209Y-112339409D01*
X175934411Y-112349939D01*
X175947591Y-112355203D01*
X176027275Y-112370000D01*
X176104128Y-112395723D01*
X176140455Y-112400347D01*
X176176967Y-112397797D01*
X176193109Y-112400795D01*
X176201102Y-112399099D01*
X176236655Y-112405287D01*
X176278735Y-112404276D01*
X176321566Y-112394681D01*
X176334739Y-112396514D01*
X176352069Y-112392006D01*
X176389340Y-112391940D01*
X176423538Y-112385074D01*
X176471894Y-112364943D01*
X176509236Y-112360242D01*
X176538668Y-112343470D01*
X176576412Y-112333653D01*
X176585796Y-112329110D01*
X176619924Y-112303318D01*
X176654074Y-112289101D01*
X176672500Y-112270609D01*
X176695334Y-112260126D01*
X176706993Y-112247552D01*
X176726198Y-112236609D01*
X176739215Y-112225324D01*
X176762058Y-112195900D01*
X176785017Y-112178549D01*
X176794916Y-112161691D01*
X176803112Y-112155686D01*
X176823865Y-112121518D01*
X176865128Y-112077020D01*
X176876600Y-112058365D01*
X176883697Y-112039220D01*
X176892350Y-112028074D01*
X176901991Y-111992890D01*
X176932746Y-111942255D01*
X176943161Y-111913677D01*
X176948782Y-111877258D01*
X176964201Y-111843790D01*
X176974048Y-111802731D01*
X176974846Y-111782307D01*
X176982213Y-111763239D01*
X176991978Y-111707146D01*
X176991704Y-111695710D01*
X176995448Y-111684903D01*
X177005620Y-111611219D01*
X177005239Y-111604791D01*
X177007227Y-111598665D01*
X177018294Y-111504835D01*
X177018012Y-111501270D01*
X177019078Y-111497858D01*
X177031528Y-111381327D01*
X177031359Y-111379452D01*
X177031910Y-111377652D01*
X177046231Y-111235864D01*
X177046224Y-111235794D01*
X177046245Y-111235726D01*
X177072624Y-110973995D01*
X177114653Y-110573694D01*
X177156073Y-110200221D01*
X177196945Y-109853066D01*
X177237434Y-109530771D01*
X177277579Y-109232894D01*
X177317467Y-108958508D01*
X177357193Y-108706623D01*
X177397178Y-108474273D01*
X177398213Y-108468550D01*
X177422532Y-108341756D01*
X177445417Y-108380972D01*
X177448661Y-108384636D01*
X177450325Y-108389239D01*
X177489587Y-108454253D01*
X177495773Y-108461033D01*
X177499137Y-108469575D01*
X177528057Y-108514547D01*
X177544318Y-108531390D01*
X177554444Y-108552493D01*
X177641553Y-108668587D01*
X177668193Y-108692463D01*
X177687139Y-108722809D01*
X177779024Y-108820563D01*
X177819329Y-108849336D01*
X177851677Y-108886826D01*
X177941971Y-108957273D01*
X178001867Y-108987411D01*
X178055247Y-109027980D01*
X178143651Y-109071068D01*
X178228227Y-109093311D01*
X178309562Y-109125440D01*
X178395778Y-109141116D01*
X178497702Y-109139435D01*
X178599473Y-109145193D01*
X178683199Y-109133408D01*
X178749492Y-109110242D01*
X178752453Y-109166339D01*
X178753340Y-109169827D01*
X178752864Y-109173399D01*
X178767769Y-109406764D01*
X178768900Y-109411013D01*
X178768378Y-109415374D01*
X178784911Y-109628911D01*
X178786355Y-109634055D01*
X178785807Y-109639369D01*
X178804115Y-109834247D01*
X178805968Y-109840456D01*
X178805432Y-109846915D01*
X178825666Y-110024311D01*
X178828052Y-110031763D01*
X178827593Y-110039576D01*
X178849901Y-110200659D01*
X178852985Y-110209549D01*
X178852705Y-110218952D01*
X178877236Y-110364896D01*
X178881226Y-110375404D01*
X178881279Y-110386647D01*
X178908183Y-110518624D01*
X178913334Y-110530895D01*
X178913942Y-110544186D01*
X178943366Y-110663368D01*
X178949973Y-110677462D01*
X178951429Y-110692963D01*
X178983523Y-110800522D01*
X178991891Y-110816351D01*
X178994545Y-110834055D01*
X179029458Y-110931163D01*
X179039832Y-110948412D01*
X179044045Y-110968096D01*
X179081926Y-111055928D01*
X179094398Y-111074021D01*
X179100442Y-111095148D01*
X179141440Y-111174875D01*
X179155828Y-111192986D01*
X179163758Y-111214712D01*
X179208021Y-111287504D01*
X179223785Y-111304675D01*
X179233330Y-111325941D01*
X179281008Y-111392972D01*
X179297763Y-111408775D01*
X179308663Y-111429066D01*
X179360350Y-111491778D01*
X179382947Y-111510243D01*
X179399015Y-111534601D01*
X179476731Y-111613239D01*
X179506155Y-111633151D01*
X179528856Y-111660482D01*
X179616135Y-111731252D01*
X179647404Y-111747729D01*
X179672820Y-111772289D01*
X179771319Y-111835691D01*
X179802058Y-111847811D01*
X179828039Y-111868228D01*
X179939419Y-111924764D01*
X179967634Y-111932675D01*
X179992217Y-111948623D01*
X180118135Y-111998792D01*
X180142652Y-112003324D01*
X180164551Y-112015246D01*
X180306669Y-112059548D01*
X180327129Y-112061721D01*
X180345785Y-112070393D01*
X180505760Y-112109329D01*
X180522358Y-112110033D01*
X180537760Y-112116255D01*
X180717251Y-112150325D01*
X180730454Y-112150209D01*
X180742885Y-112154653D01*
X180943553Y-112184357D01*
X180953903Y-112183845D01*
X180963767Y-112187021D01*
X181187268Y-112212860D01*
X181195288Y-112212207D01*
X181203007Y-112214483D01*
X181451003Y-112236957D01*
X181457146Y-112236304D01*
X181463104Y-112237938D01*
X181737251Y-112257547D01*
X181740086Y-112257191D01*
X181742849Y-112257923D01*
X181793549Y-112261103D01*
X181795241Y-112260875D01*
X181796894Y-112261304D01*
X182026190Y-112274481D01*
X182028773Y-112274120D01*
X182031301Y-112274754D01*
X182273561Y-112286733D01*
X182275910Y-112286385D01*
X182278217Y-112286946D01*
X182535099Y-112297773D01*
X182537208Y-112297445D01*
X182539287Y-112297936D01*
X182812450Y-112307658D01*
X182814327Y-112307354D01*
X182816180Y-112307780D01*
X183107285Y-112316441D01*
X183108936Y-112316163D01*
X183110569Y-112316530D01*
X183421276Y-112324178D01*
X183422719Y-112323928D01*
X183424149Y-112324242D01*
X183756117Y-112330922D01*
X183757367Y-112330699D01*
X183758611Y-112330968D01*
X184113501Y-112336726D01*
X184114579Y-112336530D01*
X184115650Y-112336757D01*
X184495121Y-112341639D01*
X184496044Y-112341468D01*
X184496962Y-112341660D01*
X184902674Y-112345712D01*
X184903083Y-112345635D01*
X184903492Y-112345720D01*
X185936239Y-112354715D01*
X186035544Y-112335860D01*
X186135979Y-112324575D01*
X186157461Y-112312711D01*
X186181571Y-112308133D01*
X186266090Y-112252717D01*
X186354573Y-112203850D01*
X186401426Y-112164310D01*
X186409317Y-112154421D01*
X186420146Y-112147878D01*
X186446281Y-112124022D01*
X186498419Y-112053198D01*
X186558498Y-111988973D01*
X186571845Y-111967480D01*
X186575629Y-111957407D01*
X186582716Y-111949310D01*
X186589368Y-111929652D01*
X186594323Y-111922921D01*
X186601530Y-111893708D01*
X186618944Y-111842244D01*
X186634710Y-111815893D01*
X186638536Y-111789957D01*
X186659664Y-111733717D01*
X186659305Y-111722965D01*
X186662755Y-111712770D01*
X186666554Y-111683688D01*
X186662719Y-111626028D01*
X186671153Y-111568852D01*
X186668818Y-111522086D01*
X186666281Y-111511994D01*
X186667470Y-111501656D01*
X186664744Y-111468438D01*
X186657358Y-111442581D01*
X186658203Y-111415707D01*
X186652457Y-111381184D01*
X186622433Y-111301726D01*
X186602715Y-111219103D01*
X186591166Y-111193962D01*
X186580954Y-111179866D01*
X186576011Y-111163174D01*
X186564890Y-111149438D01*
X186564191Y-111147589D01*
X186558398Y-111141420D01*
X186508033Y-111079214D01*
X186444660Y-110991740D01*
X186429830Y-110982625D01*
X186418876Y-110969095D01*
X186397843Y-110951599D01*
X186299839Y-110898377D01*
X186281860Y-110882172D01*
X186254883Y-110872604D01*
X186194016Y-110837498D01*
X186159819Y-110825906D01*
X186101729Y-110818284D01*
X186046509Y-110798699D01*
X185995463Y-110791272D01*
X185971274Y-110792528D01*
X185947906Y-110786159D01*
X185876332Y-110781160D01*
X185868341Y-110782177D01*
X185860523Y-110780253D01*
X185764738Y-110775941D01*
X185761559Y-110776426D01*
X185758428Y-110775688D01*
X185713115Y-110774096D01*
X185710822Y-110774469D01*
X185708557Y-110773952D01*
X185632843Y-110771832D01*
X185631627Y-110772039D01*
X185630420Y-110771768D01*
X185532114Y-110769388D01*
X185531361Y-110769519D01*
X185530618Y-110769354D01*
X185412561Y-110766772D01*
X185412036Y-110766865D01*
X185411515Y-110766750D01*
X185276545Y-110764019D01*
X185276132Y-110764092D01*
X185275723Y-110764003D01*
X185126687Y-110761179D01*
X185126338Y-110761242D01*
X185125990Y-110761166D01*
X184965725Y-110758304D01*
X184965406Y-110758362D01*
X184965089Y-110758293D01*
X184796440Y-110755449D01*
X184796133Y-110755505D01*
X184795829Y-110755439D01*
X184621636Y-110752668D01*
X184621327Y-110752724D01*
X184621017Y-110752658D01*
X184444122Y-110750015D01*
X184444088Y-110750021D01*
X184444054Y-110750014D01*
X184270769Y-110747443D01*
X183873804Y-110740939D01*
X183503281Y-110733843D01*
X183159035Y-110726021D01*
X182840284Y-110717333D01*
X182736009Y-110713897D01*
X182736087Y-110688890D01*
X182731071Y-110663252D01*
X182734167Y-110637314D01*
X182731136Y-110598299D01*
X182727009Y-110583608D01*
X182728104Y-110568388D01*
X182721701Y-110517229D01*
X182718893Y-110508780D01*
X182719289Y-110499886D01*
X182709266Y-110434398D01*
X182707494Y-110429516D01*
X182707642Y-110424323D01*
X182693750Y-110342321D01*
X182692688Y-110339535D01*
X182692746Y-110336554D01*
X182674737Y-110235852D01*
X182674137Y-110234321D01*
X182674161Y-110232678D01*
X182651784Y-110111092D01*
X182651486Y-110110343D01*
X182651496Y-110109539D01*
X182624504Y-109964884D01*
X182624399Y-109964621D01*
X182624402Y-109964338D01*
X182596754Y-109816878D01*
X182764819Y-109768150D01*
X182768527Y-109766227D01*
X182772684Y-109765815D01*
X183142532Y-109653424D01*
X183146864Y-109651106D01*
X183151747Y-109650548D01*
X183501929Y-109538336D01*
X183506687Y-109535697D01*
X183512081Y-109534989D01*
X183840978Y-109423507D01*
X183846303Y-109420436D01*
X183852383Y-109419521D01*
X184158377Y-109309320D01*
X184164465Y-109305654D01*
X184171469Y-109304443D01*
X184452942Y-109196075D01*
X184460075Y-109191565D01*
X184468351Y-109189912D01*
X184723686Y-109083927D01*
X184731094Y-109078969D01*
X184739784Y-109076985D01*
X184850972Y-109027220D01*
X184857139Y-109022844D01*
X184864468Y-109020990D01*
X185008838Y-108952306D01*
X185014392Y-108948167D01*
X185021067Y-108946327D01*
X185169708Y-108871693D01*
X185174666Y-108867832D01*
X185180694Y-108866044D01*
X185328577Y-108788180D01*
X185333477Y-108784210D01*
X185339493Y-108782298D01*
X185481587Y-108703930D01*
X185486978Y-108699386D01*
X185493646Y-108697107D01*
X185624921Y-108620954D01*
X185631552Y-108615114D01*
X185639835Y-108612030D01*
X185755260Y-108540814D01*
X185764549Y-108532175D01*
X185776257Y-108527287D01*
X185870803Y-108463730D01*
X185877299Y-108457197D01*
X185885696Y-108453409D01*
X185886756Y-108452651D01*
X185896249Y-108442549D01*
X185908634Y-108436312D01*
X186066144Y-108313352D01*
X186085602Y-108290787D01*
X186110867Y-108274998D01*
X186246856Y-108147057D01*
X186266323Y-108119761D01*
X186292758Y-108099148D01*
X186406211Y-107967730D01*
X186425179Y-107934277D01*
X186452480Y-107907193D01*
X186542378Y-107773804D01*
X186559685Y-107732488D01*
X186586812Y-107696834D01*
X186652141Y-107562982D01*
X186665531Y-107512180D01*
X186690122Y-107465756D01*
X186729867Y-107332945D01*
X186735627Y-107272130D01*
X186753500Y-107213715D01*
X186766645Y-107083451D01*
X186763352Y-107049171D01*
X186769867Y-107015357D01*
X186769836Y-107010188D01*
X186766587Y-106994351D01*
X186768852Y-106978343D01*
X186764296Y-106896755D01*
X186753999Y-106856785D01*
X186754520Y-106815508D01*
X186740658Y-106740914D01*
X186724322Y-106700024D01*
X186718878Y-106656332D01*
X186693214Y-106578968D01*
X186677553Y-106551403D01*
X186670573Y-106520478D01*
X186630607Y-106430585D01*
X186620599Y-106416408D01*
X186615879Y-106399709D01*
X186595354Y-106359483D01*
X186577521Y-106336889D01*
X186567263Y-106309995D01*
X186490093Y-106187112D01*
X186462896Y-106158331D01*
X186444360Y-106123335D01*
X186345898Y-106002433D01*
X186319444Y-105980555D01*
X186300250Y-105952094D01*
X186179577Y-105832450D01*
X186155460Y-105816484D01*
X186137209Y-105794040D01*
X185993401Y-105674931D01*
X185972340Y-105663552D01*
X185955910Y-105646146D01*
X185788049Y-105526850D01*
X185770156Y-105518827D01*
X185755858Y-105505406D01*
X185563018Y-105385198D01*
X185548068Y-105379553D01*
X185535895Y-105369204D01*
X185317157Y-105247364D01*
X185304798Y-105243380D01*
X185294575Y-105235370D01*
X185049017Y-105111173D01*
X185038726Y-105108304D01*
X185030105Y-105101995D01*
X184820891Y-105004672D01*
X184810830Y-105002220D01*
X184802279Y-104996371D01*
X184513396Y-104873018D01*
X184503714Y-104870983D01*
X184495381Y-104865647D01*
X184179258Y-104741888D01*
X184170884Y-104740392D01*
X184163603Y-104735994D01*
X183820608Y-104611951D01*
X183813292Y-104610840D01*
X183806868Y-104607157D01*
X183437371Y-104482955D01*
X183430913Y-104482124D01*
X183425201Y-104478999D01*
X183029573Y-104354759D01*
X183023822Y-104354136D01*
X183018697Y-104351449D01*
X182597310Y-104227298D01*
X182592148Y-104226831D01*
X182587520Y-104224498D01*
X182140741Y-104100556D01*
X182136069Y-104100208D01*
X182131856Y-104098160D01*
X181660056Y-103974554D01*
X181657880Y-103974424D01*
X181655914Y-103973484D01*
X181294979Y-103881497D01*
X181289762Y-103873900D01*
X181231870Y-103836273D01*
X181216000Y-103820665D01*
X181195338Y-103812307D01*
X181110029Y-103750532D01*
X181094109Y-103746737D01*
X181080385Y-103737817D01*
X181048444Y-103725061D01*
X180963642Y-103709311D01*
X180952150Y-103703107D01*
X180936333Y-103701483D01*
X180873584Y-103682471D01*
X180826353Y-103677835D01*
X180805345Y-103679911D01*
X180802927Y-103679462D01*
X180796856Y-103680750D01*
X180765037Y-103683895D01*
X180740994Y-103681426D01*
X180732533Y-103679513D01*
X180728731Y-103680167D01*
X180703741Y-103677601D01*
X180655794Y-103682124D01*
X180592960Y-103700901D01*
X180577849Y-103702394D01*
X180567586Y-103707884D01*
X180486431Y-103721843D01*
X180450971Y-103735462D01*
X180432888Y-103746876D01*
X180412100Y-103751881D01*
X180327879Y-103813156D01*
X180313902Y-103821978D01*
X180274266Y-103841902D01*
X180264597Y-103853099D01*
X180239802Y-103868749D01*
X180227464Y-103886213D01*
X180210173Y-103898793D01*
X180197485Y-103912537D01*
X180159109Y-103975253D01*
X180111056Y-104030899D01*
X180102899Y-104045280D01*
X180098148Y-104033615D01*
X180025029Y-103959622D01*
X179956975Y-103880943D01*
X179937745Y-103871296D01*
X179922624Y-103855994D01*
X179873762Y-103822924D01*
X179864240Y-103818913D01*
X179856745Y-103811796D01*
X179749496Y-103770584D01*
X179643627Y-103725993D01*
X179633293Y-103725932D01*
X179623647Y-103722225D01*
X179558057Y-103710931D01*
X179500819Y-103712410D01*
X179444583Y-103701668D01*
X179437224Y-103701724D01*
X179401817Y-103709047D01*
X179365765Y-103706273D01*
X179306907Y-103713343D01*
X179196666Y-103749374D01*
X179085476Y-103782260D01*
X179045044Y-103803511D01*
X179030878Y-103814972D01*
X179013722Y-103821113D01*
X178934276Y-103893133D01*
X178850913Y-103960582D01*
X178842212Y-103976592D01*
X178828712Y-103988830D01*
X178799959Y-104027607D01*
X178792974Y-104042380D01*
X178790425Y-104044771D01*
X178761122Y-104109587D01*
X178714162Y-104185792D01*
X178711069Y-104194112D01*
X178705827Y-104226685D01*
X178693215Y-104253357D01*
X178692861Y-104260576D01*
X178687555Y-104272313D01*
X178679138Y-104308548D01*
X178678593Y-104325623D01*
X178672385Y-104341536D01*
X178662168Y-104399111D01*
X178662335Y-104407176D01*
X178659590Y-104414763D01*
X178648263Y-104489286D01*
X178648511Y-104494729D01*
X178646743Y-104499883D01*
X178634995Y-104586956D01*
X178635282Y-104591557D01*
X178633848Y-104595937D01*
X178622369Y-104691164D01*
X178622504Y-104692926D01*
X178621963Y-104694609D01*
X178606661Y-104827612D01*
X178559860Y-105213802D01*
X178512896Y-105570560D01*
X178465685Y-105898751D01*
X178418240Y-106198586D01*
X178370649Y-106469932D01*
X178350762Y-106571337D01*
X178350178Y-106570667D01*
X178347875Y-106564266D01*
X178293366Y-106473697D01*
X178286845Y-106466528D01*
X178283292Y-106457508D01*
X178234674Y-106381920D01*
X178225587Y-106372510D01*
X178220306Y-106360539D01*
X178175794Y-106297099D01*
X178163988Y-106285819D01*
X178156655Y-106271230D01*
X178114469Y-106217111D01*
X178100632Y-106205161D01*
X178091513Y-106189312D01*
X178049868Y-106141681D01*
X178031548Y-106127580D01*
X178018620Y-106108414D01*
X177971480Y-106061685D01*
X177933647Y-106036645D01*
X177903252Y-106002966D01*
X177814297Y-105936700D01*
X177748089Y-105905214D01*
X177687898Y-105863346D01*
X177598942Y-105824534D01*
X177511586Y-105805452D01*
X177426936Y-105776659D01*
X177339041Y-105765032D01*
X177241006Y-105771397D01*
X177142785Y-105769439D01*
X177057008Y-105784731D01*
X176969764Y-105818848D01*
X176879574Y-105844149D01*
X176796976Y-105886090D01*
X176734771Y-105934988D01*
X176666132Y-105974356D01*
X176587773Y-106042680D01*
X176549471Y-106092302D01*
X176502179Y-106133446D01*
X176429119Y-106227883D01*
X176407277Y-106271735D01*
X176375617Y-106309120D01*
X176308915Y-106429403D01*
X176299160Y-106459859D01*
X176281004Y-106486184D01*
X176235262Y-106592172D01*
X176230945Y-106612320D01*
X176220347Y-106629990D01*
X176164512Y-106785899D01*
X176162029Y-106802602D01*
X176154108Y-106817517D01*
X176098959Y-107001065D01*
X176097736Y-107013831D01*
X176092171Y-107025387D01*
X176037739Y-107236427D01*
X176037176Y-107246465D01*
X176033096Y-107255653D01*
X175979409Y-107494039D01*
X175979205Y-107502126D01*
X175976107Y-107509600D01*
X175923194Y-107775183D01*
X175923192Y-107781838D01*
X175920770Y-107788035D01*
X175868660Y-108080669D01*
X175868772Y-108086241D01*
X175866833Y-108091464D01*
X175815555Y-108411004D01*
X175815731Y-108415739D01*
X175814147Y-108420205D01*
X175763730Y-108766503D01*
X175763941Y-108770580D01*
X175762624Y-108774446D01*
X175713096Y-109147354D01*
X175713325Y-109150907D01*
X175712213Y-109154290D01*
X175663604Y-109553663D01*
X175663760Y-109555729D01*
X175663127Y-109557697D01*
X175648579Y-109683897D01*
X175648657Y-109684854D01*
X175648366Y-109685769D01*
X175628690Y-109860983D01*
X175628773Y-109861959D01*
X175628478Y-109862894D01*
X175608909Y-110042007D01*
X175608987Y-110042898D01*
X175608721Y-110043751D01*
X175589514Y-110224128D01*
X175589590Y-110224971D01*
X175589340Y-110225780D01*
X175570749Y-110404783D01*
X175570827Y-110405620D01*
X175570581Y-110406423D01*
X175552862Y-110581418D01*
X175552945Y-110582285D01*
X175552692Y-110583119D01*
X175536100Y-110751469D01*
X175536193Y-110752413D01*
X175535920Y-110753322D01*
X175520710Y-110912392D01*
X175520820Y-110913478D01*
X175520510Y-110914523D01*
X175506936Y-111061675D01*
X175507076Y-111063010D01*
X175506699Y-111064300D01*
X175495018Y-111196901D01*
X175495210Y-111198662D01*
X175494722Y-111200366D01*
X175485187Y-111315777D01*
X175485482Y-111318352D01*
X175484789Y-111320847D01*
X175477656Y-111416435D01*
X175478185Y-111420754D01*
X175477077Y-111424961D01*
X175472601Y-111498088D01*
X175473854Y-111507302D01*
X175471744Y-111516360D01*
X175470180Y-111564390D01*
X174040000Y-111564390D01*
X174040000Y-102890000D01*
X173982148Y-102599161D01*
X173817401Y-102352599D01*
X173570839Y-102187852D01*
X173280000Y-102130000D01*
X168280000Y-102130000D01*
X167989161Y-102187852D01*
X167742599Y-102352599D01*
X167577852Y-102599161D01*
X167520000Y-102890000D01*
X167520000Y-128890000D01*
X167577852Y-129180839D01*
X167742599Y-129427401D01*
X167989161Y-129592148D01*
X168280000Y-129650000D01*
X173280000Y-129650000D01*
X173570839Y-129592148D01*
X173817401Y-129427401D01*
X173982148Y-129180839D01*
X174040000Y-128890000D01*
X174040000Y-126496428D01*
X177782162Y-126496428D01*
X177219069Y-126729094D01*
X176766384Y-127180988D01*
X176729799Y-127180988D01*
X176371990Y-127252161D01*
X176068654Y-127454843D01*
X173508497Y-130015000D01*
X167057717Y-130015000D01*
X166974415Y-129890330D01*
X166659634Y-129680000D01*
X166974415Y-129469670D01*
X167299271Y-128983489D01*
X167413345Y-128410000D01*
X167299271Y-127836511D01*
X166974415Y-127350330D01*
X166659634Y-127140000D01*
X166974415Y-126929670D01*
X167299271Y-126443489D01*
X167413345Y-125870000D01*
X167299271Y-125296511D01*
X166974415Y-124810330D01*
X166659634Y-124600000D01*
X166974415Y-124389670D01*
X167299271Y-123903489D01*
X167413345Y-123330000D01*
X167299271Y-122756511D01*
X166974415Y-122270330D01*
X166659634Y-122060000D01*
X166974415Y-121849670D01*
X167299271Y-121363489D01*
X167413345Y-120790000D01*
X167299271Y-120216511D01*
X166974415Y-119730330D01*
X166659634Y-119520000D01*
X166974415Y-119309670D01*
X167299271Y-118823489D01*
X167413345Y-118250000D01*
X167299271Y-117676511D01*
X166974415Y-117190330D01*
X166659634Y-116980000D01*
X166974415Y-116769670D01*
X167299271Y-116283489D01*
X167413345Y-115710000D01*
X167299271Y-115136511D01*
X166974415Y-114650330D01*
X166659634Y-114440000D01*
X166974415Y-114229670D01*
X167299271Y-113743489D01*
X167413345Y-113170000D01*
X167299271Y-112596511D01*
X166974415Y-112110330D01*
X166659634Y-111900000D01*
X166974415Y-111689670D01*
X167299271Y-111203489D01*
X167413345Y-110630000D01*
X167299271Y-110056511D01*
X166974415Y-109570330D01*
X166659634Y-109360000D01*
X166974415Y-109149670D01*
X167299271Y-108663489D01*
X167413345Y-108090000D01*
X167299271Y-107516511D01*
X166974415Y-107030330D01*
X166659634Y-106820000D01*
X166974415Y-106609670D01*
X167299271Y-106123489D01*
X167413345Y-105550000D01*
X167299271Y-104976511D01*
X166974415Y-104490330D01*
X166659634Y-104280000D01*
X166974415Y-104069670D01*
X167299271Y-103583489D01*
X167413345Y-103010000D01*
X167299271Y-102436511D01*
X166974415Y-101950330D01*
X166659634Y-101740000D01*
X166974415Y-101529670D01*
X167299271Y-101043489D01*
X167413345Y-100470000D01*
X167299271Y-99896511D01*
X166974415Y-99410330D01*
X166659634Y-99200000D01*
X166974415Y-98989670D01*
X167299271Y-98503489D01*
X167413345Y-97930000D01*
X167299271Y-97356511D01*
X166974415Y-96870330D01*
X166488234Y-96545474D01*
X165914745Y-96431400D01*
X165545255Y-96431400D01*
X164971766Y-96545474D01*
X164485585Y-96870330D01*
X164160729Y-97356511D01*
X164046655Y-97930000D01*
X164160729Y-98503489D01*
X164485585Y-98989670D01*
X164800366Y-99200000D01*
X164485585Y-99410330D01*
X164160729Y-99896511D01*
X164046655Y-100470000D01*
X164160729Y-101043489D01*
X164485585Y-101529670D01*
X164800366Y-101740000D01*
X164485585Y-101950330D01*
X164160729Y-102436511D01*
X164046655Y-103010000D01*
X164160729Y-103583489D01*
X164485585Y-104069670D01*
X164800366Y-104280000D01*
X164485585Y-104490330D01*
X164160729Y-104976511D01*
X164046655Y-105550000D01*
X164160729Y-106123489D01*
X164485585Y-106609670D01*
X164800366Y-106820000D01*
X164485585Y-107030330D01*
X164160729Y-107516511D01*
X164046655Y-108090000D01*
X164160729Y-108663489D01*
X164485585Y-109149670D01*
X164800366Y-109360000D01*
X164485585Y-109570330D01*
X164160729Y-110056511D01*
X164046655Y-110630000D01*
X164160729Y-111203489D01*
X164485585Y-111689670D01*
X164800366Y-111900000D01*
X164485585Y-112110330D01*
X164160729Y-112596511D01*
X164046655Y-113170000D01*
X164160729Y-113743489D01*
X164485585Y-114229670D01*
X164800366Y-114440000D01*
X164485585Y-114650330D01*
X164160729Y-115136511D01*
X164046655Y-115710000D01*
X164160729Y-116283489D01*
X164485585Y-116769670D01*
X164800366Y-116980000D01*
X164485585Y-117190330D01*
X164160729Y-117676511D01*
X164046655Y-118250000D01*
X164160729Y-118823489D01*
X164485585Y-119309670D01*
X164800366Y-119520000D01*
X164485585Y-119730330D01*
X164160729Y-120216511D01*
X164046655Y-120790000D01*
X164160729Y-121363489D01*
X164485585Y-121849670D01*
X164800366Y-122060000D01*
X164485585Y-122270330D01*
X164160729Y-122756511D01*
X164046655Y-123330000D01*
X164160729Y-123903489D01*
X164485585Y-124389670D01*
X164800366Y-124600000D01*
X164485585Y-124810330D01*
X164160729Y-125296511D01*
X164046655Y-125870000D01*
X164160729Y-126443489D01*
X164485585Y-126929670D01*
X164800366Y-127140000D01*
X164485585Y-127350330D01*
X164160729Y-127836511D01*
X164046655Y-128410000D01*
X164160729Y-128983489D01*
X164485585Y-129469670D01*
X164800366Y-129680000D01*
X164485585Y-129890330D01*
X164160729Y-130376511D01*
X164046655Y-130950000D01*
X164160729Y-131523489D01*
X164485585Y-132009670D01*
X164800366Y-132220000D01*
X164485585Y-132430330D01*
X164160729Y-132916511D01*
X164046655Y-133490000D01*
X164160729Y-134063489D01*
X164485585Y-134549670D01*
X164971766Y-134874526D01*
X165545255Y-134988600D01*
X165914745Y-134988600D01*
X166488234Y-134874526D01*
X166974415Y-134549670D01*
X167299271Y-134063489D01*
X167413345Y-133490000D01*
X167299271Y-132916511D01*
X166974415Y-132430330D01*
X166659634Y-132220000D01*
X166974415Y-132009670D01*
X167057717Y-131885000D01*
X172045168Y-131885000D01*
X170897977Y-133032191D01*
X170757629Y-133242235D01*
X170708346Y-133490000D01*
X170757629Y-133737765D01*
X170897977Y-133947809D01*
X170943939Y-133993771D01*
X169542710Y-135395000D01*
X142277290Y-135395000D01*
X141655000Y-134772710D01*
X141655000Y-124150000D01*
X141583827Y-123792191D01*
X141381145Y-123488855D01*
X140561145Y-122668855D01*
X140257809Y-122466173D01*
X139900000Y-122395000D01*
X139117717Y-122395000D01*
X139034415Y-122270330D01*
X138719634Y-122060000D01*
X139034415Y-121849670D01*
X139117717Y-121725000D01*
X141130000Y-121725000D01*
X141487809Y-121653827D01*
X141791145Y-121451145D01*
X144081145Y-119161145D01*
X144283827Y-118857809D01*
X144355000Y-118500000D01*
X144355000Y-112379762D01*
X144635000Y-112379762D01*
X144635000Y-128240238D01*
X151805000Y-128240238D01*
X151805000Y-135123571D01*
X163275000Y-135123571D01*
X163275000Y-104696428D01*
X151805000Y-104696428D01*
X151805000Y-112379762D01*
X144635000Y-112379762D01*
X144355000Y-112379762D01*
X144355000Y-110947290D01*
X152101145Y-103201145D01*
X152303827Y-102897809D01*
X152375000Y-102540000D01*
X152375000Y-91239285D01*
X155685000Y-91239285D01*
X155685000Y-103880714D01*
X162055000Y-103880714D01*
X162055000Y-91239285D01*
X155685000Y-91239285D01*
X152375000Y-91239285D01*
X152375000Y-90527290D01*
X152457290Y-90445000D01*
X174711642Y-90445000D01*
X177535835Y-93269193D01*
X177417007Y-93555363D01*
X177416257Y-94414266D01*
X177744253Y-95208076D01*
X178351059Y-95815943D01*
X179144295Y-96145323D01*
X180003198Y-96146073D01*
X180292980Y-96026338D01*
X186374670Y-102108028D01*
X186255842Y-102394198D01*
X186255092Y-103253101D01*
X186583088Y-104046911D01*
X187189894Y-104654778D01*
X187983130Y-104984158D01*
X188842033Y-104984908D01*
X189635843Y-104656912D01*
X190243710Y-104050106D01*
X190573090Y-103256870D01*
X190573840Y-102397967D01*
X190245844Y-101604157D01*
X189639038Y-100996290D01*
X188845802Y-100666910D01*
X187986899Y-100666160D01*
X187697117Y-100785895D01*
X181615427Y-94704205D01*
X181734255Y-94418035D01*
X181735005Y-93559132D01*
X181407009Y-92765322D01*
X180800203Y-92157455D01*
X180006967Y-91828075D01*
X179148064Y-91827325D01*
X178858282Y-91947060D01*
X175760077Y-88848855D01*
X175456741Y-88646173D01*
X175098932Y-88575000D01*
X165087290Y-88575000D01*
X172632494Y-81029796D01*
X172918664Y-81148624D01*
X173777567Y-81149374D01*
X174571377Y-80821378D01*
X175179244Y-80214572D01*
X175508624Y-79421336D01*
X175509374Y-78562433D01*
X175181378Y-77768623D01*
X174574572Y-77160756D01*
X174285000Y-77040515D01*
X174285000Y-68439707D01*
X174571377Y-68321378D01*
X175179244Y-67714572D01*
X175508624Y-66921336D01*
X175509374Y-66062433D01*
X175181378Y-65268623D01*
X174574572Y-64660756D01*
X173781336Y-64331376D01*
X172922433Y-64330626D01*
X172128623Y-64658622D01*
X171520756Y-65265428D01*
X171191376Y-66058664D01*
X171190626Y-66917567D01*
X171518622Y-67711377D01*
X172125428Y-68319244D01*
X172415000Y-68439485D01*
X172415000Y-77040293D01*
X172128623Y-77158622D01*
X171520756Y-77765428D01*
X171191376Y-78558664D01*
X171190626Y-79417567D01*
X171310361Y-79707349D01*
X170932460Y-80085250D01*
X170967798Y-79907599D01*
X170967797Y-79907594D01*
X170967797Y-71612791D01*
X170896624Y-71254982D01*
X170693942Y-70951646D01*
X167287152Y-67544856D01*
X166983816Y-67342174D01*
X166626007Y-67271001D01*
X159180271Y-67271001D01*
X159421377Y-67171378D01*
X160029244Y-66564572D01*
X160358624Y-65771336D01*
X160359374Y-64912433D01*
X160031378Y-64118623D01*
X159694199Y-63780854D01*
X162834457Y-63780854D01*
X163310727Y-64933515D01*
X164191847Y-65816174D01*
X165343674Y-66294454D01*
X166590854Y-66295543D01*
X167743515Y-65819273D01*
X168626174Y-64938153D01*
X169104454Y-63786326D01*
X169105543Y-62539146D01*
X168629273Y-61386485D01*
X167748153Y-60503826D01*
X166596326Y-60025546D01*
X165349146Y-60024457D01*
X164196485Y-60500727D01*
X163313826Y-61381847D01*
X162835546Y-62533674D01*
X162834457Y-63780854D01*
X159694199Y-63780854D01*
X159424572Y-63510756D01*
X158631336Y-63181376D01*
X157772433Y-63180626D01*
X156978623Y-63508622D01*
X156370756Y-64115428D01*
X156250515Y-64405000D01*
X147649707Y-64405000D01*
X147531378Y-64118623D01*
X146924572Y-63510756D01*
X146131336Y-63181376D01*
X145272433Y-63180626D01*
X144478623Y-63508622D01*
X143870756Y-64115428D01*
X143541376Y-64908664D01*
X143540626Y-65767567D01*
X143868622Y-66561377D01*
X144475428Y-67169244D01*
X145268664Y-67498624D01*
X146127567Y-67499374D01*
X146921377Y-67171378D01*
X147529244Y-66564572D01*
X147649485Y-66275000D01*
X153720739Y-66275000D01*
X153728855Y-66287146D01*
X156308855Y-68867146D01*
X156612191Y-69069828D01*
X156970000Y-69141001D01*
X166238717Y-69141001D01*
X169097797Y-72000081D01*
X169097797Y-79520309D01*
X162270962Y-86347144D01*
X151149275Y-86347144D01*
X151149270Y-86347143D01*
X150850826Y-86406508D01*
X150791461Y-86418317D01*
X150488125Y-86620999D01*
X147763855Y-89345269D01*
X147561173Y-89648605D01*
X147490000Y-90006414D01*
X147490000Y-100062710D01*
X139935695Y-107617015D01*
X139733013Y-107920351D01*
X139661840Y-108278160D01*
X139661840Y-114752710D01*
X139639550Y-114775000D01*
X139117717Y-114775000D01*
X139034415Y-114650330D01*
X138719634Y-114440000D01*
X139034415Y-114229670D01*
X139359271Y-113743489D01*
X139473345Y-113170000D01*
X139359271Y-112596511D01*
X139034415Y-112110330D01*
X138719634Y-111900000D01*
X139034415Y-111689670D01*
X139359271Y-111203489D01*
X139473345Y-110630000D01*
X139359271Y-110056511D01*
X139034415Y-109570330D01*
X138719634Y-109360000D01*
X139034415Y-109149670D01*
X139359271Y-108663489D01*
X139473345Y-108090000D01*
X139359271Y-107516511D01*
X139034415Y-107030330D01*
X138724931Y-106823539D01*
X138756349Y-106795468D01*
X139034415Y-106609670D01*
X139138277Y-106454229D01*
X139140732Y-106452036D01*
X139143287Y-106446731D01*
X139359271Y-106123489D01*
X139473345Y-105550000D01*
X139359271Y-104976511D01*
X139143287Y-104653269D01*
X139140732Y-104647964D01*
X139138277Y-104645771D01*
X139034415Y-104490330D01*
X138756349Y-104304532D01*
X138724931Y-104276461D01*
X139034415Y-104069670D01*
X139117717Y-103945000D01*
X139406000Y-103945000D01*
X139763809Y-103873827D01*
X140067145Y-103671145D01*
X146131145Y-97607145D01*
X146333827Y-97303809D01*
X146405000Y-96946000D01*
X146405000Y-89037290D01*
X151937290Y-83505000D01*
X158573865Y-83505000D01*
X159022927Y-83954846D01*
X159623453Y-84204206D01*
X160273694Y-84204774D01*
X160874655Y-83956462D01*
X161334846Y-83497073D01*
X161584206Y-82896547D01*
X161584774Y-82246306D01*
X161336462Y-81645345D01*
X160877073Y-81185154D01*
X160276547Y-80935794D01*
X159626306Y-80935226D01*
X159025345Y-81183538D01*
X158573095Y-81635000D01*
X157325443Y-81635000D01*
X157361145Y-81611145D01*
X163501145Y-75471145D01*
X163703827Y-75167809D01*
X163775000Y-74810000D01*
X163775000Y-71050000D01*
X163703827Y-70692191D01*
X163501145Y-70388855D01*
X162591145Y-69478855D01*
X162287809Y-69276173D01*
X161930000Y-69205000D01*
X157510000Y-69205000D01*
X157152191Y-69276173D01*
X156848855Y-69478855D01*
X156352710Y-69975000D01*
X142077290Y-69975000D01*
X138387673Y-66285383D01*
X138570854Y-66285543D01*
X139723515Y-65809273D01*
X140606174Y-64928153D01*
X141084454Y-63776326D01*
X141085543Y-62529146D01*
X140609273Y-61376485D01*
X139728153Y-60493826D01*
X138576326Y-60015546D01*
X137329146Y-60014457D01*
X136176485Y-60490727D01*
X135293826Y-61371847D01*
X134815546Y-62523674D01*
X134814457Y-63770854D01*
X135290727Y-64923515D01*
X135921111Y-65555000D01*
X132499707Y-65555000D01*
X132381378Y-65268623D01*
X131774572Y-64660756D01*
X130981336Y-64331376D01*
X130122433Y-64330626D01*
X129328623Y-64658622D01*
X128720756Y-65265428D01*
X128391376Y-66058664D01*
X128390626Y-66917567D01*
X128718622Y-67711377D01*
X129325428Y-68319244D01*
X129615000Y-68439485D01*
X129615000Y-77040293D01*
X129328623Y-77158622D01*
X128720756Y-77765428D01*
X128391376Y-78558664D01*
X128390626Y-79417567D01*
X128718622Y-80211377D01*
X129325428Y-80819244D01*
X130118664Y-81148624D01*
X130977567Y-81149374D01*
X131771377Y-80821378D01*
X132379244Y-80214572D01*
X132708624Y-79421336D01*
X132709374Y-78562433D01*
X132381378Y-77768623D01*
X131774572Y-77160756D01*
X131485000Y-77040515D01*
X131485000Y-68439707D01*
X131771377Y-68321378D01*
X132379244Y-67714572D01*
X132499485Y-67425000D01*
X136882710Y-67425000D01*
X140762710Y-71305000D01*
X139580005Y-71305000D01*
X139580000Y-71304999D01*
X139281556Y-71364364D01*
X139222191Y-71376173D01*
X139031101Y-71503855D01*
X138918855Y-71578855D01*
X137768855Y-72728855D01*
X137566173Y-73032191D01*
X137495000Y-73390000D01*
X137495000Y-73709413D01*
X137382235Y-73731843D01*
X137172191Y-73872191D01*
X137031843Y-74082235D01*
X136982560Y-74330000D01*
X136982560Y-75930000D01*
X137031843Y-76177765D01*
X137172191Y-76387809D01*
X137218775Y-76418935D01*
X130822000Y-82815710D01*
X126485000Y-82815710D01*
X126485000Y-80939707D01*
X126771377Y-80821378D01*
X127379244Y-80214572D01*
X127708624Y-79421336D01*
X127709374Y-78562433D01*
X127381378Y-77768623D01*
X126774572Y-77160756D01*
X126485000Y-77040515D01*
X126485000Y-68439707D01*
X126771377Y-68321378D01*
X127379244Y-67714572D01*
X127708624Y-66921336D01*
X127709374Y-66062433D01*
X127396549Y-65305341D01*
X129677290Y-63024600D01*
X132516401Y-63024600D01*
X132874210Y-62953427D01*
X133177546Y-62750745D01*
X136177290Y-59751001D01*
X143606843Y-59751001D01*
X143541376Y-59908664D01*
G36*
X180546357Y-110220173D02*
X180574002Y-110224747D01*
X180599195Y-110223931D01*
X180613566Y-110227671D01*
X180625494Y-110226013D01*
X180654239Y-110232872D01*
X180697755Y-110234521D01*
X180710706Y-110232451D01*
X180723575Y-110234978D01*
X180788980Y-110234816D01*
X180792953Y-110234016D01*
X180796940Y-110234747D01*
X180820606Y-110234394D01*
X180829418Y-110232504D01*
X180838323Y-110233884D01*
X180890462Y-110231661D01*
X180907015Y-110227628D01*
X180923969Y-110229351D01*
X180975468Y-110224439D01*
X180992499Y-110219330D01*
X181010256Y-110220156D01*
X181066634Y-110211643D01*
X181079716Y-110206924D01*
X181083476Y-110206938D01*
X181085410Y-110216887D01*
X181085429Y-110216934D01*
X181085429Y-110216984D01*
X181093302Y-110257462D01*
X181093423Y-110257758D01*
X181093422Y-110258078D01*
X181122093Y-110404719D01*
X181122418Y-110405510D01*
X181122417Y-110406362D01*
X181146631Y-110528508D01*
X181147206Y-110529899D01*
X181147212Y-110531408D01*
X181163298Y-110610632D01*
X181103244Y-110602593D01*
X180978427Y-110582110D01*
X180872626Y-110560811D01*
X180785518Y-110539280D01*
X180716611Y-110518341D01*
X180665126Y-110499085D01*
X180629635Y-110482727D01*
X180607764Y-110470291D01*
X180596059Y-110462080D01*
X180590294Y-110457094D01*
X180586222Y-110452763D01*
X180580573Y-110445417D01*
X180571517Y-110431150D01*
X180558660Y-110406975D01*
X180538580Y-110362785D01*
X180514128Y-110298110D01*
X180491308Y-110222566D01*
X180485253Y-110197151D01*
X180546357Y-110220173D01*
X180546357Y-110220173D01*
G37*
X180546357Y-110220173D02*
X180574002Y-110224747D01*
X180599195Y-110223931D01*
X180613566Y-110227671D01*
X180625494Y-110226013D01*
X180654239Y-110232872D01*
X180697755Y-110234521D01*
X180710706Y-110232451D01*
X180723575Y-110234978D01*
X180788980Y-110234816D01*
X180792953Y-110234016D01*
X180796940Y-110234747D01*
X180820606Y-110234394D01*
X180829418Y-110232504D01*
X180838323Y-110233884D01*
X180890462Y-110231661D01*
X180907015Y-110227628D01*
X180923969Y-110229351D01*
X180975468Y-110224439D01*
X180992499Y-110219330D01*
X181010256Y-110220156D01*
X181066634Y-110211643D01*
X181079716Y-110206924D01*
X181083476Y-110206938D01*
X181085410Y-110216887D01*
X181085429Y-110216934D01*
X181085429Y-110216984D01*
X181093302Y-110257462D01*
X181093423Y-110257758D01*
X181093422Y-110258078D01*
X181122093Y-110404719D01*
X181122418Y-110405510D01*
X181122417Y-110406362D01*
X181146631Y-110528508D01*
X181147206Y-110529899D01*
X181147212Y-110531408D01*
X181163298Y-110610632D01*
X181103244Y-110602593D01*
X180978427Y-110582110D01*
X180872626Y-110560811D01*
X180785518Y-110539280D01*
X180716611Y-110518341D01*
X180665126Y-110499085D01*
X180629635Y-110482727D01*
X180607764Y-110470291D01*
X180596059Y-110462080D01*
X180590294Y-110457094D01*
X180586222Y-110452763D01*
X180580573Y-110445417D01*
X180571517Y-110431150D01*
X180558660Y-110406975D01*
X180538580Y-110362785D01*
X180514128Y-110298110D01*
X180491308Y-110222566D01*
X180485253Y-110197151D01*
X180546357Y-110220173D01*
G36*
X180470692Y-107021162D02*
X180470692Y-107021164D01*
X180505929Y-107204419D01*
X180505929Y-107204420D01*
X180551822Y-107443310D01*
X180551822Y-107443314D01*
X180596078Y-107673923D01*
X180596079Y-107673927D01*
X180638346Y-107894404D01*
X180638346Y-107894406D01*
X180678417Y-108103670D01*
X180715988Y-108300127D01*
X180750777Y-108482295D01*
X180750777Y-108482297D01*
X180782549Y-108648950D01*
X180782550Y-108648953D01*
X180787950Y-108677335D01*
X180759967Y-108684464D01*
X180757466Y-108685659D01*
X180754698Y-108685830D01*
X180668636Y-108708537D01*
X180664212Y-108710698D01*
X180659302Y-108711075D01*
X180592089Y-108729900D01*
X180584390Y-108733805D01*
X180575804Y-108734695D01*
X180524762Y-108750462D01*
X180511563Y-108757603D01*
X180496722Y-108759838D01*
X180459171Y-108773367D01*
X180437071Y-108786679D01*
X180411948Y-108792538D01*
X180385210Y-108804654D01*
X180351347Y-108828921D01*
X180339976Y-108833179D01*
X180338491Y-108802960D01*
X180331325Y-108636494D01*
X180324491Y-108455518D01*
X180317939Y-108258470D01*
X180311652Y-108044572D01*
X180305579Y-107812200D01*
X180299700Y-107560878D01*
X180293943Y-107287900D01*
X180288321Y-106994548D01*
X180282736Y-106676781D01*
X180277184Y-106335345D01*
X180271908Y-105987728D01*
X180470692Y-107021162D01*
X180470692Y-107021162D01*
G37*
X180470692Y-107021162D02*
X180470692Y-107021164D01*
X180505929Y-107204419D01*
X180505929Y-107204420D01*
X180551822Y-107443310D01*
X180551822Y-107443314D01*
X180596078Y-107673923D01*
X180596079Y-107673927D01*
X180638346Y-107894404D01*
X180638346Y-107894406D01*
X180678417Y-108103670D01*
X180715988Y-108300127D01*
X180750777Y-108482295D01*
X180750777Y-108482297D01*
X180782549Y-108648950D01*
X180782550Y-108648953D01*
X180787950Y-108677335D01*
X180759967Y-108684464D01*
X180757466Y-108685659D01*
X180754698Y-108685830D01*
X180668636Y-108708537D01*
X180664212Y-108710698D01*
X180659302Y-108711075D01*
X180592089Y-108729900D01*
X180584390Y-108733805D01*
X180575804Y-108734695D01*
X180524762Y-108750462D01*
X180511563Y-108757603D01*
X180496722Y-108759838D01*
X180459171Y-108773367D01*
X180437071Y-108786679D01*
X180411948Y-108792538D01*
X180385210Y-108804654D01*
X180351347Y-108828921D01*
X180339976Y-108833179D01*
X180338491Y-108802960D01*
X180331325Y-108636494D01*
X180324491Y-108455518D01*
X180317939Y-108258470D01*
X180311652Y-108044572D01*
X180305579Y-107812200D01*
X180299700Y-107560878D01*
X180293943Y-107287900D01*
X180288321Y-106994548D01*
X180282736Y-106676781D01*
X180277184Y-106335345D01*
X180271908Y-105987728D01*
X180470692Y-107021162D01*
G36*
X181836268Y-105642936D02*
X181970510Y-105681046D01*
X182099802Y-105718312D01*
X182220316Y-105753676D01*
X182328211Y-105786053D01*
X182668523Y-105892425D01*
X183035569Y-106014430D01*
X183373674Y-106135046D01*
X183682795Y-106254085D01*
X183962395Y-106371104D01*
X184211989Y-106485573D01*
X184430735Y-106596618D01*
X184617769Y-106703044D01*
X184772072Y-106803062D01*
X184892602Y-106893982D01*
X184978697Y-106971834D01*
X185021264Y-107020037D01*
X184978487Y-107070097D01*
X184906168Y-107138554D01*
X184809704Y-107213864D01*
X184736351Y-107263938D01*
X184551147Y-107377676D01*
X184338500Y-107493115D01*
X184094637Y-107611674D01*
X183820042Y-107732498D01*
X183515226Y-107854949D01*
X183180512Y-107978614D01*
X182816255Y-108103169D01*
X182422597Y-108228427D01*
X182297977Y-108265501D01*
X182297750Y-108264325D01*
X182269114Y-108115944D01*
X182269112Y-108115940D01*
X182236706Y-107947807D01*
X182200244Y-107758465D01*
X182159483Y-107546680D01*
X182114177Y-107311207D01*
X182114176Y-107311205D01*
X182064082Y-107050808D01*
X182064082Y-107050807D01*
X182008956Y-106764241D01*
X181974426Y-106584531D01*
X181924026Y-106321405D01*
X181876768Y-106073668D01*
X181876768Y-106073667D01*
X181832941Y-105842867D01*
X181832941Y-105842864D01*
X181792876Y-105630784D01*
X181836268Y-105642936D01*
X181836268Y-105642936D01*
G37*
X181836268Y-105642936D02*
X181970510Y-105681046D01*
X182099802Y-105718312D01*
X182220316Y-105753676D01*
X182328211Y-105786053D01*
X182668523Y-105892425D01*
X183035569Y-106014430D01*
X183373674Y-106135046D01*
X183682795Y-106254085D01*
X183962395Y-106371104D01*
X184211989Y-106485573D01*
X184430735Y-106596618D01*
X184617769Y-106703044D01*
X184772072Y-106803062D01*
X184892602Y-106893982D01*
X184978697Y-106971834D01*
X185021264Y-107020037D01*
X184978487Y-107070097D01*
X184906168Y-107138554D01*
X184809704Y-107213864D01*
X184736351Y-107263938D01*
X184551147Y-107377676D01*
X184338500Y-107493115D01*
X184094637Y-107611674D01*
X183820042Y-107732498D01*
X183515226Y-107854949D01*
X183180512Y-107978614D01*
X182816255Y-108103169D01*
X182422597Y-108228427D01*
X182297977Y-108265501D01*
X182297750Y-108264325D01*
X182269114Y-108115944D01*
X182269112Y-108115940D01*
X182236706Y-107947807D01*
X182200244Y-107758465D01*
X182159483Y-107546680D01*
X182114177Y-107311207D01*
X182114176Y-107311205D01*
X182064082Y-107050808D01*
X182064082Y-107050807D01*
X182008956Y-106764241D01*
X181974426Y-106584531D01*
X181924026Y-106321405D01*
X181876768Y-106073668D01*
X181876768Y-106073667D01*
X181832941Y-105842867D01*
X181832941Y-105842864D01*
X181792876Y-105630784D01*
X181836268Y-105642936D01*
G36*
X136545585Y-121849670D02*
X136860366Y-122060000D01*
X136545585Y-122270330D01*
X136220729Y-122756511D01*
X136106655Y-123330000D01*
X136220729Y-123903489D01*
X136545585Y-124389670D01*
X136860366Y-124600000D01*
X136545585Y-124810330D01*
X136220729Y-125296511D01*
X136106655Y-125870000D01*
X136220729Y-126443489D01*
X136545585Y-126929670D01*
X136860366Y-127140000D01*
X136545585Y-127350330D01*
X136220729Y-127836511D01*
X136106655Y-128410000D01*
X136220729Y-128983489D01*
X136545585Y-129469670D01*
X136860366Y-129680000D01*
X136545585Y-129890330D01*
X136220729Y-130376511D01*
X136106655Y-130950000D01*
X136220729Y-131523489D01*
X136545585Y-132009670D01*
X136860366Y-132220000D01*
X136545585Y-132430330D01*
X136220729Y-132916511D01*
X136106655Y-133490000D01*
X136220729Y-134063489D01*
X136545585Y-134549670D01*
X136855000Y-134756415D01*
X136855000Y-135172710D01*
X135812710Y-136215000D01*
X133684579Y-136215000D01*
X133874655Y-136136462D01*
X134334846Y-135677073D01*
X134584206Y-135076547D01*
X134584764Y-134437526D01*
X134610634Y-134411656D01*
X134813316Y-134108320D01*
X134884489Y-133750511D01*
X134884489Y-129487801D01*
X135831145Y-128541145D01*
X136033827Y-128237809D01*
X136105000Y-127880000D01*
X136105000Y-122027290D01*
X136407290Y-121725000D01*
X136462283Y-121725000D01*
X136545585Y-121849670D01*
X136545585Y-121849670D01*
G37*
X136545585Y-121849670D02*
X136860366Y-122060000D01*
X136545585Y-122270330D01*
X136220729Y-122756511D01*
X136106655Y-123330000D01*
X136220729Y-123903489D01*
X136545585Y-124389670D01*
X136860366Y-124600000D01*
X136545585Y-124810330D01*
X136220729Y-125296511D01*
X136106655Y-125870000D01*
X136220729Y-126443489D01*
X136545585Y-126929670D01*
X136860366Y-127140000D01*
X136545585Y-127350330D01*
X136220729Y-127836511D01*
X136106655Y-128410000D01*
X136220729Y-128983489D01*
X136545585Y-129469670D01*
X136860366Y-129680000D01*
X136545585Y-129890330D01*
X136220729Y-130376511D01*
X136106655Y-130950000D01*
X136220729Y-131523489D01*
X136545585Y-132009670D01*
X136860366Y-132220000D01*
X136545585Y-132430330D01*
X136220729Y-132916511D01*
X136106655Y-133490000D01*
X136220729Y-134063489D01*
X136545585Y-134549670D01*
X136855000Y-134756415D01*
X136855000Y-135172710D01*
X135812710Y-136215000D01*
X133684579Y-136215000D01*
X133874655Y-136136462D01*
X134334846Y-135677073D01*
X134584206Y-135076547D01*
X134584764Y-134437526D01*
X134610634Y-134411656D01*
X134813316Y-134108320D01*
X134884489Y-133750511D01*
X134884489Y-129487801D01*
X135831145Y-128541145D01*
X136033827Y-128237809D01*
X136105000Y-127880000D01*
X136105000Y-122027290D01*
X136407290Y-121725000D01*
X136462283Y-121725000D01*
X136545585Y-121849670D01*
G36*
X115654104Y-110235740D02*
X116011913Y-110306913D01*
X127340063Y-110306913D01*
X127781198Y-110748818D01*
X127781198Y-116091462D01*
X127771543Y-116095451D01*
X127311352Y-116554840D01*
X127061992Y-117155366D01*
X127061424Y-117805607D01*
X127309736Y-118406568D01*
X127761198Y-118858818D01*
X127761198Y-124143198D01*
X127731543Y-124155451D01*
X127271352Y-124614840D01*
X127021992Y-125215366D01*
X127021424Y-125865607D01*
X127269736Y-126466568D01*
X127729125Y-126926759D01*
X128329651Y-127176119D01*
X128979892Y-127176687D01*
X129580853Y-126928375D01*
X130041044Y-126468986D01*
X130290404Y-125868460D01*
X130290972Y-125218219D01*
X130042660Y-124617258D01*
X129631198Y-124205078D01*
X129631198Y-118858048D01*
X130081044Y-118408986D01*
X130330404Y-117808460D01*
X130330972Y-117158219D01*
X130082660Y-116557258D01*
X129651198Y-116125043D01*
X129651198Y-114105000D01*
X136462283Y-114105000D01*
X136545585Y-114229670D01*
X136860366Y-114440000D01*
X136545585Y-114650330D01*
X136462283Y-114775000D01*
X135880000Y-114775000D01*
X135522191Y-114846173D01*
X135218855Y-115048855D01*
X133321929Y-116945781D01*
X132686306Y-116945226D01*
X132085345Y-117193538D01*
X131625154Y-117652927D01*
X131375794Y-118253453D01*
X131375226Y-118903694D01*
X131623538Y-119504655D01*
X132082927Y-119964846D01*
X132683453Y-120214206D01*
X132887326Y-120214384D01*
X132328855Y-120772855D01*
X132126173Y-121076191D01*
X132055000Y-121434000D01*
X132055000Y-125313865D01*
X131605154Y-125762927D01*
X131355794Y-126363453D01*
X131355226Y-127013694D01*
X131603538Y-127614655D01*
X132062927Y-128074846D01*
X132663453Y-128324206D01*
X133313694Y-128324774D01*
X133465774Y-128261936D01*
X133288344Y-128439366D01*
X133085662Y-128742702D01*
X133014489Y-129100511D01*
X133014489Y-133115565D01*
X132626306Y-133115226D01*
X132025345Y-133363538D01*
X131565154Y-133822927D01*
X131315794Y-134423453D01*
X131315226Y-135073694D01*
X131563538Y-135674655D01*
X132022927Y-136134846D01*
X132215959Y-136215000D01*
X130237290Y-136215000D01*
X126705000Y-132682710D01*
X126705000Y-114910005D01*
X126705001Y-114910000D01*
X126633827Y-114552192D01*
X126633827Y-114552191D01*
X126431145Y-114248855D01*
X126431142Y-114248853D01*
X123371145Y-111188855D01*
X123067809Y-110986173D01*
X122710000Y-110915000D01*
X116237290Y-110915000D01*
X115364571Y-110042281D01*
X115654104Y-110235740D01*
X115654104Y-110235740D01*
G37*
X115654104Y-110235740D02*
X116011913Y-110306913D01*
X127340063Y-110306913D01*
X127781198Y-110748818D01*
X127781198Y-116091462D01*
X127771543Y-116095451D01*
X127311352Y-116554840D01*
X127061992Y-117155366D01*
X127061424Y-117805607D01*
X127309736Y-118406568D01*
X127761198Y-118858818D01*
X127761198Y-124143198D01*
X127731543Y-124155451D01*
X127271352Y-124614840D01*
X127021992Y-125215366D01*
X127021424Y-125865607D01*
X127269736Y-126466568D01*
X127729125Y-126926759D01*
X128329651Y-127176119D01*
X128979892Y-127176687D01*
X129580853Y-126928375D01*
X130041044Y-126468986D01*
X130290404Y-125868460D01*
X130290972Y-125218219D01*
X130042660Y-124617258D01*
X129631198Y-124205078D01*
X129631198Y-118858048D01*
X130081044Y-118408986D01*
X130330404Y-117808460D01*
X130330972Y-117158219D01*
X130082660Y-116557258D01*
X129651198Y-116125043D01*
X129651198Y-114105000D01*
X136462283Y-114105000D01*
X136545585Y-114229670D01*
X136860366Y-114440000D01*
X136545585Y-114650330D01*
X136462283Y-114775000D01*
X135880000Y-114775000D01*
X135522191Y-114846173D01*
X135218855Y-115048855D01*
X133321929Y-116945781D01*
X132686306Y-116945226D01*
X132085345Y-117193538D01*
X131625154Y-117652927D01*
X131375794Y-118253453D01*
X131375226Y-118903694D01*
X131623538Y-119504655D01*
X132082927Y-119964846D01*
X132683453Y-120214206D01*
X132887326Y-120214384D01*
X132328855Y-120772855D01*
X132126173Y-121076191D01*
X132055000Y-121434000D01*
X132055000Y-125313865D01*
X131605154Y-125762927D01*
X131355794Y-126363453D01*
X131355226Y-127013694D01*
X131603538Y-127614655D01*
X132062927Y-128074846D01*
X132663453Y-128324206D01*
X133313694Y-128324774D01*
X133465774Y-128261936D01*
X133288344Y-128439366D01*
X133085662Y-128742702D01*
X133014489Y-129100511D01*
X133014489Y-133115565D01*
X132626306Y-133115226D01*
X132025345Y-133363538D01*
X131565154Y-133822927D01*
X131315794Y-134423453D01*
X131315226Y-135073694D01*
X131563538Y-135674655D01*
X132022927Y-136134846D01*
X132215959Y-136215000D01*
X130237290Y-136215000D01*
X126705000Y-132682710D01*
X126705000Y-114910005D01*
X126705001Y-114910000D01*
X126633827Y-114552192D01*
X126633827Y-114552191D01*
X126431145Y-114248855D01*
X126431142Y-114248853D01*
X123371145Y-111188855D01*
X123067809Y-110986173D01*
X122710000Y-110915000D01*
X116237290Y-110915000D01*
X115364571Y-110042281D01*
X115654104Y-110235740D01*
G36*
X172520000Y-128130000D02*
X169040000Y-128130000D01*
X169040000Y-103650000D01*
X172520000Y-103650000D01*
X172520000Y-128130000D01*
X172520000Y-128130000D01*
G37*
X172520000Y-128130000D02*
X169040000Y-128130000D01*
X169040000Y-103650000D01*
X172520000Y-103650000D01*
X172520000Y-128130000D01*
G36*
X134235000Y-121640000D02*
X134235000Y-125623636D01*
X133925000Y-125313095D01*
X133925000Y-121821290D01*
X134266959Y-121479331D01*
X134235000Y-121640000D01*
X134235000Y-121640000D01*
G37*
X134235000Y-121640000D02*
X134235000Y-125623636D01*
X133925000Y-125313095D01*
X133925000Y-121821290D01*
X134266959Y-121479331D01*
X134235000Y-121640000D01*
G36*
X136545585Y-119309670D02*
X136860366Y-119520000D01*
X136545585Y-119730330D01*
X136462283Y-119855000D01*
X136020005Y-119855000D01*
X136020000Y-119854999D01*
X135859331Y-119886959D01*
X136501940Y-119244350D01*
X136545585Y-119309670D01*
X136545585Y-119309670D01*
G37*
X136545585Y-119309670D02*
X136860366Y-119520000D01*
X136545585Y-119730330D01*
X136462283Y-119855000D01*
X136020005Y-119855000D01*
X136020000Y-119854999D01*
X135859331Y-119886959D01*
X136501940Y-119244350D01*
X136545585Y-119309670D01*
G36*
X142485000Y-118112710D02*
X140742710Y-119855000D01*
X139117717Y-119855000D01*
X139034415Y-119730330D01*
X138719634Y-119520000D01*
X139034415Y-119309670D01*
X139117717Y-119185000D01*
X140240000Y-119185000D01*
X140597809Y-119113827D01*
X140901145Y-118911145D01*
X142485000Y-117327290D01*
X142485000Y-118112710D01*
X142485000Y-118112710D01*
G37*
X142485000Y-118112710D02*
X140742710Y-119855000D01*
X139117717Y-119855000D01*
X139034415Y-119730330D01*
X138719634Y-119520000D01*
X139034415Y-119309670D01*
X139117717Y-119185000D01*
X140240000Y-119185000D01*
X140597809Y-119113827D01*
X140901145Y-118911145D01*
X142485000Y-117327290D01*
X142485000Y-118112710D01*
G36*
X136545585Y-116769670D02*
X136860366Y-116980000D01*
X136545585Y-117190330D01*
X136462283Y-117315000D01*
X136174000Y-117315000D01*
X135816191Y-117386173D01*
X135512855Y-117588855D01*
X134644599Y-118457111D01*
X134644764Y-118267526D01*
X136267290Y-116645000D01*
X136462283Y-116645000D01*
X136545585Y-116769670D01*
X136545585Y-116769670D01*
G37*
X136545585Y-116769670D02*
X136860366Y-116980000D01*
X136545585Y-117190330D01*
X136462283Y-117315000D01*
X136174000Y-117315000D01*
X135816191Y-117386173D01*
X135512855Y-117588855D01*
X134644599Y-118457111D01*
X134644764Y-118267526D01*
X136267290Y-116645000D01*
X136462283Y-116645000D01*
X136545585Y-116769670D01*
G36*
X140915000Y-116252710D02*
X139852710Y-117315000D01*
X139117717Y-117315000D01*
X139034415Y-117190330D01*
X138719634Y-116980000D01*
X139034415Y-116769670D01*
X139117717Y-116645000D01*
X140026840Y-116645000D01*
X140384649Y-116573827D01*
X140687985Y-116371145D01*
X140915000Y-116144130D01*
X140915000Y-116252710D01*
X140915000Y-116252710D01*
G37*
X140915000Y-116252710D02*
X139852710Y-117315000D01*
X139117717Y-117315000D01*
X139034415Y-117190330D01*
X138719634Y-116980000D01*
X139034415Y-116769670D01*
X139117717Y-116645000D01*
X140026840Y-116645000D01*
X140384649Y-116573827D01*
X140687985Y-116371145D01*
X140915000Y-116144130D01*
X140915000Y-116252710D01*
G36*
X129805000Y-103440000D02*
X129876173Y-103797809D01*
X130078855Y-104101145D01*
X131408855Y-105431145D01*
X131712191Y-105633827D01*
X132070000Y-105705000D01*
X133765000Y-105705000D01*
X133765000Y-105922710D01*
X132981929Y-106705781D01*
X132346306Y-106705226D01*
X131745345Y-106953538D01*
X131285154Y-107412927D01*
X131035794Y-108013453D01*
X131035226Y-108663694D01*
X131283538Y-109264655D01*
X131742927Y-109724846D01*
X132343453Y-109974206D01*
X132993694Y-109974774D01*
X133594655Y-109726462D01*
X134054846Y-109267073D01*
X134304206Y-108666547D01*
X134304764Y-108027526D01*
X135361145Y-106971145D01*
X135374515Y-106951136D01*
X135563827Y-106667809D01*
X135580962Y-106581665D01*
X135635001Y-106310000D01*
X135635000Y-106309995D01*
X135635000Y-102331290D01*
X136501940Y-101464350D01*
X136545585Y-101529670D01*
X136860366Y-101740000D01*
X136545585Y-101950330D01*
X136220729Y-102436511D01*
X136106655Y-103010000D01*
X136220729Y-103583489D01*
X136545585Y-104069670D01*
X136855069Y-104276461D01*
X136823651Y-104304532D01*
X136545585Y-104490330D01*
X136441723Y-104645771D01*
X136439268Y-104647964D01*
X136436713Y-104653269D01*
X136220729Y-104976511D01*
X136106655Y-105550000D01*
X136220729Y-106123489D01*
X136436713Y-106446731D01*
X136439268Y-106452036D01*
X136441723Y-106454229D01*
X136545585Y-106609670D01*
X136823651Y-106795468D01*
X136855069Y-106823539D01*
X136545585Y-107030330D01*
X136220729Y-107516511D01*
X136106655Y-108090000D01*
X136220729Y-108663489D01*
X136545585Y-109149670D01*
X136860366Y-109360000D01*
X136545585Y-109570330D01*
X136220729Y-110056511D01*
X136106655Y-110630000D01*
X136220729Y-111203489D01*
X136545585Y-111689670D01*
X136860366Y-111900000D01*
X136545585Y-112110330D01*
X136462283Y-112235000D01*
X129651198Y-112235000D01*
X129651198Y-110748048D01*
X130101044Y-110298986D01*
X130350404Y-109698460D01*
X130350972Y-109048219D01*
X130102660Y-108447258D01*
X129651198Y-107995008D01*
X129651198Y-100168641D01*
X129761044Y-100058986D01*
X129805000Y-99953128D01*
X129805000Y-103440000D01*
X129805000Y-103440000D01*
G37*
X129805000Y-103440000D02*
X129876173Y-103797809D01*
X130078855Y-104101145D01*
X131408855Y-105431145D01*
X131712191Y-105633827D01*
X132070000Y-105705000D01*
X133765000Y-105705000D01*
X133765000Y-105922710D01*
X132981929Y-106705781D01*
X132346306Y-106705226D01*
X131745345Y-106953538D01*
X131285154Y-107412927D01*
X131035794Y-108013453D01*
X131035226Y-108663694D01*
X131283538Y-109264655D01*
X131742927Y-109724846D01*
X132343453Y-109974206D01*
X132993694Y-109974774D01*
X133594655Y-109726462D01*
X134054846Y-109267073D01*
X134304206Y-108666547D01*
X134304764Y-108027526D01*
X135361145Y-106971145D01*
X135374515Y-106951136D01*
X135563827Y-106667809D01*
X135580962Y-106581665D01*
X135635001Y-106310000D01*
X135635000Y-106309995D01*
X135635000Y-102331290D01*
X136501940Y-101464350D01*
X136545585Y-101529670D01*
X136860366Y-101740000D01*
X136545585Y-101950330D01*
X136220729Y-102436511D01*
X136106655Y-103010000D01*
X136220729Y-103583489D01*
X136545585Y-104069670D01*
X136855069Y-104276461D01*
X136823651Y-104304532D01*
X136545585Y-104490330D01*
X136441723Y-104645771D01*
X136439268Y-104647964D01*
X136436713Y-104653269D01*
X136220729Y-104976511D01*
X136106655Y-105550000D01*
X136220729Y-106123489D01*
X136436713Y-106446731D01*
X136439268Y-106452036D01*
X136441723Y-106454229D01*
X136545585Y-106609670D01*
X136823651Y-106795468D01*
X136855069Y-106823539D01*
X136545585Y-107030330D01*
X136220729Y-107516511D01*
X136106655Y-108090000D01*
X136220729Y-108663489D01*
X136545585Y-109149670D01*
X136860366Y-109360000D01*
X136545585Y-109570330D01*
X136220729Y-110056511D01*
X136106655Y-110630000D01*
X136220729Y-111203489D01*
X136545585Y-111689670D01*
X136860366Y-111900000D01*
X136545585Y-112110330D01*
X136462283Y-112235000D01*
X129651198Y-112235000D01*
X129651198Y-110748048D01*
X130101044Y-110298986D01*
X130350404Y-109698460D01*
X130350972Y-109048219D01*
X130102660Y-108447258D01*
X129651198Y-107995008D01*
X129651198Y-100168641D01*
X129761044Y-100058986D01*
X129805000Y-99953128D01*
X129805000Y-103440000D01*
G36*
X150505000Y-102152710D02*
X142785000Y-109872710D01*
X142785000Y-109607290D01*
X150505000Y-101887290D01*
X150505000Y-102152710D01*
X150505000Y-102152710D01*
G37*
X150505000Y-102152710D02*
X142785000Y-109872710D01*
X142785000Y-109607290D01*
X150505000Y-101887290D01*
X150505000Y-102152710D01*
G36*
X130615000Y-89347290D02*
X130615000Y-95962710D01*
X130078855Y-96498855D01*
X129876173Y-96802191D01*
X129805000Y-97160000D01*
X129805000Y-98309729D01*
X129762660Y-98207258D01*
X129691198Y-98135671D01*
X129691198Y-91878048D01*
X130141044Y-91428986D01*
X130390404Y-90828460D01*
X130390972Y-90178219D01*
X130142660Y-89577258D01*
X129683271Y-89117067D01*
X129082745Y-88867707D01*
X128432504Y-88867139D01*
X127831543Y-89115451D01*
X127371352Y-89574840D01*
X127121992Y-90175366D01*
X127121424Y-90825607D01*
X127369736Y-91426568D01*
X127821198Y-91878818D01*
X127821198Y-97592713D01*
X127451543Y-97745451D01*
X126991352Y-98204840D01*
X126741992Y-98805366D01*
X126741424Y-99455607D01*
X126989736Y-100056568D01*
X127449125Y-100516759D01*
X127781198Y-100654648D01*
X127781198Y-107995778D01*
X127339293Y-108436913D01*
X116399203Y-108436913D01*
X113845000Y-105882710D01*
X113845000Y-104215714D01*
X114286593Y-104658079D01*
X115079829Y-104987459D01*
X115938732Y-104988209D01*
X116732542Y-104660213D01*
X117340409Y-104053407D01*
X117669789Y-103260171D01*
X117670539Y-102401268D01*
X117550804Y-102111486D01*
X123632494Y-96029796D01*
X123918664Y-96148624D01*
X124777567Y-96149374D01*
X125571377Y-95821378D01*
X126179244Y-95214572D01*
X126508624Y-94421336D01*
X126509374Y-93562433D01*
X126389639Y-93272651D01*
X126535144Y-93127146D01*
X126737826Y-92823810D01*
X126808999Y-92466001D01*
X126808999Y-89953291D01*
X128077290Y-88685000D01*
X129952710Y-88685000D01*
X130615000Y-89347290D01*
X130615000Y-89347290D01*
G37*
X130615000Y-89347290D02*
X130615000Y-95962710D01*
X130078855Y-96498855D01*
X129876173Y-96802191D01*
X129805000Y-97160000D01*
X129805000Y-98309729D01*
X129762660Y-98207258D01*
X129691198Y-98135671D01*
X129691198Y-91878048D01*
X130141044Y-91428986D01*
X130390404Y-90828460D01*
X130390972Y-90178219D01*
X130142660Y-89577258D01*
X129683271Y-89117067D01*
X129082745Y-88867707D01*
X128432504Y-88867139D01*
X127831543Y-89115451D01*
X127371352Y-89574840D01*
X127121992Y-90175366D01*
X127121424Y-90825607D01*
X127369736Y-91426568D01*
X127821198Y-91878818D01*
X127821198Y-97592713D01*
X127451543Y-97745451D01*
X126991352Y-98204840D01*
X126741992Y-98805366D01*
X126741424Y-99455607D01*
X126989736Y-100056568D01*
X127449125Y-100516759D01*
X127781198Y-100654648D01*
X127781198Y-107995778D01*
X127339293Y-108436913D01*
X116399203Y-108436913D01*
X113845000Y-105882710D01*
X113845000Y-104215714D01*
X114286593Y-104658079D01*
X115079829Y-104987459D01*
X115938732Y-104988209D01*
X116732542Y-104660213D01*
X117340409Y-104053407D01*
X117669789Y-103260171D01*
X117670539Y-102401268D01*
X117550804Y-102111486D01*
X123632494Y-96029796D01*
X123918664Y-96148624D01*
X124777567Y-96149374D01*
X125571377Y-95821378D01*
X126179244Y-95214572D01*
X126508624Y-94421336D01*
X126509374Y-93562433D01*
X126389639Y-93272651D01*
X126535144Y-93127146D01*
X126737826Y-92823810D01*
X126808999Y-92466001D01*
X126808999Y-89953291D01*
X128077290Y-88685000D01*
X129952710Y-88685000D01*
X130615000Y-89347290D01*
G36*
X112239632Y-106917342D02*
X112225000Y-106902710D01*
X112225000Y-106895443D01*
X112239632Y-106917342D01*
X112239632Y-106917342D01*
G37*
X112239632Y-106917342D02*
X112225000Y-106902710D01*
X112225000Y-106895443D01*
X112239632Y-106917342D01*
G36*
X136545585Y-98989670D02*
X136860366Y-99200000D01*
X136545585Y-99410330D01*
X136462283Y-99535000D01*
X136174000Y-99535000D01*
X135816191Y-99606173D01*
X135512855Y-99808855D01*
X134038855Y-101282855D01*
X133836173Y-101586191D01*
X133765000Y-101944000D01*
X133765000Y-103835000D01*
X132457290Y-103835000D01*
X131675000Y-103052710D01*
X131675000Y-100646137D01*
X132122927Y-101094846D01*
X132723453Y-101344206D01*
X133373694Y-101344774D01*
X133974655Y-101096462D01*
X134434846Y-100637073D01*
X134684206Y-100036547D01*
X134684764Y-99397526D01*
X135217290Y-98865000D01*
X136462283Y-98865000D01*
X136545585Y-98989670D01*
X136545585Y-98989670D01*
G37*
X136545585Y-98989670D02*
X136860366Y-99200000D01*
X136545585Y-99410330D01*
X136462283Y-99535000D01*
X136174000Y-99535000D01*
X135816191Y-99606173D01*
X135512855Y-99808855D01*
X134038855Y-101282855D01*
X133836173Y-101586191D01*
X133765000Y-101944000D01*
X133765000Y-103835000D01*
X132457290Y-103835000D01*
X131675000Y-103052710D01*
X131675000Y-100646137D01*
X132122927Y-101094846D01*
X132723453Y-101344206D01*
X133373694Y-101344774D01*
X133974655Y-101096462D01*
X134434846Y-100637073D01*
X134684206Y-100036547D01*
X134684764Y-99397526D01*
X135217290Y-98865000D01*
X136462283Y-98865000D01*
X136545585Y-98989670D01*
G36*
X144535000Y-96558710D02*
X139078060Y-102015650D01*
X139034415Y-101950330D01*
X138719634Y-101740000D01*
X139034415Y-101529670D01*
X139359271Y-101043489D01*
X139473345Y-100470000D01*
X139359271Y-99896511D01*
X139034415Y-99410330D01*
X138719634Y-99200000D01*
X139034415Y-98989670D01*
X139117717Y-98865000D01*
X140170000Y-98865000D01*
X140527809Y-98793827D01*
X140831145Y-98591145D01*
X144535000Y-94887290D01*
X144535000Y-96558710D01*
X144535000Y-96558710D01*
G37*
X144535000Y-96558710D02*
X139078060Y-102015650D01*
X139034415Y-101950330D01*
X138719634Y-101740000D01*
X139034415Y-101529670D01*
X139359271Y-101043489D01*
X139473345Y-100470000D01*
X139359271Y-99896511D01*
X139034415Y-99410330D01*
X138719634Y-99200000D01*
X139034415Y-98989670D01*
X139117717Y-98865000D01*
X140170000Y-98865000D01*
X140527809Y-98793827D01*
X140831145Y-98591145D01*
X144535000Y-94887290D01*
X144535000Y-96558710D01*
G36*
X122190626Y-94417567D02*
X122310361Y-94707349D01*
X116228671Y-100789039D01*
X115942501Y-100670211D01*
X115402550Y-100669740D01*
X122191094Y-93881196D01*
X122190626Y-94417567D01*
X122190626Y-94417567D01*
G37*
X122190626Y-94417567D02*
X122310361Y-94707349D01*
X116228671Y-100789039D01*
X115942501Y-100670211D01*
X115402550Y-100669740D01*
X122191094Y-93881196D01*
X122190626Y-94417567D01*
G36*
X120383130Y-92613090D02*
X120814244Y-92613466D01*
X114134632Y-99293078D01*
X114135005Y-98865734D01*
X114015270Y-98575952D01*
X120096960Y-92494262D01*
X120383130Y-92613090D01*
X120383130Y-92613090D01*
G37*
X120383130Y-92613090D02*
X120814244Y-92613466D01*
X114134632Y-99293078D01*
X114135005Y-98865734D01*
X114015270Y-98575952D01*
X120096960Y-92494262D01*
X120383130Y-92613090D01*
G36*
X150464436Y-78513461D02*
X150973298Y-78724759D01*
X151357370Y-78725094D01*
X151364969Y-78874598D01*
X151364760Y-79114285D01*
X151378891Y-79148485D01*
X151380770Y-79185448D01*
X151537540Y-79563923D01*
X151552263Y-79568077D01*
X151575169Y-79623515D01*
X151964436Y-80013461D01*
X151968142Y-80015000D01*
X151120000Y-80015000D01*
X150762191Y-80086173D01*
X150458855Y-80288855D01*
X143318855Y-87428855D01*
X143116173Y-87732191D01*
X143045000Y-88090000D01*
X143045000Y-93732710D01*
X139782710Y-96995000D01*
X139117717Y-96995000D01*
X139034415Y-96870330D01*
X138548234Y-96545474D01*
X137974745Y-96431400D01*
X137605255Y-96431400D01*
X137031766Y-96545474D01*
X136545585Y-96870330D01*
X136462283Y-96995000D01*
X134830000Y-96995000D01*
X134472191Y-97066173D01*
X134168855Y-97268855D01*
X133361929Y-98075781D01*
X132726306Y-98075226D01*
X132125345Y-98323538D01*
X131675000Y-98773098D01*
X131675000Y-97547290D01*
X132211145Y-97011145D01*
X132413827Y-96707809D01*
X132485000Y-96350000D01*
X132485000Y-88960000D01*
X132413827Y-88602191D01*
X132211145Y-88298855D01*
X131001145Y-87088855D01*
X130697809Y-86886173D01*
X130340000Y-86815000D01*
X127857290Y-86815000D01*
X128037290Y-86635000D01*
X131455620Y-86635000D01*
X131813429Y-86563827D01*
X132116765Y-86361145D01*
X139302256Y-79175654D01*
X149288686Y-79175654D01*
X149646495Y-79104481D01*
X149949831Y-78901799D01*
X150401358Y-78450272D01*
X150464436Y-78513461D01*
X150464436Y-78513461D01*
G37*
X150464436Y-78513461D02*
X150973298Y-78724759D01*
X151357370Y-78725094D01*
X151364969Y-78874598D01*
X151364760Y-79114285D01*
X151378891Y-79148485D01*
X151380770Y-79185448D01*
X151537540Y-79563923D01*
X151552263Y-79568077D01*
X151575169Y-79623515D01*
X151964436Y-80013461D01*
X151968142Y-80015000D01*
X151120000Y-80015000D01*
X150762191Y-80086173D01*
X150458855Y-80288855D01*
X143318855Y-87428855D01*
X143116173Y-87732191D01*
X143045000Y-88090000D01*
X143045000Y-93732710D01*
X139782710Y-96995000D01*
X139117717Y-96995000D01*
X139034415Y-96870330D01*
X138548234Y-96545474D01*
X137974745Y-96431400D01*
X137605255Y-96431400D01*
X137031766Y-96545474D01*
X136545585Y-96870330D01*
X136462283Y-96995000D01*
X134830000Y-96995000D01*
X134472191Y-97066173D01*
X134168855Y-97268855D01*
X133361929Y-98075781D01*
X132726306Y-98075226D01*
X132125345Y-98323538D01*
X131675000Y-98773098D01*
X131675000Y-97547290D01*
X132211145Y-97011145D01*
X132413827Y-96707809D01*
X132485000Y-96350000D01*
X132485000Y-88960000D01*
X132413827Y-88602191D01*
X132211145Y-88298855D01*
X131001145Y-87088855D01*
X130697809Y-86886173D01*
X130340000Y-86815000D01*
X127857290Y-86815000D01*
X128037290Y-86635000D01*
X131455620Y-86635000D01*
X131813429Y-86563827D01*
X132116765Y-86361145D01*
X139302256Y-79175654D01*
X149288686Y-79175654D01*
X149646495Y-79104481D01*
X149949831Y-78901799D01*
X150401358Y-78450272D01*
X150464436Y-78513461D01*
G36*
X125726157Y-64331153D02*
X125122433Y-64330626D01*
X124328623Y-64658622D01*
X123720756Y-65265428D01*
X123391376Y-66058664D01*
X123390626Y-66917567D01*
X123718622Y-67711377D01*
X124325428Y-68319244D01*
X124615000Y-68439485D01*
X124615000Y-77040293D01*
X124328623Y-77158622D01*
X123720756Y-77765428D01*
X123391376Y-78558664D01*
X123390626Y-79417567D01*
X123718622Y-80211377D01*
X124325428Y-80819244D01*
X124615000Y-80939485D01*
X124615000Y-85331642D01*
X121531972Y-88414670D01*
X121245802Y-88295842D01*
X120386899Y-88295092D01*
X119593089Y-88623088D01*
X118985222Y-89229894D01*
X118655842Y-90023130D01*
X118655092Y-90882033D01*
X118774827Y-91171815D01*
X112693137Y-97253505D01*
X112406967Y-97134677D01*
X111548064Y-97133927D01*
X110754254Y-97461923D01*
X110160000Y-98055140D01*
X110160000Y-88180000D01*
X120560000Y-88180000D01*
X120831705Y-88125954D01*
X121062046Y-87972046D01*
X121215954Y-87741705D01*
X121270000Y-87470000D01*
X121270000Y-65846389D01*
X128397022Y-61660288D01*
X125726157Y-64331153D01*
X125726157Y-64331153D01*
G37*
X125726157Y-64331153D02*
X125122433Y-64330626D01*
X124328623Y-64658622D01*
X123720756Y-65265428D01*
X123391376Y-66058664D01*
X123390626Y-66917567D01*
X123718622Y-67711377D01*
X124325428Y-68319244D01*
X124615000Y-68439485D01*
X124615000Y-77040293D01*
X124328623Y-77158622D01*
X123720756Y-77765428D01*
X123391376Y-78558664D01*
X123390626Y-79417567D01*
X123718622Y-80211377D01*
X124325428Y-80819244D01*
X124615000Y-80939485D01*
X124615000Y-85331642D01*
X121531972Y-88414670D01*
X121245802Y-88295842D01*
X120386899Y-88295092D01*
X119593089Y-88623088D01*
X118985222Y-89229894D01*
X118655842Y-90023130D01*
X118655092Y-90882033D01*
X118774827Y-91171815D01*
X112693137Y-97253505D01*
X112406967Y-97134677D01*
X111548064Y-97133927D01*
X110754254Y-97461923D01*
X110160000Y-98055140D01*
X110160000Y-88180000D01*
X120560000Y-88180000D01*
X120831705Y-88125954D01*
X121062046Y-87972046D01*
X121215954Y-87741705D01*
X121270000Y-87470000D01*
X121270000Y-65846389D01*
X128397022Y-61660288D01*
X125726157Y-64331153D01*
G36*
X182640184Y-65836581D02*
X182650000Y-87470322D01*
X182677018Y-87605830D01*
X182703802Y-87741114D01*
X182704073Y-87741520D01*
X182704169Y-87742002D01*
X182780832Y-87856624D01*
X182857502Y-87971594D01*
X182857911Y-87971868D01*
X182858182Y-87972273D01*
X182972688Y-88048708D01*
X183087705Y-88125709D01*
X183088186Y-88125805D01*
X183088593Y-88126077D01*
X183223915Y-88152931D01*
X183359361Y-88180000D01*
X193760000Y-88189362D01*
X193760000Y-98047208D01*
X193174572Y-97460756D01*
X192381336Y-97131376D01*
X191522433Y-97130626D01*
X191232651Y-97250361D01*
X185150961Y-91168671D01*
X185269789Y-90882501D01*
X185270539Y-90023598D01*
X184942543Y-89229788D01*
X184335737Y-88621921D01*
X183542501Y-88292541D01*
X182683598Y-88291791D01*
X182393816Y-88411526D01*
X179285000Y-85302710D01*
X179285000Y-80939707D01*
X179571377Y-80821378D01*
X180179244Y-80214572D01*
X180508624Y-79421336D01*
X180509374Y-78562433D01*
X180181378Y-77768623D01*
X179574572Y-77160756D01*
X179285000Y-77040515D01*
X179285000Y-68439707D01*
X179571377Y-68321378D01*
X180179244Y-67714572D01*
X180508624Y-66921336D01*
X180509374Y-66062433D01*
X180181378Y-65268623D01*
X179574572Y-64660756D01*
X179285000Y-64540515D01*
X179285000Y-64366000D01*
X179213827Y-64008191D01*
X179012298Y-63706580D01*
X182640184Y-65836581D01*
X182640184Y-65836581D01*
G37*
X182640184Y-65836581D02*
X182650000Y-87470322D01*
X182677018Y-87605830D01*
X182703802Y-87741114D01*
X182704073Y-87741520D01*
X182704169Y-87742002D01*
X182780832Y-87856624D01*
X182857502Y-87971594D01*
X182857911Y-87971868D01*
X182858182Y-87972273D01*
X182972688Y-88048708D01*
X183087705Y-88125709D01*
X183088186Y-88125805D01*
X183088593Y-88126077D01*
X183223915Y-88152931D01*
X183359361Y-88180000D01*
X193760000Y-88189362D01*
X193760000Y-98047208D01*
X193174572Y-97460756D01*
X192381336Y-97131376D01*
X191522433Y-97130626D01*
X191232651Y-97250361D01*
X185150961Y-91168671D01*
X185269789Y-90882501D01*
X185270539Y-90023598D01*
X184942543Y-89229788D01*
X184335737Y-88621921D01*
X183542501Y-88292541D01*
X182683598Y-88291791D01*
X182393816Y-88411526D01*
X179285000Y-85302710D01*
X179285000Y-80939707D01*
X179571377Y-80821378D01*
X180179244Y-80214572D01*
X180508624Y-79421336D01*
X180509374Y-78562433D01*
X180181378Y-77768623D01*
X179574572Y-77160756D01*
X179285000Y-77040515D01*
X179285000Y-68439707D01*
X179571377Y-68321378D01*
X180179244Y-67714572D01*
X180508624Y-66921336D01*
X180509374Y-66062433D01*
X180181378Y-65268623D01*
X179574572Y-64660756D01*
X179285000Y-64540515D01*
X179285000Y-64366000D01*
X179213827Y-64008191D01*
X179012298Y-63706580D01*
X182640184Y-65836581D01*
G36*
X124938999Y-91896843D02*
X124781336Y-91831376D01*
X124241385Y-91830905D01*
X124938999Y-91133291D01*
X124938999Y-91896843D01*
X124938999Y-91896843D01*
G37*
X124938999Y-91896843D02*
X124781336Y-91831376D01*
X124241385Y-91830905D01*
X124938999Y-91133291D01*
X124938999Y-91896843D01*
G36*
X123555000Y-89872710D02*
X122973467Y-90454243D01*
X122973840Y-90026899D01*
X122854105Y-89737117D01*
X123555000Y-89036222D01*
X123555000Y-89872710D01*
X123555000Y-89872710D01*
G37*
X123555000Y-89872710D02*
X122973467Y-90454243D01*
X122973840Y-90026899D01*
X122854105Y-89737117D01*
X123555000Y-89036222D01*
X123555000Y-89872710D01*
G36*
X131068330Y-84765000D02*
X127650000Y-84765000D01*
X127292191Y-84836173D01*
X126988855Y-85038855D01*
X126485000Y-85542710D01*
X126485000Y-84685710D01*
X131147620Y-84685710D01*
X131068330Y-84765000D01*
X131068330Y-84765000D01*
G37*
X131068330Y-84765000D02*
X127650000Y-84765000D01*
X127292191Y-84836173D01*
X126988855Y-85038855D01*
X126485000Y-85542710D01*
X126485000Y-84685710D01*
X131147620Y-84685710D01*
X131068330Y-84765000D01*
G36*
X161905000Y-71437290D02*
X161905000Y-74422710D01*
X156312710Y-80015000D01*
X153533106Y-80015000D01*
X153533515Y-80014831D01*
X153923461Y-79625564D01*
X153947278Y-79568207D01*
X153962460Y-79563923D01*
X154042840Y-79338068D01*
X154134759Y-79116702D01*
X154134791Y-79079698D01*
X154147201Y-79044829D01*
X154135031Y-78805402D01*
X154135240Y-78565715D01*
X154121109Y-78531515D01*
X154119230Y-78494552D01*
X153962460Y-78116077D01*
X153947737Y-78111923D01*
X153924831Y-78056485D01*
X153535564Y-77666539D01*
X153478207Y-77642722D01*
X153473923Y-77627540D01*
X153248068Y-77547160D01*
X153026702Y-77455241D01*
X152989698Y-77455209D01*
X152954829Y-77442799D01*
X152715402Y-77454969D01*
X152634900Y-77454899D01*
X152635101Y-77224900D01*
X153024285Y-77225240D01*
X153533515Y-77014831D01*
X153923461Y-76625564D01*
X154134759Y-76116702D01*
X154135240Y-75565715D01*
X153924831Y-75056485D01*
X153535564Y-74666539D01*
X153026702Y-74455241D01*
X152634900Y-74454899D01*
X152635055Y-74277235D01*
X153567290Y-73345000D01*
X158573865Y-73345000D01*
X159022927Y-73794846D01*
X159623453Y-74044206D01*
X160273694Y-74044774D01*
X160874655Y-73796462D01*
X161334846Y-73337073D01*
X161584206Y-72736547D01*
X161584774Y-72086306D01*
X161336462Y-71485345D01*
X160926832Y-71075000D01*
X161542710Y-71075000D01*
X161905000Y-71437290D01*
X161905000Y-71437290D01*
G37*
X161905000Y-71437290D02*
X161905000Y-74422710D01*
X156312710Y-80015000D01*
X153533106Y-80015000D01*
X153533515Y-80014831D01*
X153923461Y-79625564D01*
X153947278Y-79568207D01*
X153962460Y-79563923D01*
X154042840Y-79338068D01*
X154134759Y-79116702D01*
X154134791Y-79079698D01*
X154147201Y-79044829D01*
X154135031Y-78805402D01*
X154135240Y-78565715D01*
X154121109Y-78531515D01*
X154119230Y-78494552D01*
X153962460Y-78116077D01*
X153947737Y-78111923D01*
X153924831Y-78056485D01*
X153535564Y-77666539D01*
X153478207Y-77642722D01*
X153473923Y-77627540D01*
X153248068Y-77547160D01*
X153026702Y-77455241D01*
X152989698Y-77455209D01*
X152954829Y-77442799D01*
X152715402Y-77454969D01*
X152634900Y-77454899D01*
X152635101Y-77224900D01*
X153024285Y-77225240D01*
X153533515Y-77014831D01*
X153923461Y-76625564D01*
X154134759Y-76116702D01*
X154135240Y-75565715D01*
X153924831Y-75056485D01*
X153535564Y-74666539D01*
X153026702Y-74455241D01*
X152634900Y-74454899D01*
X152635055Y-74277235D01*
X153567290Y-73345000D01*
X158573865Y-73345000D01*
X159022927Y-73794846D01*
X159623453Y-74044206D01*
X160273694Y-74044774D01*
X160874655Y-73796462D01*
X161334846Y-73337073D01*
X161584206Y-72736547D01*
X161584774Y-72086306D01*
X161336462Y-71485345D01*
X160926832Y-71075000D01*
X161542710Y-71075000D01*
X161905000Y-71437290D01*
G36*
X148408855Y-76501145D02*
X148712191Y-76703827D01*
X149070000Y-76775000D01*
X149432050Y-76775000D01*
X148901396Y-77305654D01*
X141208006Y-77305654D01*
X141591145Y-76922515D01*
X141793827Y-76619179D01*
X141865000Y-76261370D01*
X141865000Y-76224258D01*
X142145824Y-75943923D01*
X142364750Y-75416691D01*
X142365248Y-74845813D01*
X142147243Y-74318200D01*
X141743923Y-73914176D01*
X141216691Y-73695250D01*
X140645813Y-73694752D01*
X140118200Y-73912757D01*
X139848082Y-74182405D01*
X139828157Y-74082235D01*
X139687809Y-73872191D01*
X139477765Y-73731843D01*
X139421616Y-73720674D01*
X139967290Y-73175000D01*
X145082710Y-73175000D01*
X148408855Y-76501145D01*
X148408855Y-76501145D01*
G37*
X148408855Y-76501145D02*
X148712191Y-76703827D01*
X149070000Y-76775000D01*
X149432050Y-76775000D01*
X148901396Y-77305654D01*
X141208006Y-77305654D01*
X141591145Y-76922515D01*
X141793827Y-76619179D01*
X141865000Y-76261370D01*
X141865000Y-76224258D01*
X142145824Y-75943923D01*
X142364750Y-75416691D01*
X142365248Y-74845813D01*
X142147243Y-74318200D01*
X141743923Y-73914176D01*
X141216691Y-73695250D01*
X140645813Y-73694752D01*
X140118200Y-73912757D01*
X139848082Y-74182405D01*
X139828157Y-74082235D01*
X139687809Y-73872191D01*
X139477765Y-73731843D01*
X139421616Y-73720674D01*
X139967290Y-73175000D01*
X145082710Y-73175000D01*
X148408855Y-76501145D01*
G36*
X151312656Y-72955054D02*
X150975715Y-72954760D01*
X150466485Y-73165169D01*
X150076539Y-73554436D01*
X149865241Y-74063298D01*
X149864760Y-74614285D01*
X149984881Y-74905000D01*
X149457290Y-74905000D01*
X146397290Y-71845000D01*
X152422710Y-71845000D01*
X151312656Y-72955054D01*
X151312656Y-72955054D01*
G37*
X151312656Y-72955054D02*
X150975715Y-72954760D01*
X150466485Y-73165169D01*
X150076539Y-73554436D01*
X149865241Y-74063298D01*
X149864760Y-74614285D01*
X149984881Y-74905000D01*
X149457290Y-74905000D01*
X146397290Y-71845000D01*
X152422710Y-71845000D01*
X151312656Y-72955054D01*
G36*
X158573095Y-71475000D02*
X157497290Y-71475000D01*
X157897290Y-71075000D01*
X158973793Y-71075000D01*
X158573095Y-71475000D01*
X158573095Y-71475000D01*
G37*
X158573095Y-71475000D02*
X157497290Y-71475000D01*
X157897290Y-71075000D01*
X158973793Y-71075000D01*
X158573095Y-71475000D01*
G36*
X175926757Y-61895000D02*
X172497290Y-61895000D01*
X168757146Y-58154856D01*
X168453810Y-57952174D01*
X168096001Y-57881001D01*
X159723999Y-57881001D01*
X159366190Y-57952174D01*
X159062854Y-58154856D01*
X158917506Y-58300204D01*
X158631336Y-58181376D01*
X157772433Y-58180626D01*
X156978623Y-58508622D01*
X156370756Y-59115428D01*
X156250515Y-59405000D01*
X147649707Y-59405000D01*
X147531378Y-59118623D01*
X146924572Y-58510756D01*
X146131336Y-58181376D01*
X145272433Y-58180626D01*
X144982651Y-58300361D01*
X144837146Y-58154856D01*
X144533810Y-57952174D01*
X144176001Y-57881001D01*
X135790000Y-57881001D01*
X135432191Y-57952174D01*
X135128855Y-58154856D01*
X132129111Y-61154600D01*
X129290000Y-61154600D01*
X129241580Y-61164231D01*
X138153091Y-55930000D01*
X165766977Y-55930000D01*
X175926757Y-61895000D01*
X175926757Y-61895000D01*
G37*
X175926757Y-61895000D02*
X172497290Y-61895000D01*
X168757146Y-58154856D01*
X168453810Y-57952174D01*
X168096001Y-57881001D01*
X159723999Y-57881001D01*
X159366190Y-57952174D01*
X159062854Y-58154856D01*
X158917506Y-58300204D01*
X158631336Y-58181376D01*
X157772433Y-58180626D01*
X156978623Y-58508622D01*
X156370756Y-59115428D01*
X156250515Y-59405000D01*
X147649707Y-59405000D01*
X147531378Y-59118623D01*
X146924572Y-58510756D01*
X146131336Y-58181376D01*
X145272433Y-58180626D01*
X144982651Y-58300361D01*
X144837146Y-58154856D01*
X144533810Y-57952174D01*
X144176001Y-57881001D01*
X135790000Y-57881001D01*
X135432191Y-57952174D01*
X135128855Y-58154856D01*
X132129111Y-61154600D01*
X129290000Y-61154600D01*
X129241580Y-61164231D01*
X138153091Y-55930000D01*
X165766977Y-55930000D01*
X175926757Y-61895000D01*
M02*
