<?xml version="1.0" encoding="UTF-8" standalone="no"?>
<!-- Created with Inkscape (http://www.inkscape.org/) -->

<svg
   xmlns:osb="http://www.openswatchbook.org/uri/2009/osb"
   xmlns:dc="http://purl.org/dc/elements/1.1/"
   xmlns:cc="http://creativecommons.org/ns#"
   xmlns:rdf="http://www.w3.org/1999/02/22-rdf-syntax-ns#"
   xmlns:svg="http://www.w3.org/2000/svg"
   xmlns="http://www.w3.org/2000/svg"
   xmlns:sodipodi="http://sodipodi.sourceforge.net/DTD/sodipodi-0.dtd"
   xmlns:inkscape="http://www.inkscape.org/namespaces/inkscape"
   width="1600"
   height="1100"
   viewBox="0 0 423.33332 291.04167"
   version="1.1"
   id="svg1245"
   inkscape:version="0.92.1 r15371"
   sodipodi:docname="slide_1600_1100.svg"
   inkscape:export-filename="D:\Federico File\UNIPV\AISF_Pavia\BottaCoulomb\Locandine\slide_1280_800.png"
   inkscape:export-xdpi="96"
   inkscape:export-ydpi="96">
  <defs
     id="defs1239">
    <linearGradient
       id="linearGradient4177"
       osb:paint="solid">
      <stop
         style="stop-color:#858585;stop-opacity:1;"
         offset="0"
         id="stop4175" />
    </linearGradient>
    <linearGradient
       id="linearGradient4169"
       osb:paint="solid">
      <stop
         style="stop-color:#858585;stop-opacity:1;"
         offset="0"
         id="stop4167" />
    </linearGradient>
    <inkscape:path-effect
       effect="bspline"
       id="path-effect2703"
       is_visible="true"
       weight="33.333333"
       steps="2"
       helper_size="0"
       apply_no_weight="true"
       apply_with_weight="true"
       only_selected="false" />
    <inkscape:path-effect
       effect="bspline"
       id="path-effect2143"
       is_visible="true"
       weight="33.333333"
       steps="2"
       helper_size="0"
       apply_no_weight="true"
       apply_with_weight="true"
       only_selected="false" />
    <inkscape:path-effect
       effect="bspline"
       id="path-effect2139"
       is_visible="true"
       weight="33.333333"
       steps="2"
       helper_size="0"
       apply_no_weight="true"
       apply_with_weight="true"
       only_selected="false" />
    <linearGradient
       id="linearGradient3250"
       osb:paint="solid">
      <stop
         style="stop-color:#d63c50;stop-opacity:1;"
         offset="0"
         id="stop3248" />
    </linearGradient>
    <filter
       inkscape:collect="always"
       style="color-interpolation-filters:sRGB"
       id="filter1031"
       x="-0.048070561"
       width="1.0961411"
       y="-0.055688784"
       height="1.1113776">
      <feGaussianBlur
         inkscape:collect="always"
         stdDeviation="1.1242781"
         id="feGaussianBlur1033" />
    </filter>
  </defs>
  <sodipodi:namedview
     id="base"
     pagecolor="#ffffff"
     bordercolor="#666666"
     borderopacity="1.0"
     inkscape:pageopacity="0.0"
     inkscape:pageshadow="2"
     inkscape:zoom="0.35355339"
     inkscape:cx="811.10555"
     inkscape:cy="150.84456"
     inkscape:document-units="mm"
     inkscape:current-layer="layer1"
     showgrid="false"
     units="px"
     inkscape:window-width="1920"
     inkscape:window-height="1001"
     inkscape:window-x="-9"
     inkscape:window-y="-9"
     inkscape:window-maximized="1"
     inkscape:snap-global="false" />
  <metadata
     id="metadata1242">
    <rdf:RDF>
      <cc:Work
         rdf:about="">
        <dc:format>image/svg+xml</dc:format>
        <dc:type
           rdf:resource="http://purl.org/dc/dcmitype/StillImage" />
        <dc:title></dc:title>
      </cc:Work>
    </rdf:RDF>
  </metadata>
  <g
     inkscape:label="Livello 1"
     inkscape:groupmode="layer"
     id="layer1"
     transform="translate(0,-5.958316)">
    <rect
       style="opacity:1;fill:#030303;fill-opacity:1;fill-rule:nonzero;stroke:#0a0700;stroke-width:0;stroke-linecap:square;stroke-linejoin:miter;stroke-miterlimit:4;stroke-dasharray:none;stroke-opacity:0.94533757;paint-order:fill markers stroke"
       id="rect1247"
       width="423.33334"
       height="291.04166"
       x="6.583586e-007"
       y="5.9583244" />
    <g
       id="g4136"
       transform="matrix(0.25264484,0,0,0.25264484,307.83176,250.26356)"
       style="fill:#ffffff;fill-opacity:1">
      <path
         d="m 362.82449,108.3603 c -3.68755,0.13935 -4.6651,1.88447 -5.08173,6.00197 -0.86121,11.11425 -0.18306,22.86841 -1.28266,34.30812 -0.006,0.0536 -0.007,0.10651 -0.007,0.1569 0.0238,4.98488 -0.21446,7.20869 -0.43598,8.20042 -0.51144,-0.56207 -1.19444,-1.46484 -1.73631,-2.18513 -2.46055,-3.25655 -5.83151,-7.71832 -10.37603,-7.71832 -0.79211,0 -1.5887,0.14112 -2.36912,0.41839 -1.73076,0.42234 -2.95064,1.46297 -3.53681,3.01334 -1.73779,4.58881 2.82418,13.26327 6.19071,18.72384 h 3.36138 c -3.90952,-6.08867 -8.14608,-14.39796 -6.89152,-17.71352 0.17478,-0.45667 0.50984,-1.01083 1.59844,-1.26278 0.0579,-0.0148 0.11494,-0.0309 0.16971,-0.0504 0.49075,-0.18062 0.98639,-0.27291 1.46959,-0.27291 3.12462,0 5.99819,3.80374 8.09774,6.58439 1.72102,2.27677 2.85784,3.7812 4.3498,3.7812 0.55574,0 1.06421,-0.21646 1.47243,-0.62711 0.96349,-0.96787 1.51338,-3.05338 1.4815,-10.82914 0.091,-0.92477 0.7387,-31.65922 0.80824,-33.75016 0.0695,-2.09093 0.92351,-4.05094 2.85451,-4.15803 1.96255,-0.10884 2.75712,0.13678 3.24387,1.75274 0.90915,4.92559 0.78878,10.33065 1.16969,14.92034 1.43646,17.41737 1.57587,17.45878 2.89353,17.84997 0.43573,0.13048 0.91173,0.0429 1.27468,-0.23582 0.0238,-0.0192 2.4159,-1.80383 4.94315,-1.80383 2.18037,0 3.83752,1.33082 5.06487,4.06693 0.16309,0.36782 0.47765,0.64653 0.86007,0.77117 0.38096,0.12609 0.80323,0.0817 1.15012,-0.11695 0.0178,-0.0105 1.82304,-1.02269 3.86246,-1.02269 2.50778,0 4.24864,1.51055 5.3202,4.62178 0.18232,0.53066 0.66533,0.90379 1.2257,0.95563 0.0475,0.005 4.61876,0.44906 7.11023,3.45075 1.27769,1.53577 1.81001,3.52774 1.58606,5.92305 -0.009,0.10249 -0.009,0.2049 0.003,0.30714 0.01,0.0704 0.32731,2.80784 0.34518,6.85824 h 2.87642 c -0.0221,-3.69585 -0.28641,-6.36138 -0.36373,-7.05318 0.26071,-3.12144 -0.49827,-5.7702 -2.26213,-7.87949 -2.51556,-3.01045 -6.37676,-4.01089 -8.12578,-4.32224 -1.92696,-4.69714 -5.22054,-5.71527 -7.70786,-5.71527 -1.54138,0 -2.94366,0.40134 -3.91906,0.77354 -2.0959,-3.65674 -4.9211,-4.47199 -7.01846,-4.47199 -1.90627,0 -3.66568,0.67172 -4.9018,1.30317 -0.41796,-2.99317 -0.95455,-9.48363 -1.36642,-14.4943 -0.32899,-3.78474 -0.72597,-8.77929 -0.98512,-11.07732 -0.25915,-2.29802 0.37952,-8.23924 -6.41562,-7.98245 z"
         id="path5614-3"
         inkscape:connector-curvature="0"
         sodipodi:nodetypes="scccccscccccccscsccssccccscccsccccccccccscscczs"
         style="fill:#ffffff;fill-opacity:1;stroke-width:0.26458338" />
      <path
         style="opacity:1;fill:#ffffff;fill-opacity:1;stroke:none;stroke-width:0.2;stroke-miterlimit:4;stroke-dasharray:none;stroke-dashoffset:0;stroke-opacity:1"
         d="m 362.54529,92.857384 c -9.86209,1.11e-4 -17.85678,7.995016 -17.85664,17.857096 0.01,7.07904 4.20011,13.48403 10.6827,16.32808 0.0139,-0.89788 0.0307,-1.79472 0.0499,-2.691 -5.08088,-2.6517 -8.26857,-7.90587 -8.27361,-13.63708 -1.4e-4,-8.50402 6.89364,-15.397995 15.39765,-15.398117 8.5042,-1.4e-4 15.39826,6.893917 15.3981,15.398117 -0.007,4.86151 -2.30857,9.43439 -6.20972,12.33533 0.0807,0.95608 0.15971,1.88292 0.2382,2.80463 5.23448,-3.25366 8.4211,-8.97667 8.43003,-15.13996 1.5e-4,-9.86208 -7.99455,-17.856977 -17.85661,-17.857096 z"
         id="path5633-2"
         inkscape:connector-curvature="0"
         sodipodi:nodetypes="ccccccccccc" />
      <flowRoot
         xml:space="preserve"
         id="flowRoot5685"
         style="font-style:normal;font-variant:normal;font-weight:normal;font-stretch:normal;font-size:21.33333397px;line-height:100%;font-family:Cratense;-inkscape-font-specification:Cratense;text-align:center;writing-mode:lr-tb;text-anchor:middle;opacity:1;fill:#ffffff;fill-opacity:1;stroke:none;stroke-width:0.09062222;stroke-miterlimit:4;stroke-dasharray:none;stroke-dashoffset:0;stroke-opacity:1"
         transform="matrix(1.9348625,0,0,2.5173319,4249.7428,1812.985)"><flowRegion
           id="flowRegion5687"
           style="font-style:normal;font-variant:normal;font-weight:normal;font-stretch:normal;font-family:Cratense;-inkscape-font-specification:Cratense;fill:#ffffff;fill-opacity:1;stroke:none;stroke-width:0.09062222"><rect
             id="rect5690"
             width="734.04419"
             height="270.33606"
             x="-2404.1631"
             y="-697.67902"
             style="font-style:normal;font-variant:normal;font-weight:normal;font-stretch:normal;font-family:Cratense;-inkscape-font-specification:Cratense;fill:#ffffff;fill-opacity:1;stroke:none;stroke-width:0.09062222" /></flowRegion><flowPara
           id="flowPara5692"
           style="font-style:normal;font-variant:normal;font-weight:normal;font-stretch:normal;font-family:Cratense;-inkscape-font-specification:Cratense;fill:#ffffff;fill-opacity:1;stroke:none;stroke-width:0.09062222">BdC</flowPara></flowRoot>      <path
         inkscape:connector-curvature="0"
         id="path5756-8"
         d="m 389.07825,73.630663 32.52586,-17.13595 -21.29696,15.0937 15.0449,8.98507 -32.52585,17.135951 21.29696,-15.09369 z"
         style="opacity:1;fill:#ffffff;fill-opacity:1;stroke:none;stroke-width:0.2;stroke-miterlimit:4;stroke-dasharray:none;stroke-dashoffset:0;stroke-opacity:1" />
      <path
         inkscape:connector-curvature="0"
         id="path5758-1"
         d="m 341.16367,119.9603 -32.52588,17.13595 15.0449,8.98508 -21.29696,15.0937 32.52586,-17.13596 -15.04491,-8.98507 z"
         style="opacity:1;fill:#ffffff;fill-opacity:1;stroke:none;stroke-width:0.2;stroke-miterlimit:4;stroke-dasharray:none;stroke-dashoffset:0;stroke-opacity:1" />
      <path
         style="opacity:1;fill:#ffffff;fill-opacity:1;stroke:none;stroke-width:0.2;stroke-miterlimit:4;stroke-dasharray:none;stroke-dashoffset:0;stroke-opacity:1"
         d="m 367.15772,65.743333 19.60023,-31.10309 -10.89685,23.72001 17.52181,0.25885 -19.60024,31.1031 10.89686,-23.720009 z"
         id="path5760-4"
         inkscape:connector-curvature="0" />
      <path
         inkscape:connector-curvature="0"
         id="path5764-4"
         d="m 344.23031,69.872984 1.42276,-36.736181 2.42304,25.99056 15.30377,-8.53674 -1.42277,36.736202 -2.42303,-25.990561 z"
         style="opacity:1;fill:#ffffff;fill-opacity:1;stroke:none;stroke-width:0.2;stroke-miterlimit:4;stroke-dasharray:none;stroke-dashoffset:0;stroke-opacity:1" />
      <path
         style="opacity:1;fill:#ffffff;fill-opacity:1;stroke:none;stroke-width:0.2;stroke-miterlimit:4;stroke-dasharray:none;stroke-dashoffset:0;stroke-opacity:1"
         d="m 404.11835,91.421553 36.73618,1.42275 -25.99055,2.42304 8.53674,15.303767 -36.73621,-1.42277 25.99055,-2.42304 z"
         id="path5768-9"
         inkscape:connector-curvature="0" />
      <path
         style="opacity:1;fill:#ffffff;fill-opacity:1;stroke:none;stroke-width:0.2;stroke-miterlimit:4;stroke-dasharray:none;stroke-dashoffset:0;stroke-opacity:1"
         d="m 337.32536,108.52139 -36.73621,-1.42276 8.53673,15.30375 -25.99056,2.42305 36.7362,1.42276 -8.53675,-15.30376 z"
         id="path5770-5"
         inkscape:connector-curvature="0" />
    </g>
    <g
       id="g1021"
       style="opacity:0.45700001;filter:url(#filter1031)"
       transform="matrix(5.5902802,0,0,5.5902802,-2451.1269,-1360.5418)">
      <path
         d="m 476.62084,272.93575 c -1.31238,0.0496 -1.66028,0.67068 -1.80856,2.13607 -0.3065,3.9555 -0.0651,8.13874 -0.45649,12.21007 -0.002,0.0191 -0.002,0.0379 -0.002,0.0558 0.008,1.77409 -0.0763,2.56553 -0.15516,2.91849 -0.18202,-0.20004 -0.4251,-0.52133 -0.61795,-0.77768 -0.87569,-1.15899 -2.0754,-2.74691 -3.69277,-2.74691 -0.2819,0 -0.56541,0.0502 -0.84315,0.1489 -0.61597,0.15031 -1.05012,0.52067 -1.25874,1.07244 -0.61846,1.63313 1.00512,4.72032 2.20324,6.66371 h 1.1963 c -1.39138,-2.16693 -2.89914,-5.12416 -2.45265,-6.30415 0.0622,-0.16252 0.18145,-0.35975 0.56887,-0.44941 0.0206,-0.005 0.0409,-0.011 0.0604,-0.0179 0.17466,-0.0643 0.35105,-0.0971 0.52302,-0.0971 1.11204,0 2.13472,1.35373 2.88194,2.34335 0.6125,0.81029 1.01709,1.34571 1.54807,1.34571 0.19779,0 0.37875,-0.077 0.52403,-0.22319 0.3429,-0.34446 0.53861,-1.08668 0.52726,-3.85403 0.0324,-0.32912 0.2629,-11.26734 0.28765,-12.01149 0.0247,-0.74415 0.32867,-1.44171 1.0159,-1.47982 0.69846,-0.0387 0.98125,0.0487 1.15448,0.62379 0.32356,1.75299 0.28072,3.67662 0.41628,5.31006 0.51123,6.19875 0.56085,6.21349 1.02979,6.35271 0.15508,0.0464 0.32448,0.0153 0.45366,-0.0839 0.008,-0.007 0.8598,-0.64197 1.75924,-0.64197 0.77598,0 1.36575,0.47363 1.80256,1.4474 0.058,0.1309 0.16999,0.23009 0.30609,0.27445 0.13558,0.0449 0.28586,0.0291 0.40932,-0.0416 0.006,-0.004 0.64881,-0.36397 1.37463,-0.36397 0.8925,0 1.51207,0.5376 1.89343,1.64487 0.0649,0.18886 0.23679,0.32165 0.43622,0.3401 0.0169,0.002 1.64379,0.15982 2.53049,1.2281 0.45472,0.54658 0.64417,1.25551 0.56447,2.10798 -0.003,0.0365 -0.003,0.0729 0.001,0.10931 0.004,0.0251 0.11649,0.9993 0.12285,2.44081 h 1.0237 c -0.008,-1.31533 -0.10193,-2.26398 -0.12945,-2.51018 0.0928,-1.11091 -0.17733,-2.05359 -0.80508,-2.80427 -0.89528,-1.0714 -2.26946,-1.42745 -2.89192,-1.53826 -0.6858,-1.67169 -1.85796,-2.03404 -2.74319,-2.03404 -0.54857,0 -1.04763,0.14284 -1.39477,0.2753 -0.74592,-1.30141 -1.75139,-1.59155 -2.49783,-1.59155 -0.67843,0 -1.30459,0.23906 -1.74452,0.46379 -0.14875,-1.06526 -0.33972,-3.37517 -0.4863,-5.15844 -0.11709,-1.34697 -0.25837,-3.1245 -0.3506,-3.94236 -0.0922,-0.81785 0.13507,-2.9323 -2.28329,-2.84091 z"
         id="path5614-3-0"
         inkscape:connector-curvature="0"
         sodipodi:nodetypes="scccccscccccccscsccssccccscccsccccccccccscscczs"
         style="fill:#ffffff;fill-opacity:1;stroke-width:0.09416376" />
      <path
         style="opacity:1;fill:#ffffff;fill-opacity:1;stroke:none;stroke-width:0.0711789;stroke-miterlimit:4;stroke-dasharray:none;stroke-dashoffset:0;stroke-opacity:1"
         d="m 476.52148,267.41835 c -3.50987,4e-5 -6.35513,2.84538 -6.35508,6.35524 0.004,2.51939 1.49479,4.79889 3.80191,5.81108 0.005,-0.31955 0.0109,-0.63874 0.0178,-0.95772 -1.80826,-0.94372 -2.94274,-2.81365 -2.94453,-4.85336 -5e-5,-3.02653 2.45341,-5.48006 5.47994,-5.4801 3.0266,-5e-5 5.48015,2.4535 5.4801,5.4801 -0.002,1.73019 -0.82161,3.35765 -2.21001,4.39008 0.0287,0.34026 0.0568,0.67012 0.0848,0.99815 1.86292,-1.15796 2.99702,-3.19475 3.0002,-5.38823 5e-5,-3.50986 -2.84522,-6.3552 -6.35507,-6.35524 z"
         id="path5633-2-9"
         inkscape:connector-curvature="0"
         sodipodi:nodetypes="ccccccccccc" />
      <path
         inkscape:connector-curvature="0"
         id="path5756-8-4"
         d="m 485.96441,260.57567 11.57578,-6.09859 -7.57948,5.37176 5.3544,3.19774 -11.57577,6.09859 7.57947,-5.37176 z"
         style="opacity:1;fill:#ffffff;fill-opacity:1;stroke:none;stroke-width:0.0711789;stroke-miterlimit:4;stroke-dasharray:none;stroke-dashoffset:0;stroke-opacity:1" />
      <path
         inkscape:connector-curvature="0"
         id="path5758-1-2"
         d="m 468.91188,277.06413 -11.57578,6.09859 5.35439,3.19774 -7.57947,5.37176 11.57578,-6.09859 -5.3544,-3.19774 z"
         style="opacity:1;fill:#ffffff;fill-opacity:1;stroke:none;stroke-width:0.0711789;stroke-miterlimit:4;stroke-dasharray:none;stroke-dashoffset:0;stroke-opacity:1" />
      <path
         style="opacity:1;fill:#ffffff;fill-opacity:1;stroke:none;stroke-width:0.0711789;stroke-miterlimit:4;stroke-dasharray:none;stroke-dashoffset:0;stroke-opacity:1"
         d="m 478.16302,257.76861 6.97561,-11.06942 -3.87813,8.44182 6.23592,0.0921 -6.97562,11.06942 3.87813,-8.44182 z"
         id="path5760-4-4"
         inkscape:connector-curvature="0" />
      <path
         inkscape:connector-curvature="0"
         id="path5764-4-7"
         d="m 470.00328,259.23833 0.50635,-13.0742 0.86235,9.24989 5.44652,-3.03818 -0.50635,13.07421 -0.86235,-9.24989 z"
         style="opacity:1;fill:#ffffff;fill-opacity:1;stroke:none;stroke-width:0.0711789;stroke-miterlimit:4;stroke-dasharray:none;stroke-dashoffset:0;stroke-opacity:1" />
      <path
         style="opacity:1;fill:#ffffff;fill-opacity:1;stroke:none;stroke-width:0.0711789;stroke-miterlimit:4;stroke-dasharray:none;stroke-dashoffset:0;stroke-opacity:1"
         d="m 491.3171,266.90735 13.0742,0.50634 -9.24989,0.86235 3.03818,5.44653 -13.07422,-0.50636 9.2499,-0.86234 z"
         id="path5768-9-1"
         inkscape:connector-curvature="0" />
      <path
         style="opacity:1;fill:#ffffff;fill-opacity:1;stroke:none;stroke-width:0.0711789;stroke-miterlimit:4;stroke-dasharray:none;stroke-dashoffset:0;stroke-opacity:1"
         d="m 467.54584,272.99308 -13.07421,-0.50635 3.03817,5.44652 -9.24989,0.86235 13.07421,0.50635 -3.03818,-5.44652 z"
         id="path5770-5-8"
         inkscape:connector-curvature="0" />
    </g>
    <g
       id="g2076"
       transform="matrix(0.04660241,0,0,-0.04660241,7.9628359,293.01217)"
       style="stroke:#0a0700;stroke-width:0.81604928;stroke-miterlimit:4;stroke-dasharray:none;stroke-opacity:0.94533757">
      <path
         d="m 28.348,566.929 h 793.699 c 15.703,0 28.348,-12.64 28.348,-28.348 V 28.347 c 0,-15.703 -12.645,-28.348 -28.348,-28.348 H 28.348 C 12.641,-0.001 0,12.644 0,28.347 v 510.234 c 0,15.708 12.641,28.348 28.348,28.348 z"
         style="fill:#000000;fill-opacity:1;fill-rule:nonzero;stroke:#0a0700;stroke-width:0.81604928;stroke-miterlimit:4;stroke-dasharray:none;stroke-opacity:0.94533757"
         id="path2078"
         inkscape:connector-curvature="0" />
      <path
         d="m 344.168,340.816 c -0.18,0.008 -0.359,-0.047 -0.508,-0.149 l -20.5,-14.449 c -0.215,-0.156 -0.344,-0.406 -0.344,-0.668 v -8.867 c 0,-0.453 0.364,-0.82 0.817,-0.82 h 2.023 l -17.125,-5.098 c -0.343,-0.101 -0.582,-0.422 -0.582,-0.781 v -19.746 c 0,-0.453 0.367,-0.817 0.817,-0.817 h 2.277 l -8.613,-4.125 c -0.282,-0.136 -0.465,-0.425 -0.465,-0.738 v -28.906 c 0,-0.453 0.367,-0.821 0.82,-0.821 h 2.461 c 0.449,0 0.816,0.368 0.816,0.821 v 26.957 l 10.43,4.996 5.731,-4.441 c 0.343,-0.266 0.836,-0.215 1.121,0.113 l 1.554,1.801 c 0.309,0.355 0.254,0.894 -0.117,1.179 l -7.367,5.715 c -0.246,0.188 -0.578,0.223 -0.855,0.09 l -4.606,-2.207 c 0.063,0.117 0.094,0.25 0.094,0.383 v 17.422 l 17.109,5.097 30.055,-5.148 c 0.437,-0.074 0.855,0.215 0.937,0.652 l 0.438,2.293 c 0.086,0.449 -0.211,0.883 -0.664,0.961 l -30.836,5.281 c -0.125,0.024 -0.25,0.016 -0.371,-0.019 l -1.965,-0.586 c 0.105,0.14 0.164,0.312 0.164,0.492 v 7.266 l 17.91,12.625 81.969,-20.114 c 0.434,-0.105 0.867,0.153 0.984,0.582 l 0.618,2.258 c 0.121,0.446 -0.149,0.903 -0.594,1.012 l -83.473,20.48 c -0.055,0.012 -0.105,0.02 -0.16,0.024 z m 490.363,-2.524 c -0.015,0.004 -0.031,0.004 -0.047,0 L 414.219,302.511 c -0.059,-0.008 -0.114,-0.015 -0.168,-0.031 l -37.903,-11.359 c -0.445,-0.133 -0.687,-0.606 -0.543,-1.043 l 0.743,-2.223 c 0.136,-0.422 0.586,-0.656 1.007,-0.527 l 37.571,11.261 419.695,35.735 c 0.426,0.035 0.75,0.39 0.75,0.816 v 2.34 c 0,0.461 -0.379,0.828 -0.84,0.816 z m 0,-21.64 c -0.011,0 -0.023,0 -0.031,0 L 365.867,285.097 c -0.453,-0.031 -0.793,-0.426 -0.762,-0.879 l 0.176,-2.32 c 0.035,-0.449 0.422,-0.785 0.871,-0.758 l 468.457,31.543 c 0.43,0.027 0.762,0.383 0.762,0.813 v 2.339 c 0,0.461 -0.379,0.832 -0.84,0.817 z M 422.16,315.605 c -0.453,0 -0.816,-0.363 -0.816,-0.816 v -9.04 c 0,-0.453 0.363,-0.816 0.816,-0.816 h 2.465 c 0.449,0 0.816,0.363 0.816,0.816 v 9.04 c 0,0.453 -0.367,0.816 -0.816,0.816 z m 390.606,-8.77 c -0.454,0 -0.817,-0.367 -0.821,-0.816 v -28.66 c 0.004,-0.453 0.367,-0.817 0.821,-0.817 h 2.464 c 0.45,0 0.817,0.364 0.817,0.817 v 28.66 c 0,0.449 -0.367,0.816 -0.817,0.816 z m -36.934,-2.421 c -0.453,0 -0.816,-0.368 -0.816,-0.821 v -27.851 c 0,-0.453 0.363,-0.817 0.816,-0.817 h 2.465 c 0.449,0 0.816,0.364 0.816,0.817 v 27.851 c 0,0.453 -0.367,0.821 -0.816,0.821 z m -420.949,-0.008 c -0.449,0 -0.817,-0.367 -0.817,-0.821 v -18.492 c 0,-0.449 0.368,-0.816 0.817,-0.816 h 2.465 c 0.449,0 0.816,0.367 0.816,0.816 v 18.492 c 0,0.454 -0.367,0.821 -0.816,0.821 z m 384.601,-2.383 c -0.453,0 -0.816,-0.367 -0.816,-0.817 v -27.058 c 0,-0.453 0.363,-0.82 0.816,-0.82 h 2.461 c 0.453,0 0.817,0.367 0.821,0.82 v 27.058 c 0,0.45 -0.368,0.817 -0.821,0.817 z m -33.726,-2.215 c -0.453,0 -0.82,-0.367 -0.82,-0.816 v -26.325 c 0,-0.449 0.367,-0.816 0.82,-0.816 h 2.461 c 0.453,0 0.816,0.367 0.82,0.816 v 26.325 c -0.004,0.449 -0.367,0.816 -0.82,0.816 z m -33.742,-2.219 c -0.454,0 -0.817,-0.363 -0.817,-0.816 v -25.582 c 0,-0.449 0.363,-0.817 0.817,-0.817 h 2.461 c 0.453,0 0.816,0.368 0.816,0.817 v 25.582 c 0,0.453 -0.363,0.816 -0.816,0.816 z m -30.489,-1.996 c -0.453,0 -0.816,-0.367 -0.816,-0.816 v -24.918 c 0,-0.453 0.363,-0.817 0.816,-0.817 h 2.465 c 0.449,0 0.817,0.364 0.817,0.817 v 24.918 c 0,0.449 -0.368,0.816 -0.817,0.816 z m -28.558,-1.875 c -0.453,0 -0.821,-0.367 -0.821,-0.816 v -24.297 c 0,-0.449 0.368,-0.816 0.821,-0.816 h 2.461 c 0.453,0 0.82,0.367 0.82,0.816 v 24.297 c -0.004,0.449 -0.367,0.816 -0.82,0.816 z m -28.192,-1.847 c -0.449,0 -0.816,-0.368 -0.816,-0.821 v -23.679 c 0,-0.45 0.367,-0.817 0.816,-0.817 h 2.461 c 0.453,0 0.821,0.367 0.821,0.817 v 23.679 c 0,0.453 -0.368,0.821 -0.821,0.821 z m -25.172,-1.657 c -0.453,0 -0.816,-0.367 -0.82,-0.816 v -23.125 c 0.004,-0.453 0.367,-0.82 0.82,-0.82 h 2.461 c 0.454,0 0.821,0.367 0.821,0.82 v 23.125 c 0,0.449 -0.367,0.816 -0.821,0.816 z m -24.597,-1.613 c -0.449,0 -0.817,-0.367 -0.817,-0.82 v -22.586 c 0,-0.453 0.368,-0.821 0.817,-0.821 h 2.461 c 0.453,0 0.816,0.368 0.816,0.821 v 22.586 c 0,0.453 -0.363,0.82 -0.816,0.82 z m -24.332,-1.598 c -0.449,0 -0.817,-0.367 -0.817,-0.816 v -22.059 c 0,-0.449 0.368,-0.816 0.817,-0.816 h 2.461 c 0.453,0 0.816,0.367 0.82,0.816 v 22.059 c 0,0.449 -0.367,0.816 -0.82,0.816 z m -211.207,-0.765 c -0.039,0 -0.082,-0.008 -0.121,-0.012 L 32.645,238.859 c -0.454,-0.078 -0.75,-0.512 -0.661,-0.961 l 0.454,-2.293 c 0.085,-0.441 0.507,-0.727 0.945,-0.649 l 266.707,47.368 c 0.449,0.082 0.746,0.515 0.656,0.965 l -0.453,2.292 c -0.078,0.391 -0.426,0.668 -0.824,0.657 z m 187.746,-0.778 c -0.453,0 -0.817,-0.363 -0.817,-0.816 v -21.543 c 0,-0.449 0.364,-0.816 0.817,-0.816 h 2.465 c 0.449,0 0.816,0.367 0.816,0.816 v 21.543 c 0,0.453 -0.367,0.816 -0.816,0.816 z m -21.985,-1.437 c -0.449,0 -0.816,-0.367 -0.816,-0.817 V 262.14 c 0,-0.453 0.367,-0.816 0.816,-0.82 h 2.465 c 0.453,0.004 0.821,0.367 0.821,0.82 v 21.066 c 0,0.45 -0.368,0.817 -0.821,0.817 z m -21.476,-1.41 c -0.453,0 -0.816,-0.367 -0.82,-0.821 v -20.593 c 0.004,-0.453 0.367,-0.817 0.82,-0.817 h 2.461 c 0.453,0 0.82,0.364 0.82,0.817 v 20.593 c 0,0.454 -0.367,0.821 -0.82,0.821 z m -21.281,-1.399 c -0.45,0 -0.817,-0.363 -0.817,-0.816 v -20.133 c 0,-0.449 0.367,-0.816 0.817,-0.816 h 2.465 c 0.453,0 0.816,0.367 0.816,0.816 v 20.133 c 0,0.453 -0.363,0.816 -0.816,0.816 z m -19.649,-1.289 c -0.453,0 -0.816,-0.363 -0.816,-0.816 v -19.703 c 0,-0.45 0.363,-0.817 0.816,-0.817 h 2.465 c 0.449,0 0.816,0.367 0.816,0.817 v 19.703 c 0,0.453 -0.367,0.816 -0.816,0.816 z m -18.441,-1.207 c -0.453,0 -0.817,-0.367 -0.817,-0.82 v -19.301 c 0,-0.449 0.364,-0.816 0.817,-0.816 h 2.465 c 0.449,0 0.816,0.367 0.816,0.816 v 19.301 c 0,0.453 -0.367,0.82 -0.816,0.82 z m -16.992,-1.328 c -0.453,0 -0.821,-0.367 -0.821,-0.816 v -18.235 c 0,-0.453 0.368,-0.816 0.821,-0.816 h 2.461 c 0.449,0 0.816,0.363 0.816,0.816 v 18.235 c 0,0.449 -0.367,0.816 -0.816,0.816 z M 834.52,276.3 368.395,256.253 c -0.454,-0.019 -0.805,-0.406 -0.782,-0.859 l 0.11,-2.328 c 0.023,-0.449 0.406,-0.797 0.855,-0.777 l 466.012,20.042 c 0.437,0.02 0.781,0.379 0.781,0.817 v 2.336 c 0,0.465 -0.387,0.836 -0.851,0.816 z m -535.481,-1.363 c -0.039,0 -0.082,-0.008 -0.121,-0.012 L 15.711,229.101 c -0.453,-0.07 -0.758,-0.5 -0.676,-0.949 l 0.414,-2.301 c 0.078,-0.437 0.496,-0.73 0.934,-0.66 l 283.211,45.824 c 0.453,0.07 0.754,0.5 0.676,0.949 l -0.418,2.301 c -0.071,0.391 -0.414,0.676 -0.813,0.672 z m -3.164,-7.715 c -0.449,0 -0.816,-0.367 -0.816,-0.816 v -14.825 c 0,-0.449 0.367,-0.816 0.816,-0.816 h 2.465 c 0.453,0 0.816,0.367 0.816,0.816 v 14.825 c 0,0.449 -0.363,0.816 -0.816,0.816 z m -15.488,-2.336 c -0.449,0 -0.817,-0.367 -0.817,-0.816 v -16.68 c 0,-0.453 0.368,-0.816 0.817,-0.816 h 2.465 c 0.449,0 0.816,0.363 0.816,0.816 v 16.68 c 0,0.449 -0.367,0.816 -0.816,0.816 z m -12.953,-1.976 h -2.465 c -0.449,0 -0.817,-0.364 -0.817,-0.817 v -16.679 l 1.637,0.035 -0.82,-0.035 -0.817,-0.02 c 0.008,-0.449 0.375,-0.809 0.825,-0.805 l 1.05,0.008 h 1.407 c 0.449,0 0.816,0.367 0.816,0.817 v 16.683 c 0,0.449 -0.367,0.817 -0.816,0.817 z m -17.278,-2.579 c -0.453,0 -0.816,-0.367 -0.816,-0.816 v -16.008 c 0,-0.453 0.363,-0.82 0.816,-0.82 h 2.465 c 0.453,0 0.817,0.367 0.817,0.82 v 16.008 c 0,0.449 -0.364,0.816 -0.817,0.816 z m 576.692,-2.066 c -1.008,0 -2.016,-0.008 -3.016,-0.019 -30.043,-0.387 -56.734,-6.747 -79.75,-15.961 -65.469,-26.215 -101.375,-75.43 -101.375,-75.43 -0.277,-0.379 -0.18,-0.91 0.211,-1.164 l 2.023,-1.328 c 0.368,-0.239 0.856,-0.149 1.11,0.203 0,0 35.316,48.308 99.601,74.051 25.278,10.121 55.012,16.765 88.875,15.601 0.461,-0.015 0.844,0.356 0.844,0.817 v 2.273 c 0,0.441 -0.348,0.805 -0.789,0.82 -1.57,0.055 -3.141,0.094 -4.695,0.118 -0.996,0.011 -1.989,0.019 -2.981,0.019 -0.019,0 -0.039,0 -0.054,0 z m -590.66,-0.039 c -0.454,0 -0.817,-0.363 -0.817,-0.816 v -15.7 c 0,-0.449 0.363,-0.816 0.817,-0.816 h 2.46 c 0.454,0 0.817,0.367 0.821,0.816 v 15.7 c -0.004,0.453 -0.367,0.816 -0.821,0.816 z m -14.293,-2.152 c -0.45,0 -0.817,-0.368 -0.817,-0.817 v -15.379 c 0,-0.453 0.367,-0.816 0.817,-0.82 h 2.464 c 0.453,0.004 0.817,0.367 0.817,0.82 v 15.379 c 0,0.449 -0.364,0.817 -0.817,0.817 z m -13.391,-2.02 c -0.453,0 -0.816,-0.367 -0.816,-0.816 v -15.082 c 0,-0.45 0.363,-0.817 0.816,-0.817 h 2.465 c 0.449,0 0.816,0.367 0.816,0.817 v 15.082 c 0,0.449 -0.367,0.816 -0.816,0.816 z m 96.039,-1.488 c -0.172,0.008 -0.34,-0.043 -0.481,-0.141 l -6.933,-4.687 c -0.223,-0.153 -0.356,-0.403 -0.356,-0.676 v -1.293 l -0.25,1.711 c -0.062,0.441 -0.472,0.75 -0.914,0.691 L 27.367,213.449 c -0.453,-0.059 -0.769,-0.477 -0.703,-0.93 l 0.332,-2.313 c 0.066,-0.441 0.473,-0.75 0.918,-0.691 l 268.238,34.727 c 0.266,0.035 0.496,0.195 0.621,0.429 v -80.812 c 0,-0.453 0.364,-0.817 0.817,-0.82 h 2.465 c 0.449,0.003 0.816,0.367 0.816,0.82 v 81.57 l 4.649,3.141 38.503,-1.047 c 0.457,-0.012 0.836,0.359 0.836,0.816 v 2.332 c 0,0.446 -0.351,0.809 -0.793,0.821 z M 195.785,252.14 c -0.449,0 -0.816,-0.367 -0.816,-0.816 v -14.797 c 0,-0.453 0.367,-0.817 0.816,-0.821 h 2.465 c 0.449,0.004 0.816,0.368 0.816,0.821 v 14.797 c 0,0.449 -0.367,0.816 -0.816,0.816 z m -12.453,-1.875 c -0.449,0 -0.816,-0.367 -0.816,-0.816 v -14.524 c 0,-0.453 0.367,-0.816 0.816,-0.816 h 2.469 c 0.449,0 0.816,0.363 0.816,0.816 v 14.524 c 0,0.449 -0.367,0.816 -0.816,0.816 z m 438.496,-0.043 c -0.285,0 -0.547,-0.148 -0.699,-0.391 L 603.344,220.66 c -0.078,-0.129 -0.121,-0.278 -0.121,-0.426 v -56.266 c 0.004,-0.449 0.367,-0.816 0.82,-0.816 h 2.461 c 0.453,0 0.82,0.367 0.82,0.816 v 55.414 l 17.34,28.43 c 0.242,0.398 0.102,0.922 -0.309,1.144 l -2.132,1.168 c -0.121,0.067 -0.258,0.098 -0.395,0.098 z m -450,-1.691 c -0.449,0 -0.816,-0.367 -0.816,-0.817 v -14.265 c 0,-0.453 0.367,-0.817 0.816,-0.821 h 2.465 c 0.453,0.004 0.816,0.368 0.816,0.821 v 14.265 c 0,0.45 -0.363,0.817 -0.816,0.817 z m 662.703,-1.821 c -0.011,0 -0.023,0 -0.031,0 -96.098,-6.574 -144.598,-74.484 -147.242,-78.281 l -38.129,-3.211 c -0.453,-0.035 -0.785,-0.437 -0.746,-0.89 l 0.215,-2.321 c 0.043,-0.449 0.437,-0.777 0.886,-0.738 l 39.668,3.336 c 0.25,0.023 0.473,0.152 0.61,0.359 l 0.324,0.481 c 0.004,0.008 47.644,70.609 144.523,77.293 0.43,0.031 0.762,0.386 0.762,0.816 v 2.336 c 0,0.461 -0.379,0.832 -0.84,0.82 z m -675.363,-0.089 c -0.453,0 -0.816,-0.368 -0.816,-0.817 V 231.82 c 0,-0.453 0.363,-0.817 0.816,-0.821 h 2.465 c 0.449,0.004 0.816,0.368 0.816,0.821 v 13.984 c 0,0.449 -0.367,0.817 -0.816,0.817 z m -11.719,-1.766 c -0.453,0 -0.816,-0.363 -0.816,-0.816 v -13.723 c 0,-0.453 0.363,-0.817 0.816,-0.817 h 2.465 c 0.449,0 0.816,0.364 0.816,0.817 v 13.723 c 0,0.453 -0.367,0.816 -0.816,0.816 z m -10.82,-1.625 c -0.449,0 -0.817,-0.367 -0.817,-0.82 v -13.481 c 0,-0.453 0.368,-0.816 0.817,-0.816 h 2.465 c 0.449,0 0.816,0.363 0.816,0.816 v 13.481 c 0,0.453 -0.367,0.82 -0.816,0.82 z m 489.98,-0.117 c -0.093,-0.008 -0.183,-0.024 -0.265,-0.059 l -2.278,-0.894 c -0.429,-0.172 -0.632,-0.664 -0.449,-1.09 l 10.621,-24.188 v -50.558 c 0,-0.453 0.367,-0.817 0.817,-0.817 h 2.465 c 0.449,0 0.816,0.364 0.816,0.817 v 51.191 c 0,0.113 -0.024,0.227 -0.07,0.328 l -10.875,24.781 c -0.133,0.309 -0.446,0.504 -0.782,0.489 z m -500.707,-1.504 c -0.453,0 -0.82,-0.367 -0.82,-0.817 v -13.246 c 0,-0.449 0.367,-0.816 0.82,-0.816 h 2.461 c 0.453,0 0.817,0.367 0.821,0.816 v 13.246 c -0.004,0.45 -0.368,0.817 -0.821,0.817 z m -10.922,-1.645 c -0.453,0 -0.816,-0.363 -0.816,-0.816 v -13.004 c 0,-0.453 0.363,-0.816 0.816,-0.816 h 2.465 c 0.453,0 0.817,0.363 0.817,0.816 v 13.004 c 0,0.453 -0.364,0.816 -0.817,0.816 z m -9.39,-1.414 c -0.449,0 -0.817,-0.367 -0.817,-0.816 v -12.797 c 0,-0.449 0.368,-0.816 0.817,-0.816 h 2.461 c 0.453,0 0.816,0.367 0.816,0.816 v 12.797 c 0,0.449 -0.363,0.816 -0.816,0.816 z m -10.445,-1.574 c -0.454,0 -0.817,-0.367 -0.821,-0.82 v -12.559 c 0.004,-0.453 0.367,-0.816 0.821,-0.816 h 2.46 c 0.454,0 0.821,0.363 0.821,0.816 v 12.559 c 0,0.453 -0.367,0.82 -0.821,0.82 z m -9.125,-1.375 c -0.45,0 -0.817,-0.367 -0.817,-0.816 v -12.36 c 0,-0.453 0.367,-0.816 0.817,-0.816 h 2.464 c 0.45,0 0.817,0.363 0.817,0.816 v 12.36 c 0,0.449 -0.367,0.816 -0.817,0.816 z m 448.312,-0.113 c -0.297,-0.008 -0.57,-0.176 -0.707,-0.446 l -1.082,-2.121 c -0.207,-0.398 -0.047,-0.894 0.355,-1.097 18.29,-9.348 37.766,-24.391 58.204,-47.078 0.304,-0.336 0.82,-0.36 1.156,-0.059 l 1.769,1.594 c 0.336,0.304 0.364,0.82 0.063,1.156 -20.695,22.973 -40.551,38.348 -59.363,47.965 -0.122,0.062 -0.258,0.09 -0.395,0.086 z M 77.016,234.246 c -0.45,0 -0.817,-0.368 -0.817,-0.821 v -12.156 c 0,-0.449 0.367,-0.816 0.817,-0.816 h 2.464 c 0.45,0 0.817,0.367 0.817,0.816 v 12.156 c 0,0.453 -0.367,0.821 -0.817,0.821 z m 183.757,-0.18 c -3.445,-0.067 -6.761,-0.508 -9.945,-1.274 -12.719,-3.066 -23.152,-11.199 -31.41,-20.531 -13.18,-14.89 -20.762,-32.476 -23.383,-39.203 v 29.563 c 0,0.07 -0.008,0.144 -0.027,0.214 l -3.496,12.895 c -0.117,0.43 -0.551,0.687 -0.985,0.582 l -2.386,-0.582 c -0.446,-0.106 -0.715,-0.563 -0.594,-1.008 l 3.391,-12.508 v -32.726 c 0,-0.449 0.367,-0.817 0.816,-0.817 h 2.465 c 0.097,0 0.195,0.02 0.289,0.055 l 2.172,-0.668 c 0.422,-0.129 0.871,0.098 1.015,0.516 0,0 8.012,23.226 23.836,41.105 7.914,8.942 17.711,16.469 29.289,19.262 11.578,2.789 25.063,1 40.93,-9.231 0.367,-0.238 0.852,-0.144 1.105,0.207 l 1.387,1.93 c 0.274,0.379 0.172,0.91 -0.222,1.164 -12.442,8.02 -23.911,11.246 -34.247,11.055 z M 68.332,232.933 c -0.453,0 -0.816,-0.363 -0.82,-0.816 v -11.961 c 0.004,-0.453 0.367,-0.821 0.82,-0.821 h 2.461 c 0.453,0 0.82,0.368 0.82,0.821 v 11.961 c 0,0.453 -0.367,0.816 -0.82,0.816 z m -8.637,-1.301 c -0.453,0 -0.816,-0.367 -0.82,-0.816 v -11.77 c 0.004,-0.453 0.367,-0.816 0.82,-0.82 h 2.465 c 0.449,0.004 0.817,0.367 0.817,0.82 v 11.77 c 0,0.449 -0.368,0.816 -0.817,0.816 z m -8.254,-1.351 c -0.449,0 -0.816,-0.364 -0.816,-0.817 v -11.57 c 0,-0.453 0.367,-0.82 0.816,-0.82 h 2.465 c 0.453,0 0.817,0.367 0.817,0.82 v 11.57 c 0,0.453 -0.364,0.817 -0.817,0.817 z m -7.863,-1.078 c -0.453,0 -0.816,-0.364 -0.816,-0.817 v -11.41 c 0,-0.453 0.363,-0.816 0.816,-0.816 h 2.465 c 0.449,0 0.816,0.363 0.816,0.816 v 11.41 c 0,0.453 -0.367,0.817 -0.816,0.817 z m -8.09,-1.215 c -0.449,0 -0.816,-0.367 -0.816,-0.817 v -11.234 c 0,-0.453 0.367,-0.82 0.816,-0.82 h 2.465 c 0.449,0 0.817,0.367 0.817,0.82 v 11.234 c 0,0.45 -0.368,0.817 -0.817,0.817 z m -7.652,-1.153 c -0.453,0 -0.816,-0.367 -0.816,-0.82 v -10.887 c 0,-0.453 0.363,-0.82 0.816,-0.82 h 2.461 c 0.453,0 0.816,0.367 0.816,0.82 v 10.887 c 0,0.453 -0.363,0.82 -0.816,0.82 z m 160.637,-6.062 c -0.196,-0.008 -0.383,-0.086 -0.528,-0.223 L 172.5,205.929 c -0.164,-0.156 -0.254,-0.371 -0.254,-0.594 v -39.629 c 0,-0.449 0.367,-0.816 0.816,-0.816 h 2.465 c 0.45,0 0.817,0.367 0.817,0.816 v 38.309 l 14.468,13.699 c 0.34,0.321 0.34,0.864 0,1.188 l -1.742,1.648 c -0.16,0.153 -0.375,0.235 -0.597,0.223 z m 103.652,-1.176 c -0.145,0 -0.285,-0.043 -0.406,-0.117 -11.742,-7.16 -20.172,-19.621 -25.781,-30.25 -4.969,-9.426 -7.34,-16.52 -7.879,-18.18 l -55.743,-1.25 c -0.453,-0.011 -0.808,-0.386 -0.8,-0.84 l 0.058,-2.332 c 0.012,-0.449 0.387,-0.808 0.84,-0.797 l 58.055,1.305 c 0.347,0.008 0.656,0.242 0.761,0.578 l 0.25,0.813 c 0,0 2.672,8.594 8.11,18.898 5.433,10.301 13.656,22.199 24.316,28.696 0.399,0.242 0.512,0.769 0.25,1.156 l -1.332,1.961 c -0.16,0.23 -0.422,0.367 -0.699,0.359 z m -154.27,-0.93 c -0.625,-0.007 -1.25,-0.027 -1.878,-0.074 -9.957,-0.754 -18.075,-6.879 -24.411,-14.394 -9.136,-10.844 -14.773,-24.653 -17.273,-31.637 v 26.898 c 0,0.02 0,0.039 0,0.059 l -0.57,7.937 c -0.035,0.446 -0.422,0.786 -0.871,0.754 l -1.711,-0.109 1.363,1.289 c 0.34,0.324 0.34,0.863 0,1.188 l -1.742,1.648 c -0.317,0.301 -0.809,0.301 -1.125,0 L 70.23,193.855 c -0.16,-0.152 -0.253,-0.367 -0.253,-0.59 v -27.047 c 0,-0.449 0.367,-0.816 0.816,-0.816 h 2.465 c 0.449,0 0.816,0.367 0.816,0.816 v 25.727 l 15.59,14.761 0.531,-7.355 V 167.89 c 0,-0.453 0.367,-0.816 0.821,-0.816 h 2.066 c 0.07,-0.043 0.145,-0.078 0.223,-0.098 l 2.371,-0.629 c 0.429,-0.113 0.867,0.133 0.992,0.559 0,0 6.195,20.683 18.074,34.781 5.942,7.051 13.153,12.312 21.551,12.945 8.402,0.637 18.461,-3.238 30.41,-15.695 0.301,-0.313 0.797,-0.336 1.125,-0.051 l 1.824,1.567 c 0.356,0.308 0.379,0.847 0.055,1.187 -10.891,11.352 -20.906,16.395 -29.93,16.973 -0.617,0.039 -1.23,0.054 -1.836,0.051 -0.031,0.007 -0.058,0.007 -0.089,0.007 z m -83.73,-10.601 c -1.867,0.019 -3.668,-0.215 -5.391,-0.676 -6.875,-1.844 -12.254,-7.043 -16.449,-12.926 -8.39,-11.769 -12.308,-26.812 -12.308,-26.812 -0.118,-0.442 0.156,-0.895 0.601,-1 l 2.391,-0.567 c 0.433,-0.101 0.863,0.157 0.98,0.586 0,0 3.914,14.606 11.707,25.539 3.899,5.465 8.711,9.891 14.176,11.356 5.473,1.469 11.867,0.285 19.902,-6.379 0.336,-0.277 0.828,-0.246 1.121,0.074 l 1.625,1.754 c 0.321,0.348 0.282,0.887 -0.078,1.188 -6.461,5.359 -12.554,7.73 -18.105,7.839 -0.059,0.016 -0.117,0.024 -0.172,0.024 z m 114.082,-10.207 c -0.254,0.008 -0.5,-0.102 -0.66,-0.301 -11.379,-13.879 -15.067,-25.875 -15.895,-28.949 l -52.328,-1.07 c -0.449,-0.008 -0.808,-0.383 -0.801,-0.836 l 0.051,-2.329 c 0.012,-0.453 0.383,-0.808 0.836,-0.8 l 54.817,1.121 c 0.378,0.008 0.699,0.269 0.785,0.636 l 0.203,0.907 c 0,0 3.008,13.562 15.543,28.851 0.297,0.36 0.23,0.899 -0.149,1.176 l -1.945,1.43 c -0.133,0.097 -0.293,0.156 -0.457,0.16 z M 66.57,168.71 25.602,167.839 c -0.454,-0.011 -0.813,-0.386 -0.801,-0.84 l 0.054,-2.332 c 0.012,-0.449 0.387,-0.804 0.836,-0.796 l 40.973,0.875 c 0.453,0.007 0.813,0.386 0.801,0.835 l -0.059,2.333 c -0.011,0.453 -0.383,0.808 -0.836,0.796 z"
         style="fill:#c86400;fill-opacity:1;fill-rule:nonzero;stroke:#0a0700;stroke-width:0.81604928;stroke-miterlimit:4;stroke-dasharray:none;stroke-opacity:0.94533757"
         id="path2080"
         inkscape:connector-curvature="0" />
      <path
         d="m 343.191,284.781 c -0.796,0 -1.64,-0.028 -2.527,-0.086 -0.906,-0.059 -1.773,-0.184 -2.59,-0.379 -0.215,-0.051 -0.383,-0.215 -0.433,-0.43 l -4.59,-19.152 c -0.09,-0.367 0.187,-0.719 0.566,-0.719 h 2.715 c 0.27,0 0.504,0.184 0.566,0.445 l 1.629,6.778 H 340 c 1.547,0 2.965,0.144 4.246,0.433 0.004,0 0.004,0 0.008,0 1.289,0.313 2.41,0.789 3.355,1.43 0.95,0.648 1.696,1.484 2.203,2.48 0.536,1.032 0.797,2.231 0.797,3.575 0,1.777 -0.671,3.254 -1.968,4.218 h -0.004 c -1.285,0.969 -3.114,1.403 -5.446,1.403 z m -0.336,-3.461 c 1.278,0 2.235,-0.227 2.895,-0.617 0,-0.004 0.004,-0.008 0.008,-0.012 0.609,-0.348 0.883,-0.84 0.883,-1.758 0,-0.906 -0.192,-1.594 -0.543,-2.109 -0.364,-0.543 -0.817,-0.957 -1.391,-1.27 -0.594,-0.32 -1.269,-0.555 -2.039,-0.691 -0.789,-0.125 -1.555,-0.188 -2.305,-0.188 h -1.023 l 1.582,6.582 c 0.121,0.016 0.16,0.024 0.363,0.035 0.387,0.016 0.914,0.028 1.57,0.028 z m 11.075,-8.996 c -0.258,-0.008 -0.481,-0.176 -0.555,-0.422 l -4.965,-16.457 c -0.176,-0.582 0.535,-1.02 0.977,-0.602 l 2.722,2.578 V 155.312 h -15.195 c -0.328,0 -0.594,-0.266 -0.594,-0.594 v -2.347 c 0,-0.329 0.266,-0.594 0.594,-0.594 h 15.195 v -12.449 c 0,-0.329 0.266,-0.594 0.594,-0.594 h 2.481 c 0.328,0 0.593,0.265 0.593,0.594 v 12.449 h 255.266 l -2.641,-2.504 c -0.449,-0.422 -0.035,-1.164 0.563,-1.004 l 17.379,4.703 c 0.586,0.156 0.586,0.988 0,1.145 l -17.379,4.703 c -0.598,0.16 -1.012,-0.582 -0.563,-1.004 l 2.641,-2.504 H 355.777 v 102.109 l 2.723,-2.578 c 0.441,-0.418 1.152,0.02 0.977,0.602 l -4.965,16.457 c -0.078,0.254 -0.317,0.426 -0.582,0.422 z m 128.113,-23.926 c -28.945,-0.309 -53.594,-13.145 -72.512,-28.176 -27.515,-21.863 -43.222,-48.48 -43.222,-48.48 -0.008,-0.02 -0.02,-0.036 -0.028,-0.055 l -4.574,-7.922 c -0.234,-0.406 0.074,-0.91 0.539,-0.891 l 62.617,2.7 c 0.219,0.011 0.41,0.136 0.508,0.328 l 0.313,0.629 c 0,0 28.535,57.359 97.972,70.152 l 4.012,0.738 c 0.582,0.11 0.664,0.91 0.117,1.133 l -3.781,1.535 c -14.734,5.985 -28.742,8.434 -41.875,8.305 -0.027,0.004 -0.059,0.004 -0.086,0.008 z m -0.02,-3.535 c 11.016,0.113 22.723,-1.828 34.993,-6.106 -63.828,-14.586 -91.692,-65.261 -94.004,-69.691 l -55.508,-2.391 1.883,3.258 0.004,0.008 h 0.004 c 0.019,0.039 15.449,26.098 42.359,47.48 18.512,14.715 42.308,27.149 70.269,27.438 z M 630.84,157.886 c -0.344,0 -0.61,-0.293 -0.582,-0.637 0.187,-2.054 0.375,-3.96 0.562,-5.718 0,-0.004 0,-0.004 0,-0.008 0.207,-1.738 0.41,-3.391 0.618,-4.965 0.207,-1.574 0.429,-3.082 0.675,-4.527 0.246,-1.426 0.508,-2.84 0.789,-4.242 0.055,-0.274 0.293,-0.469 0.571,-0.469 h 2.66 c 0.187,-0.004 0.359,0.086 0.472,0.238 1.012,1.387 1.997,2.813 2.954,4.277 0.976,1.481 1.941,3.016 2.898,4.61 0.973,1.609 1.945,3.285 2.922,5.027 0.992,1.758 2,3.609 3.027,5.555 0.207,0.387 -0.074,0.855 -0.515,0.855 h -2.993 c -0.222,0 -0.425,-0.125 -0.523,-0.324 -0.707,-1.434 -1.449,-2.859 -2.23,-4.289 0,-0.004 0,-0.008 0,-0.008 -0.762,-1.433 -1.555,-2.844 -2.372,-4.238 -0.8,-1.375 -1.609,-2.703 -2.425,-3.984 0,0 0,-0.004 -0.004,-0.008 -0.512,-0.821 -1.012,-1.547 -1.516,-2.301 -0.277,1.797 -0.547,3.625 -0.769,5.691 v 0.008 c -0.262,2.629 -0.539,5.602 -0.836,8.922 -0.028,0.301 -0.282,0.531 -0.582,0.531 z"
         style="fill:#dcaa80;fill-opacity:1;fill-rule:nonzero;stroke:#0a0700;stroke-width:0.81604928;stroke-miterlimit:4;stroke-dasharray:none;stroke-opacity:0.94533757"
         id="path2082"
         inkscape:connector-curvature="0" />
      <path
         d="m 689.828,462.101 c -0.101,-0.004 -0.199,-0.031 -0.285,-0.078 l -1.977,-1.047 c -0.332,-0.176 -0.453,-0.59 -0.265,-0.914 0,0 0.535,-0.922 1.195,-3.008 0.66,-2.082 1.418,-5.289 1.797,-9.742 0.727,-8.606 -0.09,-21.809 -6.086,-40.063 -3.141,14.891 -9.977,23.704 -17.5,28.637 -3.094,11.891 -2.769,21.004 -2.769,21.004 0.015,0.367 -0.27,0.676 -0.637,0.688 l -2.254,0.086 c -0.367,0.015 -0.672,-0.27 -0.688,-0.637 0,0 -0.25,-8.024 2.141,-18.84 -1.137,0.539 -2.273,1.078 -3.398,1.477 -0.418,0.144 -0.825,0.265 -1.219,0.39 -7.875,6.199 -14.016,8.121 -14.016,8.121 -0.347,0.106 -0.715,-0.082 -0.828,-0.426 l -0.676,-2.078 c -0.117,-0.355 0.082,-0.734 0.438,-0.843 0,0 2.515,-0.825 6.39,-3.102 -1.64,0.148 -3.203,0.23 -4.558,0.211 -1.008,-0.016 -1.832,-0.078 -2.621,-0.141 -0.129,0.25 -0.258,0.504 -0.379,0.75 -0.16,0.325 -0.547,0.465 -0.871,0.313 l -2.043,-0.93 c -0.227,-0.101 -0.379,-0.328 -0.387,-0.578 0,0 -0.043,-0.008 -0.043,-0.008 -0.371,-0.07 -0.609,-0.433 -0.527,-0.801 l 0.484,-2.128 c 0.082,-0.348 0.422,-0.571 0.777,-0.5 0,0 0.504,0.078 0.922,0.144 1.457,-2.769 2.981,-5.266 4.52,-7.648 -8.602,2.621 -14.602,2.394 -14.602,2.394 -0.367,-0.023 -0.648,-0.34 -0.621,-0.707 l 0.141,-2.176 c 0.027,-0.363 0.34,-0.636 0.703,-0.617 0,0 6.031,0.402 15.23,-2.785 0.758,-0.262 1.551,-0.566 2.356,-0.883 1.203,-1.633 2.418,-3.078 3.633,-4.512 -3.157,0.727 -6.164,1.188 -8.871,1.321 -10.094,0.488 -16.797,-2.414 -16.797,-2.414 -0.34,-0.149 -0.492,-0.551 -0.336,-0.887 l 0.929,-1.988 c 0.153,-0.325 0.536,-0.469 0.864,-0.325 0,0 5.824,2.563 15.16,2.11 3.93,-0.192 8.465,-0.942 13.394,-2.656 3.422,-3.438 6.77,-6.164 9.84,-8.293 4.024,-2.786 7.313,-4.368 9.926,-5.469 -4.586,-0.664 -11.035,-1.797 -18.215,-4.067 -4.804,-1.515 -9.765,-3.511 -14.293,-6.097 -13.195,1.332 -21.562,7.07 -21.562,7.07 -0.293,0.203 -0.699,0.133 -0.91,-0.156 l -1.301,-1.781 c -0.219,-0.305 -0.145,-0.731 0.168,-0.942 0,0 7.469,-4.965 19.265,-7.004 -1.785,-1.289 -3.472,-2.679 -4.964,-4.226 -7.52,-0.563 -12.68,-0.274 -12.68,-0.274 -0.363,0.02 -0.676,-0.254 -0.703,-0.617 l -0.145,-2.176 c -0.027,-0.367 0.25,-0.683 0.617,-0.707 0,0 4.09,-0.195 9.954,0.063 -1.54,-2.231 -2.817,-4.653 -3.571,-7.371 -0.097,-0.356 0.114,-0.727 0.473,-0.817 l 2.18,-0.562 c 0.351,-0.094 0.707,0.117 0.804,0.465 0.891,3.215 2.567,6.039 4.774,8.558 5.687,0.477 12.504,1.489 19.535,3.391 -2.387,-2.219 -4.488,-4.399 -6.164,-6.477 -1.602,-0.781 -3.145,-1.492 -4.582,-2.101 -9.262,-3.938 -14.91,-4.563 -14.91,-4.563 -0.368,-0.039 -0.629,-0.375 -0.586,-0.742 l 0.265,-2.164 c 0.047,-0.359 0.375,-0.617 0.735,-0.578 0,0 6.035,0.754 15.254,4.578 -0.532,-0.887 -1.114,-1.801 -1.528,-2.645 -2.136,-4.367 -2.84,-8.042 -2.988,-10.652 -0.152,-2.617 0.289,-4.305 0.289,-4.305 0.094,-0.351 0.453,-0.562 0.805,-0.472 l 2.179,0.554 c 0.364,0.094 0.579,0.465 0.477,0.825 0,0 -0.301,1.008 -0.176,3.203 0.125,2.183 0.711,5.383 2.645,9.332 1.035,2.113 2.488,4.453 4.445,6.957 6.586,3.285 14.293,8 22.555,14.746 -8.153,-10.711 -11.121,-22.313 -11.996,-31.379 -8.157,-3.578 -15.457,-3.078 -15.457,-3.078 -0.364,0.027 -0.68,-0.242 -0.711,-0.606 l -0.18,-2.175 c -0.027,-0.364 0.246,-0.684 0.609,-0.715 0,0 7.172,-0.465 15.489,2.707 -0.289,-7.317 0.644,-12.313 0.644,-12.313 0.07,-0.355 0.41,-0.589 0.77,-0.523 l 2.215,0.41 c 0.363,0.067 0.601,0.418 0.531,0.781 0,0 -1.047,5.364 -0.535,13.192 0.328,0.16 0.66,0.32 1.004,0.508 2.996,1.64 5.972,3.953 8.742,6.878 2.191,-15.195 10.113,-25.816 10.113,-25.816 0.215,-0.289 0.617,-0.351 0.91,-0.144 l 1.82,1.289 c 0.305,0.214 0.372,0.64 0.149,0.941 0,0 -8.637,11.418 -9.895,27.352 3.746,5.152 6.684,12.097 8.188,21.117 10.117,-32.989 41.39,-40.481 41.39,-40.481 0.352,-0.082 0.707,0.133 0.793,0.485 l 0.528,2.121 c 0.09,0.359 -0.137,0.722 -0.496,0.804 0,0 -34.782,7.911 -40.852,47.176 12.332,-14.652 25.551,-22.109 35.965,-25.84 5.383,-8.496 7.223,-15.558 7.223,-15.558 0.093,-0.352 0.449,-0.563 0.8,-0.481 l 2.188,0.532 c 0.359,0.086 0.578,0.453 0.488,0.812 0,0 -1.586,5.77 -5.715,13.156 8.442,-2.32 14.27,-2.246 14.27,-2.246 0.371,0.008 0.656,0.317 0.644,0.684 l -0.074,2.18 c -0.012,0.367 -0.32,0.652 -0.683,0.64 0,0 -6.793,-0.215 -16.809,3.18 -6.523,9.89 -17.648,21.215 -35.551,26.367 27.274,10.609 56.801,7.414 56.801,7.414 0.363,-0.039 0.687,0.219 0.734,0.578 l 0.27,2.164 c 0.043,0.367 -0.215,0.699 -0.582,0.742 0,0 -4.672,0.547 -12.031,0.547 -10.938,0 -27.86,-1.257 -44.43,-7.273 12.398,8.723 19.07,18.09 22.535,26.215 2.125,1.797 4.02,3.222 5.656,4.316 3.25,2.176 5.551,3.133 6.957,3.555 0.704,0.207 1.184,0.285 1.461,0.312 0.145,0.012 0.219,0.016 0.235,0.016 0.355,-0.023 0.66,0.234 0.703,0.586 l 0.25,2.164 c 0.043,0.371 -0.231,0.707 -0.602,0.738 0,0 -0.418,0.035 -0.953,-0.019 -0.516,-0.051 -1.226,-0.176 -2.137,-0.446 -1.82,-0.543 -4.441,-1.675 -7.937,-4.011 -0.492,-0.328 -1.047,-0.758 -1.574,-1.137 2.422,9.055 1.14,15.621 1.14,15.621 -0.078,0.356 -0.422,0.582 -0.781,0.512 l -2.207,-0.449 c -0.363,-0.071 -0.594,-0.43 -0.516,-0.79 0,0 1.356,-6.109 -1.32,-15.058 -0.363,-1.215 -0.816,-2.488 -1.348,-3.801 -3.082,-2.648 -6.707,-6.25 -10.691,-10.578 3.047,7.32 4.637,13.488 5.254,18.344 0.59,4.625 0.394,8.129 0.035,10.511 -0.359,2.383 -0.934,3.754 -0.934,3.754 -0.14,0.336 -0.523,0.493 -0.859,0.36 l -2.086,-0.84 c -0.347,-0.141 -0.508,-0.543 -0.355,-0.887 0,0 0.375,-0.824 0.687,-2.898 0.313,-2.071 0.508,-5.25 -0.043,-9.567 -0.871,-6.847 -3.629,-16.582 -10.758,-29.23 -0.351,-0.438 -0.726,-0.914 -1.086,-1.367 4.254,15.215 4.973,26.816 4.297,34.777 -0.797,9.418 -3.429,14.16 -3.429,14.16 -0.121,0.219 -0.356,0.348 -0.602,0.34 z m -45.09,-23.668 c 0.008,0 0.016,0 0.024,0 3.086,0.039 7.144,-0.277 11.426,-1.539 2.871,-2.313 6.007,-5.246 9.199,-8.934 1.57,-4.441 3.621,-9.066 6.32,-13.644 -7.695,6.98 -15.223,11.488 -21.727,14.172 -2.109,2.937 -4.179,6.246 -6.171,9.91 0.308,0.012 0.593,0.031 0.929,0.035 z m 23.723,-8.418 c 3.488,-3.113 6.695,-7.281 9.148,-13.152 -2.933,4.976 -5.996,9.238 -9.035,12.816 -0.039,0.113 -0.074,0.223 -0.113,0.336 z m 35.082,-6.441 c -1.523,-1.961 -3.258,-3.942 -5.285,-5.938 1.84,2.133 3.629,4.176 5.285,5.938 z m -48.328,-1.532 c 2.515,-1.39 5.129,-3.078 7.808,-5.054 -1.824,0.883 -3.617,1.664 -5.367,2.304 -0.808,0.829 -1.625,1.832 -2.441,2.75 z m 25.765,-19.191 0.063,-0.074 -0.098,-0.024 z m 4.071,-0.496 0.125,-0.078 0.144,-0.305 -1.355,-0.152 c -0.289,-0.035 -0.52,-0.254 -0.574,-0.539 -0.176,-0.258 -0.344,-0.512 -0.508,-0.766 -0.301,-0.25 -0.535,-0.519 -0.828,-0.773 0.007,0.054 0.011,0.109 0.007,0.164 0.227,0.125 0.36,0.375 0.336,0.633 l -0.031,0.398 c 0.102,0.027 0.195,0.078 0.274,0.148 l 0.738,0.672 1.133,0.157 c 0.25,0.035 0.457,0.203 0.539,0.441 z m -11.692,-3.723 c -1.414,-0.82 -2.894,-1.644 -4.187,-2.457 -6.699,-2.656 -12.938,-3.758 -18.606,-3.992 2.543,1.106 5.137,2.117 7.735,2.938 5.687,1.796 10.812,2.804 15.058,3.511 z m 19.813,-0.586 c 12.031,-4.398 20.32,-11.769 26.062,-19.062 -7.996,3.601 -17.113,9.402 -26.062,19.062 z m -10.254,-4.769 c -0.848,-7.571 -2.672,-13.586 -5.117,-18.324 0.367,5.789 1.898,11.964 5.117,18.324 z m -5.309,-3.121 c -2.875,-7.399 -3.793,-14.551 -3.429,-21.035 -2.676,-3.407 -5.696,-5.79 -8.735,-7.629 1.149,8.609 4.305,19.058 12.164,28.664 z m -21.984,-0.992 c -5.535,-1.618 -10.973,-2.586 -15.91,-3.208 1.328,1.028 2.719,2.004 4.211,2.899 3.609,-0.285 7.543,-0.207 11.699,0.309 z m 9.316,-0.442 c -1.398,-1.004 -2.789,-2.031 -4.132,-2.914 0.953,0.781 1.871,1.563 2.933,2.359 0.406,0.161 0.793,0.387 1.199,0.555 z"
         style="fill:#ffff00;fill-opacity:1;fill-rule:nonzero;stroke:#0a0700;stroke-width:0.81604928;stroke-miterlimit:4;stroke-dasharray:none;stroke-opacity:0.94533757"
         id="path2084"
         inkscape:connector-curvature="0" />
      <path
         d="m 338.762,549.398 c -18.653,0 -34.032,-4.164 -45.914,-12.645 -0.004,0 -0.004,0 -0.004,0 0,0 -0.004,0 -0.008,-0.007 -11.883,-8.399 -18.078,-19.836 -18.078,-33.579 0,-8.578 1.972,-16.054 5.992,-22.23 4.012,-6.164 10.207,-11.449 18.453,-15.945 0.004,0 0.008,-0.004 0.012,-0.008 8.375,-4.512 20.594,-8.856 36.793,-13.16 16.019,-4.258 27.93,-8.446 35.582,-12.418 0.008,-0.004 0.015,-0.008 0.023,-0.012 7.778,-3.918 13.285,-8.402 16.664,-13.336 0.008,-0.012 0.016,-0.023 0.024,-0.035 3.449,-4.848 5.203,-10.785 5.203,-18.074 0,-10.832 -4.762,-19.356 -14.867,-26.285 -10.117,-6.856 -23.043,-10.348 -38.981,-10.348 -17.984,0 -32.34,3.984 -43.293,11.805 -10.89,7.773 -16.175,18.335 -16.175,32.484 0,1.254 -1.016,2.269 -2.266,2.269 h -6.902 c -1.254,0 -2.27,-1.015 -2.266,-2.269 0,-11.238 2.801,-21.16 8.437,-29.543 0,-0.004 0.004,-0.008 0.008,-0.012 5.739,-8.398 14.246,-14.851 25.305,-19.347 0.004,0 0.008,-0.004 0.012,-0.008 11.039,-4.399 23.437,-6.582 37.14,-6.582 12.336,0 23.535,1.933 33.547,5.836 10.02,3.906 17.902,9.5 23.473,16.789 0.004,0.004 0.004,0.008 0.008,0.011 5.566,7.372 8.382,15.95 8.382,25.446 0,14.875 -6.433,27.101 -18.847,35.929 h -0.004 c -9.777,6.957 -24.77,12.825 -45.11,17.883 h -0.007 c -20.043,5.067 -34.313,10.895 -42.645,17.149 -8.301,6.23 -12.258,14.074 -12.258,24.246 0,9.906 4.493,17.879 14.11,24.566 9.672,6.754 22.422,10.215 38.457,10.215 15.867,0 28.5,-4.246 38.273,-12.664 0.004,-0.004 0.008,-0.008 0.008,-0.008 9.789,-8.355 14.543,-18.656 14.543,-31.5 0,-1.25 1.012,-2.265 2.266,-2.265 h 6.902 c 1.25,0 2.266,1.015 2.266,2.265 0,10.59 -2.723,20.203 -8.153,28.633 l -0.004,0.008 c -5.433,8.519 -13.179,15.117 -23.051,19.719 -9.792,4.687 -20.839,7.011 -33.05,7.011 z m -231.094,-2.473 c -0.938,0 -1.777,-0.574 -2.113,-1.445 L 35.895,365.675 c -0.579,-1.484 0.519,-3.082 2.109,-3.082 h 7.543 c 0.937,0 1.777,0.574 2.113,1.449 l 20.149,52.27 h 88.027 l 20.273,-52.273 c 0.34,-0.872 1.176,-1.446 2.114,-1.446 h 7.539 c 1.593,0 2.687,1.598 2.113,3.082 l -69.66,179.805 c -0.34,0.871 -1.176,1.445 -2.113,1.445 z m 113.246,0 c -1.254,0 -2.266,-1.015 -2.266,-2.265 V 364.859 c 0,-1.254 1.012,-2.27 2.266,-2.266 h 6.902 c 1.25,-0.004 2.266,1.012 2.266,2.266 V 544.66 c 0,1.25 -1.016,2.265 -2.266,2.265 z m 218.313,0 c -1.25,0 -2.266,-1.015 -2.266,-2.265 V 364.859 c 0,-1.254 1.016,-2.27 2.266,-2.266 h 6.902 c 1.254,-0.004 2.266,1.012 2.266,2.266 v 86.152 h 93.089 c 1.25,0 2.266,1.016 2.266,2.266 v 6.914 c 0,1.254 -1.016,2.269 -2.266,2.269 h -93.089 v 73.266 H 554.52 c 1.25,0 2.265,1.016 2.265,2.266 v 6.668 c 0,1.25 -1.015,2.265 -2.265,2.265 z M 111.879,530.343 151.531,427.511 H 72.117 Z"
         style="fill:#ffffff;fill-opacity:1;fill-rule:nonzero;stroke:#0a0700;stroke-width:0.81604928;stroke-miterlimit:4;stroke-dasharray:none;stroke-opacity:0.94533757"
         id="path2086"
         inkscape:connector-curvature="0" />
      <path
         d="m 762.816,546.601 c -0.984,0 -1.929,-0.41 -2.714,-1.086 -0.004,-0.008 -0.012,-0.012 -0.02,-0.019 -0.73,-0.668 -1.242,-1.493 -1.387,-2.411 -0.179,-0.98 0.094,-2.011 0.739,-2.769 0.652,-0.766 1.617,-1.211 2.632,-1.254 0.016,0 0.032,0 0.047,0 0.965,0 1.899,0.379 2.688,1.019 0.008,0.008 0.015,0.012 0.023,0.02 0.77,0.664 1.309,1.496 1.461,2.43 0.18,0.992 -0.125,2.031 -0.785,2.808 -0.652,0.797 -1.648,1.262 -2.684,1.262 z m -161.539,-0.973 c -0.515,0 -0.961,-0.371 -1.05,-0.882 l -12.684,-70.813 c -0.121,-0.656 0.387,-1.258 1.051,-1.258 h 2.718 c 0.52,0 0.961,0.371 1.055,0.883 l 5.18,29.027 h 18.129 c 7.656,0 14.039,1.852 19.019,5.614 0,0 0.004,0 0.004,0 4.973,3.789 8.051,9.019 9.164,15.504 0,0.003 0,0.007 0.004,0.007 1.078,6.493 -0.297,11.922 -4.168,15.903 -3.855,3.965 -9.406,5.949 -16.41,6.015 -0.004,0 -0.008,0 -0.012,0 z m 3.161,-4.769 h 18.882 c 5.95,-0.129 10.188,-1.75 12.965,-4.758 2.777,-3.016 3.719,-6.922 2.754,-12.105 -1.062,-5.282 -3.633,-9.286 -7.816,-12.219 0,0 -0.004,0 -0.004,0 -4.16,-2.938 -9.289,-4.422 -15.492,-4.422 h -17.344 z m 69.683,-12.445 c -5.496,0 -10.496,-1.497 -14.898,-4.465 -4.414,-2.981 -7.203,-6.934 -8.2,-11.707 -0.136,-0.653 0.348,-1.266 1.008,-1.289 l 2.719,-0.098 c 0.508,-0.02 0.957,0.32 1.078,0.812 0.875,3.563 2.977,6.379 6.481,8.594 0,0 0.003,0 0.003,0 3.524,2.258 7.43,3.379 11.809,3.379 4.473,0 7.715,-1.168 9.961,-3.426 0.004,-0.004 0.004,-0.008 0.008,-0.008 2.222,-2.21 3.031,-5.148 2.363,-9.226 0,0 0,-0.008 0,-0.008 l -1.289,-6.789 h -12.051 c -0.008,0 -0.015,0 -0.023,0 -7.578,-0.164 -13.918,-1.664 -18.981,-4.562 -0.004,0 -0.004,0 -0.004,0 -5.046,-2.915 -8.14,-7.114 -9.027,-12.375 -0.004,-0.004 -0.004,-0.004 -0.004,-0.008 -0.715,-4.352 0.434,-8.199 3.371,-11.141 2.93,-2.937 6.903,-4.402 11.68,-4.402 4.68,-0.031 9.043,0.929 13.051,2.879 h 0.004 c 3.031,1.465 5.652,3.507 8.054,5.828 -0.339,-2.375 -0.554,-4.649 -0.48,-6.703 0.019,-0.575 0.492,-1.032 1.066,-1.032 h 3.121 c 0.543,0 1,0.407 1.063,0.946 l 0.055,0.437 c 0.011,0.106 0.007,0.211 -0.012,0.313 -0.285,1.593 -0.348,3.191 -0.192,4.816 l 0.348,3.258 4.977,28.074 c 0.004,0.008 0.004,0.016 0.008,0.028 0.804,5.253 -0.372,9.707 -3.563,12.964 h -0.004 c -3.183,3.289 -7.769,4.899 -13.5,4.899 z m 122.02,0 c -5.493,0 -10.496,-1.497 -14.895,-4.465 -4.414,-2.981 -7.203,-6.934 -8.199,-11.707 -0.137,-0.653 0.344,-1.266 1.008,-1.289 l 2.718,-0.098 c 0.508,-0.02 0.957,0.32 1.079,0.812 0.871,3.563 2.972,6.379 6.476,8.594 0.004,0 0.004,0 0.008,0 3.523,2.258 7.426,3.379 11.805,3.379 4.476,0 7.714,-1.168 9.964,-3.426 0,-0.004 0.004,-0.008 0.008,-0.008 2.223,-2.21 3.032,-5.148 2.367,-9.226 0,0 0,-0.008 0,-0.008 l -1.292,-6.789 h -12.051 c -0.008,0 -0.016,0 -0.024,0 -7.578,-0.164 -13.918,-1.664 -18.98,-4.562 0,0 -0.004,0 -0.004,0 -5.047,-2.915 -8.137,-7.114 -9.027,-12.375 0,-0.004 0,-0.004 0,-0.008 -0.715,-4.352 0.429,-8.199 3.367,-11.141 2.929,-2.937 6.906,-4.402 11.679,-4.402 4.68,-0.031 9.047,0.929 13.055,2.879 3.035,1.465 5.652,3.507 8.055,5.828 -0.34,-2.375 -0.551,-4.649 -0.481,-6.703 0.02,-0.575 0.493,-1.032 1.071,-1.032 h 3.121 c 0.543,0 1,0.407 1.062,0.95 l 0.051,0.437 c 0.012,0.102 0.008,0.207 -0.012,0.309 -0.285,1.59 -0.347,3.191 -0.187,4.816 l 0.347,3.258 4.977,28.074 c 0,0.008 0.004,0.016 0.008,0.028 0.808,5.253 -0.371,9.707 -3.563,12.964 -3.183,3.289 -7.769,4.899 -13.5,4.899 z m -93.68,-0.926 c -0.688,0 -1.199,-0.641 -1.043,-1.313 l 12.133,-52.672 c 0.109,-0.484 0.543,-0.828 1.043,-0.828 h 2.664 c 0.39,0 0.75,0.211 0.937,0.555 l 28.946,52.574 c 0.394,0.715 -0.121,1.586 -0.938,1.586 h -2.969 c -0.386,0 -0.746,-0.211 -0.933,-0.551 l -25.477,-45.855 -10.5,45.672 c -0.113,0.488 -0.547,0.832 -1.043,0.832 z m 55.672,-0.047 c -0.516,0 -0.961,-0.375 -1.051,-0.887 l -9.363,-52.621 c -0.117,-0.656 0.386,-1.258 1.054,-1.258 h 2.715 c 0.52,0 0.965,0.371 1.055,0.883 l 9.363,52.621 c 0.117,0.656 -0.386,1.262 -1.054,1.262 z m -84.719,-28.067 h 10.898 l -2.035,-10.98 c -2.746,-3.945 -6.023,-6.93 -9.871,-8.988 -3.91,-2.059 -7.992,-3.047 -12.312,-2.985 -3.516,0.059 -6.164,1.094 -8.168,3.086 h -0.004 c 0,0 0,0 -0.004,0 -1.957,1.985 -2.617,4.235 -2.066,7.164 0.746,3.828 3.066,6.778 7.257,9.032 4.235,2.293 9.661,3.535 16.305,3.664 z m 122.024,0 h 10.894 l -2.035,-10.98 c -2.742,-3.945 -6.024,-6.93 -9.871,-8.988 -3.906,-2.059 -7.992,-3.047 -12.309,-2.985 -3.515,0.059 -6.164,1.094 -8.172,3.086 h -0.004 c -1.961,1.985 -2.621,4.235 -2.07,7.164 0.746,3.828 3.07,6.778 7.258,9.032 0,0 0.004,0 0.004,0 4.23,2.293 9.656,3.535 16.305,3.664 z"
         style="fill:#ffffff;fill-opacity:1;fill-rule:nonzero;stroke:#0a0700;stroke-width:0.81604928;stroke-miterlimit:4;stroke-dasharray:none;stroke-opacity:0.94533757"
         id="path2088"
         inkscape:connector-curvature="0" />
      <path
         d="m 719.441,55.859 v -0.004 c -2.789,0 -5.093,-0.781 -6.73,-2.391 0,0 -0.004,0 -0.004,0 -1.633,-1.597 -2.43,-3.867 -2.43,-6.601 v -1.602 h -3.281 c -0.484,0 -0.875,-0.394 -0.875,-0.875 v -2.187 c 0,-0.485 0.391,-0.875 0.875,-0.875 h 3.281 V 20.249 c 0,-0.484 0.391,-0.875 0.875,-0.878 h 2.77 c 0.484,0.003 0.875,0.394 0.875,0.878 v 21.075 h 4.969 c 0.484,0 0.875,0.39 0.875,0.875 v 2.187 c 0,0.481 -0.395,0.875 -0.875,0.875 h -4.969 v 1.555 c 0,1.765 0.43,2.933 1.172,3.68 0.746,0.75 1.902,1.179 3.656,1.179 1.824,0 3.609,-0.371 5.387,-1.117 0.511,-0.215 1.093,0.094 1.199,0.637 l 0.461,2.297 c 0.086,0.414 -0.141,0.828 -0.531,0.988 -2.274,0.91 -4.512,1.375 -6.7,1.375 z M 372.703,55.386 c -0.484,-0.004 -0.875,-0.394 -0.875,-0.875 V 20.246 c 0,-0.485 0.391,-0.875 0.875,-0.875 h 2.77 c 0.484,0 0.879,0.39 0.879,0.875 v 34.265 c -0.004,0.481 -0.395,0.875 -0.879,0.875 z m 190.399,0 c -0.485,0 -0.875,-0.394 -0.875,-0.875 V 43.277 c -1.805,1.601 -4.129,2.429 -6.836,2.429 -3.192,0 -5.871,-1.261 -7.758,-3.683 -1.871,-2.406 -2.774,-5.602 -2.774,-9.484 v -0.313 c 0,-3.941 0.914,-7.184 2.821,-9.617 0,-0.004 0,-0.008 0.004,-0.012 1.914,-2.41 4.554,-3.676 7.66,-3.676 2.801,0 5.172,0.825 7.004,2.403 l 0.039,-1.11 c 0.015,-0.472 0.406,-0.843 0.875,-0.843 h 2.59 c 0.48,0 0.871,0.39 0.875,0.875 v 34.261 c 0,0.485 -0.395,0.875 -0.875,0.879 z m 114.156,0 c -0.485,0 -0.879,-0.394 -0.879,-0.875 V 43.277 c -1.801,1.601 -4.125,2.429 -6.832,2.429 -3.192,0 -5.871,-1.261 -7.758,-3.683 -1.871,-2.406 -2.773,-5.602 -2.773,-9.484 v -0.313 c 0,-3.941 0.914,-7.184 2.82,-9.617 0,-0.004 0,-0.008 0.004,-0.012 1.914,-2.41 4.555,-3.676 7.66,-3.676 2.797,0 5.172,0.825 7.004,2.403 l 0.039,-1.11 c 0.019,-0.472 0.406,-0.843 0.875,-0.843 h 2.586 c 0.484,0 0.875,0.39 0.879,0.875 v 34.261 c 0,0.485 -0.395,0.879 -0.879,0.879 z M 164.918,54.05 c -0.762,0 -1.5,-0.269 -2.012,-0.804 -0.488,-0.497 -0.758,-1.184 -0.758,-1.879 0,-0.703 0.27,-1.395 0.758,-1.891 0.52,-0.52 1.254,-0.77 2.012,-0.77 0.75,0 1.484,0.25 2,0.766 0.504,0.492 0.793,1.184 0.793,1.895 0,0.703 -0.289,1.394 -0.789,1.882 -0.512,0.532 -1.246,0.801 -2.004,0.801 z m 58.926,0 c -0.762,0 -1.504,-0.269 -2.016,-0.804 -0.484,-0.497 -0.754,-1.184 -0.754,-1.879 0,-0.703 0.27,-1.395 0.762,-1.891 0.516,-0.52 1.25,-0.77 2.008,-0.77 0.75,0 1.48,0.25 2,0.766 0.504,0.492 0.789,1.184 0.789,1.895 0,0.703 -0.285,1.394 -0.785,1.882 -0.512,0.532 -1.246,0.801 -2.004,0.801 z m 99.101,0 c -0.761,0 -1.504,-0.269 -2.015,-0.804 -0.485,-0.497 -0.758,-1.184 -0.758,-1.879 0,-0.703 0.273,-1.395 0.766,-1.891 0.515,-0.52 1.25,-0.77 2.007,-0.77 0.75,0 1.485,0.25 2,0.766 0.504,0.492 0.789,1.184 0.789,1.895 0,0.703 -0.285,1.394 -0.785,1.882 -0.511,0.532 -1.246,0.801 -2.004,0.801 z m 61.789,0 c -0.761,0 -1.504,-0.269 -2.015,-0.804 -0.485,-0.497 -0.758,-1.184 -0.758,-1.879 0,-0.703 0.273,-1.395 0.766,-1.891 0.515,-0.52 1.25,-0.77 2.007,-0.77 0.75,0 1.485,0.25 2,0.766 0.504,0.492 0.789,1.184 0.789,1.895 0,0.703 -0.285,1.394 -0.785,1.882 -0.511,0.532 -1.246,0.801 -2.004,0.801 z m 255.832,0 c -0.757,0 -1.5,-0.269 -2.011,-0.804 -0.485,-0.497 -0.758,-1.184 -0.758,-1.879 0,-0.703 0.273,-1.395 0.762,-1.891 0.515,-0.52 1.253,-0.77 2.007,-0.77 0.754,0 1.485,0.25 2,0.766 0.504,0.492 0.793,1.184 0.793,1.895 0,0.703 -0.285,1.394 -0.785,1.882 -0.512,0.532 -1.25,0.801 -2.008,0.801 z m 48.489,0 c -0.762,0 -1.5,-0.269 -2.012,-0.804 -0.488,-0.497 -0.754,-1.184 -0.754,-1.879 0,-0.703 0.266,-1.395 0.758,-1.891 0.515,-0.52 1.254,-0.77 2.008,-0.77 0.754,0 1.484,0.25 2,0.766 0.507,0.492 0.793,1.188 0.793,1.895 0,0.699 -0.286,1.39 -0.786,1.882 -0.511,0.532 -1.25,0.801 -2.007,0.801 z m 71.484,0 c -0.758,0 -1.5,-0.269 -2.012,-0.804 -0.484,-0.497 -0.754,-1.184 -0.754,-1.879 0,-0.703 0.27,-1.395 0.758,-1.891 0.52,-0.52 1.254,-0.77 2.008,-0.77 0.754,0 1.488,0.25 2.004,0.766 0.504,0.492 0.789,1.188 0.789,1.895 0,0.699 -0.281,1.39 -0.785,1.882 -0.512,0.532 -1.25,0.801 -2.008,0.801 z m -427.18,-2.613 c -0.484,0 -0.879,-0.391 -0.879,-0.875 v -5.305 h -3.718 c -0.485,0 -0.875,-0.39 -0.875,-0.875 v -2.187 c 0,-0.481 0.39,-0.875 0.875,-0.875 h 3.718 V 26.089 c 0,-2.187 0.454,-3.968 1.489,-5.254 0,-0.004 0,-0.007 0,-0.011 1.062,-1.297 2.758,-1.907 4.816,-1.907 1.305,0 2.371,0.125 3.242,0.43 0.368,0.129 0.606,0.484 0.586,0.871 l -0.113,2.188 c -0.027,0.515 -0.488,0.894 -1,0.82 -1.012,-0.145 -1.746,-0.215 -2.117,-0.215 -1,0 -1.508,0.246 -1.817,0.641 -0.32,0.429 -0.562,1.23 -0.562,2.457 v 15.207 h 4.297 c 0.484,0 0.875,0.394 0.875,0.875 v 2.187 c 0,0.485 -0.391,0.875 -0.875,0.875 h -4.297 v 5.305 c 0,0.484 -0.391,0.875 -0.875,0.875 z m 173.821,0 c -0.485,0 -0.879,-0.391 -0.879,-0.875 v -5.305 h -3.719 c -0.484,0 -0.875,-0.39 -0.875,-0.875 v -2.187 c 0,-0.481 0.391,-0.875 0.875,-0.875 h 3.719 V 26.089 c 0,-2.187 0.453,-3.968 1.488,-5.254 0,-0.004 0,-0.007 0,-0.011 1.063,-1.297 2.758,-1.907 4.813,-1.907 1.308,0 2.375,0.125 3.246,0.43 0.371,0.129 0.609,0.484 0.59,0.875 l -0.118,2.184 c -0.027,0.515 -0.492,0.894 -1,0.82 -1.015,-0.145 -1.746,-0.215 -2.117,-0.215 -1,0 -1.512,0.246 -1.82,0.641 -0.317,0.429 -0.559,1.23 -0.559,2.457 v 15.207 h 4.297 c 0.484,0 0.875,0.394 0.875,0.875 v 2.187 c 0,0.485 -0.391,0.875 -0.875,0.875 h -4.297 v 5.305 c 0,0.484 -0.39,0.875 -0.875,0.875 z m 117.937,0 c -0.48,0 -0.875,-0.391 -0.875,-0.875 v -5.305 h -3.719 c -0.48,0 -0.875,-0.39 -0.875,-0.875 v -2.187 c 0.004,-0.481 0.395,-0.871 0.875,-0.875 h 3.719 V 26.089 c 0,-2.187 0.453,-3.968 1.488,-5.254 0,-0.004 0,-0.007 0.004,-0.011 1.059,-1.297 2.758,-1.907 4.813,-1.907 1.305,0 2.371,0.125 3.242,0.43 0.371,0.129 0.609,0.484 0.59,0.875 l -0.117,2.184 c -0.028,0.515 -0.492,0.894 -1,0.82 -1.012,-0.145 -1.746,-0.215 -2.117,-0.215 -1.004,0 -1.508,0.246 -1.817,0.641 -0.32,0.426 -0.562,1.23 -0.562,2.457 v 15.207 h 4.296 c 0.485,0 0.876,0.394 0.876,0.875 v 2.187 c 0,0.485 -0.391,0.875 -0.876,0.875 h -4.296 v 5.305 c 0,0.484 -0.391,0.875 -0.875,0.875 z M 148.016,45.714 v -0.008 c -2.289,0 -4.352,-0.535 -6.118,-1.625 0,0 -0.003,0 -0.003,0 -1.747,-1.085 -3.098,-2.648 -4.024,-4.609 -0.926,-1.965 -1.379,-4.203 -1.379,-6.687 V 31.98 c 0,-3.867 1.012,-7.066 3.078,-9.453 0.004,0 0.004,0 0.004,0 2.086,-2.387 4.988,-3.598 8.465,-3.598 1.781,0 3.473,0.371 5.035,1.11 h 0.004 c 1.578,0.738 2.879,1.781 3.844,3.109 0,0.004 0.004,0.004 0.004,0.008 0.969,1.343 1.508,2.871 1.594,4.504 0.027,0.5 -0.375,0.921 -0.875,0.921 h -2.657 c -0.461,0 -0.843,-0.359 -0.875,-0.82 -0.093,-1.449 -0.656,-2.535 -1.801,-3.457 -1.124,-0.906 -2.507,-1.367 -4.273,-1.367 -2.309,0 -3.934,0.738 -5.156,2.258 -1.211,1.527 -1.863,3.711 -1.863,6.656 v 0.781 c 0,3.008 0.652,5.235 1.863,6.774 1.226,1.535 2.844,2.277 5.133,2.277 1.781,0 3.148,-0.504 4.257,-1.512 0.004,0 0.004,0 0.004,0 1.129,-1.011 1.727,-2.277 1.836,-3.98 0.032,-0.461 0.414,-0.82 0.875,-0.817 h 2.657 c 0.5,-0.003 0.898,0.418 0.875,0.918 -0.133,2.766 -1.204,5.11 -3.157,6.836 -1.937,1.727 -4.441,2.586 -7.347,2.586 z m 630.629,0 v -0.008 c -2.29,0 -4.352,-0.535 -6.118,-1.625 0,0 -0.004,0 -0.004,0 -1.746,-1.085 -3.097,-2.648 -4.023,-4.609 -0.926,-1.965 -1.375,-4.203 -1.375,-6.687 V 31.98 c 0,-3.867 1.008,-7.066 3.074,-9.453 0,0 0,0 0.004,0 2.086,-2.387 4.988,-3.598 8.465,-3.598 1.781,0 3.473,0.371 5.035,1.11 h 0.004 c 1.578,0.738 2.875,1.781 3.844,3.109 0,0.004 0,0.004 0.004,0.008 0.965,1.343 1.507,2.871 1.593,4.504 0.028,0.5 -0.375,0.921 -0.875,0.921 h -2.656 c -0.461,0 -0.844,-0.359 -0.875,-0.82 -0.094,-1.449 -0.656,-2.535 -1.801,-3.457 -1.125,-0.906 -2.507,-1.367 -4.273,-1.367 -2.309,0 -3.934,0.738 -5.156,2.258 0,0 -0.004,0 -0.004,0 -1.207,1.527 -1.86,3.711 -1.86,6.656 v 0.781 c 0,3.008 0.653,5.235 1.864,6.774 1.226,1.535 2.843,2.277 5.133,2.277 1.781,0 3.148,-0.504 4.261,-1.512 1.129,-1.011 1.727,-2.277 1.836,-3.98 0.031,-0.461 0.414,-0.82 0.875,-0.817 h 2.656 c 0.5,0 0.899,0.418 0.875,0.918 -0.132,2.766 -1.199,5.11 -3.156,6.836 -1.937,1.727 -4.441,2.586 -7.347,2.586 z M 48.039,45.71 v -0.004 c -0.09,0 -0.348,-0.066 -0.266,-0.039 -2.726,-0.05 -5.132,-0.777 -7.078,-2.261 -2,-1.512 -3.117,-3.473 -3.117,-5.672 0,-0.481 0.387,-0.871 0.867,-0.875 l 2.774,-0.02 c 0.484,-0.004 0.883,0.387 0.883,0.875 0,1.063 0.437,1.903 1.543,2.735 1.093,0.824 2.472,1.254 4.253,1.254 1.973,0 3.329,-0.461 4.211,-1.266 0.004,-0.004 0.008,-0.008 0.008,-0.008 0.918,-0.812 1.371,-1.871 1.371,-3.406 v -1.867 h -4.136 c -3.727,0 -6.731,-0.7 -8.961,-2.203 -0.004,0 -0.004,0 -0.004,0 -2.211,-1.497 -3.41,-3.704 -3.41,-6.301 0,-2.199 0.875,-4.129 2.515,-5.567 0.004,-0.004 0.004,-0.004 0.004,0 1.668,-1.449 3.859,-2.156 6.418,-2.156 1.789,0 3.504,0.352 5.106,1.055 0.003,0 0.003,0 0.003,0 1.055,0.465 1.95,1.113 2.77,1.836 0.094,-0.625 0.129,-1.403 0.301,-1.871 0.125,-0.344 0.457,-0.575 0.824,-0.575 h 2.957 c 0.484,0 0.875,0.391 0.875,0.875 v 0.27 c 0,0.121 -0.023,0.238 -0.074,0.352 -0.422,0.96 -0.692,2.617 -0.692,4.89 v 11.422 c 0,0.004 0,0.012 0,0.016 -0.046,2.601 -0.992,4.773 -2.8,6.277 -1.793,1.512 -4.219,2.234 -7.145,2.234 z m 134.656,0 v -0.004 c -0.09,0 -0.347,-0.066 -0.261,-0.039 -2.731,-0.05 -5.137,-0.777 -7.079,-2.261 0,0 -0.003,0 -0.003,0 -2,-1.512 -3.114,-3.473 -3.114,-5.672 0,-0.481 0.387,-0.871 0.867,-0.875 l 2.77,-0.02 c 0.488,-0.004 0.883,0.387 0.883,0.875 0,1.063 0.441,1.903 1.547,2.735 1.09,0.824 2.472,1.254 4.254,1.254 1.968,0 3.328,-0.461 4.211,-1.266 0.003,-0.004 0.007,-0.008 0.011,-0.008 0.914,-0.812 1.367,-1.867 1.367,-3.406 v -1.867 h -4.136 c -3.727,0 -6.731,-0.7 -8.965,-2.203 -2.211,-1.497 -3.41,-3.704 -3.41,-6.301 0,-2.199 0.871,-4.129 2.515,-5.567 0,-0.004 0,-0.004 0.004,0 1.668,-1.449 3.856,-2.156 6.414,-2.156 1.793,0 3.504,0.352 5.11,1.055 0,0 0.004,0 0.004,0 1.05,0.465 1.949,1.113 2.769,1.836 0.094,-0.625 0.129,-1.403 0.301,-1.871 0.129,-0.344 0.457,-0.575 0.824,-0.575 h 2.953 c 0.485,0 0.875,0.395 0.875,0.875 v 0.27 c 0,0.121 -0.023,0.238 -0.07,0.352 -0.422,0.96 -0.688,2.617 -0.688,4.89 v 11.422 c 0,0.004 0,0.012 0,0.016 -0.05,2.601 -1,4.773 -2.804,6.277 -1.793,1.512 -4.219,2.234 -7.149,2.234 z m 173.266,0 v -0.004 c -0.09,0 -0.344,-0.066 -0.262,-0.039 -2.726,-0.05 -5.133,-0.777 -7.078,-2.261 -2,-1.512 -3.117,-3.473 -3.117,-5.672 0,-0.481 0.391,-0.871 0.871,-0.875 l 2.766,-0.02 c 0.488,-0.004 0.886,0.387 0.886,0.875 0,1.063 0.442,1.903 1.543,2.735 1.094,0.824 2.473,1.254 4.254,1.254 1.969,0 3.324,-0.461 4.211,-1.266 0.004,-0.004 0.008,-0.008 0.008,-0.008 0.918,-0.812 1.371,-1.871 1.371,-3.406 v -1.867 h -4.137 c -3.726,0 -6.73,-0.7 -8.961,-2.203 0,0 -0.004,0 -0.004,0 -2.21,-1.497 -3.41,-3.704 -3.41,-6.301 0,-2.199 0.871,-4.129 2.516,-5.567 0,-0.004 0.004,-0.004 0.004,0 1.668,-1.449 3.855,-2.156 6.414,-2.156 1.793,0 3.504,0.352 5.109,1.055 0,0 0.004,0 0.004,0 1.051,0.465 1.949,1.113 2.77,1.836 0.097,-0.625 0.129,-1.403 0.301,-1.871 0.128,-0.344 0.457,-0.575 0.824,-0.575 h 2.953 c 0.484,0 0.879,0.391 0.879,0.875 v 0.27 c 0,0.121 -0.028,0.238 -0.074,0.352 -0.422,0.96 -0.688,2.617 -0.688,4.89 v 11.422 c 0,0.004 0,0.012 0,0.016 -0.051,2.597 -0.996,4.773 -2.805,6.277 -1.793,1.512 -4.218,2.234 -7.148,2.234 z m 46.551,0 v -0.004 c -0.09,0 -0.348,-0.066 -0.262,-0.039 -2.727,-0.05 -5.133,-0.777 -7.078,-2.261 -2,-1.512 -3.117,-3.473 -3.117,-5.672 0,-0.481 0.386,-0.867 0.867,-0.875 l 2.769,-0.02 c 0.489,-0.004 0.883,0.387 0.887,0.875 0,1.063 0.438,1.903 1.543,2.735 1.09,0.824 2.473,1.254 4.25,1.254 1.973,0 3.328,-0.461 4.215,-1.266 0,-0.004 0.004,-0.008 0.008,-0.008 0.918,-0.812 1.367,-1.871 1.367,-3.406 v -1.867 h -4.133 c -3.73,0 -6.73,-0.7 -8.965,-2.203 0,0 0,0 -0.004,0 -2.207,-1.497 -3.406,-3.704 -3.406,-6.301 0,-2.199 0.871,-4.129 2.516,-5.567 0,-0.004 0.004,-0.004 0.004,0 1.668,-1.449 3.855,-2.156 6.414,-2.156 1.793,0 3.504,0.352 5.109,1.055 0,0 0.004,0 0.004,0 1.051,0.465 1.945,1.113 2.766,1.836 0.097,-0.625 0.132,-1.403 0.304,-1.871 0.125,-0.344 0.453,-0.575 0.821,-0.575 h 2.957 c 0.484,0 0.875,0.395 0.875,0.875 v 0.27 c 0,0.121 -0.024,0.238 -0.071,0.352 -0.422,0.96 -0.691,2.617 -0.691,4.89 v 11.422 c 0,0.004 0,0.012 0,0.016 -0.051,2.597 -0.996,4.773 -2.805,6.277 -1.789,1.512 -4.215,2.234 -7.144,2.234 z m 51.258,0 v -0.004 c -0.086,0 -0.348,-0.066 -0.262,-0.039 -2.727,-0.05 -5.133,-0.777 -7.078,-2.261 -2,-1.512 -3.118,-3.473 -3.118,-5.672 0,-0.481 0.387,-0.871 0.868,-0.875 l 2.773,-0.02 c 0.485,-0.004 0.879,0.387 0.883,0.875 0,1.063 0.437,1.903 1.543,2.735 1.094,0.824 2.473,1.254 4.254,1.254 1.969,0 3.324,-0.461 4.211,-1.266 0.004,-0.004 0.008,-0.008 0.008,-0.008 0.918,-0.812 1.371,-1.871 1.371,-3.406 v -1.867 h -4.137 c -3.727,0 -6.731,-0.7 -8.961,-2.203 -0.004,0 -0.004,0 -0.008,0 -2.207,-1.497 -3.406,-3.704 -3.406,-6.301 0,-2.199 0.871,-4.129 2.516,-5.567 0.003,-0.004 0.003,-0.004 0.003,0 1.668,-1.449 3.86,-2.156 6.418,-2.156 1.79,0 3.504,0.352 5.106,1.055 0.004,0 0.004,0 0.004,0 1.054,0.465 1.949,1.113 2.769,1.836 0.098,-0.625 0.129,-1.403 0.301,-1.871 0.125,-0.344 0.457,-0.575 0.824,-0.575 h 2.957 c 0.481,0 0.875,0.395 0.875,0.875 v 0.27 c 0,0.121 -0.027,0.238 -0.074,0.352 -0.422,0.96 -0.687,2.617 -0.687,4.89 v 11.422 c 0,0.004 0,0.012 0,0.016 -0.051,2.601 -0.996,4.773 -2.805,6.277 -1.793,1.512 -4.219,2.234 -7.148,2.234 z m 348.937,0 v -0.004 c -0.09,0 -0.348,-0.066 -0.262,-0.039 -2.726,-0.05 -5.133,-0.777 -7.078,-2.261 -2,-1.512 -3.117,-3.473 -3.117,-5.672 0,-0.481 0.387,-0.871 0.867,-0.875 l 2.77,-0.02 c 0.488,-0.004 0.883,0.387 0.886,0.875 0,1.063 0.438,1.903 1.543,2.735 1.09,0.824 2.473,1.254 4.25,1.254 1.973,0 3.329,-0.461 4.215,-1.266 0.004,-0.004 0.004,-0.008 0.008,-0.008 0.918,-0.812 1.367,-1.871 1.367,-3.406 v -1.867 h -4.133 c -3.73,0 -6.73,-0.7 -8.964,-2.203 0,0 0,0 -0.004,0 -2.207,-1.497 -3.407,-3.704 -3.407,-6.301 0,-2.199 0.872,-4.129 2.516,-5.567 0,-0.004 0.004,-0.004 0.004,0 1.668,-1.449 3.855,-2.156 6.414,-2.156 1.793,0 3.504,0.352 5.109,1.055 0.004,0 0.004,0 0.008,0 1.051,0.465 1.946,1.113 2.766,1.836 0.097,-0.625 0.133,-1.403 0.305,-1.871 0.125,-0.344 0.453,-0.575 0.82,-0.575 h 2.957 c 0.484,0 0.879,0.391 0.879,0.875 v 0.27 c -0.004,0.121 -0.028,0.238 -0.078,0.352 -0.422,0.96 -0.688,2.617 -0.688,4.89 v 11.422 c 0,0.004 0,0.012 0,0.016 -0.051,2.597 -0.996,4.773 -2.805,6.277 -1.793,1.512 -4.218,2.234 -7.144,2.234 z m -532.59,-0.004 h -0.004 c -1.824,0 -3.535,-0.433 -5.066,-1.292 -0.836,-0.461 -1.578,-1.063 -2.258,-1.75 l -0.039,1.738 c -0.012,0.476 -0.402,0.859 -0.879,0.859 h -2.633 c -0.48,-0.004 -0.875,-0.394 -0.875,-0.875 V 20.249 c 0,-0.484 0.391,-0.875 0.875,-0.878 h 2.746 c 0.485,0 0.879,0.394 0.879,0.878 v 16.332 c 0.582,1.571 1.43,2.782 2.575,3.68 1.179,0.926 2.476,1.371 4.007,1.371 1.899,0 3.086,-0.468 3.797,-1.285 0,0 0.004,-0.004 0.004,-0.008 0.746,-0.836 1.195,-2.207 1.211,-4.238 V 20.246 c 0,-0.485 0.391,-0.875 0.875,-0.875 h 2.75 c 0.48,0 0.875,0.39 0.875,0.875 v 15.835 c 0,0.004 0,0.008 0,0.008 -0.016,3.047 -0.707,5.469 -2.211,7.141 -1.508,1.68 -3.793,2.476 -6.629,2.476 z m 24.242,0 c -2.097,0 -4.082,-0.589 -5.875,-1.742 0,0 -0.004,0 -0.004,0 -1.792,-1.14 -3.207,-2.73 -4.21,-4.715 0,0 0,-0.003 -0.004,-0.007 -0.989,-1.989 -1.477,-4.223 -1.477,-6.661 v -0.957 c 0,-2.371 0.512,-4.554 1.535,-6.5 1.024,-1.929 2.481,-3.468 4.324,-4.558 1.86,-1.09 3.954,-1.641 6.219,-1.641 4.078,0 7.371,1.574 9.555,4.629 0.277,0.391 0.191,0.934 -0.195,1.215 l -1.731,1.273 c -0.379,0.278 -0.906,0.207 -1.199,-0.156 -0.856,-1.058 -1.777,-1.793 -2.777,-2.25 -0.004,0 -0.004,0 -0.004,0 -0.993,-0.461 -2.161,-0.703 -3.536,-0.703 -2.246,0 -4.003,0.781 -5.488,2.43 -1.394,1.582 -2.074,3.527 -2.144,5.902 h 16.894 c 0.481,0 0.875,0.391 0.875,0.875 v 1.496 c 0,3.613 -0.945,6.586 -2.898,8.766 -1.938,2.191 -4.637,3.304 -7.86,3.304 z m 135.446,0 c -1.828,0 -3.535,-0.433 -5.067,-1.292 -0.836,-0.461 -1.582,-1.063 -2.261,-1.75 l -0.039,1.738 c -0.012,0.476 -0.403,0.855 -0.876,0.859 h -2.632 c -0.485,0 -0.879,-0.394 -0.879,-0.875 V 20.249 c 0,-0.484 0.394,-0.878 0.879,-0.878 h 2.746 c 0.484,0.003 0.875,0.394 0.875,0.878 v 16.332 c 0.586,1.571 1.429,2.782 2.574,3.68 1.18,0.926 2.48,1.371 4.008,1.371 1.898,0 3.086,-0.468 3.797,-1.285 0.004,0 0.004,-0.004 0.008,-0.008 0.742,-0.836 1.195,-2.211 1.21,-4.238 V 20.246 c 0,-0.485 0.391,-0.875 0.875,-0.875 h 2.747 c 0.484,0 0.875,0.39 0.875,0.875 v 15.835 c 0,0.004 0,0.008 0,0.008 -0.016,3.047 -0.707,5.469 -2.207,7.141 -1.508,1.68 -3.797,2.476 -6.633,2.476 z m 152.527,0 h 0.004 c -2.102,0 -4.082,-0.589 -5.875,-1.742 0,0 -0.004,0 -0.004,0 -1.793,-1.14 -3.207,-2.73 -4.211,-4.715 0,0 0,-0.003 -0.004,-0.007 -0.988,-1.989 -1.476,-4.223 -1.476,-6.661 v -0.957 c 0,-2.371 0.507,-4.554 1.531,-6.5 0.004,0 0.004,0 0.004,0 1.023,-1.929 2.476,-3.468 4.32,-4.558 0,0 0.004,0 0.004,0 1.859,-1.09 3.953,-1.641 6.219,-1.641 4.078,0 7.371,1.574 9.554,4.629 0.278,0.391 0.192,0.934 -0.195,1.215 l -1.73,1.273 c -0.379,0.278 -0.907,0.207 -1.2,-0.156 -0.855,-1.058 -1.777,-1.793 -2.777,-2.25 -0.004,0 -0.004,0 -0.004,0 -0.992,-0.461 -2.16,-0.703 -3.535,-0.703 -2.246,0 -4.004,0.781 -5.488,2.43 -1.395,1.582 -2.074,3.527 -2.145,5.902 h 16.895 c 0.48,0 0.875,0.391 0.875,0.875 v 1.496 c 0,3.613 -0.949,6.586 -2.899,8.766 h -0.004 c -1.933,2.191 -4.632,3.304 -7.859,3.304 z m 26.188,0 c -1.829,0 -3.536,-0.433 -5.067,-1.292 -0.836,-0.461 -1.582,-1.063 -2.262,-1.75 l -0.039,1.738 c -0.011,0.476 -0.402,0.859 -0.879,0.859 h -2.628 c -0.485,0 -0.875,-0.394 -0.879,-0.875 V 20.249 c 0,-0.484 0.394,-0.878 0.879,-0.878 h 2.746 c 0.484,0 0.875,0.394 0.875,0.878 v 16.332 c 0.586,1.571 1.429,2.782 2.574,3.68 0,0 0,0 0.004,0 1.179,0.926 2.472,1.371 4.004,1.371 1.898,0 3.086,-0.468 3.797,-1.285 0.003,0 0.003,-0.004 0.003,-0.008 0.747,-0.836 1.2,-2.207 1.211,-4.238 V 20.246 c 0.004,-0.485 0.395,-0.875 0.875,-0.875 h 2.75 c 0.485,0 0.875,0.39 0.875,0.875 v 15.835 c 0,0.004 0,0.008 0,0.008 -0.015,3.047 -0.707,5.469 -2.211,7.141 -1.503,1.68 -3.793,2.476 -6.628,2.476 z m -535.708,0 c -2.71,0 -5.031,-0.667 -6.851,-2.046 0,0 -0.004,0 -0.004,0 -1.82,-1.368 -2.816,-3.254 -2.816,-5.411 0,-1.343 0.332,-2.566 1.027,-3.574 0.004,-0.004 0.008,-0.008 0.008,-0.011 0.707,-0.997 1.742,-1.801 3.054,-2.442 0.004,-0.004 0.008,-0.008 0.012,-0.008 1.332,-0.629 3.11,-1.16 5.367,-1.629 0.004,0 0.004,0 0.008,0 2.141,-0.433 3.688,-1.039 4.617,-1.722 0,0 0.004,-0.004 0.004,-0.008 0.926,-0.668 1.301,-1.399 1.301,-2.477 0,-0.972 -0.387,-1.679 -1.398,-2.379 -1.004,-0.691 -2.368,-1.074 -4.168,-1.074 -1.938,0 -3.411,0.403 -4.489,1.141 -1.05,0.742 -1.562,1.656 -1.656,2.996 -0.031,0.457 -0.414,0.816 -0.875,0.816 h -2.769 c -0.485,-0.004 -0.875,-0.394 -0.875,-0.875 0,-2.336 1.074,-4.379 3.046,-5.875 0,-0.004 0.004,-0.004 0.004,-0.007 1.996,-1.489 4.571,-2.204 7.614,-2.204 2.871,0 5.285,0.641 7.16,1.993 1.894,1.351 2.929,3.316 2.929,5.597 0,1.387 -0.332,2.641 -1.023,3.676 -0.687,1.031 -1.719,1.875 -3.031,2.547 -1.324,0.687 -3.188,1.281 -5.656,1.84 -2.36,0.535 -3.961,1.152 -4.688,1.664 -0.703,0.519 -1.004,1.117 -1.004,2.097 0,0.997 0.36,1.676 1.27,2.321 0.004,0 0.004,0 0.004,0 0.921,0.656 2.187,1.019 3.878,1.019 1.715,0 3.04,-0.418 4.083,-1.222 0.003,0 0.003,0 0.003,0 1.063,-0.809 1.504,-1.668 1.504,-2.828 0,-0.485 0.391,-0.875 0.875,-0.875 h 2.77 c 0.484,0 0.875,0.39 0.875,0.875 0,2.371 -0.996,4.418 -2.867,5.882 h -0.004 c -1.863,1.485 -4.317,2.2 -7.239,2.2 z m 23.922,0 c -2.711,0 -5.035,-0.667 -6.855,-2.046 -1.82,-1.368 -2.817,-3.254 -2.817,-5.411 0,-1.343 0.336,-2.566 1.032,-3.574 0,-0.004 0.004,-0.008 0.004,-0.011 0.707,-0.997 1.742,-1.801 3.054,-2.442 0.004,-0.004 0.008,-0.008 0.012,-0.008 1.332,-0.629 3.109,-1.16 5.367,-1.629 0,0 0.004,0 0.004,0 2.145,-0.433 3.692,-1.039 4.621,-1.722 0,0 0,-0.004 0.004,-0.008 0.922,-0.668 1.301,-1.399 1.301,-2.477 0,-0.972 -0.387,-1.679 -1.399,-2.379 -1.003,-0.691 -2.367,-1.074 -4.167,-1.074 -1.938,0 -3.411,0.403 -4.489,1.141 -1.051,0.742 -1.562,1.656 -1.656,2.996 -0.031,0.457 -0.414,0.816 -0.875,0.816 h -2.77 c -0.484,0 -0.875,-0.394 -0.875,-0.875 0,-2.336 1.075,-4.379 3.047,-5.875 0,-0.004 0.004,-0.004 0.004,-0.007 1.996,-1.489 4.571,-2.204 7.614,-2.204 2.871,0 5.285,0.641 7.16,1.993 1.894,1.351 2.929,3.316 2.929,5.597 0,1.387 -0.332,2.641 -1.023,3.676 -0.688,1.031 -1.719,1.875 -3.031,2.547 -1.325,0.687 -3.188,1.281 -5.653,1.84 h -0.004 c -2.359,0.535 -3.961,1.152 -4.687,1.664 -0.703,0.519 -1.004,1.117 -1.004,2.097 0,0.997 0.359,1.676 1.27,2.321 0,0 0,0 0.003,0 0.922,0.656 2.188,1.019 3.879,1.019 1.715,0 3.039,-0.418 4.082,-1.222 0.004,0 0.004,0 0.008,0 1.063,-0.809 1.5,-1.668 1.5,-2.828 0,-0.485 0.391,-0.875 0.875,-0.875 h 2.77 c 0.484,0 0.879,0.39 0.879,0.875 0,2.371 -1.004,4.418 -2.871,5.882 h -0.004 c -1.864,1.485 -4.313,2.2 -7.239,2.2 z m 25.164,0 c -2.293,0 -4.398,-0.562 -6.25,-1.691 -1.828,-1.109 -3.269,-2.687 -4.273,-4.68 0,0 -0.004,-0.004 -0.004,-0.007 -0.988,-1.989 -1.476,-4.223 -1.476,-6.661 v -0.531 c 0,-3.883 1.097,-7.121 3.324,-9.558 0,-0.004 0,-0.008 0.004,-0.008 2.234,-2.418 5.215,-3.653 8.722,-3.653 2.309,0 4.414,0.543 6.246,1.641 1.836,1.098 3.27,2.672 4.262,4.664 1.004,2.004 1.5,4.254 1.5,6.707 v 0.559 c 0,3.879 -1.098,7.113 -3.324,9.535 -2.219,2.433 -5.207,3.676 -8.731,3.676 z m 120.438,0 c -2.297,0 -4.402,-0.562 -6.25,-1.691 -1.832,-1.109 -3.27,-2.687 -4.274,-4.68 0,0 -0.003,-0.004 -0.003,-0.007 -0.989,-1.989 -1.477,-4.223 -1.477,-6.661 v -0.531 c 0,-3.883 1.098,-7.121 3.324,-9.558 0,-0.004 0,-0.008 0.004,-0.008 2.235,-2.418 5.215,-3.653 8.723,-3.653 2.308,0 4.41,0.543 6.246,1.641 1.836,1.098 3.269,2.672 4.258,4.664 1.004,2.004 1.5,4.254 1.5,6.707 v 0.559 c 0,3.879 -1.098,7.113 -3.321,9.535 -2.222,2.433 -5.207,3.676 -8.73,3.676 z m 247.754,0 c -2.711,0 -5.031,-0.667 -6.852,-2.046 0,0 -0.004,0 -0.004,0 -1.816,-1.368 -2.816,-3.254 -2.816,-5.411 0,-1.343 0.336,-2.566 1.031,-3.574 0,-0.004 0.004,-0.008 0.008,-0.011 0.707,-0.997 1.742,-1.801 3.055,-2.442 0.004,-0.004 0.008,-0.008 0.011,-0.008 1.332,-0.629 3.11,-1.16 5.368,-1.629 0,0 0.004,0 0.004,0 2.144,-0.433 3.691,-1.039 4.621,-1.722 0,0 0.004,-0.004 0.004,-0.008 0.921,-0.668 1.3,-1.399 1.3,-2.477 0,-0.972 -0.386,-1.679 -1.402,-2.379 -1,-0.691 -2.363,-1.074 -4.164,-1.074 -1.938,0 -3.414,0.403 -4.492,1.141 -1.051,0.742 -1.563,1.656 -1.653,2.996 -0.031,0.457 -0.414,0.816 -0.875,0.816 h -2.773 c -0.484,-0.004 -0.875,-0.394 -0.875,-0.875 0,-2.336 1.078,-4.379 3.051,-5.875 0,-0.004 0.004,-0.004 0.004,-0.007 1.996,-1.489 4.566,-2.204 7.613,-2.204 2.867,0 5.285,0.641 7.16,1.993 1.895,1.351 2.93,3.316 2.93,5.597 0,1.387 -0.336,2.641 -1.028,3.676 -0.687,1.031 -1.714,1.875 -3.027,2.547 -1.324,0.687 -3.187,1.281 -5.656,1.84 -2.36,0.535 -3.965,1.152 -4.692,1.664 -0.699,0.519 -1,1.117 -1,2.097 0,0.993 0.36,1.676 1.27,2.321 0,0 0.004,0 0.004,0 0.926,0.66 2.187,1.019 3.875,1.019 1.715,0 3.043,-0.418 4.086,-1.222 0,0 0.004,0 0.004,0 1.062,-0.809 1.504,-1.668 1.504,-2.828 0,-0.485 0.39,-0.875 0.875,-0.875 h 2.769 c 0.484,0 0.875,0.39 0.875,0.875 0,2.371 -0.996,4.418 -2.867,5.882 h -0.004 c -1.863,1.485 -4.316,2.2 -7.242,2.2 z m 253.156,0 c -2.711,0 -5.031,-0.667 -6.851,-2.046 -1.821,-1.364 -2.821,-3.254 -2.821,-5.411 0,-1.343 0.336,-2.566 1.031,-3.574 0,-0.004 0.004,-0.008 0.008,-0.011 0.707,-0.997 1.739,-1.801 3.051,-2.442 0.008,-0.004 0.012,-0.008 0.016,-0.008 1.332,-0.629 3.109,-1.16 5.367,-1.629 0,0 0.004,0 0.004,0 2.144,-0.433 3.691,-1.039 4.621,-1.722 0,0 0,-0.004 0.004,-0.008 0.922,-0.668 1.301,-1.399 1.301,-2.477 0,-0.972 -0.387,-1.679 -1.403,-2.379 -1,-0.691 -2.363,-1.074 -4.164,-1.074 -1.937,0 -3.41,0.403 -4.488,1.141 -1.055,0.742 -1.567,1.656 -1.656,2.996 -0.032,0.457 -0.414,0.816 -0.875,0.816 h -2.77 c -0.484,0 -0.875,-0.394 -0.875,-0.875 0,-2.336 1.074,-4.379 3.047,-5.875 0,-0.004 0.004,-0.004 0.004,-0.007 1.996,-1.489 4.566,-2.204 7.613,-2.204 2.867,0 5.285,0.641 7.16,1.993 1.899,1.351 2.93,3.316 2.93,5.597 0,1.387 -0.332,2.641 -1.023,3.676 -0.688,1.031 -1.719,1.875 -3.032,2.547 -1.324,0.687 -3.187,1.281 -5.656,1.84 -2.359,0.535 -3.961,1.152 -4.687,1.664 -0.704,0.519 -1.004,1.117 -1.004,2.097 0,0.997 0.359,1.676 1.273,2.321 0.922,0.656 2.188,1.019 3.879,1.019 1.715,0 3.039,-0.418 4.082,-1.222 0.004,0 0.004,0 0.008,0 1.062,-0.809 1.5,-1.668 1.5,-2.828 0,-0.485 0.39,-0.875 0.875,-0.875 h 2.769 c 0.485,0 0.879,0.39 0.879,0.875 0,2.371 -1,4.418 -2.871,5.882 h -0.004 c -1.863,1.485 -4.312,2.2 -7.238,2.2 z m -219.699,-0.445 -2.746,-0.004 c -0.485,0 -0.875,-0.39 -0.875,-0.875 V 28.679 c 0,-0.004 0,-0.008 0,-0.012 0.031,-3.066 0.777,-5.523 2.355,-7.23 1.578,-1.691 3.891,-2.512 6.715,-2.512 2.899,0 5.32,0.742 7.125,2.215 l 0.012,-0.902 c 0.008,-0.481 0.398,-0.864 0.875,-0.864 h 2.68 c 0.484,0 0.874,0.391 0.874,0.875 v 24.137 c 0,0.485 -0.39,0.875 -0.874,0.875 h -2.77 c -0.484,0 -0.875,-0.39 -0.879,-0.875 V 27.109 c -0.48,-1.387 -1.223,-2.375 -2.285,-3.047 -1.09,-0.688 -2.551,-1.063 -4.434,-1.063 -1.75,0 -2.879,0.481 -3.656,1.411 -0.777,0.929 -1.242,2.429 -1.242,4.605 v 15.371 c 0,0.485 -0.391,0.875 -0.875,0.875 z M 163.508,45.257 c -0.481,0 -0.875,-0.39 -0.875,-0.875 V 20.246 c 0,-0.481 0.39,-0.875 0.875,-0.875 h 2.773 c 0.481,0 0.875,0.394 0.875,0.875 v 24.136 c -0.004,0.485 -0.394,0.875 -0.875,0.875 z m 34.472,0 c -0.484,0 -0.875,-0.39 -0.875,-0.875 v -2.297 c 0,-0.484 0.391,-0.875 0.875,-0.875 h 12.918 L 196.82,22.742 c -0.113,-0.153 -0.175,-0.34 -0.175,-0.532 v -1.964 c 0,-0.481 0.39,-0.875 0.875,-0.875 h 19.648 c 0.484,0 0.879,0.394 0.879,0.875 v 2.253 c -0.004,0.485 -0.395,0.875 -0.879,0.875 h -14.457 l 14.141,18.489 c 0.117,0.156 0.179,0.343 0.179,0.535 v 1.984 c -0.004,0.485 -0.394,0.875 -0.875,0.875 z m 24.454,0 c -0.485,0 -0.875,-0.39 -0.875,-0.875 V 20.246 c 0,-0.481 0.39,-0.875 0.875,-0.875 h 2.769 c 0.485,0 0.875,0.394 0.875,0.875 v 24.136 c 0,0.485 -0.39,0.875 -0.875,0.875 z m 99.101,0 c -0.484,0 -0.875,-0.39 -0.875,-0.875 V 20.246 c 0,-0.481 0.391,-0.875 0.875,-0.875 h 2.77 c 0.484,0 0.879,0.394 0.879,0.875 v 24.136 c 0,0.485 -0.395,0.875 -0.879,0.875 z m 61.789,0 c -0.484,0 -0.875,-0.39 -0.879,-0.875 V 20.246 c 0,-0.481 0.395,-0.875 0.879,-0.875 h 2.77 c 0.484,0 0.875,0.394 0.875,0.875 v 24.136 c 0,0.485 -0.391,0.875 -0.875,0.875 z m 255.832,0 c -0.48,0 -0.871,-0.39 -0.875,-0.875 V 20.246 c 0,-0.481 0.395,-0.875 0.875,-0.875 h 2.774 c 0.484,0 0.875,0.394 0.875,0.875 v 24.136 c 0,0.485 -0.391,0.875 -0.875,0.875 z m 48.492,0 c -0.484,0 -0.875,-0.39 -0.875,-0.875 V 20.246 c 0,-0.481 0.391,-0.875 0.875,-0.875 h 2.77 c 0.484,0 0.875,0.394 0.875,0.875 v 24.136 c 0,0.485 -0.391,0.875 -0.875,0.875 z m 36.895,0 c -0.481,0 -0.875,-0.39 -0.875,-0.875 V 20.246 c 0,-0.481 0.391,-0.875 0.875,-0.875 h 2.773 c 0.485,0 0.875,0.394 0.875,0.875 v 24.136 c 0,0.485 -0.39,0.875 -0.875,0.875 z m 34.59,0 c -0.485,0 -0.875,-0.39 -0.875,-0.875 V 20.246 c 0,-0.481 0.39,-0.875 0.875,-0.875 h 2.769 c 0.485,0 0.879,0.394 0.879,0.875 v 24.136 c -0.004,0.485 -0.394,0.875 -0.879,0.875 z M 121.898,41.679 c 1.5,0 2.774,-0.375 3.907,-1.125 0,0 0,0 0.004,0 1.132,-0.738 2.015,-1.777 2.664,-3.18 0.652,-1.41 0.98,-2.964 0.98,-4.699 v -0.511 c 0,-2.883 -0.726,-5.098 -2.129,-6.778 -1.39,-1.664 -3.101,-2.449 -5.379,-2.449 -2.293,0 -4.015,0.789 -5.422,2.453 -1.394,1.688 -2.105,3.824 -2.105,6.555 v 0.488 c 0,2.867 0.723,5.074 2.129,6.754 1.41,1.699 3.113,2.496 5.351,2.496 z m 120.438,0 c 1.496,0 2.769,-0.375 3.902,-1.125 0.004,0 0.004,0 0.008,0 1.133,-0.738 2.012,-1.777 2.66,-3.18 0.653,-1.41 0.985,-2.964 0.985,-4.699 v -0.511 c 0,-2.883 -0.727,-5.098 -2.129,-6.778 -1.391,-1.664 -3.102,-2.449 -5.379,-2.449 -2.293,0 -4.016,0.789 -5.422,2.453 -1.395,1.688 -2.106,3.824 -2.106,6.555 v 0.488 c 0,2.867 0.723,5.074 2.129,6.754 1.411,1.699 3.11,2.496 5.352,2.496 z m 52.023,0 c 1.891,0 3.286,-0.609 4.422,-1.89 1.024,-1.153 1.559,-2.661 1.727,-4.5 h -12.875 c 0.379,1.82 1.027,3.339 2.09,4.449 h 0.004 c 1.285,1.316 2.761,1.941 4.632,1.941 z m 287.977,0 c 1.887,0 3.285,-0.609 4.422,-1.89 1.023,-1.153 1.558,-2.661 1.726,-4.5 h -12.875 c 0.379,1.82 1.024,3.339 2.09,4.449 0,0 0.004,0 0.004,0 1.281,1.316 2.762,1.941 4.633,1.941 z m -26.438,-0.043 c 3.043,0 5.004,-1.269 6.329,-4.062 V 26.722 c -1.313,-2.543 -3.286,-3.726 -6.375,-3.726 -2.102,0 -3.563,0.726 -4.692,2.289 -1.137,1.593 -1.754,3.828 -1.754,6.785 0,3.328 0.641,5.73 1.77,7.265 0,0 0,0 0.004,0 1.144,1.571 2.617,2.297 4.718,2.297 z m 114.153,0 c 3.047,0 5.004,-1.269 6.328,-4.062 V 26.722 c -1.309,-2.543 -3.281,-3.726 -6.371,-3.726 -2.102,0 -3.563,0.726 -4.692,2.289 -1.14,1.593 -1.754,3.828 -1.754,6.785 0,3.328 0.641,5.73 1.77,7.265 0,0 0,0 0.004,0 1.144,1.571 2.613,2.297 4.715,2.297 z M 49.43,31.355 v -0.008 h 4.058 V 27.16 c -0.59,-1.219 -1.476,-2.196 -2.758,-2.95 0,0 0,0 -0.003,0 -1.305,-0.781 -2.782,-1.171 -4.493,-1.171 -1.504,0 -2.617,0.386 -3.488,1.125 -0.867,0.75 -1.246,1.578 -1.246,2.707 0,1.375 0.551,2.312 1.91,3.128 0,0.004 0.004,0.008 0.004,0.008 1.363,0.836 3.359,1.317 6.016,1.344 z m 134.66,0 v -0.008 h 4.058 V 27.16 c -0.589,-1.219 -1.476,-2.196 -2.757,-2.95 0,0 -0.004,0 -0.004,0 -1.305,-0.781 -2.782,-1.171 -4.492,-1.171 -1.5,0 -2.618,0.386 -3.489,1.125 -0.867,0.75 -1.246,1.578 -1.246,2.707 0,1.375 0.547,2.312 1.91,3.128 0,0.004 0,0.008 0.004,0.008 1.36,0.836 3.36,1.317 6.016,1.344 z m 173.265,0 v -0.008 h 4.059 V 27.16 c -0.59,-1.219 -1.476,-2.196 -2.758,-2.95 0,0 -0.004,0 -0.004,0 -1.304,-0.781 -2.781,-1.171 -4.492,-1.171 -1.5,0 -2.617,0.386 -3.488,1.125 -0.867,0.75 -1.246,1.578 -1.246,2.707 0,1.375 0.547,2.312 1.91,3.128 0,0.004 0,0.008 0.004,0.008 1.359,0.836 3.359,1.317 6.015,1.344 z m 46.551,0 v -0.008 h 4.055 V 27.16 c -0.586,-1.219 -1.473,-2.196 -2.758,-2.95 -1.308,-0.781 -2.785,-1.171 -4.492,-1.171 -1.504,0 -2.617,0.386 -3.492,1.125 -0.864,0.75 -1.242,1.578 -1.242,2.707 0,1.375 0.546,2.312 1.906,3.128 0.004,0.004 0.004,0.008 0.008,0.008 1.359,0.836 3.359,1.317 6.015,1.344 z m 51.258,0 v -0.008 h 4.059 V 27.16 c -0.59,-1.219 -1.477,-2.196 -2.758,-2.95 0,0 0,0 -0.004,0 -1.305,-0.777 -2.781,-1.171 -4.492,-1.171 -1.504,0 -2.617,0.386 -3.489,1.125 -0.867,0.75 -1.246,1.578 -1.246,2.707 0,1.375 0.551,2.312 1.911,3.128 0,0.004 0.003,0.008 0.003,0.008 1.364,0.836 3.36,1.317 6.016,1.344 z m 348.938,0 v -0.008 h 4.054 V 27.16 c -0.586,-1.219 -1.472,-2.196 -2.754,-2.95 -1.308,-0.781 -2.785,-1.171 -4.496,-1.171 -1.5,0 -2.617,0.386 -3.488,1.125 -0.863,0.75 -1.246,1.578 -1.246,2.707 0,1.375 0.551,2.312 1.91,3.128 0.004,0.004 0.004,0.008 0.004,0.008 1.363,0.836 3.363,1.317 6.019,1.344 z"
         style="fill:#ffffff;fill-opacity:1;fill-rule:nonzero;stroke:#0a0700;stroke-width:0.81604928;stroke-miterlimit:4;stroke-dasharray:none;stroke-opacity:0.94533757"
         id="path2090"
         inkscape:connector-curvature="0" />
      <path
         d="m 756.223,205.105 c -0.11,0 -0.219,-0.024 -0.317,-0.07 -0.84,-0.024 -1.683,-0.145 -2.492,-0.504 -1.797,-0.797 -3.394,-2.297 -4.973,-4.418 -3.156,-4.246 -6.339,-11.192 -9.851,-21.657 -6.832,-20.351 -25.285,-34.039 -56.914,-43.875 C 650.051,124.749 605.496,118.98 547.555,114.515 412.668,104.128 16.836,99.171 16.836,99.171 16.445,99.167 16.133,98.847 16.141,98.456 l 0.031,-2.554 c 0.004,-0.391 0.324,-0.703 0.715,-0.696 0,0 395.593,4.93 530.972,15.356 58.047,4.473 102.782,10.219 134.993,20.234 32.214,10.016 52.144,24.504 59.496,46.399 3.449,10.273 6.609,16.965 9.277,20.551 1.332,1.789 2.539,2.777 3.398,3.156 0.903,0.402 1.348,0.375 2.157,-0.028 1.5,-0.742 3.836,-3.847 5.871,-8.714 2.039,-4.883 3.988,-11.45 5.847,-18.961 3.711,-15.032 7.079,-33.871 10.516,-51.239 3.441,-17.363 6.898,-33.191 11.07,-42.644 0.778,-1.758 1.821,-3.602 3.954,-4.926 1.41,-0.879 3.437,-1.484 5.867,-2 -0.067,0 -0.125,0 -0.192,0 -1.75,0.051 -3.425,0.117 -5,0.207 -7.234,0.414 -12.66,1.262 -16.523,2.731 -3.871,1.468 -6.149,3.414 -7.676,6.402 -5.586,10.937 -10.781,31.23 -18.684,43.797 -3.953,6.285 -8.91,10.992 -15.289,10.804 -6.367,-0.191 -13.089,-5.085 -20.918,-15.894 -2.015,-2.785 -6.433,-5.688 -12.664,-8.238 -6.234,-2.551 -14.246,-4.817 -23.39,-6.797 -18.285,-3.957 -41.106,-6.778 -63.676,-8.781 -22.57,-2.004 -44.898,-3.192 -62.266,-3.915 -17.367,-0.718 -29.656,-0.964 -32.558,-1.101 -131.645,-6.27 -504.61,-6.988 -504.61,-6.988 -0.39,0 -0.707,-0.317 -0.707,-0.707 l 0.004,-2.555 c 0.004,-0.391 0.321,-0.707 0.711,-0.703 0,0 372.805,0.707 504.789,6.992 2.578,0.121 15.129,0.383 32.535,1.102 17.407,0.722 39.789,1.914 62.45,3.925 22.664,2.012 45.593,4.836 64.168,8.856 9.285,2.012 17.48,4.312 24.05,7.004 6.571,2.687 11.579,5.715 14.375,9.582 7.524,10.383 13.493,14.125 17.825,14.254 2.171,0.066 4.179,-0.707 6.144,-2.239 1.961,-1.527 3.852,-3.82 5.672,-6.711 7.273,-11.57 12.492,-31.714 18.508,-43.492 1.715,-3.359 4.488,-5.808 8.144,-7.531 -5.308,0.367 -9.992,0.918 -13.738,1.785 -5.926,1.375 -9.637,3.453 -11.32,6.106 -6.602,10.406 -11.418,21.394 -17.828,28.023 -3.215,3.316 -7.016,5.578 -11.539,5.633 -4.52,0.058 -9.454,-2.004 -15.168,-6.449 -0.719,-0.559 -1.547,-1.11 -2.442,-1.653 -0.652,0.016 -1.301,0.012 -1.937,-0.039 -4.684,-0.367 -8.707,-2.367 -12.5,-4.375 -1.973,-1.039 -3.899,-2.082 -5.86,-2.972 -2.886,-0.688 -5.972,-1.34 -9.285,-1.95 -7.773,-1.433 -16.699,-2.664 -26.695,-3.734 -4.129,-0.289 -9.121,-0.863 -15.121,-1.43 -0.004,-0.004 -0.004,0 -0.008,0 -0.024,0 -0.043,0 -0.066,0 -7.301,-0.687 -42.497,-2.222 -75.61,-3.55 -32.84,-1.321 -63.457,-2.454 -64.051,-2.473 h 0.008 C 471.688,84.765 449.938,84.218 426.922,83.601 294.887,80.054 16.859,79.636 16.859,79.636 c -0.39,0 -0.707,-0.316 -0.707,-0.707 l 0.004,-2.551 C 16.16,76.296 16.172,76.214 16.199,76.14 16.176,76.066 16.16,75.992 16.16,75.914 l -0.012,-2.551 c 0,-0.157 0.051,-0.305 0.145,-0.426 -0.086,-0.121 -0.129,-0.262 -0.133,-0.406 L 16.148,69.98 c 0,-0.391 0.317,-0.711 0.707,-0.711 0,0 275.856,-1.199 408.067,1.832 30.738,0.703 59.476,1.617 83.894,2.824 0.149,-0.172 0.368,-0.265 0.594,-0.25 0,0 5.977,0.442 13.848,1.031 h 0.012 c 13.027,0.774 24.394,1.649 33.683,2.665 3.582,0.3 7.055,0.605 10.063,0.882 1.859,0.172 3.527,0.336 5.054,0.493 4.836,0.269 9.649,0.605 14.442,1.027 h 0.031 c 2.219,0.098 4.551,0.195 6.695,0.301 3.414,-1.317 6.028,-3.45 9.465,-5.493 2.238,-1.332 4.324,-4.14 13.305,-5.765 1.765,-0.32 5.508,-0.434 11.594,-0.559 6.086,-0.129 14.269,-0.211 23.968,-0.258 19.407,-0.093 44.875,-0.05 71.7,0.051 8.039,0.028 16.218,0.071 24.371,0.11 6.453,-0.293 13.484,-0.446 20.976,-0.493 9.543,-0.062 19.832,0.039 30.43,0.196 10.223,0.051 21.867,0.312 34.515,0.527 0.387,0.008 0.696,0.32 0.696,0.707 v 4.43 c 0,0.387 -0.313,0.703 -0.699,0.711 -14.11,0.203 -23.133,0.621 -28.844,1.355 -4.461,0.574 -6.891,1.363 -8.184,2.168 -1.316,0.82 -1.726,1.598 -2.418,3.164 -3.828,8.672 -7.379,24.5 -10.808,41.813 -3.426,17.312 -6.797,36.183 -10.559,51.418 -1.883,7.617 -3.855,14.32 -6.035,19.535 -2.172,5.203 -4.438,9.086 -7.77,10.738 -0.851,0.422 -1.777,0.656 -2.718,0.676 z m -35.137,-95.133 c 3.246,-0.051 5.941,-1.57 8.703,-4.422 5.535,-5.722 10.535,-16.672 17.332,-27.39 1.68,-2.645 4.375,-4.551 7.832,-5.977 -0.805,0.078 -1.605,0.152 -2.391,0.246 -0.031,0.004 -0.058,0.008 -0.085,0.008 h -0.032 c -13.636,1.012 -24.136,7.215 -29.125,14.156 v 0.008 l -0.054,0.074 c -0.024,0.031 -0.047,0.063 -0.071,0.086 l -0.07,0.07 c -2.559,2.61 -3.957,5.891 -6.004,9.325 -1.812,3.035 -4.324,6.101 -8.512,8.371 5.184,3.98 9.231,5.488 12.438,5.445 0.012,0 0.023,0 0.039,0 z m -16.648,-8.164 c 0.371,-0.035 0.738,-0.074 1.109,-0.133 4.297,-1.926 6.336,-4.484 8.168,-7.547 1.816,-3.047 3.34,-6.64 6.383,-9.836 0.004,-0.011 0.011,-0.015 0.019,-0.023 3.195,-4.445 8.156,-8.34 14.321,-11.203 -0.653,0.062 -1.372,0.113 -1.993,0.183 -4.824,0.543 -8.953,1.293 -12.172,2.184 -3.218,0.891 -5.539,1.949 -6.683,2.961 -9.512,8.41 -15.067,13.93 -20.727,16.809 -0.851,0.429 -1.703,0.785 -2.566,1.078 5.582,1.613 10.391,3.406 14.141,5.527 z m -20.43,-8.453 c 2.551,0.062 4.691,-0.488 7.058,-1.691 4.715,-2.395 10.325,-7.778 19.899,-16.239 1.316,-1.164 3.133,-2.062 5.199,-2.844 -3.539,0.09 -7.258,0.172 -10.137,0.286 -0.312,0.066 -0.621,0.132 -0.918,0.207 -5.851,1.433 -10.746,5.254 -15.047,9.175 -4.292,3.915 -7.812,7.993 -11.937,9.516 -0.305,0.113 -0.625,0.152 -0.937,0.246 2.609,0.774 4.91,1.297 6.82,1.344 z m -12.629,-4.348 c 1.926,-0.058 3.73,-0.351 5.371,-0.957 2.414,-0.894 6.195,-4.672 10.641,-8.726 2.226,-2.032 4.781,-4.039 7.554,-5.844 -2.257,0.164 -4.605,0.324 -6.234,0.5 -4.664,0.5 -6.996,1.055 -8.309,1.516 -1.308,0.464 -1.773,0.914 -3.043,1.445 -0.675,0.281 -1.996,1.109 -3.507,2.211 -1.512,1.097 -3.25,2.472 -4.93,3.89 -2.067,1.747 -3.93,3.45 -5.551,4.954 0.891,0.218 1.789,0.433 2.652,0.664 1.375,0.187 2.727,0.312 4.028,0.347 0.008,0 0.015,0 0.027,0 0.438,0.008 0.875,0.008 1.305,0 z m -25.961,-0.402 c -0.223,-0.031 -0.422,-0.066 -0.645,-0.102 -0.246,-0.015 -0.468,-0.035 -0.679,-0.047 -0.004,0.008 -0.012,0.008 -0.016,0.016 0.449,0.043 0.895,0.09 1.34,0.133 z m 13.293,-1.684 c 1.789,-1.738 4.594,-4.332 7.652,-6.914 3.457,-2.914 6.848,-5.636 9.465,-6.73 0.113,-0.047 0.402,-0.184 0.524,-0.246 -4.422,0.347 -8.719,0.906 -12.559,2.254 l -0.012,0.007 c -0.027,0.012 -0.054,0.024 -0.082,0.032 l -0.035,0.007 h -0.004 c -7.859,2.219 -11.332,5.629 -15.605,9.606 1.136,0.176 2.273,0.34 3.441,0.59 l 0.027,0.008 c 2.504,0.437 4.883,0.902 7.188,1.394 z m -15.789,-2.715 c 5.105,-4.488 9.082,-9.253 18.172,-12.199 -7.203,0.18 -11.817,0.836 -17.297,2.504 -4.367,1.324 -7.621,5.137 -10.906,8.481 3.488,0.379 6.855,0.777 10.031,1.214 z m -70.074,-0.234 c -5.227,-0.281 -10.625,-0.562 -16.043,-0.816 -19.825,-0.93 -37.418,-1.567 -39.551,-1.645 -3.414,-0.09 -7.352,-0.183 -10.902,-0.273 -6.79,-0.114 -13.563,-0.262 -20.282,-0.516 -18.761,-0.469 -38.734,-0.961 -61.246,-1.566 -49.289,-1.325 -118.015,-1.899 -185.574,-2.242 68.395,0.593 138.082,1.382 187.777,2.718 22.879,0.614 44.512,1.16 65.094,1.703 0.004,0 0.008,0 0.012,0 0,0 0.273,0.012 0.277,0.012 0.004,0 0.012,0 0.02,0 29.531,0.781 56.109,1.617 80.418,2.625 z m 54.816,-1.519 c 2.746,-2.344 6.094,-7.094 11.18,-10.028 -5.047,0.414 -8.852,1.102 -11.074,1.938 -3.204,1.199 -4.219,2.492 -6.208,3.363 -0.332,0.145 -1.21,0.73 -2.187,1.504 -0.828,0.652 -1.77,1.476 -2.672,2.297 3.801,0.289 7.488,0.59 10.961,0.926 z m -16.309,-1.325 c 0.676,-0.668 1.391,-1.363 2.168,-2.089 2.192,-2.036 4.399,-4.051 6.45,-4.95 0.339,-0.148 0.996,-0.613 1.933,-1.203 0.242,-0.152 0.711,-0.347 1,-0.515 -1.062,0.039 -2.359,0.074 -3.168,0.113 -1.613,0.082 -2.738,0.176 -3.023,0.226 -8.375,1.516 -8.777,3.36 -11.988,5.27 -1.293,0.769 -2.602,1.648 -3.915,2.504 3.622,0.203 7.18,0.414 10.543,0.644 z M 467.934,76.277 c -13.813,-0.453 -28.071,-0.871 -43.102,-1.215 -11.535,-0.266 -25.297,-0.457 -38.75,-0.66 13.488,0.242 27.281,0.476 38.848,0.789 16.433,0.441 28.793,0.734 43.004,1.086 z"
         style="fill:#80dcf0;fill-opacity:1;fill-rule:nonzero;stroke:#0a0700;stroke-width:0.81604928;stroke-miterlimit:4;stroke-dasharray:none;stroke-opacity:0.94533757"
         id="path2092"
         inkscape:connector-curvature="0" />
    </g>
  </g>
</svg>
