<?xml version="1.0" encoding="UTF-8" standalone="no"?>
<!-- Created with Inkscape (http://www.inkscape.org/) -->

<svg
   xmlns:dc="http://purl.org/dc/elements/1.1/"
   xmlns:cc="http://creativecommons.org/ns#"
   xmlns:rdf="http://www.w3.org/1999/02/22-rdf-syntax-ns#"
   xmlns:svg="http://www.w3.org/2000/svg"
   xmlns="http://www.w3.org/2000/svg"
   xmlns:sodipodi="http://sodipodi.sourceforge.net/DTD/sodipodi-0.dtd"
   xmlns:inkscape="http://www.inkscape.org/namespaces/inkscape"
   width="297mm"
   height="210mm"
   viewBox="0 0 297 210"
   version="1.1"
   id="svg4739"
   inkscape:version="0.92.3 (2405546, 2018-03-11)"
   sodipodi:docname="logoBdC.svg">
  <defs
     id="defs4733" />
  <sodipodi:namedview
     id="base"
     pagecolor="#ffffff"
     bordercolor="#666666"
     borderopacity="1.0"
     inkscape:pageopacity="0.0"
     inkscape:pageshadow="2"
     inkscape:zoom="0.98994949"
     inkscape:cx="531.17239"
     inkscape:cy="412.12606"
     inkscape:document-units="mm"
     inkscape:current-layer="g4687"
     showgrid="false"
     inkscape:window-width="3840"
     inkscape:window-height="2068"
     inkscape:window-x="0"
     inkscape:window-y="0"
     inkscape:window-maximized="1" />
  <metadata
     id="metadata4736">
    <rdf:RDF>
      <cc:Work
         rdf:about="">
        <dc:format>image/svg+xml</dc:format>
        <dc:type
           rdf:resource="http://purl.org/dc/dcmitype/StillImage" />
        <dc:title />
      </cc:Work>
    </rdf:RDF>
  </metadata>
  <g
     inkscape:label="Livello 1"
     inkscape:groupmode="layer"
     id="layer1"
     transform="translate(0,-87)">
    <g
       transform="matrix(0.26458333,0,0,0.26458333,191.01089,148.59714)"
       id="g5554" />
    <g
       transform="matrix(0.26458333,0,0,0.26458333,191.01089,148.59714)"
       id="g5556" />
    <g
       transform="matrix(0.26458333,0,0,0.26458333,191.01089,148.59714)"
       id="g5558" />
    <g
       transform="matrix(0.26458333,0,0,0.26458333,191.01089,148.59714)"
       id="g5560" />
    <g
       transform="matrix(0.26458333,0,0,0.26458333,191.01089,148.59714)"
       id="g5562" />
    <g
       transform="matrix(0.26458333,0,0,0.26458333,191.01089,148.59714)"
       id="g5564" />
    <g
       transform="matrix(0.26458333,0,0,0.26458333,191.01089,148.59714)"
       id="g5566" />
    <g
       transform="matrix(0.26458333,0,0,0.26458333,191.01089,148.59714)"
       id="g5568" />
    <g
       transform="matrix(0.26458333,0,0,0.26458333,191.01089,148.59714)"
       id="g5570" />
    <g
       transform="matrix(0.26458333,0,0,0.26458333,191.01089,148.59714)"
       id="g5572" />
    <g
       transform="matrix(0.26458333,0,0,0.26458333,191.01089,148.59714)"
       id="g5574" />
    <g
       transform="matrix(0.26458333,0,0,0.26458333,191.01089,148.59714)"
       id="g5576" />
    <g
       transform="matrix(0.26458333,0,0,0.26458333,191.01089,148.59714)"
       id="g5578" />
    <g
       transform="matrix(0.26458333,0,0,0.26458333,191.01089,148.59714)"
       id="g5580" />
    <g
       transform="matrix(0.26458333,0,0,0.26458333,191.01089,148.59714)"
       id="g5582" />
    <g
       transform="matrix(0.24342599,0,0,0.24342599,187.61152,152.06784)"
       id="g4687"
       style="stroke-width:1.0869149">
      <g
         id="g2455">
        <path
           style="stroke-width:1.0869149"
           sodipodi:nodetypes="scccccscccccccscsccssccccscccsccccccccccscscczs"
           inkscape:connector-curvature="0"
           id="path5614"
           d="m -220.72999,119.3529 c -15.1486,0.57248 -19.1644,7.74147 -20.8759,24.65627 -3.5379,45.65759 -0.752,93.94399 -5.2692,140.9386 -0.024,0.22 -0.029,0.43753 -0.029,0.64453 0.098,20.478 -0.881,29.6135 -1.791,33.6875 -2.101,-2.309 -4.9068,-6.01756 -7.1328,-8.97656 -10.108,-13.378 -23.956,-31.70703 -42.625,-31.70703 -3.254,0 -6.5264,0.57975 -9.7324,1.71875 -7.11,1.735 -12.1213,6.0099 -14.5293,12.3789 -7.1389,18.85091 11.6018,54.48577 25.4316,76.91797 h 13.8086 c -16.0604,-25.01241 -33.4643,-59.14715 -28.3105,-72.76758 0.718,-1.876 2.0944,-4.1525 6.5664,-5.1875 0.238,-0.061 0.4722,-0.12703 0.6972,-0.20703 2.016,-0.742 4.0521,-1.12109 6.0371,-1.12109 12.836,0 24.6407,15.62583 33.2657,27.04883 7.07,9.353 11.7401,15.5332 17.8691,15.5332 2.283,0 4.3718,-0.88917 6.0488,-2.57617 3.958,-3.976 6.217,-12.54333 6.086,-44.48633 0.374,-3.799 3.0346,-130.05687 3.3203,-138.64649 0.2857,-8.58962 3.7938,-16.64136 11.7264,-17.0813 8.0622,-0.44712 11.3263,0.56188 13.3259,7.2003 3.7348,20.23444 3.2403,42.43855 4.8051,61.29311 5.901,71.551 6.4737,71.72113 11.8867,73.32813 1.79,0.536 3.7454,0.17625 5.2364,-0.96875 0.098,-0.079 9.9246,-7.41016 20.3066,-7.41016 8.957,0 15.7646,5.46703 20.8066,16.70703 0.67,1.511 1.9622,2.65597 3.5332,3.16797 1.565,0.518 3.2997,0.33553 4.7247,-0.48047 0.073,-0.043 7.4891,-4.20117 15.8671,-4.20117 10.302,0 17.4535,6.20533 21.8555,18.98633 0.749,2.18 2.7332,3.71278 5.0352,3.92578 0.195,0.019 18.974,1.84478 29.209,14.17578 5.2488,6.309 7.4356,14.49203 6.5156,24.33203 -0.037,0.421 -0.037,0.84172 0.012,1.26172 0.039,0.28924 1.3446,11.53471 1.418,28.17383 h 11.8164 c -0.091,-15.18264 -1.1766,-26.1327 -1.4942,-28.97461 1.071,-12.823 -2.0469,-23.70414 -9.2929,-32.36914 -10.334,-12.367 -26.1959,-16.47686 -33.3809,-17.75586 -7.916,-19.296 -21.4461,-23.47851 -31.6641,-23.47851 -6.332,0 -12.0926,1.64873 -16.0996,3.17773 -8.61,-15.022 -20.216,-18.37109 -28.832,-18.37109 -7.831,0 -15.0587,2.75951 -20.1367,5.35351 -1.717,-12.296 -3.9213,-38.95897 -5.6133,-59.54297 -1.3515,-15.54777 -2.9823,-36.0655 -4.0469,-45.50586 -1.0646,-9.44036 1.5591,-33.84702 -26.3555,-32.79213 z" />
        <path
           sodipodi:nodetypes="ccccccccccc"
           inkscape:connector-curvature="0"
           id="path5633"
           d="m -221.87699,55.66652 c -40.5137,4.5e-4 -73.3561,32.84373 -73.3555,73.35742 0.04,29.08086 17.2541,55.39271 43.8848,67.07617 0.057,-3.68851 0.126,-7.37276 0.205,-11.05469 -20.8724,-10.89326 -33.9675,-32.47752 -33.9882,-56.02148 -6e-4,-34.93473 28.3192,-63.25537 63.2539,-63.25586 34.9355,-5.6e-4 63.2564,28.32039 63.2558,63.25586 -0.027,19.9712 -9.4837,38.75672 -25.5097,50.67383 0.3317,3.92755 0.6561,7.73509 0.9785,11.52148 21.5034,-13.36611 34.5941,-36.87636 34.6308,-62.19531 6e-4,-40.51365 -32.8418,-73.35692 -73.3554,-73.35742 z"
           style="opacity:1;fill:#000000;fill-opacity:1;stroke:none;stroke-width:0.82160497;stroke-miterlimit:4;stroke-dasharray:none;stroke-dashoffset:0;stroke-opacity:1" />
        <g
           id="flowRoot5685"
           style="font-style:normal;font-variant:normal;font-weight:normal;font-stretch:normal;font-size:21.33333397px;line-height:100%;font-family:Cratense;-inkscape-font-specification:Cratense;text-align:center;writing-mode:lr-tb;text-anchor:middle;opacity:1;fill:#000000;fill-opacity:1;stroke:none;stroke-width:0.09062222;stroke-miterlimit:4;stroke-dasharray:none;stroke-dashoffset:0;stroke-opacity:1"
           transform="matrix(7.948463,0,0,10.341262,15657.694,7121.9937)"
           aria-label="Botta di">
          <path
             id="path4518"
             style="font-style:normal;font-variant:normal;font-weight:normal;font-stretch:normal;font-family:Cratense;-inkscape-font-specification:Cratense;fill:#000000;fill-opacity:1;stroke:none;stroke-width:0.09062222"
             d="m -2053.7364,-681.67969 q -0.9387,0.064 -1.5787,0.0427 -0.64,0 -1.344,-0.0427 -0.6827,-0.0213 -1.6,-0.0213 -0.896,-0.0213 -2.3467,0.0213 -0.043,-1.6 -0.043,-3.008 0,-1.408 0.021,-2.88 0.021,-1.49333 0.021,-3.2 0.021,-1.70666 0,-3.904 1.1734,0 1.9627,-0.0213 0.8107,-0.0427 1.5147,-0.064 0.7253,-0.0213 1.4933,0 0.768,0 1.8987,0.0853 0,0.93867 0.021,1.62134 0.021,0.66133 0.021,1.19466 0.021,0.53334 0,0.98134 0,0.448 -0.043,0.91733 -0.192,0.21333 -0.4267,0.576 -0.2133,0.36267 -0.3627,0.59733 0.1067,0.192 0.32,0.53334 0.2347,0.34133 0.4694,0.64 0.1493,1.06666 0.043,2.56 -0.085,1.472 -0.043,3.37066 z m -4.3094,-2.26133 q 0.3414,0 0.576,0 0.2347,0 0.4267,0.0213 0.2133,0 0.4267,0 0.2133,0 0.5333,-0.0213 -0.043,-0.78933 -0.043,-1.28 0.021,-0.49067 0.043,-0.91733 0.021,-0.448 0.021,-0.96 0,-0.512 -0.021,-1.36534 -0.384,0 -0.8533,0.0213 -0.4694,0 -1.1094,-0.0213 -0.043,0.49067 -0.064,0.96 0,0.448 0,0.96 0,0.512 0.021,1.152 0.021,0.61867 0.043,1.45067 z m 1.9627,-8.46933 q -0.448,-0.0427 -0.9387,-0.0213 -0.4693,0.0213 -1.024,0.0213 -0.021,0.192 -0.043,0.34133 0,0.14933 0,0.34133 0,0.17067 0,0.40534 0.021,0.23466 0.043,0.59733 0.384,0.0213 0.6187,0.0427 0.256,0 0.4693,0 0.2134,0 0.4054,0 0.2133,0 0.4693,-0.0427 0.043,-0.42667 0.021,-0.74667 0,-0.34133 -0.021,-0.93866 z" />
          <path
             id="path4520"
             style="font-style:normal;font-variant:normal;font-weight:normal;font-stretch:normal;font-family:Cratense;-inkscape-font-specification:Cratense;fill:#000000;fill-opacity:1;stroke:none;stroke-width:0.09062222"
             d="m -2045.7628,-690.36235 q 0.043,1.17333 0.064,2.19733 0.021,1.00267 0.021,2.00533 0,1.00267 -0.021,2.09067 -0.021,1.06667 -0.064,2.368 -0.704,0.0213 -1.152,0.0213 -0.4266,0.0213 -0.768,0 -0.3413,0 -0.6826,-0.0213 -0.3414,-0.0213 -0.8534,-0.0213 -0.512,-0.0213 -1.28,0 -0.768,0 -1.9413,0.0213 0.021,-1.17333 0.021,-2.02667 0,-0.85333 -0.021,-1.536 0,-0.68266 -0.021,-1.23733 -0.021,-0.55467 -0.021,-1.13067 0,-0.576 0,-1.216 0,-0.66133 0.043,-1.51466 1.024,0.0213 1.7493,0.0213 0.7467,0 1.3014,0 0.5546,-0.0213 0.9813,-0.0427 0.4267,-0.0213 0.8107,-0.0213 0.4053,0 0.832,0 0.4266,0 1.0026,0.0427 z m -4.3306,2.06933 q -0.021,0.59733 -0.021,0.93867 0.021,0.34133 0.043,0.768 0.021,0.40533 0.021,1.04533 0,0.61867 -0.043,1.77067 0.4053,0.0427 0.6186,0.064 0.2347,0 0.4054,0 0.192,-0.0213 0.384,-0.0427 0.2133,-0.0213 0.576,-0.0213 0,-0.72534 0,-1.216 0.021,-0.512 0.021,-0.98134 0.021,-0.46933 0,-1.00266 0,-0.53334 -0.021,-1.32267 -0.384,-0.0427 -0.5974,-0.0427 -0.2133,-0.0213 -0.4053,0 -0.1707,0 -0.384,0.0213 -0.2133,0.0213 -0.5973,0.0213 z" />
          <path
             id="path4522"
             style="font-style:normal;font-variant:normal;font-weight:normal;font-stretch:normal;font-family:Cratense;-inkscape-font-specification:Cratense;fill:#000000;fill-opacity:1;stroke:none;stroke-width:0.09062222"
             d="m -2041.6994,-695.33302 q 0,0.93867 0,1.55733 0,0.61867 -0.021,1.13067 0,0.512 0,1.06667 0,0.53333 0.021,1.30133 0.2133,0.0427 0.3626,0.0213 0.1494,-0.0213 0.384,-0.0213 0.064,0.34133 0.064,0.59733 0.021,0.256 0,0.49067 0,0.23467 -0.021,0.46933 -0.021,0.23467 -0.043,0.49067 -0.192,0.0427 -0.384,0.0213 -0.1706,-0.0213 -0.3626,-0.0213 -0.043,0.512 -0.043,0.93867 0,0.42666 0,0.91733 0,0.46933 0.021,1.10933 0.021,0.61867 0.021,1.536 0.1706,0.0427 0.384,0 0.2133,-0.064 0.3626,0 0.064,0.29867 0.064,0.512 0.021,0.192 0,0.40534 -0.021,0.192 -0.043,0.46933 -0.021,0.256 -0.021,0.66133 -0.512,0.064 -0.8106,0.064 -0.2987,0 -0.5974,-0.0213 -0.2773,0 -0.64,-0.0213 -0.3626,-0.0213 -1.024,-0.0213 0,-1.00266 0,-1.68533 0.021,-0.68267 0.043,-1.152 0.021,-0.49067 0.021,-0.85333 0.021,-0.36267 0.021,-0.74667 0,-0.40533 -0.021,-0.896 -0.021,-0.49067 -0.064,-1.216 -0.128,0.0427 -0.3413,0.0213 -0.2133,-0.0213 -0.4053,-0.0213 -0.1067,-0.55467 -0.085,-0.96 0.043,-0.42667 0.085,-1.088 0.2346,0 0.3626,0.0213 0.128,0.0213 0.384,-0.0213 0.043,-0.768 0.043,-1.36533 0,-0.59734 -0.021,-1.152 0,-0.576 -0.021,-1.17334 -0.021,-0.59733 0,-1.36533 0.5547,-0.10667 1.1307,-0.0427 0.576,0.0427 1.1947,0.0427 z" />
          <path
             id="path4524"
             style="font-style:normal;font-variant:normal;font-weight:normal;font-stretch:normal;font-family:Cratense;-inkscape-font-specification:Cratense;fill:#000000;fill-opacity:1;stroke:none;stroke-width:0.09062222"
             d="m -2036.5744,-695.33302 q 0,0.93867 0,1.55733 0,0.61867 -0.021,1.13067 0,0.512 0,1.06667 0,0.53333 0.021,1.30133 0.2133,0.0427 0.3626,0.0213 0.1494,-0.0213 0.384,-0.0213 0.064,0.34133 0.064,0.59733 0.021,0.256 0,0.49067 0,0.23467 -0.021,0.46933 -0.021,0.23467 -0.043,0.49067 -0.192,0.0427 -0.384,0.0213 -0.1706,-0.0213 -0.3626,-0.0213 -0.043,0.512 -0.043,0.93867 0,0.42666 0,0.91733 0,0.46933 0.021,1.10933 0.021,0.61867 0.021,1.536 0.1706,0.0427 0.384,0 0.2133,-0.064 0.3626,0 0.064,0.29867 0.064,0.512 0.021,0.192 0,0.40534 -0.021,0.192 -0.043,0.46933 -0.021,0.256 -0.021,0.66133 -0.512,0.064 -0.8106,0.064 -0.2987,0 -0.5974,-0.0213 -0.2773,0 -0.64,-0.0213 -0.3626,-0.0213 -1.024,-0.0213 0,-1.00266 0,-1.68533 0.021,-0.68267 0.043,-1.152 0.021,-0.49067 0.021,-0.85333 0.021,-0.36267 0.021,-0.74667 0,-0.40533 -0.021,-0.896 -0.021,-0.49067 -0.064,-1.216 -0.128,0.0427 -0.3413,0.0213 -0.2133,-0.0213 -0.4053,-0.0213 -0.1067,-0.55467 -0.085,-0.96 0.043,-0.42667 0.085,-1.088 0.2346,0 0.3626,0.0213 0.128,0.0213 0.384,-0.0213 0.043,-0.768 0.043,-1.36533 0,-0.59734 -0.021,-1.152 0,-0.576 -0.021,-1.17334 -0.021,-0.59733 0,-1.36533 0.5547,-0.10667 1.1307,-0.0427 0.576,0.0427 1.1947,0.0427 z" />
          <path
             id="path4526"
             style="font-style:normal;font-variant:normal;font-weight:normal;font-stretch:normal;font-family:Cratense;-inkscape-font-specification:Cratense;fill:#000000;fill-opacity:1;stroke:none;stroke-width:0.09062222"
             d="m -2034.6921,-690.34102 q 1.152,-0.10667 2.048,-0.10667 0.9173,-0.0213 1.7067,0 0.7893,0.0213 1.472,0.064 0.704,0.0427 1.4293,0.0427 0.021,0.87467 0,1.984 -0.021,1.088 -0.043,2.304 -0.021,1.216 -0.021,2.51733 0,1.30134 0.064,2.58134 -0.32,0.0427 -0.5973,0.0427 -0.256,0 -0.5334,-0.0213 -0.256,0 -0.5546,-0.0213 -0.2774,0 -0.6614,0 0.021,-0.256 0,-0.40534 0,-0.128 0,-0.34133 -0.3626,0.0427 -0.896,0.0427 -0.512,0 -1.088,-0.0213 -0.576,0 -1.1946,0 -0.5974,-0.0213 -1.1307,-0.0213 0.043,-0.78933 0.043,-1.62133 0,-0.85334 -0.021,-1.6 -0.021,-0.768 -0.043,-1.36534 0,-0.61866 0.021,-0.96 0.768,-0.0427 1.344,-0.0427 0.576,-0.0213 1.0453,-0.0213 0.4907,0 0.9387,0.0213 0.448,0.0213 0.9813,0.0427 -0.043,-0.23466 0,-0.46933 0.043,-0.256 0,-0.55467 -0.512,-0.064 -0.96,-0.064 -0.4266,-0.0213 -0.9173,0 -0.4907,0 -1.088,0.0427 -0.576,0.0213 -1.344,0.0213 -0.043,-0.34133 -0.043,-0.55466 0,-0.21334 0.021,-0.40534 0.021,-0.21333 0.021,-0.448 0.021,-0.256 0,-0.66133 z m 4.3093,6.57067 q 0.021,-0.49067 0.043,-0.78934 0.043,-0.29866 -0.043,-0.61866 -0.2133,-0.0427 -0.384,-0.0427 -0.1706,-0.0213 -0.384,-0.0213 -0.192,0 -0.4906,0.0213 -0.2774,0.0213 -0.704,0.0427 -0.043,0.36266 -0.043,0.68266 0,0.29867 0.043,0.72534 0.3626,-0.0213 0.6186,-0.0213 0.2774,0 0.4907,0.0213 0.2133,0 0.4053,0.0213 0.192,0 0.448,-0.0213 z" />
          <path
             id="path4528"
             style="font-style:normal;font-variant:normal;font-weight:normal;font-stretch:normal;font-family:Cratense;-inkscape-font-specification:Cratense;fill:#000000;fill-opacity:1;stroke:none;stroke-width:0.09062222"
             d="m -2019.3798,-690.34102 q 0.021,-0.576 0.043,-1.32267 0.021,-0.64 0,-1.55733 0,-0.91733 -0.043,-2.09067 0.512,0 0.8534,0.0213 0.3626,0 0.6826,0.0213 0.3414,0 0.704,0 0.3627,0 0.8747,-0.0427 0.021,0.42667 0.021,0.66134 0.021,0.23466 0.021,0.42666 0,0.17067 -0.021,0.384 -0.021,0.21334 -0.021,0.59734 -0.2347,0 -0.384,0.0213 -0.1493,0.0213 -0.384,-0.0213 -0.021,0.85333 -0.021,1.92 0,1.04533 0,2.176 0,1.10933 0,2.24 0.021,1.10933 0.021,2.112 0.021,0.98133 0.021,1.81333 0,0.81067 -0.021,1.30133 -0.8747,-0.0427 -1.5147,-0.0427 -0.6186,0 -1.3226,0.0213 -0.6827,0 -1.5787,0.0213 -0.8747,0 -2.2613,0 0,-1.55733 0,-2.688 0,-1.13066 -0.021,-2.06933 0,-0.96 0,-1.856 0,-0.91733 0.021,-2.048 1.0453,0.0427 1.8346,0.064 0.8107,0 1.3654,-0.0213 0.64,-0.0213 1.1306,-0.0427 z m 0,2.06933 q -0.3626,0.0213 -0.5973,0.0213 -0.2347,-0.0213 -0.448,-0.0213 -0.192,0 -0.4053,0 -0.192,-0.0213 -0.512,0 -0.043,0.768 -0.064,1.30134 0,0.53333 0,1.00266 0,0.46934 0.021,0.98134 0.021,0.512 0.043,1.23733 0.5546,0.0853 0.96,0.0853 0.4053,-0.0213 1.0026,-0.0853 0,-0.59733 0,-1.13067 0.021,-0.53333 0.021,-1.06666 0.021,-0.53334 0,-1.088 0,-0.576 -0.021,-1.23734 z" />
          <path
             id="path4530"
             style="font-style:normal;font-variant:normal;font-weight:normal;font-stretch:normal;font-family:Cratense;-inkscape-font-specification:Cratense;fill:#000000;fill-opacity:1;stroke:none;stroke-width:0.09062222"
             d="m -2016.0458,-681.70102 q -0.064,-2.53867 0,-4.672 0.064,-2.15467 0,-3.968 0.5547,-0.10667 1.0667,-0.0427 0.5333,0.0427 1.28,0.0427 0.021,1.152 0,2.06933 0,0.91734 -0.043,1.87734 -0.021,0.93866 -0.021,2.048 0,1.10933 0.064,2.64533 -0.4267,0.0427 -0.6613,0.0427 -0.2134,0 -0.4267,-0.0213 -0.192,0 -0.4693,0 -0.256,-0.0213 -0.7894,-0.0213 z m 0,-9.30133 q -0.021,-0.27734 0,-0.576 0.043,-0.32 0,-0.64 0.3627,0 0.64,0 0.2774,-0.0213 0.5334,-0.0213 0.256,-0.0213 0.5333,0 0.2773,0 0.64,0.0213 0.043,0.29866 0.021,0.55466 0,0.256 -0.021,0.66134 -0.2773,0 -0.512,0.0213 -0.2133,0.0213 -0.4693,0.0213 -0.256,0 -0.576,0 -0.32,0 -0.7894,-0.0427 z" />
        </g>
        <g
           id="flowRoot5685-6"
           style="font-style:normal;font-variant:normal;font-weight:normal;font-stretch:normal;font-size:21.33333397px;line-height:100%;font-family:Cratense;-inkscape-font-specification:Cratense;text-align:center;writing-mode:lr-tb;text-anchor:middle;opacity:1;fill:#000000;fill-opacity:1;stroke:none;stroke-width:0.09062222;stroke-miterlimit:4;stroke-dasharray:none;stroke-dashoffset:0;stroke-opacity:1"
           transform="matrix(7.948463,0,0,10.341262,16378.957,7348.0372)"
           aria-label="Coulomb">
          <path
             id="path4533"
             style="font-style:normal;font-variant:normal;font-weight:normal;font-stretch:normal;font-family:Cratense;-inkscape-font-specification:Cratense;fill:#000000;fill-opacity:1;stroke:none;stroke-width:0.09062222"
             d="m -2063.8984,-694.69302 q 1.856,0.064 3.456,0.0213 1.6213,-0.064 2.6666,-0.0213 0.021,0.34133 0,0.61867 0,0.256 0,0.512 0,0.256 -0.021,0.53333 0,0.256 0.021,0.59733 -0.8106,-0.064 -1.792,-0.0213 -0.9813,0.0427 -1.792,0.0213 0.021,1.23734 0,2.38934 -0.021,1.152 -0.043,2.24 -0.021,1.06666 -0.021,2.02666 0,0.96 0.064,1.81334 0.4054,0.0427 0.8747,0.0427 0.4907,0 0.96,0 0.4907,-0.0213 0.9387,-0.0213 0.448,-0.0213 0.8106,-0.0213 0,0.42666 0,0.74666 0,0.29867 0,0.55467 0.021,0.23467 0.021,0.46933 0,0.23467 -0.021,0.512 -1.28,-0.0213 -2.7946,0.0427 -1.5147,0.0853 -3.328,-0.0427 -0.021,-1.152 0,-2.624 0.021,-1.472 0.043,-3.15733 0.021,-1.70667 0.021,-3.54133 0,-1.83467 -0.064,-3.69067 z" />
          <path
             id="path4535"
             style="font-style:normal;font-variant:normal;font-weight:normal;font-stretch:normal;font-family:Cratense;-inkscape-font-specification:Cratense;fill:#000000;fill-opacity:1;stroke:none;stroke-width:0.09062222"
             d="m -2049.8878,-690.36235 q 0.043,1.17333 0.064,2.19733 0.021,1.00267 0.021,2.00533 0,1.00267 -0.021,2.09067 -0.021,1.06667 -0.064,2.368 -0.704,0.0213 -1.152,0.0213 -0.4266,0.0213 -0.768,0 -0.3413,0 -0.6826,-0.0213 -0.3414,-0.0213 -0.8534,-0.0213 -0.512,-0.0213 -1.28,0 -0.768,0 -1.9413,0.0213 0.021,-1.17333 0.021,-2.02667 0,-0.85333 -0.021,-1.536 0,-0.68266 -0.021,-1.23733 -0.021,-0.55467 -0.021,-1.13067 0,-0.576 0,-1.216 0,-0.66133 0.043,-1.51466 1.024,0.0213 1.7493,0.0213 0.7467,0 1.3014,0 0.5546,-0.0213 0.9813,-0.0427 0.4267,-0.0213 0.8107,-0.0213 0.4053,0 0.832,0 0.4266,0 1.0026,0.0427 z m -4.3306,2.06933 q -0.021,0.59733 -0.021,0.93867 0.021,0.34133 0.043,0.768 0.021,0.40533 0.021,1.04533 0,0.61867 -0.043,1.77067 0.4053,0.0427 0.6186,0.064 0.2347,0 0.4054,0 0.192,-0.0213 0.384,-0.0427 0.2133,-0.0213 0.576,-0.0213 0,-0.72534 0,-1.216 0.021,-0.512 0.021,-0.98134 0.021,-0.46933 0,-1.00266 0,-0.53334 -0.021,-1.32267 -0.384,-0.0427 -0.5974,-0.0427 -0.2133,-0.0213 -0.4053,0 -0.1707,0 -0.384,0.0213 -0.2133,0.0213 -0.5973,0.0213 z" />
          <path
             id="path4537"
             style="font-style:normal;font-variant:normal;font-weight:normal;font-stretch:normal;font-family:Cratense;-inkscape-font-specification:Cratense;fill:#000000;fill-opacity:1;stroke:none;stroke-width:0.09062222"
             d="m -2044.4641,-690.34102 q 0.5547,0.0213 0.8107,0.0213 0.256,-0.0213 0.4266,-0.0213 0.192,-0.0213 0.4054,-0.0213 0.2346,-0.0213 0.7253,0.0213 -0.043,0.59733 -0.064,1.55733 -0.021,0.93867 -0.043,2.15467 0,1.216 0.021,2.66667 0.021,1.45066 0.085,3.05066 -0.2347,0.0427 -0.4053,0.0427 -0.1494,0 -0.384,-0.0213 -0.2134,0 -0.576,-0.0213 -0.3627,0 -1.0027,0 0,-0.23466 0.021,-0.40533 0.043,-0.14933 -0.021,-0.36267 -0.7467,-0.0213 -1.3227,0 -0.576,0 -1.0666,0.0213 -0.4907,0.0213 -0.96,0.0213 -0.4694,0 -0.9814,-0.0427 -0.043,-1.19466 -0.043,-2.176 0.021,-0.98133 0.043,-1.96266 0.021,-0.98134 0.021,-2.048 0.021,-1.088 -0.021,-2.47467 0.5334,0.0427 0.7894,0.0427 0.2773,0 0.4693,-0.0213 0.2133,-0.0213 0.4267,-0.0213 0.2346,-0.0213 0.6826,0 0.043,1.00267 0.043,1.83467 0,0.832 -0.021,1.62133 -0.021,0.768 -0.043,1.536 -0.021,0.74667 0.021,1.6 0.384,0 0.64,0.0213 0.2774,0.0213 0.4694,0.0427 0.2133,0.0213 0.4053,0.0213 0.192,-0.0213 0.448,-0.0853 -0.043,-1.024 -0.043,-1.70667 0.021,-0.704 0.043,-1.36533 0.021,-0.66133 0.021,-1.45067 0,-0.81066 -0.021,-2.06933 z" />
          <path
             id="path4539"
             style="font-style:normal;font-variant:normal;font-weight:normal;font-stretch:normal;font-family:Cratense;-inkscape-font-specification:Cratense;fill:#000000;fill-opacity:1;stroke:none;stroke-width:0.09062222"
             d="m -2038.1974,-681.67969 q -0.4694,0.0427 -0.768,0.0427 -0.2987,0.0213 -0.5974,0.0213 -0.2986,0 -0.6826,-0.0213 -0.384,-0.0213 -1.024,-0.0427 -0.021,-0.59733 0.021,-1.83466 0.043,-1.25867 0.064,-2.83734 0.043,-1.6 0.043,-3.392 0,-1.81333 -0.128,-3.54133 -0.2134,0.0427 -0.4054,0.0213 -0.1706,-0.0213 -0.3413,-0.0213 -0.021,-0.40533 -0.021,-0.68267 0,-0.27733 0,-0.49066 0.021,-0.21334 0.021,-0.40534 0,-0.21333 0,-0.46933 0.4267,-0.0213 0.7467,-0.0213 0.3413,0 0.6613,0.0213 0.3413,0 0.7253,0.0213 0.4054,0 0.9387,-0.0213 0.043,0.61867 0.043,1.6 0,0.96 -0.021,2.112 0,1.13067 -0.043,2.34667 -0.021,1.216 -0.043,2.304 0,1.088 0,1.94133 0.021,0.85333 0.064,1.28 0.2347,0.0213 0.384,0 0.1707,-0.0427 0.3627,0 0.021,0.72533 -0.021,1.152 -0.021,0.42667 0.021,0.91733 z" />
          <path
             id="path4541"
             style="font-style:normal;font-variant:normal;font-weight:normal;font-stretch:normal;font-family:Cratense;-inkscape-font-specification:Cratense;fill:#000000;fill-opacity:1;stroke:none;stroke-width:0.09062222"
             d="m -2030.5128,-690.36235 q 0.043,1.17333 0.064,2.19733 0.021,1.00267 0.021,2.00533 0,1.00267 -0.021,2.09067 -0.021,1.06667 -0.064,2.368 -0.704,0.0213 -1.152,0.0213 -0.4266,0.0213 -0.768,0 -0.3413,0 -0.6826,-0.0213 -0.3414,-0.0213 -0.8534,-0.0213 -0.512,-0.0213 -1.28,0 -0.768,0 -1.9413,0.0213 0.021,-1.17333 0.021,-2.02667 0,-0.85333 -0.021,-1.536 0,-0.68266 -0.021,-1.23733 -0.021,-0.55467 -0.021,-1.13067 0,-0.576 0,-1.216 0,-0.66133 0.043,-1.51466 1.024,0.0213 1.7493,0.0213 0.7467,0 1.3014,0 0.5546,-0.0213 0.9813,-0.0427 0.4267,-0.0213 0.8107,-0.0213 0.4053,0 0.832,0 0.4266,0 1.0026,0.0427 z m -4.3306,2.06933 q -0.021,0.59733 -0.021,0.93867 0.021,0.34133 0.043,0.768 0.021,0.40533 0.021,1.04533 0,0.61867 -0.043,1.77067 0.4053,0.0427 0.6186,0.064 0.2347,0 0.4054,0 0.192,-0.0213 0.384,-0.0427 0.2133,-0.0213 0.576,-0.0213 0,-0.72534 0,-1.216 0.021,-0.512 0.021,-0.98134 0.021,-0.46933 0,-1.00266 0,-0.53334 -0.021,-1.32267 -0.384,-0.0427 -0.5974,-0.0427 -0.2133,-0.0213 -0.4053,0 -0.1707,0 -0.384,0.0213 -0.2133,0.0213 -0.5973,0.0213 z" />
          <path
             id="path4543"
             style="font-style:normal;font-variant:normal;font-weight:normal;font-stretch:normal;font-family:Cratense;-inkscape-font-specification:Cratense;fill:#000000;fill-opacity:1;stroke:none;stroke-width:0.09062222"
             d="m -2027.2224,-688.29302 q -0.021,1.10933 -0.043,2.26133 -0.021,0.98134 -0.021,2.13334 0.021,1.152 0.064,2.176 -0.384,-0.0427 -0.5974,-0.0427 -0.2133,0 -0.4266,0.0213 -0.192,0 -0.4694,0.0213 -0.256,0 -0.768,0 -0.043,-0.81067 -0.021,-1.984 0.021,-1.19467 0.043,-2.47467 0.021,-1.30133 0.021,-2.60267 0.021,-1.30133 -0.043,-2.32533 0.704,-0.0213 1.28,0 0.576,0 0.9814,0 0.021,0.23467 0,0.40533 -0.021,0.17067 0,0.34134 0.5333,0.0213 1.1733,0.0427 0.6613,0 1.3653,0.0213 0.704,0 1.4294,0 0.7253,-0.0213 1.408,-0.0213 1.5786,-0.0213 3.2426,-0.0427 v 1.6 0.46933 0.0853 4.608 q 0,0.91734 0,1.856 0,0.91734 0,1.728 0,0.832 0,1.49334 0,0.66133 0,1.024 -0.4266,0 -0.64,0 -0.192,0.0213 -0.384,0.0427 -0.1706,0.0213 -0.4266,0 -0.256,0 -0.7894,-0.0427 0.021,-0.49067 0.021,-1.216 0,-0.72534 0,-1.57867 0,-0.85333 0,-1.77067 0,-0.91733 0,-1.792 -0.021,-2.06933 -0.021,-4.352 v -0.0853 q -0.2986,0.0213 -0.64,0.0213 -0.2986,0 -0.6613,0.0213 -0.3413,0 -0.6827,-0.0427 -0.043,0.74667 -0.043,1.70667 0,0.96 0,2.06933 0.021,1.10933 0.021,2.32533 0.021,1.19467 0.021,2.432 -0.768,0.0427 -1.4293,0.0427 -0.64,0.0213 -1.0027,-0.0427 0,-0.36266 0,-1.19466 0.021,-0.832 0.021,-1.96267 0.021,-1.152 0,-2.53867 0,-1.38666 -0.021,-2.83733 -0.32,-0.0213 -0.6613,-0.0213 -0.3413,0 -0.64,0 -0.3413,0 -0.6613,0.0213 z" />
          <path
             id="path4545"
             style="font-style:normal;font-variant:normal;font-weight:normal;font-stretch:normal;font-family:Cratense;-inkscape-font-specification:Cratense;fill:#000000;fill-opacity:1;stroke:none;stroke-width:0.09062222"
             d="m -2014.8171,-695.35435 q -0.043,1.19466 -0.064,2.13333 0,0.91733 0.021,1.55733 0.021,0.74667 0.043,1.32267 0.4907,0.0213 1.1733,0.0427 0.576,0.0213 1.3867,0.0213 0.8107,-0.0213 1.8987,-0.064 0.021,1.13067 0.021,2.048 0.021,0.896 0,1.83467 0,0.93866 -0.021,2.06933 0,1.13067 0,2.70933 -1.4294,0 -2.3467,0 -0.896,-0.0213 -1.6,-0.0213 -0.704,-0.0213 -1.3653,-0.0213 -0.64,0 -1.5574,0.0427 -0.021,-0.768 -0.021,-2.176 0.021,-1.42933 0.021,-3.072 0.021,-1.664 0.021,-3.34933 0,-1.68533 -0.021,-2.98667 -0.2346,0.0427 -0.4053,0.0213 -0.1493,-0.0427 -0.384,-0.0213 0,-0.384 -0.021,-0.59733 -0.021,-0.21333 -0.021,-0.40533 0,-0.192 0,-0.42667 0,-0.23467 0.043,-0.66133 0.5333,0.0427 0.896,0.0427 0.384,-0.0213 0.704,-0.0213 0.3413,-0.0213 0.704,-0.0213 0.3627,-0.0213 0.896,0 z m 2.0267,7.12533 q -0.32,-0.0213 -0.5334,-0.0213 -0.2133,0 -0.4266,0.0213 -0.2134,0 -0.448,0 -0.2347,0 -0.6187,0 -0.043,0.66133 -0.043,1.23733 0.021,0.55467 0.021,1.10934 0.021,0.53333 0.021,1.088 0.021,0.53333 0,1.13066 0.6187,0.0853 1.0453,0.10667 0.4267,0 0.9814,-0.10667 0.021,-0.74666 0.043,-1.25866 0.021,-0.512 0.021,-0.98134 0,-0.49066 -0.021,-1.024 0,-0.53333 -0.043,-1.30133 z" />
        </g>
        <path
           style="opacity:1;fill:#000000;fill-opacity:1;stroke:none;stroke-width:0.82160497;stroke-miterlimit:4;stroke-dasharray:none;stroke-dashoffset:0;stroke-opacity:1"
           d="M -112.87889,-23.317322 20.73807,-93.71223 -66.75037,-31.706947 -4.94547,5.203979 -138.56254,75.598873 -51.0741,13.593599 Z"
           id="path5756"
           inkscape:connector-curvature="0" />
        <path
           style="opacity:1;fill:#000000;fill-opacity:1;stroke:none;stroke-width:0.82160497;stroke-miterlimit:4;stroke-dasharray:none;stroke-dashoffset:0;stroke-opacity:1"
           d="m -309.71324,167.00599 -133.61707,70.3949 61.8048,36.91093 -87.48844,62.00528 133.61706,-70.39491 -61.8049,-36.91091 z"
           id="path5758"
           inkscape:connector-curvature="0" />
        <path
           inkscape:connector-curvature="0"
           id="path5760"
           d="m -202.929,-55.718647 80.51823,-127.772263 -44.76457,97.442373 71.98008,1.063352 -80.51833,127.7723 44.76457,-97.442364 z"
           style="opacity:1;fill:#000000;fill-opacity:1;stroke:none;stroke-width:0.82160497;stroke-miterlimit:4;stroke-dasharray:none;stroke-dashoffset:0;stroke-opacity:1" />
        <path
           style="opacity:1;fill:#000000;fill-opacity:1;stroke:none;stroke-width:0.82160497;stroke-miterlimit:4;stroke-dasharray:none;stroke-dashoffset:0;stroke-opacity:1"
           d="m -297.11534,-38.753937 5.84471,-150.913143 9.95392,106.769856 62.86826,-35.069146 -5.84478,150.91322 -9.95391,-106.769852 z"
           id="path5764"
           inkscape:connector-curvature="0" />
        <path
           inkscape:connector-curvature="0"
           id="path5768"
           d="M -51.09384,49.76809 99.81931,55.612799 -6.95055,65.566724 28.1186,128.43498 -122.79463,122.59021 -16.02478,112.63629 Z"
           style="opacity:1;fill:#000000;fill-opacity:1;stroke:none;stroke-width:0.82160497;stroke-miterlimit:4;stroke-dasharray:none;stroke-dashoffset:0;stroke-opacity:1" />
        <path
           inkscape:connector-curvature="0"
           id="path5770"
           d="m -325.48109,120.01469 -150.91324,-5.84476 35.06907,62.8682 -106.76985,9.95393 150.91322,5.84475 -35.06916,-62.86823 z"
           style="opacity:1;fill:#000000;fill-opacity:1;stroke:none;stroke-width:0.82160497;stroke-miterlimit:4;stroke-dasharray:none;stroke-dashoffset:0;stroke-opacity:1" />
        <g
           id="flowRoot5685-3"
           style="font-style:normal;font-variant:normal;font-weight:normal;font-stretch:normal;font-size:21.33333397px;line-height:100%;font-family:Cratense;-inkscape-font-specification:Cratense;text-align:center;writing-mode:lr-tb;text-anchor:middle;opacity:1;fill:#000000;fill-opacity:1;stroke:none;stroke-width:0.12127893;stroke-miterlimit:4;stroke-dasharray:none;stroke-dashoffset:0;stroke-opacity:1"
           transform="matrix(6.7766081,0,0,6.7724047,13613.429,5104.7444)"
           aria-label="Caricati di scienza!">
          <path
             id="path4548"
             style="font-style:normal;font-variant:normal;font-weight:normal;font-stretch:normal;font-family:Cratense;-inkscape-font-specification:Cratense;fill:#000000;fill-opacity:1;stroke:none;stroke-width:0.12127893"
             d="m -2095.6693,-694.69302 q 1.856,0.064 3.456,0.0213 1.6214,-0.064 2.6667,-0.0213 0.021,0.34133 0,0.61867 0,0.256 0,0.512 0,0.256 -0.021,0.53333 0,0.256 0.021,0.59733 -0.8107,-0.064 -1.792,-0.0213 -0.9813,0.0427 -1.792,0.0213 0.021,1.23734 0,2.38934 -0.021,1.152 -0.043,2.24 -0.021,1.06666 -0.021,2.02666 0,0.96 0.064,1.81334 0.4053,0.0427 0.8747,0.0427 0.4906,0 0.96,0 0.4906,-0.0213 0.9386,-0.0213 0.448,-0.0213 0.8107,-0.0213 0,0.42666 0,0.74666 0,0.29867 0,0.55467 0.021,0.23467 0.021,0.46933 0,0.23467 -0.021,0.512 -1.28,-0.0213 -2.7947,0.0427 -1.5146,0.0853 -3.328,-0.0427 -0.021,-1.152 0,-2.624 0.021,-1.472 0.043,-3.15733 0.021,-1.70667 0.021,-3.54133 0,-1.83467 -0.064,-3.69067 z" />
          <path
             id="path4550"
             style="font-style:normal;font-variant:normal;font-weight:normal;font-stretch:normal;font-family:Cratense;-inkscape-font-specification:Cratense;fill:#000000;fill-opacity:1;stroke:none;stroke-width:0.12127893"
             d="m -2088.4213,-690.34102 q 1.152,-0.10667 2.048,-0.10667 0.9174,-0.0213 1.7067,0 0.7893,0.0213 1.472,0.064 0.704,0.0427 1.4293,0.0427 0.021,0.87467 0,1.984 -0.021,1.088 -0.043,2.304 -0.021,1.216 -0.021,2.51733 0,1.30134 0.064,2.58134 -0.32,0.0427 -0.5973,0.0427 -0.256,0 -0.5333,-0.0213 -0.256,0 -0.5547,-0.0213 -0.2773,0 -0.6613,0 0.021,-0.256 0,-0.40534 0,-0.128 0,-0.34133 -0.3627,0.0427 -0.896,0.0427 -0.512,0 -1.088,-0.0213 -0.576,0 -1.1947,0 -0.5973,-0.0213 -1.1307,-0.0213 0.043,-0.78933 0.043,-1.62133 0,-0.85334 -0.021,-1.6 -0.021,-0.768 -0.043,-1.36534 0,-0.61866 0.021,-0.96 0.768,-0.0427 1.344,-0.0427 0.576,-0.0213 1.0454,-0.0213 0.4906,0 0.9386,0.0213 0.448,0.0213 0.9814,0.0427 -0.043,-0.23466 0,-0.46933 0.043,-0.256 0,-0.55467 -0.512,-0.064 -0.96,-0.064 -0.4267,-0.0213 -0.9174,0 -0.4906,0 -1.088,0.0427 -0.576,0.0213 -1.344,0.0213 -0.043,-0.34133 -0.043,-0.55466 0,-0.21334 0.021,-0.40534 0.021,-0.21333 0.021,-0.448 0.021,-0.256 0,-0.66133 z m 4.3094,6.57067 q 0.021,-0.49067 0.043,-0.78934 0.043,-0.29866 -0.043,-0.61866 -0.2134,-0.0427 -0.384,-0.0427 -0.1707,-0.0213 -0.384,-0.0213 -0.192,0 -0.4907,0.0213 -0.2773,0.0213 -0.704,0.0427 -0.043,0.36266 -0.043,0.68266 0,0.29867 0.043,0.72534 0.3627,-0.0213 0.6187,-0.0213 0.2773,0 0.4906,0.0213 0.2134,0 0.4054,0.0213 0.192,0 0.448,-0.0213 z" />
          <path
             id="path4552"
             style="font-style:normal;font-variant:normal;font-weight:normal;font-stretch:normal;font-family:Cratense;-inkscape-font-specification:Cratense;fill:#000000;fill-opacity:1;stroke:none;stroke-width:0.12127893"
             d="m -2078.5543,-691.17302 q 0.064,0.23467 0.021,0.42667 -0.021,0.17066 -0.021,0.34133 0.4054,0.0427 0.768,0.0427 0.3627,-0.0213 0.7467,-0.0427 0.384,-0.0213 0.832,-0.0213 0.4693,-0.0213 1.0667,0.0213 0.043,0.36267 0.021,0.66133 0,0.29867 -0.021,0.61867 0,0.29867 -0.021,0.68267 -0.021,0.36266 0.021,0.87466 -0.3627,0.0427 -0.64,0.0427 -0.256,0 -0.512,0 -0.256,-0.0213 -0.5547,-0.0213 -0.2773,-0.0213 -0.6613,-0.0213 0.043,-0.192 0.021,-0.36266 -0.021,-0.17067 -0.021,-0.40534 -0.256,0 -0.384,0 -0.128,-0.0213 -0.2134,-0.0213 -0.085,0 -0.192,0 -0.085,0 -0.256,0.0213 -0.043,0.55467 -0.043,1.152 0.021,0.576 0.021,1.344 0.021,0.768 0.021,1.77067 0.021,1.00267 0,2.368 -0.4266,0 -0.6826,0 -0.256,-0.0213 -0.4907,-0.0427 -0.2133,-0.0213 -0.4907,0 -0.256,0 -0.704,0.0427 0,-1.13067 0,-1.92 0.021,-0.81067 0.043,-1.45067 0.021,-0.64 0.021,-1.216 0.021,-0.576 0.021,-1.25866 0,-0.68267 -0.021,-1.536 -0.021,-0.87467 -0.064,-2.09067 0.384,0.0213 0.6614,0.0213 0.2773,-0.0213 0.5333,-0.0427 0.256,-0.0213 0.512,-0.0213 0.2773,0 0.6613,0.0427 z" />
          <path
             id="path4554"
             style="font-style:normal;font-variant:normal;font-weight:normal;font-stretch:normal;font-family:Cratense;-inkscape-font-specification:Cratense;fill:#000000;fill-opacity:1;stroke:none;stroke-width:0.12127893"
             d="m -2074.1916,-681.70102 q -0.064,-2.53867 0,-4.672 0.064,-2.15467 0,-3.968 0.5547,-0.10667 1.0667,-0.0427 0.5333,0.0427 1.28,0.0427 0.021,1.152 0,2.06933 0,0.91734 -0.043,1.87734 -0.021,0.93866 -0.021,2.048 0,1.10933 0.064,2.64533 -0.4267,0.0427 -0.6614,0.0427 -0.2133,0 -0.4266,-0.0213 -0.192,0 -0.4694,0 -0.256,-0.0213 -0.7893,-0.0213 z m 0,-9.30133 q -0.021,-0.27734 0,-0.576 0.043,-0.32 0,-0.64 0.3627,0 0.64,0 0.2773,-0.0213 0.5333,-0.0213 0.256,-0.0213 0.5334,0 0.2773,0 0.64,0.0213 0.043,0.29866 0.021,0.55466 0,0.256 -0.021,0.66134 -0.2774,0 -0.512,0.0213 -0.2134,0.0213 -0.4694,0.0213 -0.256,0 -0.576,0 -0.32,0 -0.7893,-0.0427 z" />
          <path
             id="path4556"
             style="font-style:normal;font-variant:normal;font-weight:normal;font-stretch:normal;font-family:Cratense;-inkscape-font-specification:Cratense;fill:#000000;fill-opacity:1;stroke:none;stroke-width:0.12127893"
             d="m -2070.6286,-681.70102 q 0.021,-1.6 0,-2.70933 -0.021,-1.10934 -0.043,-2.02667 -0.021,-0.93867 -0.021,-1.83467 0,-0.896 0.064,-2.09066 1.216,0.0427 2.0053,0.0213 0.8107,-0.0427 1.408,-0.064 0.6187,-0.0427 1.152,-0.0427 0.5334,0 1.1734,0.0853 0,0.448 0.021,0.704 0.021,0.256 0.021,0.46933 0.021,0.192 0,0.384 0,0.192 -0.043,0.512 -0.5547,-0.0213 -0.9174,0 -0.3626,0 -0.7253,0.0213 -0.3413,0.0213 -0.7467,0.0213 -0.384,0 -1.0026,-0.0427 0.021,0.74667 0,1.25867 -0.021,0.512 -0.043,0.98133 0,0.448 -0.021,0.98133 0,0.53334 0.064,1.30134 0.5546,-0.0213 0.9813,0 0.448,0.0213 0.832,0.064 0.384,0.0213 0.7467,0.0213 0.384,0 0.832,-0.0853 0.021,0.34133 0.021,0.55466 0.021,0.21334 0.021,0.42667 0,0.192 -0.021,0.448 0,0.23467 -0.021,0.64 -0.7467,0.0853 -1.28,0.0853 -0.5334,0.0213 -1.1094,0 -0.576,0 -1.3653,-0.0427 -0.768,-0.0213 -1.984,-0.0427 z" />
          <path
             id="path4558"
             style="font-style:normal;font-variant:normal;font-weight:normal;font-stretch:normal;font-family:Cratense;-inkscape-font-specification:Cratense;fill:#000000;fill-opacity:1;stroke:none;stroke-width:0.12127893"
             d="m -2063.7963,-690.34102 q 1.152,-0.10667 2.048,-0.10667 0.9174,-0.0213 1.7067,0 0.7893,0.0213 1.472,0.064 0.704,0.0427 1.4293,0.0427 0.021,0.87467 0,1.984 -0.021,1.088 -0.043,2.304 -0.021,1.216 -0.021,2.51733 0,1.30134 0.064,2.58134 -0.32,0.0427 -0.5973,0.0427 -0.256,0 -0.5333,-0.0213 -0.256,0 -0.5547,-0.0213 -0.2773,0 -0.6613,0 0.021,-0.256 0,-0.40534 0,-0.128 0,-0.34133 -0.3627,0.0427 -0.896,0.0427 -0.512,0 -1.088,-0.0213 -0.576,0 -1.1947,0 -0.5973,-0.0213 -1.1307,-0.0213 0.043,-0.78933 0.043,-1.62133 0,-0.85334 -0.021,-1.6 -0.021,-0.768 -0.043,-1.36534 0,-0.61866 0.021,-0.96 0.768,-0.0427 1.344,-0.0427 0.576,-0.0213 1.0454,-0.0213 0.4906,0 0.9386,0.0213 0.448,0.0213 0.9814,0.0427 -0.043,-0.23466 0,-0.46933 0.043,-0.256 0,-0.55467 -0.512,-0.064 -0.96,-0.064 -0.4267,-0.0213 -0.9174,0 -0.4906,0 -1.088,0.0427 -0.576,0.0213 -1.344,0.0213 -0.043,-0.34133 -0.043,-0.55466 0,-0.21334 0.021,-0.40534 0.021,-0.21333 0.021,-0.448 0.021,-0.256 0,-0.66133 z m 4.3094,6.57067 q 0.021,-0.49067 0.043,-0.78934 0.043,-0.29866 -0.043,-0.61866 -0.2134,-0.0427 -0.384,-0.0427 -0.1707,-0.0213 -0.384,-0.0213 -0.192,0 -0.4907,0.0213 -0.2773,0.0213 -0.704,0.0427 -0.043,0.36266 -0.043,0.68266 0,0.29867 0.043,0.72534 0.3627,-0.0213 0.6187,-0.0213 0.2773,0 0.4906,0.0213 0.2134,0 0.4054,0.0213 0.192,0 0.448,-0.0213 z" />
          <path
             id="path4560"
             style="font-style:normal;font-variant:normal;font-weight:normal;font-stretch:normal;font-family:Cratense;-inkscape-font-specification:Cratense;fill:#000000;fill-opacity:1;stroke:none;stroke-width:0.12127893"
             d="m -2053.2203,-695.33302 q 0,0.93867 0,1.55733 0,0.61867 -0.021,1.13067 0,0.512 0,1.06667 0,0.53333 0.021,1.30133 0.2134,0.0427 0.3627,0.0213 0.1493,-0.0213 0.384,-0.0213 0.064,0.34133 0.064,0.59733 0.021,0.256 0,0.49067 0,0.23467 -0.021,0.46933 -0.021,0.23467 -0.043,0.49067 -0.192,0.0427 -0.384,0.0213 -0.1707,-0.0213 -0.3627,-0.0213 -0.043,0.512 -0.043,0.93867 0,0.42666 0,0.91733 0,0.46933 0.021,1.10933 0.021,0.61867 0.021,1.536 0.1707,0.0427 0.384,0 0.2134,-0.064 0.3627,0 0.064,0.29867 0.064,0.512 0.021,0.192 0,0.40534 -0.021,0.192 -0.043,0.46933 -0.021,0.256 -0.021,0.66133 -0.512,0.064 -0.8107,0.064 -0.2986,0 -0.5973,-0.0213 -0.2773,0 -0.64,-0.0213 -0.3627,-0.0213 -1.024,-0.0213 0,-1.00266 0,-1.68533 0.021,-0.68267 0.043,-1.152 0.021,-0.49067 0.021,-0.85333 0.021,-0.36267 0.021,-0.74667 0,-0.40533 -0.021,-0.896 -0.021,-0.49067 -0.064,-1.216 -0.128,0.0427 -0.3413,0.0213 -0.2134,-0.0213 -0.4054,-0.0213 -0.1066,-0.55467 -0.085,-0.96 0.043,-0.42667 0.085,-1.088 0.2347,0 0.3627,0.0213 0.128,0.0213 0.384,-0.0213 0.043,-0.768 0.043,-1.36533 0,-0.59734 -0.021,-1.152 0,-0.576 -0.021,-1.17334 -0.021,-0.59733 0,-1.36533 0.5547,-0.10667 1.1307,-0.0427 0.576,0.0427 1.1946,0.0427 z" />
          <path
             id="path4562"
             style="font-style:normal;font-variant:normal;font-weight:normal;font-stretch:normal;font-family:Cratense;-inkscape-font-specification:Cratense;fill:#000000;fill-opacity:1;stroke:none;stroke-width:0.12127893"
             d="m -2051.3166,-681.70102 q -0.064,-2.53867 0,-4.672 0.064,-2.15467 0,-3.968 0.5547,-0.10667 1.0667,-0.0427 0.5333,0.0427 1.28,0.0427 0.021,1.152 0,2.06933 0,0.91734 -0.043,1.87734 -0.021,0.93866 -0.021,2.048 0,1.10933 0.064,2.64533 -0.4267,0.0427 -0.6614,0.0427 -0.2133,0 -0.4266,-0.0213 -0.192,0 -0.4694,0 -0.256,-0.0213 -0.7893,-0.0213 z m 0,-9.30133 q -0.021,-0.27734 0,-0.576 0.043,-0.32 0,-0.64 0.3627,0 0.64,0 0.2773,-0.0213 0.5333,-0.0213 0.256,-0.0213 0.5334,0 0.2773,0 0.64,0.0213 0.043,0.29866 0.021,0.55466 0,0.256 -0.021,0.66134 -0.2774,0 -0.512,0.0213 -0.2134,0.0213 -0.4694,0.0213 -0.256,0 -0.576,0 -0.32,0 -0.7893,-0.0427 z" />
          <path
             id="path4564"
             style="font-style:normal;font-variant:normal;font-weight:normal;font-stretch:normal;font-family:Cratense;-inkscape-font-specification:Cratense;fill:#000000;fill-opacity:1;stroke:none;stroke-width:0.12127893"
             d="m -2040.0256,-690.34102 q 0.021,-0.576 0.043,-1.32267 0.021,-0.64 0,-1.55733 0,-0.91733 -0.043,-2.09067 0.512,0 0.8533,0.0213 0.3627,0 0.6827,0.0213 0.3413,0 0.704,0 0.3627,0 0.8747,-0.0427 0.021,0.42667 0.021,0.66134 0.021,0.23466 0.021,0.42666 0,0.17067 -0.021,0.384 -0.021,0.21334 -0.021,0.59734 -0.2347,0 -0.384,0.0213 -0.1494,0.0213 -0.384,-0.0213 -0.021,0.85333 -0.021,1.92 0,1.04533 0,2.176 0,1.10933 0,2.24 0.021,1.10933 0.021,2.112 0.021,0.98133 0.021,1.81333 0,0.81067 -0.021,1.30133 -0.8747,-0.0427 -1.5147,-0.0427 -0.6187,0 -1.3227,0.0213 -0.6826,0 -1.5786,0.0213 -0.8747,0 -2.2614,0 0,-1.55733 0,-2.688 0,-1.13066 -0.021,-2.06933 0,-0.96 0,-1.856 0,-0.91733 0.021,-2.048 1.0454,0.0427 1.8347,0.064 0.8107,0 1.3653,-0.0213 0.64,-0.0213 1.1307,-0.0427 z m 0,2.06933 q -0.3627,0.0213 -0.5973,0.0213 -0.2347,-0.0213 -0.448,-0.0213 -0.192,0 -0.4054,0 -0.192,-0.0213 -0.512,0 -0.043,0.768 -0.064,1.30134 0,0.53333 0,1.00266 0,0.46934 0.021,0.98134 0.021,0.512 0.043,1.23733 0.5547,0.0853 0.96,0.0853 0.4054,-0.0213 1.0027,-0.0853 0,-0.59733 0,-1.13067 0.021,-0.53333 0.021,-1.06666 0.021,-0.53334 0,-1.088 0,-0.576 -0.021,-1.23734 z" />
          <path
             id="path4566"
             style="font-style:normal;font-variant:normal;font-weight:normal;font-stretch:normal;font-family:Cratense;-inkscape-font-specification:Cratense;fill:#000000;fill-opacity:1;stroke:none;stroke-width:0.12127893"
             d="m -2036.6916,-681.70102 q -0.064,-2.53867 0,-4.672 0.064,-2.15467 0,-3.968 0.5547,-0.10667 1.0667,-0.0427 0.5333,0.0427 1.28,0.0427 0.021,1.152 0,2.06933 0,0.91734 -0.043,1.87734 -0.021,0.93866 -0.021,2.048 0,1.10933 0.064,2.64533 -0.4267,0.0427 -0.6614,0.0427 -0.2133,0 -0.4266,-0.0213 -0.192,0 -0.4694,0 -0.256,-0.0213 -0.7893,-0.0213 z m 0,-9.30133 q -0.021,-0.27734 0,-0.576 0.043,-0.32 0,-0.64 0.3627,0 0.64,0 0.2773,-0.0213 0.5333,-0.0213 0.256,-0.0213 0.5334,0 0.2773,0 0.64,0.0213 0.043,0.29866 0.021,0.55466 0,0.256 -0.021,0.66134 -0.2774,0 -0.512,0.0213 -0.2134,0.0213 -0.4694,0.0213 -0.256,0 -0.576,0 -0.32,0 -0.7893,-0.0427 z" />
          <path
             id="path4568"
             style="font-style:normal;font-variant:normal;font-weight:normal;font-stretch:normal;font-family:Cratense;-inkscape-font-specification:Cratense;fill:#000000;fill-opacity:1;stroke:none;stroke-width:0.12127893"
             d="m -2029.7739,-690.34102 q 1.2373,0.064 2.048,0.064 0.832,-0.0213 1.5146,-0.0427 0.704,-0.0427 1.408,-0.0427 0.704,-0.0213 1.728,0.0213 0.085,0.40533 0,0.896 -0.064,0.49067 0,1.17333 -0.96,0.0427 -2.048,0.0213 -1.0666,-0.0213 -2.2826,-0.0213 0,0.17067 -0.021,0.29867 -0.021,0.10667 -0.043,0.21333 0,0.10667 0,0.23467 0.021,0.10667 0.064,0.29867 0.704,0.0427 1.2586,0.0427 0.576,-0.0213 1.0667,-0.0427 0.512,-0.0213 0.9813,-0.0213 0.4694,0 1.024,0.0213 0,0 0,0.0853 0,1.024 0.043,2.432 0.064,1.408 -0.043,3.02933 -0.96,0.10667 -1.6853,0.10667 -0.7253,0.0213 -1.4507,-0.0213 -0.7253,-0.0213 -1.5573,-0.064 -0.832,-0.0213 -2.0053,-0.0213 0.043,-0.40533 0.021,-0.61866 0,-0.21334 -0.021,-0.384 0,-0.192 -0.021,-0.40534 -0.021,-0.23466 0.021,-0.66133 0.6826,-0.0213 1.216,0 0.5333,0.0213 1.024,0.0427 0.4906,0.0213 0.9813,0.0213 0.512,0 1.1307,-0.064 0,-0.27733 0,-0.448 0.021,-0.17067 0.021,-0.32 0.021,-0.14933 0,-0.27733 0,-0.14934 -0.021,-0.36267 -0.576,0.0427 -1.024,0.0427 -0.448,-0.0213 -0.9387,-0.0427 -0.4693,-0.0213 -1.0453,-0.0213 -0.5547,-0.0213 -1.344,0.0213 -0.021,-0.74667 -0.021,-1.25867 0.021,-0.53333 0.043,-1.04533 0.021,-0.53333 0.021,-1.19467 0,-0.66133 -0.043,-1.68533 z" />
          <path
             id="path4570"
             style="font-style:normal;font-variant:normal;font-weight:normal;font-stretch:normal;font-family:Cratense;-inkscape-font-specification:Cratense;fill:#000000;fill-opacity:1;stroke:none;stroke-width:0.12127893"
             d="m -2022.0453,-681.70102 q 0.021,-1.6 0,-2.70933 -0.021,-1.10934 -0.043,-2.02667 -0.021,-0.93867 -0.021,-1.83467 0,-0.896 0.064,-2.09066 1.216,0.0427 2.0054,0.0213 0.8106,-0.0427 1.408,-0.064 0.6186,-0.0427 1.152,-0.0427 0.5333,0 1.1733,0.0853 0,0.448 0.021,0.704 0.021,0.256 0.021,0.46933 0.021,0.192 0,0.384 0,0.192 -0.043,0.512 -0.5547,-0.0213 -0.9173,0 -0.3627,0 -0.7254,0.0213 -0.3413,0.0213 -0.7466,0.0213 -0.384,0 -1.0027,-0.0427 0.021,0.74667 0,1.25867 -0.021,0.512 -0.043,0.98133 0,0.448 -0.021,0.98133 0,0.53334 0.064,1.30134 0.5547,-0.0213 0.9813,0 0.448,0.0213 0.832,0.064 0.384,0.0213 0.7467,0.0213 0.384,0 0.832,-0.0853 0.021,0.34133 0.021,0.55466 0.021,0.21334 0.021,0.42667 0,0.192 -0.021,0.448 0,0.23467 -0.021,0.64 -0.7467,0.0853 -1.28,0.0853 -0.5333,0.0213 -1.1093,0 -0.576,0 -1.3654,-0.0427 -0.768,-0.0213 -1.984,-0.0427 z" />
          <path
             id="path4572"
             style="font-style:normal;font-variant:normal;font-weight:normal;font-stretch:normal;font-family:Cratense;-inkscape-font-specification:Cratense;fill:#000000;fill-opacity:1;stroke:none;stroke-width:0.12127893"
             d="m -2015.1916,-681.70102 q -0.064,-2.53867 0,-4.672 0.064,-2.15467 0,-3.968 0.5547,-0.10667 1.0667,-0.0427 0.5333,0.0427 1.28,0.0427 0.021,1.152 0,2.06933 0,0.91734 -0.043,1.87734 -0.021,0.93866 -0.021,2.048 0,1.10933 0.064,2.64533 -0.4267,0.0427 -0.6614,0.0427 -0.2133,0 -0.4266,-0.0213 -0.192,0 -0.4694,0 -0.256,-0.0213 -0.7893,-0.0213 z m 0,-9.30133 q -0.021,-0.27734 0,-0.576 0.043,-0.32 0,-0.64 0.3627,0 0.64,0 0.2773,-0.0213 0.5333,-0.0213 0.256,-0.0213 0.5334,0 0.2773,0 0.64,0.0213 0.043,0.29866 0.021,0.55466 0,0.256 -0.021,0.66134 -0.2774,0 -0.512,0.0213 -0.2134,0.0213 -0.4694,0.0213 -0.256,0 -0.576,0 -0.32,0 -0.7893,-0.0427 z" />
          <path
             id="path4574"
             style="font-style:normal;font-variant:normal;font-weight:normal;font-stretch:normal;font-family:Cratense;-inkscape-font-specification:Cratense;fill:#000000;fill-opacity:1;stroke:none;stroke-width:0.12127893"
             d="m -2011.6499,-690.34102 q 1.1093,-0.0853 1.984,-0.0853 0.896,-0.0213 1.664,0 0.7893,0.0213 1.5146,0.064 0.7254,0.0213 1.5147,0.0213 -0.043,0.93867 -0.043,1.64267 0.021,0.68266 0.043,1.25866 0.021,0.576 0.021,1.10934 0.021,0.53333 -0.021,1.17333 -1.1093,-0.128 -2.2613,-0.0427 -1.1307,0.064 -2.0694,0.0427 -0.043,0.36267 0.021,0.704 0.064,0.32 -0.021,0.704 0.704,0.0427 1.28,0.0427 0.5974,-0.0213 1.1094,-0.0427 0.5333,-0.0213 1.0026,-0.0213 0.4907,-0.0213 0.9387,0.0213 0.021,0.36267 0,0.576 0,0.21333 -0.021,0.40533 -0.021,0.192 -0.021,0.42667 0,0.23467 0.043,0.66133 -0.7893,0.0213 -1.3867,0.0213 -0.576,0.0213 -1.0666,0 -0.4694,0 -0.9174,-0.0213 -0.4266,0 -0.9173,0 -0.4693,-0.0213 -1.0453,-0.0213 -0.576,0 -1.344,0.0213 0.021,-1.408 0,-2.58133 -0.021,-1.19467 -0.043,-2.21867 -0.021,-1.04533 -0.021,-1.984 0,-0.93866 0.064,-1.87733 z m 4.3306,3.11467 q 0,-0.10667 0,-0.192 0,-0.0853 -0.021,-0.192 0,-0.10667 0,-0.256 0,-0.14934 0.021,-0.40534 -0.512,-0.064 -0.96,0 -0.448,0.0427 -1.024,0 0,0.23467 -0.021,0.384 0,0.128 0,0.23467 0,0.10667 0,0.21333 0,0.0853 0.021,0.21334 0.4267,0 0.6827,0.0213 0.2773,0.0213 0.4693,0.0427 0.2134,0 0.384,0 0.192,-0.0213 0.448,-0.064 z" />
          <path
             id="path4576"
             style="font-style:normal;font-variant:normal;font-weight:normal;font-stretch:normal;font-family:Cratense;-inkscape-font-specification:Cratense;fill:#000000;fill-opacity:1;stroke:none;stroke-width:0.12127893"
             d="m -2001.5116,-688.31435 q -0.064,0.576 -0.085,1.472 0,0.87466 0.021,1.81333 0.021,0.93867 0.043,1.83467 0.021,0.896 0.021,1.49333 -0.384,0 -0.6827,0.0213 -0.2986,0.0427 -0.576,0.064 -0.2773,0.0213 -0.5333,0 -0.256,-0.0213 -0.576,-0.0853 -0.043,-1.13067 -0.021,-2.38933 0.021,-1.25867 0.043,-2.496 0.043,-1.25867 0.043,-2.432 0,-1.17334 -0.064,-2.13334 0.448,-0.0213 0.7467,-0.0213 0.2986,0 0.5333,0.0213 0.256,0 0.4907,0 0.2346,0 0.5973,0 -0.021,0.10667 -0.021,0.256 0.021,0.128 0.021,0.23467 v 0.256 q 0.64,0.0427 1.344,0.0427 0.6187,0.0213 1.3867,0.0213 0.768,-0.0213 1.6213,-0.064 0,1.23733 0,2.58133 0,1.344 0,2.688 0.021,1.344 0.021,2.60267 0,1.25867 0,2.304 0,1.04533 0,1.792 0,0.768 -0.021,1.088 -0.32,0.0427 -0.5547,0.0427 -0.2346,0 -0.4906,-0.0213 -0.2347,-0.0213 -0.5547,-0.0427 -0.2987,0 -0.768,0.0213 0,-1.10933 0.021,-2.496 0.021,-1.38667 0.021,-2.85867 0.021,-1.472 0.021,-2.92266 0,-1.45067 -0.064,-2.688 -0.2987,-0.0427 -0.6187,-0.0213 -0.2986,0 -0.576,0.0213 -0.256,0.0213 -0.4906,0.0427 -0.2134,0 -0.2987,-0.0427 z" />
          <path
             id="path4578"
             style="font-style:normal;font-variant:normal;font-weight:normal;font-stretch:normal;font-family:Cratense;-inkscape-font-specification:Cratense;fill:#000000;fill-opacity:1;stroke:none;stroke-width:0.12127893"
             d="m -1996.0016,-690.34102 q 1.2373,0.0427 2.1547,0.0213 0.9173,-0.0213 1.664,-0.0213 0.7466,-0.0213 1.4293,-0.0213 0.6827,-0.0213 1.4507,0.0213 0.064,0.704 0.064,1.25867 0,0.55466 -0.021,1.10933 -0.021,0.53333 -0.043,1.152 0,0.61867 0,1.45067 -0.6187,0.17066 -1.1094,0.256 -0.4906,0.0853 -0.9813,0.14933 -0.4907,0.0427 -1.024,0.128 -0.5333,0.064 -1.216,0.23467 0.021,0.192 -0.021,0.40533 -0.021,0.21333 0.021,0.448 0.7893,0.064 1.3013,0.064 0.512,0 0.9387,0 0.448,-0.0213 0.9173,-0.0427 0.4694,-0.0213 1.1734,-0.0213 0.021,0.49067 0,0.74667 0,0.256 0,0.448 0,0.17066 -0.021,0.36266 0,0.192 0.021,0.512 -0.9814,-0.0427 -1.6854,-0.0213 -0.704,0.0213 -1.408,0.0427 -0.704,0.0427 -1.536,0.0427 -0.832,0.0213 -2.0693,-0.064 0,-0.832 -0.021,-1.38666 0,-0.576 -0.021,-1.088 -0.021,-0.512 -0.021,-1.04534 0.021,-0.55466 0.064,-1.36533 0.7893,-0.14933 1.344,-0.23467 0.576,-0.0853 1.0453,-0.14933 0.4694,-0.0853 0.9174,-0.17067 0.4693,-0.0853 1.0453,-0.21333 0,-0.192 0,-0.29867 0,-0.10666 0,-0.192 0.021,-0.10666 0.021,-0.192 0,-0.10666 -0.021,-0.256 -1.0027,-0.0853 -2.0267,-0.0213 -1.024,0.064 -2.3253,0.0213 -0.043,-0.49066 0,-0.98133 0.043,-0.512 0,-1.088 z" />
          <path
             id="path4580"
             style="font-style:normal;font-variant:normal;font-weight:normal;font-stretch:normal;font-family:Cratense;-inkscape-font-specification:Cratense;fill:#000000;fill-opacity:1;stroke:none;stroke-width:0.12127893"
             d="m -1988.3796,-690.34102 q 1.152,-0.10667 2.048,-0.10667 0.9173,-0.0213 1.7067,0 0.7893,0.0213 1.472,0.064 0.704,0.0427 1.4293,0.0427 0.021,0.87467 0,1.984 -0.021,1.088 -0.043,2.304 -0.021,1.216 -0.021,2.51733 0,1.30134 0.064,2.58134 -0.32,0.0427 -0.5973,0.0427 -0.256,0 -0.5334,-0.0213 -0.256,0 -0.5546,-0.0213 -0.2774,0 -0.6614,0 0.021,-0.256 0,-0.40534 0,-0.128 0,-0.34133 -0.3626,0.0427 -0.896,0.0427 -0.512,0 -1.088,-0.0213 -0.576,0 -1.1946,0 -0.5974,-0.0213 -1.1307,-0.0213 0.043,-0.78933 0.043,-1.62133 0,-0.85334 -0.021,-1.6 -0.021,-0.768 -0.043,-1.36534 0,-0.61866 0.021,-0.96 0.768,-0.0427 1.344,-0.0427 0.576,-0.0213 1.0453,-0.0213 0.4907,0 0.9387,0.0213 0.448,0.0213 0.9813,0.0427 -0.043,-0.23466 0,-0.46933 0.043,-0.256 0,-0.55467 -0.512,-0.064 -0.96,-0.064 -0.4266,-0.0213 -0.9173,0 -0.4907,0 -1.088,0.0427 -0.576,0.0213 -1.344,0.0213 -0.043,-0.34133 -0.043,-0.55466 0,-0.21334 0.021,-0.40534 0.021,-0.21333 0.021,-0.448 0.021,-0.256 0,-0.66133 z m 4.3093,6.57067 q 0.021,-0.49067 0.043,-0.78934 0.043,-0.29866 -0.043,-0.61866 -0.2133,-0.0427 -0.384,-0.0427 -0.1706,-0.0213 -0.384,-0.0213 -0.192,0 -0.4906,0.0213 -0.2774,0.0213 -0.704,0.0427 -0.043,0.36266 -0.043,0.68266 0,0.29867 0.043,0.72534 0.3626,-0.0213 0.6186,-0.0213 0.2774,0 0.4907,0.0213 0.2133,0 0.4053,0.0213 0.192,0 0.448,-0.0213 z" />
          <path
             id="path4582"
             style="font-style:normal;font-variant:normal;font-weight:normal;font-stretch:normal;font-family:Cratense;-inkscape-font-specification:Cratense;fill:#000000;fill-opacity:1;stroke:none;stroke-width:0.12127893"
             d="m -1978.4699,-681.65835 q -0.2347,0.0213 -0.5547,0 -0.2987,0 -0.6187,-0.0213 -0.32,-0.0213 -0.6186,-0.0213 -0.2987,-0.0213 -0.4907,-0.0213 -0.021,-0.29867 -0.021,-0.78934 0.021,-0.49066 0.021,-0.98133 0.2133,0.0213 0.512,0.0427 0.2987,0 0.5973,0 0.32,0 0.5974,0 0.2986,0 0.4906,0 0.021,0.27733 0.021,0.448 0.021,0.14933 0.043,0.29866 0.021,0.128 0.021,0.32 0,0.192 -0.021,0.512 z m -0.085,-2.56 q -0.4266,0.064 -0.96,0.0213 -0.512,-0.064 -1.3013,-0.0853 0,-1.28 0.021,-2.66667 0.043,-1.408 0.064,-2.77333 0.043,-1.38667 0.043,-2.66667 0,-1.30133 -0.064,-2.34667 0.704,0.0213 1.3653,0 0.6614,-0.0213 0.896,0.0213 0.021,1.088 0.021,2.53866 0.021,1.42934 0,2.90134 0,1.472 -0.021,2.816 -0.021,1.344 -0.064,2.24 z" />
        </g>
      </g>
    </g>
  </g>
</svg>
